%TF.GenerationSoftware,KiCad,Pcbnew,9.0.0*%
%TF.CreationDate,2025-04-10T20:16:36-07:00*%
%TF.ProjectId,ESP32_S2_SOLO_N4 Kicad Reference Design,45535033-325f-4533-925f-534f4c4f5f4e,rev?*%
%TF.SameCoordinates,Original*%
%TF.FileFunction,Drillmap*%
%TF.FilePolarity,Positive*%
%FSLAX45Y45*%
G04 Gerber Fmt 4.5, Leading zero omitted, Abs format (unit mm)*
G04 Created by KiCad (PCBNEW 9.0.0) date 2025-04-10 20:16:36*
%MOMM*%
%LPD*%
G01*
G04 APERTURE LIST*
%ADD10C,0.100000*%
%ADD11C,0.200000*%
%ADD12C,0.250000*%
%ADD13C,0.270000*%
G04 APERTURE END LIST*
D10*
X9880600Y-16497300D02*
X6591300Y-16497300D01*
X4991100Y-6764700D02*
X4991100Y-6631940D01*
X5600700Y-13174300D02*
G75*
G02*
X4991100Y-12564700I0J609600D01*
G01*
X5981700Y-13182600D02*
G75*
G02*
X6591300Y-13792200I0J-609600D01*
G01*
X6591300Y-16497300D02*
X6591300Y-13792200D01*
X5600700Y-6022340D02*
X9880600Y-6022340D01*
X5600700Y-13174300D02*
X5981700Y-13182600D01*
X4991100Y-6764700D02*
X4991100Y-12564700D01*
X4991100Y-6631940D02*
G75*
G02*
X5600700Y-6022340I609600J0D01*
G01*
X9880600Y-6155100D02*
X9880600Y-6022340D01*
X9880600Y-6155100D02*
X9880600Y-16497300D01*
D11*
D10*
X5140960Y-7084060D02*
X5171440Y-7114540D01*
X5171440Y-7084060D02*
X5140960Y-7114540D01*
X5140960Y-12100560D02*
X5171440Y-12131040D01*
X5171440Y-12100560D02*
X5140960Y-12131040D01*
X5153660Y-6791960D02*
X5184140Y-6822440D01*
X5184140Y-6791960D02*
X5153660Y-6822440D01*
X5267960Y-11554460D02*
X5298440Y-11584940D01*
X5298440Y-11554460D02*
X5267960Y-11584940D01*
X5941060Y-11046460D02*
X5971540Y-11076940D01*
X5971540Y-11046460D02*
X5941060Y-11076940D01*
X6055360Y-6626860D02*
X6085840Y-6657340D01*
X6085840Y-6626860D02*
X6055360Y-6657340D01*
X6182360Y-12644120D02*
X6212840Y-12674600D01*
X6212840Y-12644120D02*
X6182360Y-12674600D01*
X6207760Y-9039860D02*
X6238240Y-9070340D01*
X6238240Y-9039860D02*
X6207760Y-9070340D01*
X6220460Y-11986260D02*
X6250940Y-12016740D01*
X6250940Y-11986260D02*
X6220460Y-12016740D01*
X6233160Y-8138160D02*
X6263640Y-8168640D01*
X6263640Y-8138160D02*
X6233160Y-8168640D01*
X6245860Y-9941560D02*
X6276340Y-9972040D01*
X6276340Y-9941560D02*
X6245860Y-9972040D01*
X6258560Y-11262360D02*
X6289040Y-11292840D01*
X6289040Y-11262360D02*
X6258560Y-11292840D01*
X6512560Y-11165840D02*
X6543040Y-11196320D01*
X6543040Y-11165840D02*
X6512560Y-11196320D01*
X6512560Y-11554460D02*
X6543040Y-11584940D01*
X6543040Y-11554460D02*
X6512560Y-11584940D01*
X6512560Y-13073380D02*
X6543040Y-13103860D01*
X6543040Y-13073380D02*
X6512560Y-13103860D01*
X6519850Y-10726684D02*
X6550330Y-10757164D01*
X6550330Y-10726684D02*
X6519850Y-10757164D01*
X6525260Y-11808460D02*
X6555740Y-11838940D01*
X6555740Y-11808460D02*
X6525260Y-11838940D01*
X6537960Y-10538460D02*
X6568440Y-10568940D01*
X6568440Y-10538460D02*
X6537960Y-10568940D01*
X6537960Y-10881360D02*
X6568440Y-10911840D01*
X6568440Y-10881360D02*
X6537960Y-10911840D01*
X6703060Y-16355060D02*
X6733540Y-16385540D01*
X6733540Y-16355060D02*
X6703060Y-16385540D01*
X6791960Y-14589760D02*
X6822440Y-14620240D01*
X6822440Y-14589760D02*
X6791960Y-14620240D01*
X6791960Y-15532100D02*
X6822440Y-15562580D01*
X6822440Y-15532100D02*
X6791960Y-15562580D01*
X6870700Y-12903200D02*
X6901180Y-12933680D01*
X6901180Y-12903200D02*
X6870700Y-12933680D01*
X6918960Y-14437360D02*
X6949440Y-14467840D01*
X6949440Y-14437360D02*
X6918960Y-14467840D01*
X6921500Y-13929360D02*
X6951980Y-13959840D01*
X6951980Y-13929360D02*
X6921500Y-13959840D01*
X6944360Y-11554460D02*
X6974840Y-11584940D01*
X6974840Y-11554460D02*
X6944360Y-11584940D01*
X6969760Y-10106660D02*
X7000240Y-10137140D01*
X7000240Y-10106660D02*
X6969760Y-10137140D01*
X6982460Y-12405360D02*
X7012940Y-12435840D01*
X7012940Y-12405360D02*
X6982460Y-12435840D01*
X7020560Y-11186160D02*
X7051040Y-11216640D01*
X7051040Y-11186160D02*
X7020560Y-11216640D01*
X7147560Y-11059160D02*
X7178040Y-11089640D01*
X7178040Y-11059160D02*
X7147560Y-11089640D01*
X7198360Y-10043160D02*
X7228840Y-10073640D01*
X7228840Y-10043160D02*
X7198360Y-10073640D01*
X7249160Y-12659360D02*
X7279640Y-12689840D01*
X7279640Y-12659360D02*
X7249160Y-12689840D01*
X7274560Y-10500360D02*
X7305040Y-10530840D01*
X7305040Y-10500360D02*
X7274560Y-10530840D01*
X7287260Y-12176760D02*
X7317740Y-12207240D01*
X7317740Y-12176760D02*
X7287260Y-12207240D01*
X7383780Y-14820900D02*
X7414260Y-14851380D01*
X7414260Y-14820900D02*
X7383780Y-14851380D01*
X7388860Y-6690360D02*
X7419340Y-6720840D01*
X7419340Y-6690360D02*
X7388860Y-6720840D01*
X7388860Y-12976860D02*
X7419340Y-13007340D01*
X7419340Y-12976860D02*
X7388860Y-13007340D01*
X7401560Y-9192260D02*
X7432040Y-9222740D01*
X7432040Y-9192260D02*
X7401560Y-9222740D01*
X7452360Y-7579360D02*
X7482840Y-7609840D01*
X7482840Y-7579360D02*
X7452360Y-7609840D01*
X7503160Y-11783060D02*
X7533640Y-11813540D01*
X7533640Y-11783060D02*
X7503160Y-11813540D01*
X7515860Y-11097260D02*
X7546340Y-11127740D01*
X7546340Y-11097260D02*
X7515860Y-11127740D01*
X7541260Y-13103860D02*
X7571740Y-13134340D01*
X7571740Y-13103860D02*
X7541260Y-13134340D01*
X7592060Y-9903460D02*
X7622540Y-9933940D01*
X7622540Y-9903460D02*
X7592060Y-9933940D01*
X7604760Y-12329160D02*
X7635240Y-12359640D01*
X7635240Y-12329160D02*
X7604760Y-12359640D01*
X7617460Y-12887960D02*
X7647940Y-12918440D01*
X7647940Y-12887960D02*
X7617460Y-12918440D01*
X7653020Y-13741400D02*
X7683500Y-13771880D01*
X7683500Y-13741400D02*
X7653020Y-13771880D01*
X7655560Y-12989560D02*
X7686040Y-13020040D01*
X7686040Y-12989560D02*
X7655560Y-13020040D01*
X7717760Y-9649460D02*
X7748240Y-9679940D01*
X7748240Y-9649460D02*
X7717760Y-9679940D01*
X7719060Y-14196060D02*
X7749540Y-14226540D01*
X7749540Y-14196060D02*
X7719060Y-14226540D01*
X7731760Y-13097103D02*
X7762240Y-13127583D01*
X7762240Y-13097103D02*
X7731760Y-13127583D01*
X7846060Y-8023860D02*
X7876540Y-8054340D01*
X7876540Y-8023860D02*
X7846060Y-8054340D01*
X7846060Y-11059160D02*
X7876540Y-11089640D01*
X7876540Y-11059160D02*
X7846060Y-11089640D01*
X7846060Y-12202160D02*
X7876540Y-12232640D01*
X7876540Y-12202160D02*
X7846060Y-12232640D01*
X7909560Y-15212060D02*
X7940040Y-15242540D01*
X7940040Y-15212060D02*
X7909560Y-15242540D01*
X7983743Y-6920643D02*
X8014223Y-6951123D01*
X8014223Y-6920643D02*
X7983743Y-6951123D01*
X7998460Y-10932160D02*
X8028940Y-10962640D01*
X8028940Y-10932160D02*
X7998460Y-10962640D01*
X8015880Y-6268720D02*
X8046360Y-6299200D01*
X8046360Y-6268720D02*
X8015880Y-6299200D01*
X8018420Y-7282180D02*
X8048900Y-7312660D01*
X8048900Y-7282180D02*
X8018420Y-7312660D01*
X8112760Y-10805160D02*
X8143240Y-10835640D01*
X8143240Y-10805160D02*
X8112760Y-10835640D01*
X8120220Y-6907880D02*
X8150700Y-6938360D01*
X8150700Y-6907880D02*
X8120220Y-6938360D01*
X8176260Y-10347960D02*
X8206740Y-10378440D01*
X8206740Y-10347960D02*
X8176260Y-10378440D01*
X8188960Y-9687560D02*
X8219440Y-9718040D01*
X8219440Y-9687560D02*
X8188960Y-9718040D01*
X8188960Y-9966960D02*
X8219440Y-9997440D01*
X8219440Y-9966960D02*
X8188960Y-9997440D01*
X8201660Y-10678160D02*
X8232140Y-10708640D01*
X8232140Y-10678160D02*
X8201660Y-10708640D01*
X8252460Y-9789160D02*
X8282940Y-9819640D01*
X8282940Y-9789160D02*
X8252460Y-9819640D01*
X8265160Y-10551160D02*
X8295640Y-10581640D01*
X8295640Y-10551160D02*
X8265160Y-10581640D01*
X8379460Y-9878060D02*
X8409940Y-9908540D01*
X8409940Y-9878060D02*
X8379460Y-9908540D01*
X8481060Y-9116060D02*
X8511540Y-9146540D01*
X8511540Y-9116060D02*
X8481060Y-9146540D01*
X8493760Y-7922260D02*
X8524240Y-7952740D01*
X8524240Y-7922260D02*
X8493760Y-7952740D01*
X8531860Y-15199360D02*
X8562340Y-15229840D01*
X8562340Y-15199360D02*
X8531860Y-15229840D01*
X8557260Y-16329660D02*
X8587740Y-16360140D01*
X8587740Y-16329660D02*
X8557260Y-16360140D01*
X8582660Y-15656560D02*
X8613140Y-15687040D01*
X8613140Y-15656560D02*
X8582660Y-15687040D01*
X8590280Y-12862560D02*
X8620760Y-12893040D01*
X8620760Y-12862560D02*
X8590280Y-12893040D01*
X8595360Y-13510260D02*
X8625840Y-13540740D01*
X8625840Y-13510260D02*
X8595360Y-13540740D01*
X8633460Y-12189460D02*
X8663940Y-12219940D01*
X8663940Y-12189460D02*
X8633460Y-12219940D01*
X8633460Y-14411960D02*
X8663940Y-14442440D01*
X8663940Y-14411960D02*
X8633460Y-14442440D01*
X8684260Y-6525260D02*
X8714740Y-6555740D01*
X8714740Y-6525260D02*
X8684260Y-6555740D01*
X8684260Y-11757660D02*
X8714740Y-11788140D01*
X8714740Y-11757660D02*
X8684260Y-11788140D01*
X8696960Y-6215380D02*
X8727440Y-6245860D01*
X8727440Y-6215380D02*
X8696960Y-6245860D01*
X8798560Y-10916860D02*
X8829040Y-10947340D01*
X8829040Y-10916860D02*
X8798560Y-10947340D01*
X8836660Y-10297160D02*
X8867140Y-10327640D01*
X8867140Y-10297160D02*
X8836660Y-10327640D01*
X8900160Y-9293860D02*
X8930640Y-9324340D01*
X8930640Y-9293860D02*
X8900160Y-9324340D01*
X9446260Y-10081260D02*
X9476740Y-10111740D01*
X9476740Y-10081260D02*
X9446260Y-10111740D01*
X9458960Y-10906760D02*
X9489440Y-10937240D01*
X9489440Y-10906760D02*
X9458960Y-10937240D01*
X9458960Y-11567160D02*
X9489440Y-11597640D01*
X9489440Y-11567160D02*
X9458960Y-11597640D01*
X9535160Y-15478760D02*
X9565640Y-15509240D01*
X9565640Y-15478760D02*
X9535160Y-15509240D01*
X9591040Y-6779260D02*
X9621520Y-6809740D01*
X9621520Y-6779260D02*
X9591040Y-6809740D01*
X9598660Y-12214860D02*
X9629140Y-12245340D01*
X9629140Y-12214860D02*
X9598660Y-12245340D01*
X9598660Y-12875260D02*
X9629140Y-12905740D01*
X9629140Y-12875260D02*
X9598660Y-12905740D01*
X9598660Y-13522960D02*
X9629140Y-13553440D01*
X9629140Y-13522960D02*
X9598660Y-13553440D01*
X9687560Y-9662160D02*
X9718040Y-9692640D01*
X9718040Y-9662160D02*
X9687560Y-9692640D01*
X9700260Y-7680960D02*
X9730740Y-7711440D01*
X9730740Y-7680960D02*
X9700260Y-7711440D01*
X9712960Y-10271760D02*
X9743440Y-10302240D01*
X9743440Y-10271760D02*
X9712960Y-10302240D01*
X9763760Y-8315960D02*
X9794240Y-8346440D01*
X9794240Y-8315960D02*
X9763760Y-8346440D01*
X9763760Y-8963660D02*
X9794240Y-8994140D01*
X9794240Y-8963660D02*
X9763760Y-8994140D01*
X9801860Y-9547860D02*
X9832340Y-9578340D01*
X9832340Y-9547860D02*
X9801860Y-9578340D01*
X5423200Y-6764700D02*
G75*
G02*
X5373200Y-6764700I-25000J0D01*
G01*
X5373200Y-6764700D02*
G75*
G02*
X5423200Y-6764700I25000J0D01*
G01*
X5423200Y-12564700D02*
G75*
G02*
X5373200Y-12564700I-25000J0D01*
G01*
X5373200Y-12564700D02*
G75*
G02*
X5423200Y-12564700I25000J0D01*
G01*
X5482511Y-6621511D02*
G75*
G02*
X5432511Y-6621511I-25000J0D01*
G01*
X5432511Y-6621511D02*
G75*
G02*
X5482511Y-6621511I25000J0D01*
G01*
X5482511Y-6907889D02*
G75*
G02*
X5432511Y-6907889I-25000J0D01*
G01*
X5432511Y-6907889D02*
G75*
G02*
X5482511Y-6907889I25000J0D01*
G01*
X5482511Y-12421511D02*
G75*
G02*
X5432511Y-12421511I-25000J0D01*
G01*
X5432511Y-12421511D02*
G75*
G02*
X5482511Y-12421511I25000J0D01*
G01*
X5482511Y-12707889D02*
G75*
G02*
X5432511Y-12707889I-25000J0D01*
G01*
X5432511Y-12707889D02*
G75*
G02*
X5482511Y-12707889I25000J0D01*
G01*
X5625700Y-6562200D02*
G75*
G02*
X5575700Y-6562200I-25000J0D01*
G01*
X5575700Y-6562200D02*
G75*
G02*
X5625700Y-6562200I25000J0D01*
G01*
X5625700Y-6967200D02*
G75*
G02*
X5575700Y-6967200I-25000J0D01*
G01*
X5575700Y-6967200D02*
G75*
G02*
X5625700Y-6967200I25000J0D01*
G01*
X5625700Y-12362200D02*
G75*
G02*
X5575700Y-12362200I-25000J0D01*
G01*
X5575700Y-12362200D02*
G75*
G02*
X5625700Y-12362200I25000J0D01*
G01*
X5625700Y-12767200D02*
G75*
G02*
X5575700Y-12767200I-25000J0D01*
G01*
X5575700Y-12767200D02*
G75*
G02*
X5625700Y-12767200I25000J0D01*
G01*
X5768889Y-6621511D02*
G75*
G02*
X5718889Y-6621511I-25000J0D01*
G01*
X5718889Y-6621511D02*
G75*
G02*
X5768889Y-6621511I25000J0D01*
G01*
X5768889Y-6907889D02*
G75*
G02*
X5718889Y-6907889I-25000J0D01*
G01*
X5718889Y-6907889D02*
G75*
G02*
X5768889Y-6907889I25000J0D01*
G01*
X5768889Y-12421511D02*
G75*
G02*
X5718889Y-12421511I-25000J0D01*
G01*
X5718889Y-12421511D02*
G75*
G02*
X5768889Y-12421511I25000J0D01*
G01*
X5768889Y-12707889D02*
G75*
G02*
X5718889Y-12707889I-25000J0D01*
G01*
X5718889Y-12707889D02*
G75*
G02*
X5768889Y-12707889I25000J0D01*
G01*
X5828200Y-6764700D02*
G75*
G02*
X5778200Y-6764700I-25000J0D01*
G01*
X5778200Y-6764700D02*
G75*
G02*
X5828200Y-6764700I25000J0D01*
G01*
X5828200Y-12564700D02*
G75*
G02*
X5778200Y-12564700I-25000J0D01*
G01*
X5778200Y-12564700D02*
G75*
G02*
X5828200Y-12564700I25000J0D01*
G01*
X7328200Y-14477262D02*
G75*
G02*
X7278200Y-14477262I-25000J0D01*
G01*
X7278200Y-14477262D02*
G75*
G02*
X7328200Y-14477262I25000J0D01*
G01*
X7383117Y-14344679D02*
G75*
G02*
X7333117Y-14344679I-25000J0D01*
G01*
X7333117Y-14344679D02*
G75*
G02*
X7383117Y-14344679I25000J0D01*
G01*
X7383117Y-14609844D02*
G75*
G02*
X7333117Y-14609844I-25000J0D01*
G01*
X7333117Y-14609844D02*
G75*
G02*
X7383117Y-14609844I25000J0D01*
G01*
X7515700Y-14289762D02*
G75*
G02*
X7465700Y-14289762I-25000J0D01*
G01*
X7465700Y-14289762D02*
G75*
G02*
X7515700Y-14289762I25000J0D01*
G01*
X7515700Y-14664762D02*
G75*
G02*
X7465700Y-14664762I-25000J0D01*
G01*
X7465700Y-14664762D02*
G75*
G02*
X7515700Y-14664762I25000J0D01*
G01*
X7648282Y-14344679D02*
G75*
G02*
X7598282Y-14344679I-25000J0D01*
G01*
X7598282Y-14344679D02*
G75*
G02*
X7648282Y-14344679I25000J0D01*
G01*
X7648282Y-14609844D02*
G75*
G02*
X7598282Y-14609844I-25000J0D01*
G01*
X7598282Y-14609844D02*
G75*
G02*
X7648282Y-14609844I25000J0D01*
G01*
X7703200Y-14477262D02*
G75*
G02*
X7653200Y-14477262I-25000J0D01*
G01*
X7653200Y-14477262D02*
G75*
G02*
X7703200Y-14477262I25000J0D01*
G01*
X8928200Y-6877262D02*
G75*
G02*
X8878200Y-6877262I-25000J0D01*
G01*
X8878200Y-6877262D02*
G75*
G02*
X8928200Y-6877262I25000J0D01*
G01*
X8928200Y-14477262D02*
G75*
G02*
X8878200Y-14477262I-25000J0D01*
G01*
X8878200Y-14477262D02*
G75*
G02*
X8928200Y-14477262I25000J0D01*
G01*
X8983118Y-6744679D02*
G75*
G02*
X8933118Y-6744679I-25000J0D01*
G01*
X8933118Y-6744679D02*
G75*
G02*
X8983118Y-6744679I25000J0D01*
G01*
X8983118Y-7009844D02*
G75*
G02*
X8933118Y-7009844I-25000J0D01*
G01*
X8933118Y-7009844D02*
G75*
G02*
X8983118Y-7009844I25000J0D01*
G01*
X8983118Y-14344679D02*
G75*
G02*
X8933118Y-14344679I-25000J0D01*
G01*
X8933118Y-14344679D02*
G75*
G02*
X8983118Y-14344679I25000J0D01*
G01*
X8983118Y-14609844D02*
G75*
G02*
X8933118Y-14609844I-25000J0D01*
G01*
X8933118Y-14609844D02*
G75*
G02*
X8983118Y-14609844I25000J0D01*
G01*
X9115700Y-6689762D02*
G75*
G02*
X9065700Y-6689762I-25000J0D01*
G01*
X9065700Y-6689762D02*
G75*
G02*
X9115700Y-6689762I25000J0D01*
G01*
X9115700Y-7064762D02*
G75*
G02*
X9065700Y-7064762I-25000J0D01*
G01*
X9065700Y-7064762D02*
G75*
G02*
X9115700Y-7064762I25000J0D01*
G01*
X9115700Y-14289762D02*
G75*
G02*
X9065700Y-14289762I-25000J0D01*
G01*
X9065700Y-14289762D02*
G75*
G02*
X9115700Y-14289762I25000J0D01*
G01*
X9115700Y-14664762D02*
G75*
G02*
X9065700Y-14664762I-25000J0D01*
G01*
X9065700Y-14664762D02*
G75*
G02*
X9115700Y-14664762I25000J0D01*
G01*
X9248283Y-6744679D02*
G75*
G02*
X9198283Y-6744679I-25000J0D01*
G01*
X9198283Y-6744679D02*
G75*
G02*
X9248283Y-6744679I25000J0D01*
G01*
X9248283Y-7009844D02*
G75*
G02*
X9198283Y-7009844I-25000J0D01*
G01*
X9198283Y-7009844D02*
G75*
G02*
X9248283Y-7009844I25000J0D01*
G01*
X9248283Y-14344679D02*
G75*
G02*
X9198283Y-14344679I-25000J0D01*
G01*
X9198283Y-14344679D02*
G75*
G02*
X9248283Y-14344679I25000J0D01*
G01*
X9248283Y-14609844D02*
G75*
G02*
X9198283Y-14609844I-25000J0D01*
G01*
X9198283Y-14609844D02*
G75*
G02*
X9248283Y-14609844I25000J0D01*
G01*
X9303200Y-6877262D02*
G75*
G02*
X9253200Y-6877262I-25000J0D01*
G01*
X9253200Y-6877262D02*
G75*
G02*
X9303200Y-6877262I25000J0D01*
G01*
X9303200Y-14477262D02*
G75*
G02*
X9253200Y-14477262I-25000J0D01*
G01*
X9253200Y-14477262D02*
G75*
G02*
X9303200Y-14477262I25000J0D01*
G01*
X7617460Y-6251420D02*
X7617460Y-6311420D01*
X7587460Y-6281420D02*
X7647460Y-6281420D01*
X7647460Y-6321420D02*
X7647460Y-6241420D01*
X7587460Y-6241420D02*
G75*
G02*
X7647460Y-6241420I30000J0D01*
G01*
X7587460Y-6241420D02*
X7587460Y-6321420D01*
X7587460Y-6321420D02*
G75*
G03*
X7647460Y-6321420I30000J0D01*
G01*
X7617460Y-6669420D02*
X7617460Y-6729420D01*
X7587460Y-6699420D02*
X7647460Y-6699420D01*
X7647460Y-6754420D02*
X7647460Y-6644420D01*
X7587460Y-6644420D02*
G75*
G02*
X7647460Y-6644420I30000J0D01*
G01*
X7587460Y-6644420D02*
X7587460Y-6754420D01*
X7587460Y-6754420D02*
G75*
G03*
X7647460Y-6754420I30000J0D01*
G01*
X8481460Y-6251420D02*
X8481460Y-6311420D01*
X8451460Y-6281420D02*
X8511460Y-6281420D01*
X8511460Y-6321420D02*
X8511460Y-6241420D01*
X8451460Y-6241420D02*
G75*
G02*
X8511460Y-6241420I30000J0D01*
G01*
X8451460Y-6241420D02*
X8451460Y-6321420D01*
X8451460Y-6321420D02*
G75*
G03*
X8511460Y-6321420I30000J0D01*
G01*
X8481460Y-6669420D02*
X8481460Y-6729420D01*
X8451460Y-6699420D02*
X8511460Y-6699420D01*
X8511460Y-6754420D02*
X8511460Y-6644420D01*
X8451460Y-6644420D02*
G75*
G02*
X8511460Y-6644420I30000J0D01*
G01*
X8451460Y-6644420D02*
X8451460Y-6754420D01*
X8451460Y-6754420D02*
G75*
G03*
X8511460Y-6754420I30000J0D01*
G01*
X7461848Y-15790838D02*
X7461848Y-15747732D01*
X7418742Y-15747732D01*
X7418742Y-15790838D01*
X7461848Y-15790838D01*
X7461848Y-16298838D02*
X7461848Y-16255732D01*
X7418742Y-16255732D01*
X7418742Y-16298838D01*
X7461848Y-16298838D01*
X7715848Y-15790838D02*
X7715848Y-15747732D01*
X7672742Y-15747732D01*
X7672742Y-15790838D01*
X7715848Y-15790838D01*
X7715848Y-16044838D02*
X7715848Y-16001732D01*
X7672742Y-16001732D01*
X7672742Y-16044838D01*
X7715848Y-16044838D01*
X7715848Y-16298838D02*
X7715848Y-16255732D01*
X7672742Y-16255732D01*
X7672742Y-16298838D01*
X7715848Y-16298838D01*
X6946900Y-14916900D02*
X6979400Y-14884400D01*
X6946900Y-14851900D01*
X6914400Y-14884400D01*
X6946900Y-14916900D01*
X6946900Y-15043900D02*
X6979400Y-15011400D01*
X6946900Y-14978900D01*
X6914400Y-15011400D01*
X6946900Y-15043900D01*
X6946900Y-15170900D02*
X6979400Y-15138400D01*
X6946900Y-15105900D01*
X6914400Y-15138400D01*
X6946900Y-15170900D01*
X6946900Y-15297900D02*
X6979400Y-15265400D01*
X6946900Y-15232900D01*
X6914400Y-15265400D01*
X6946900Y-15297900D01*
X6946900Y-15424900D02*
X6979400Y-15392400D01*
X6946900Y-15359900D01*
X6914400Y-15392400D01*
X6946900Y-15424900D01*
X7073900Y-14916900D02*
X7106400Y-14884400D01*
X7073900Y-14851900D01*
X7041400Y-14884400D01*
X7073900Y-14916900D01*
X7073900Y-15043900D02*
X7106400Y-15011400D01*
X7073900Y-14978900D01*
X7041400Y-15011400D01*
X7073900Y-15043900D01*
X7073900Y-15170900D02*
X7106400Y-15138400D01*
X7073900Y-15105900D01*
X7041400Y-15138400D01*
X7073900Y-15170900D01*
X7073900Y-15297900D02*
X7106400Y-15265400D01*
X7073900Y-15232900D01*
X7041400Y-15265400D01*
X7073900Y-15297900D01*
X7073900Y-15424900D02*
X7106400Y-15392400D01*
X7073900Y-15359900D01*
X7041400Y-15392400D01*
X7073900Y-15424900D01*
X7564967Y-14916900D02*
X7597467Y-14884400D01*
X7564967Y-14851900D01*
X7532467Y-14884400D01*
X7564967Y-14916900D01*
X7564967Y-15043900D02*
X7597467Y-15011400D01*
X7564967Y-14978900D01*
X7532467Y-15011400D01*
X7564967Y-15043900D01*
X7564967Y-15170900D02*
X7597467Y-15138400D01*
X7564967Y-15105900D01*
X7532467Y-15138400D01*
X7564967Y-15170900D01*
X7564967Y-15297900D02*
X7597467Y-15265400D01*
X7564967Y-15232900D01*
X7532467Y-15265400D01*
X7564967Y-15297900D01*
X7564967Y-15424900D02*
X7597467Y-15392400D01*
X7564967Y-15359900D01*
X7532467Y-15392400D01*
X7564967Y-15424900D01*
X7691967Y-14916900D02*
X7724467Y-14884400D01*
X7691967Y-14851900D01*
X7659467Y-14884400D01*
X7691967Y-14916900D01*
X7691967Y-15043900D02*
X7724467Y-15011400D01*
X7691967Y-14978900D01*
X7659467Y-15011400D01*
X7691967Y-15043900D01*
X7691967Y-15170900D02*
X7724467Y-15138400D01*
X7691967Y-15105900D01*
X7659467Y-15138400D01*
X7691967Y-15170900D01*
X7691967Y-15297900D02*
X7724467Y-15265400D01*
X7691967Y-15232900D01*
X7659467Y-15265400D01*
X7691967Y-15297900D01*
X7691967Y-15424900D02*
X7724467Y-15392400D01*
X7691967Y-15359900D01*
X7659467Y-15392400D01*
X7691967Y-15424900D01*
X8183033Y-14916900D02*
X8215533Y-14884400D01*
X8183033Y-14851900D01*
X8150533Y-14884400D01*
X8183033Y-14916900D01*
X8183033Y-15043900D02*
X8215533Y-15011400D01*
X8183033Y-14978900D01*
X8150533Y-15011400D01*
X8183033Y-15043900D01*
X8183033Y-15170900D02*
X8215533Y-15138400D01*
X8183033Y-15105900D01*
X8150533Y-15138400D01*
X8183033Y-15170900D01*
X8183033Y-15297900D02*
X8215533Y-15265400D01*
X8183033Y-15232900D01*
X8150533Y-15265400D01*
X8183033Y-15297900D01*
X8183033Y-15424900D02*
X8215533Y-15392400D01*
X8183033Y-15359900D01*
X8150533Y-15392400D01*
X8183033Y-15424900D01*
X8310033Y-14916900D02*
X8342533Y-14884400D01*
X8310033Y-14851900D01*
X8277533Y-14884400D01*
X8310033Y-14916900D01*
X8310033Y-15043900D02*
X8342533Y-15011400D01*
X8310033Y-14978900D01*
X8277533Y-15011400D01*
X8310033Y-15043900D01*
X8310033Y-15170900D02*
X8342533Y-15138400D01*
X8310033Y-15105900D01*
X8277533Y-15138400D01*
X8310033Y-15170900D01*
X8310033Y-15297900D02*
X8342533Y-15265400D01*
X8310033Y-15232900D01*
X8277533Y-15265400D01*
X8310033Y-15297900D01*
X8310033Y-15424900D02*
X8342533Y-15392400D01*
X8310033Y-15359900D01*
X8277533Y-15392400D01*
X8310033Y-15424900D01*
X8801100Y-14916900D02*
X8833600Y-14884400D01*
X8801100Y-14851900D01*
X8768600Y-14884400D01*
X8801100Y-14916900D01*
X8801100Y-15043900D02*
X8833600Y-15011400D01*
X8801100Y-14978900D01*
X8768600Y-15011400D01*
X8801100Y-15043900D01*
X8801100Y-15170900D02*
X8833600Y-15138400D01*
X8801100Y-15105900D01*
X8768600Y-15138400D01*
X8801100Y-15170900D01*
X8801100Y-15297900D02*
X8833600Y-15265400D01*
X8801100Y-15232900D01*
X8768600Y-15265400D01*
X8801100Y-15297900D01*
X8801100Y-15424900D02*
X8833600Y-15392400D01*
X8801100Y-15359900D01*
X8768600Y-15392400D01*
X8801100Y-15424900D01*
X8928100Y-14916900D02*
X8960600Y-14884400D01*
X8928100Y-14851900D01*
X8895600Y-14884400D01*
X8928100Y-14916900D01*
X8928100Y-15043900D02*
X8960600Y-15011400D01*
X8928100Y-14978900D01*
X8895600Y-15011400D01*
X8928100Y-15043900D01*
X8928100Y-15170900D02*
X8960600Y-15138400D01*
X8928100Y-15105900D01*
X8895600Y-15138400D01*
X8928100Y-15170900D01*
X8928100Y-15297900D02*
X8960600Y-15265400D01*
X8928100Y-15232900D01*
X8895600Y-15265400D01*
X8928100Y-15297900D01*
X8928100Y-15424900D02*
X8960600Y-15392400D01*
X8928100Y-15359900D01*
X8895600Y-15392400D01*
X8928100Y-15424900D01*
X8770300Y-12477627D02*
X8865300Y-12572627D01*
X8865300Y-12477627D02*
X8770300Y-12572627D01*
X8865300Y-12525127D02*
G75*
G02*
X8770300Y-12525127I-47500J0D01*
G01*
X8770300Y-12525127D02*
G75*
G02*
X8865300Y-12525127I47500J0D01*
G01*
X8770300Y-13125745D02*
X8865300Y-13220745D01*
X8865300Y-13125745D02*
X8770300Y-13220745D01*
X8865300Y-13173245D02*
G75*
G02*
X8770300Y-13173245I-47500J0D01*
G01*
X8770300Y-13173245D02*
G75*
G02*
X8865300Y-13173245I47500J0D01*
G01*
X8770300Y-13773864D02*
X8865300Y-13868864D01*
X8865300Y-13773864D02*
X8770300Y-13868864D01*
X8865300Y-13821364D02*
G75*
G02*
X8770300Y-13821364I-47500J0D01*
G01*
X8770300Y-13821364D02*
G75*
G02*
X8865300Y-13821364I47500J0D01*
G01*
X9012680Y-6228840D02*
X9107680Y-6323840D01*
X9107680Y-6228840D02*
X9012680Y-6323840D01*
X9107680Y-6276340D02*
G75*
G02*
X9012680Y-6276340I-47500J0D01*
G01*
X9012680Y-6276340D02*
G75*
G02*
X9107680Y-6276340I47500J0D01*
G01*
X9020300Y-7940800D02*
X9115300Y-8035800D01*
X9115300Y-7940800D02*
X9020300Y-8035800D01*
X9115300Y-7988300D02*
G75*
G02*
X9020300Y-7988300I-47500J0D01*
G01*
X9020300Y-7988300D02*
G75*
G02*
X9115300Y-7988300I47500J0D01*
G01*
X9020300Y-8588918D02*
X9115300Y-8683918D01*
X9115300Y-8588918D02*
X9020300Y-8683918D01*
X9115300Y-8636418D02*
G75*
G02*
X9020300Y-8636418I-47500J0D01*
G01*
X9020300Y-8636418D02*
G75*
G02*
X9115300Y-8636418I47500J0D01*
G01*
X9020300Y-9237036D02*
X9115300Y-9332036D01*
X9115300Y-9237036D02*
X9020300Y-9332036D01*
X9115300Y-9284536D02*
G75*
G02*
X9020300Y-9284536I-47500J0D01*
G01*
X9020300Y-9284536D02*
G75*
G02*
X9115300Y-9284536I47500J0D01*
G01*
X9020300Y-9885155D02*
X9115300Y-9980155D01*
X9115300Y-9885155D02*
X9020300Y-9980155D01*
X9115300Y-9932655D02*
G75*
G02*
X9020300Y-9932655I-47500J0D01*
G01*
X9020300Y-9932655D02*
G75*
G02*
X9115300Y-9932655I47500J0D01*
G01*
X9020300Y-10533273D02*
X9115300Y-10628273D01*
X9115300Y-10533273D02*
X9020300Y-10628273D01*
X9115300Y-10580773D02*
G75*
G02*
X9020300Y-10580773I-47500J0D01*
G01*
X9020300Y-10580773D02*
G75*
G02*
X9115300Y-10580773I47500J0D01*
G01*
X9020300Y-11181391D02*
X9115300Y-11276391D01*
X9115300Y-11181391D02*
X9020300Y-11276391D01*
X9115300Y-11228891D02*
G75*
G02*
X9020300Y-11228891I-47500J0D01*
G01*
X9020300Y-11228891D02*
G75*
G02*
X9115300Y-11228891I47500J0D01*
G01*
X9020300Y-11829509D02*
X9115300Y-11924509D01*
X9115300Y-11829509D02*
X9020300Y-11924509D01*
X9115300Y-11877009D02*
G75*
G02*
X9020300Y-11877009I-47500J0D01*
G01*
X9020300Y-11877009D02*
G75*
G02*
X9115300Y-11877009I47500J0D01*
G01*
X9020300Y-12477627D02*
X9115300Y-12572627D01*
X9115300Y-12477627D02*
X9020300Y-12572627D01*
X9115300Y-12525127D02*
G75*
G02*
X9020300Y-12525127I-47500J0D01*
G01*
X9020300Y-12525127D02*
G75*
G02*
X9115300Y-12525127I47500J0D01*
G01*
X9020300Y-13125745D02*
X9115300Y-13220745D01*
X9115300Y-13125745D02*
X9020300Y-13220745D01*
X9115300Y-13173245D02*
G75*
G02*
X9020300Y-13173245I-47500J0D01*
G01*
X9020300Y-13173245D02*
G75*
G02*
X9115300Y-13173245I47500J0D01*
G01*
X9020300Y-13773864D02*
X9115300Y-13868864D01*
X9115300Y-13773864D02*
X9020300Y-13868864D01*
X9115300Y-13821364D02*
G75*
G02*
X9020300Y-13821364I-47500J0D01*
G01*
X9020300Y-13821364D02*
G75*
G02*
X9115300Y-13821364I47500J0D01*
G01*
X9022840Y-7326120D02*
X9117840Y-7421120D01*
X9117840Y-7326120D02*
X9022840Y-7421120D01*
X9117840Y-7373620D02*
G75*
G02*
X9022840Y-7373620I-47500J0D01*
G01*
X9022840Y-7373620D02*
G75*
G02*
X9117840Y-7373620I47500J0D01*
G01*
X9262680Y-6228840D02*
X9357680Y-6323840D01*
X9357680Y-6228840D02*
X9262680Y-6323840D01*
X9357680Y-6276340D02*
G75*
G02*
X9262680Y-6276340I-47500J0D01*
G01*
X9262680Y-6276340D02*
G75*
G02*
X9357680Y-6276340I47500J0D01*
G01*
X9270300Y-7940800D02*
X9365300Y-8035800D01*
X9365300Y-7940800D02*
X9270300Y-8035800D01*
X9365300Y-7988300D02*
G75*
G02*
X9270300Y-7988300I-47500J0D01*
G01*
X9270300Y-7988300D02*
G75*
G02*
X9365300Y-7988300I47500J0D01*
G01*
X9270300Y-8588918D02*
X9365300Y-8683918D01*
X9365300Y-8588918D02*
X9270300Y-8683918D01*
X9365300Y-8636418D02*
G75*
G02*
X9270300Y-8636418I-47500J0D01*
G01*
X9270300Y-8636418D02*
G75*
G02*
X9365300Y-8636418I47500J0D01*
G01*
X9270300Y-9237036D02*
X9365300Y-9332036D01*
X9365300Y-9237036D02*
X9270300Y-9332036D01*
X9365300Y-9284536D02*
G75*
G02*
X9270300Y-9284536I-47500J0D01*
G01*
X9270300Y-9284536D02*
G75*
G02*
X9365300Y-9284536I47500J0D01*
G01*
X9270300Y-9885155D02*
X9365300Y-9980155D01*
X9365300Y-9885155D02*
X9270300Y-9980155D01*
X9365300Y-9932655D02*
G75*
G02*
X9270300Y-9932655I-47500J0D01*
G01*
X9270300Y-9932655D02*
G75*
G02*
X9365300Y-9932655I47500J0D01*
G01*
X9270300Y-10533273D02*
X9365300Y-10628273D01*
X9365300Y-10533273D02*
X9270300Y-10628273D01*
X9365300Y-10580773D02*
G75*
G02*
X9270300Y-10580773I-47500J0D01*
G01*
X9270300Y-10580773D02*
G75*
G02*
X9365300Y-10580773I47500J0D01*
G01*
X9270300Y-11181391D02*
X9365300Y-11276391D01*
X9365300Y-11181391D02*
X9270300Y-11276391D01*
X9365300Y-11228891D02*
G75*
G02*
X9270300Y-11228891I-47500J0D01*
G01*
X9270300Y-11228891D02*
G75*
G02*
X9365300Y-11228891I47500J0D01*
G01*
X9270300Y-11829509D02*
X9365300Y-11924509D01*
X9365300Y-11829509D02*
X9270300Y-11924509D01*
X9365300Y-11877009D02*
G75*
G02*
X9270300Y-11877009I-47500J0D01*
G01*
X9270300Y-11877009D02*
G75*
G02*
X9365300Y-11877009I47500J0D01*
G01*
X9270300Y-12477627D02*
X9365300Y-12572627D01*
X9365300Y-12477627D02*
X9270300Y-12572627D01*
X9365300Y-12525127D02*
G75*
G02*
X9270300Y-12525127I-47500J0D01*
G01*
X9270300Y-12525127D02*
G75*
G02*
X9365300Y-12525127I47500J0D01*
G01*
X9270300Y-13125745D02*
X9365300Y-13220745D01*
X9365300Y-13125745D02*
X9270300Y-13220745D01*
X9365300Y-13173245D02*
G75*
G02*
X9270300Y-13173245I-47500J0D01*
G01*
X9270300Y-13173245D02*
G75*
G02*
X9365300Y-13173245I47500J0D01*
G01*
X9270300Y-13773864D02*
X9365300Y-13868864D01*
X9365300Y-13773864D02*
X9270300Y-13868864D01*
X9365300Y-13821364D02*
G75*
G02*
X9270300Y-13821364I-47500J0D01*
G01*
X9270300Y-13821364D02*
G75*
G02*
X9365300Y-13821364I47500J0D01*
G01*
X9272840Y-7326120D02*
X9367840Y-7421120D01*
X9367840Y-7326120D02*
X9272840Y-7421120D01*
X9367840Y-7373620D02*
G75*
G02*
X9272840Y-7373620I-47500J0D01*
G01*
X9272840Y-7373620D02*
G75*
G02*
X9367840Y-7373620I47500J0D01*
G01*
X9512680Y-6228840D02*
X9607680Y-6323840D01*
X9607680Y-6228840D02*
X9512680Y-6323840D01*
X9607680Y-6276340D02*
G75*
G02*
X9512680Y-6276340I-47500J0D01*
G01*
X9512680Y-6276340D02*
G75*
G02*
X9607680Y-6276340I47500J0D01*
G01*
X9520300Y-7940800D02*
X9615300Y-8035800D01*
X9615300Y-7940800D02*
X9520300Y-8035800D01*
X9615300Y-7988300D02*
G75*
G02*
X9520300Y-7988300I-47500J0D01*
G01*
X9520300Y-7988300D02*
G75*
G02*
X9615300Y-7988300I47500J0D01*
G01*
X9520300Y-8588918D02*
X9615300Y-8683918D01*
X9615300Y-8588918D02*
X9520300Y-8683918D01*
X9615300Y-8636418D02*
G75*
G02*
X9520300Y-8636418I-47500J0D01*
G01*
X9520300Y-8636418D02*
G75*
G02*
X9615300Y-8636418I47500J0D01*
G01*
X9520300Y-9237036D02*
X9615300Y-9332036D01*
X9615300Y-9237036D02*
X9520300Y-9332036D01*
X9615300Y-9284536D02*
G75*
G02*
X9520300Y-9284536I-47500J0D01*
G01*
X9520300Y-9284536D02*
G75*
G02*
X9615300Y-9284536I47500J0D01*
G01*
X9520300Y-9885155D02*
X9615300Y-9980155D01*
X9615300Y-9885155D02*
X9520300Y-9980155D01*
X9615300Y-9932655D02*
G75*
G02*
X9520300Y-9932655I-47500J0D01*
G01*
X9520300Y-9932655D02*
G75*
G02*
X9615300Y-9932655I47500J0D01*
G01*
X9520300Y-10533273D02*
X9615300Y-10628273D01*
X9615300Y-10533273D02*
X9520300Y-10628273D01*
X9615300Y-10580773D02*
G75*
G02*
X9520300Y-10580773I-47500J0D01*
G01*
X9520300Y-10580773D02*
G75*
G02*
X9615300Y-10580773I47500J0D01*
G01*
X9520300Y-11181391D02*
X9615300Y-11276391D01*
X9615300Y-11181391D02*
X9520300Y-11276391D01*
X9615300Y-11228891D02*
G75*
G02*
X9520300Y-11228891I-47500J0D01*
G01*
X9520300Y-11228891D02*
G75*
G02*
X9615300Y-11228891I47500J0D01*
G01*
X9520300Y-11829509D02*
X9615300Y-11924509D01*
X9615300Y-11829509D02*
X9520300Y-11924509D01*
X9615300Y-11877009D02*
G75*
G02*
X9520300Y-11877009I-47500J0D01*
G01*
X9520300Y-11877009D02*
G75*
G02*
X9615300Y-11877009I47500J0D01*
G01*
X9520300Y-12477627D02*
X9615300Y-12572627D01*
X9615300Y-12477627D02*
X9520300Y-12572627D01*
X9615300Y-12525127D02*
G75*
G02*
X9520300Y-12525127I-47500J0D01*
G01*
X9520300Y-12525127D02*
G75*
G02*
X9615300Y-12525127I47500J0D01*
G01*
X9520300Y-13125745D02*
X9615300Y-13220745D01*
X9615300Y-13125745D02*
X9520300Y-13220745D01*
X9615300Y-13173245D02*
G75*
G02*
X9520300Y-13173245I-47500J0D01*
G01*
X9520300Y-13173245D02*
G75*
G02*
X9615300Y-13173245I47500J0D01*
G01*
X9520300Y-13773864D02*
X9615300Y-13868864D01*
X9615300Y-13773864D02*
X9520300Y-13868864D01*
X9615300Y-13821364D02*
G75*
G02*
X9520300Y-13821364I-47500J0D01*
G01*
X9520300Y-13821364D02*
G75*
G02*
X9615300Y-13821364I47500J0D01*
G01*
X9522840Y-7326120D02*
X9617840Y-7421120D01*
X9617840Y-7326120D02*
X9522840Y-7421120D01*
X9617840Y-7373620D02*
G75*
G02*
X9522840Y-7373620I-47500J0D01*
G01*
X9522840Y-7373620D02*
G75*
G02*
X9617840Y-7373620I47500J0D01*
G01*
X9528300Y-14366300D02*
X9623300Y-14461300D01*
X9623300Y-14366300D02*
X9528300Y-14461300D01*
X9623300Y-14413800D02*
G75*
G02*
X9528300Y-14413800I-47500J0D01*
G01*
X9528300Y-14413800D02*
G75*
G02*
X9623300Y-14413800I47500J0D01*
G01*
X9528300Y-14616300D02*
X9623300Y-14711300D01*
X9623300Y-14616300D02*
X9528300Y-14711300D01*
X9623300Y-14663800D02*
G75*
G02*
X9528300Y-14663800I-47500J0D01*
G01*
X9528300Y-14663800D02*
G75*
G02*
X9623300Y-14663800I47500J0D01*
G01*
X9528300Y-14866300D02*
X9623300Y-14961300D01*
X9623300Y-14866300D02*
X9528300Y-14961300D01*
X9623300Y-14913800D02*
G75*
G02*
X9528300Y-14913800I-47500J0D01*
G01*
X9528300Y-14913800D02*
G75*
G02*
X9623300Y-14913800I47500J0D01*
G01*
X9528300Y-15116300D02*
X9623300Y-15211300D01*
X9623300Y-15116300D02*
X9528300Y-15211300D01*
X9623300Y-15163800D02*
G75*
G02*
X9528300Y-15163800I-47500J0D01*
G01*
X9528300Y-15163800D02*
G75*
G02*
X9623300Y-15163800I47500J0D01*
G01*
X5423700Y-7201700D02*
X5523700Y-7301700D01*
X5523700Y-7201700D02*
X5423700Y-7301700D01*
X5473700Y-7201700D02*
X5473700Y-7301700D01*
X5423700Y-7251700D02*
X5523700Y-7251700D01*
X5423700Y-7455700D02*
X5523700Y-7555700D01*
X5523700Y-7455700D02*
X5423700Y-7555700D01*
X5473700Y-7455700D02*
X5473700Y-7555700D01*
X5423700Y-7505700D02*
X5523700Y-7505700D01*
X5423700Y-7709700D02*
X5523700Y-7809700D01*
X5523700Y-7709700D02*
X5423700Y-7809700D01*
X5473700Y-7709700D02*
X5473700Y-7809700D01*
X5423700Y-7759700D02*
X5523700Y-7759700D01*
X5423700Y-7963700D02*
X5523700Y-8063700D01*
X5523700Y-7963700D02*
X5423700Y-8063700D01*
X5473700Y-7963700D02*
X5473700Y-8063700D01*
X5423700Y-8013700D02*
X5523700Y-8013700D01*
X5423700Y-8217700D02*
X5523700Y-8317700D01*
X5523700Y-8217700D02*
X5423700Y-8317700D01*
X5473700Y-8217700D02*
X5473700Y-8317700D01*
X5423700Y-8267700D02*
X5523700Y-8267700D01*
X5423700Y-8471700D02*
X5523700Y-8571700D01*
X5523700Y-8471700D02*
X5423700Y-8571700D01*
X5473700Y-8471700D02*
X5473700Y-8571700D01*
X5423700Y-8521700D02*
X5523700Y-8521700D01*
X5423700Y-8725700D02*
X5523700Y-8825700D01*
X5523700Y-8725700D02*
X5423700Y-8825700D01*
X5473700Y-8725700D02*
X5473700Y-8825700D01*
X5423700Y-8775700D02*
X5523700Y-8775700D01*
X5423700Y-8979700D02*
X5523700Y-9079700D01*
X5523700Y-8979700D02*
X5423700Y-9079700D01*
X5473700Y-8979700D02*
X5473700Y-9079700D01*
X5423700Y-9029700D02*
X5523700Y-9029700D01*
X5423700Y-9233700D02*
X5523700Y-9333700D01*
X5523700Y-9233700D02*
X5423700Y-9333700D01*
X5473700Y-9233700D02*
X5473700Y-9333700D01*
X5423700Y-9283700D02*
X5523700Y-9283700D01*
X5423700Y-9487700D02*
X5523700Y-9587700D01*
X5523700Y-9487700D02*
X5423700Y-9587700D01*
X5473700Y-9487700D02*
X5473700Y-9587700D01*
X5423700Y-9537700D02*
X5523700Y-9537700D01*
X5423700Y-9741700D02*
X5523700Y-9841700D01*
X5523700Y-9741700D02*
X5423700Y-9841700D01*
X5473700Y-9741700D02*
X5473700Y-9841700D01*
X5423700Y-9791700D02*
X5523700Y-9791700D01*
X5423700Y-9995700D02*
X5523700Y-10095700D01*
X5523700Y-9995700D02*
X5423700Y-10095700D01*
X5473700Y-9995700D02*
X5473700Y-10095700D01*
X5423700Y-10045700D02*
X5523700Y-10045700D01*
X5423700Y-10249700D02*
X5523700Y-10349700D01*
X5523700Y-10249700D02*
X5423700Y-10349700D01*
X5473700Y-10249700D02*
X5473700Y-10349700D01*
X5423700Y-10299700D02*
X5523700Y-10299700D01*
X5423700Y-10503700D02*
X5523700Y-10603700D01*
X5523700Y-10503700D02*
X5423700Y-10603700D01*
X5473700Y-10503700D02*
X5473700Y-10603700D01*
X5423700Y-10553700D02*
X5523700Y-10553700D01*
X5423700Y-10757700D02*
X5523700Y-10857700D01*
X5523700Y-10757700D02*
X5423700Y-10857700D01*
X5473700Y-10757700D02*
X5473700Y-10857700D01*
X5423700Y-10807700D02*
X5523700Y-10807700D01*
X5423700Y-11011700D02*
X5523700Y-11111700D01*
X5523700Y-11011700D02*
X5423700Y-11111700D01*
X5473700Y-11011700D02*
X5473700Y-11111700D01*
X5423700Y-11061700D02*
X5523700Y-11061700D01*
X5423700Y-11265700D02*
X5523700Y-11365700D01*
X5523700Y-11265700D02*
X5423700Y-11365700D01*
X5473700Y-11265700D02*
X5473700Y-11365700D01*
X5423700Y-11315700D02*
X5523700Y-11315700D01*
X5423700Y-11519700D02*
X5523700Y-11619700D01*
X5523700Y-11519700D02*
X5423700Y-11619700D01*
X5473700Y-11519700D02*
X5473700Y-11619700D01*
X5423700Y-11569700D02*
X5523700Y-11569700D01*
X5423700Y-11773700D02*
X5523700Y-11873700D01*
X5523700Y-11773700D02*
X5423700Y-11873700D01*
X5473700Y-11773700D02*
X5473700Y-11873700D01*
X5423700Y-11823700D02*
X5523700Y-11823700D01*
X5423700Y-12027700D02*
X5523700Y-12127700D01*
X5523700Y-12027700D02*
X5423700Y-12127700D01*
X5473700Y-12027700D02*
X5473700Y-12127700D01*
X5423700Y-12077700D02*
X5523700Y-12077700D01*
X5677700Y-7201700D02*
X5777700Y-7301700D01*
X5777700Y-7201700D02*
X5677700Y-7301700D01*
X5727700Y-7201700D02*
X5727700Y-7301700D01*
X5677700Y-7251700D02*
X5777700Y-7251700D01*
X5677700Y-7455700D02*
X5777700Y-7555700D01*
X5777700Y-7455700D02*
X5677700Y-7555700D01*
X5727700Y-7455700D02*
X5727700Y-7555700D01*
X5677700Y-7505700D02*
X5777700Y-7505700D01*
X5677700Y-7709700D02*
X5777700Y-7809700D01*
X5777700Y-7709700D02*
X5677700Y-7809700D01*
X5727700Y-7709700D02*
X5727700Y-7809700D01*
X5677700Y-7759700D02*
X5777700Y-7759700D01*
X5677700Y-7963700D02*
X5777700Y-8063700D01*
X5777700Y-7963700D02*
X5677700Y-8063700D01*
X5727700Y-7963700D02*
X5727700Y-8063700D01*
X5677700Y-8013700D02*
X5777700Y-8013700D01*
X5677700Y-8217700D02*
X5777700Y-8317700D01*
X5777700Y-8217700D02*
X5677700Y-8317700D01*
X5727700Y-8217700D02*
X5727700Y-8317700D01*
X5677700Y-8267700D02*
X5777700Y-8267700D01*
X5677700Y-8471700D02*
X5777700Y-8571700D01*
X5777700Y-8471700D02*
X5677700Y-8571700D01*
X5727700Y-8471700D02*
X5727700Y-8571700D01*
X5677700Y-8521700D02*
X5777700Y-8521700D01*
X5677700Y-8725700D02*
X5777700Y-8825700D01*
X5777700Y-8725700D02*
X5677700Y-8825700D01*
X5727700Y-8725700D02*
X5727700Y-8825700D01*
X5677700Y-8775700D02*
X5777700Y-8775700D01*
X5677700Y-8979700D02*
X5777700Y-9079700D01*
X5777700Y-8979700D02*
X5677700Y-9079700D01*
X5727700Y-8979700D02*
X5727700Y-9079700D01*
X5677700Y-9029700D02*
X5777700Y-9029700D01*
X5677700Y-9233700D02*
X5777700Y-9333700D01*
X5777700Y-9233700D02*
X5677700Y-9333700D01*
X5727700Y-9233700D02*
X5727700Y-9333700D01*
X5677700Y-9283700D02*
X5777700Y-9283700D01*
X5677700Y-9487700D02*
X5777700Y-9587700D01*
X5777700Y-9487700D02*
X5677700Y-9587700D01*
X5727700Y-9487700D02*
X5727700Y-9587700D01*
X5677700Y-9537700D02*
X5777700Y-9537700D01*
X5677700Y-9741700D02*
X5777700Y-9841700D01*
X5777700Y-9741700D02*
X5677700Y-9841700D01*
X5727700Y-9741700D02*
X5727700Y-9841700D01*
X5677700Y-9791700D02*
X5777700Y-9791700D01*
X5677700Y-9995700D02*
X5777700Y-10095700D01*
X5777700Y-9995700D02*
X5677700Y-10095700D01*
X5727700Y-9995700D02*
X5727700Y-10095700D01*
X5677700Y-10045700D02*
X5777700Y-10045700D01*
X5677700Y-10249700D02*
X5777700Y-10349700D01*
X5777700Y-10249700D02*
X5677700Y-10349700D01*
X5727700Y-10249700D02*
X5727700Y-10349700D01*
X5677700Y-10299700D02*
X5777700Y-10299700D01*
X5677700Y-10503700D02*
X5777700Y-10603700D01*
X5777700Y-10503700D02*
X5677700Y-10603700D01*
X5727700Y-10503700D02*
X5727700Y-10603700D01*
X5677700Y-10553700D02*
X5777700Y-10553700D01*
X5677700Y-10757700D02*
X5777700Y-10857700D01*
X5777700Y-10757700D02*
X5677700Y-10857700D01*
X5727700Y-10757700D02*
X5727700Y-10857700D01*
X5677700Y-10807700D02*
X5777700Y-10807700D01*
X5677700Y-11011700D02*
X5777700Y-11111700D01*
X5777700Y-11011700D02*
X5677700Y-11111700D01*
X5727700Y-11011700D02*
X5727700Y-11111700D01*
X5677700Y-11061700D02*
X5777700Y-11061700D01*
X5677700Y-11265700D02*
X5777700Y-11365700D01*
X5777700Y-11265700D02*
X5677700Y-11365700D01*
X5727700Y-11265700D02*
X5727700Y-11365700D01*
X5677700Y-11315700D02*
X5777700Y-11315700D01*
X5677700Y-11519700D02*
X5777700Y-11619700D01*
X5777700Y-11519700D02*
X5677700Y-11619700D01*
X5727700Y-11519700D02*
X5727700Y-11619700D01*
X5677700Y-11569700D02*
X5777700Y-11569700D01*
X5677700Y-11773700D02*
X5777700Y-11873700D01*
X5777700Y-11773700D02*
X5677700Y-11873700D01*
X5727700Y-11773700D02*
X5727700Y-11873700D01*
X5677700Y-11823700D02*
X5777700Y-11823700D01*
X5677700Y-12027700D02*
X5777700Y-12127700D01*
X5777700Y-12027700D02*
X5677700Y-12127700D01*
X5727700Y-12027700D02*
X5727700Y-12127700D01*
X5677700Y-12077700D02*
X5777700Y-12077700D01*
X6287300Y-6287300D02*
X6387300Y-6387300D01*
X6387300Y-6287300D02*
X6287300Y-6387300D01*
X6337300Y-6287300D02*
X6337300Y-6387300D01*
X6287300Y-6337300D02*
X6387300Y-6337300D01*
X6655600Y-6287300D02*
X6755600Y-6387300D01*
X6755600Y-6287300D02*
X6655600Y-6387300D01*
X6705600Y-6287300D02*
X6705600Y-6387300D01*
X6655600Y-6337300D02*
X6755600Y-6337300D01*
X6947700Y-15837700D02*
X7047700Y-15937700D01*
X7047700Y-15837700D02*
X6947700Y-15937700D01*
X6997700Y-15837700D02*
X6997700Y-15937700D01*
X6947700Y-15887700D02*
X7047700Y-15887700D01*
X6947700Y-16087700D02*
X7047700Y-16187700D01*
X7047700Y-16087700D02*
X6947700Y-16187700D01*
X6997700Y-16087700D02*
X6997700Y-16187700D01*
X6947700Y-16137700D02*
X7047700Y-16137700D01*
X7023900Y-6287300D02*
X7123900Y-6387300D01*
X7123900Y-6287300D02*
X7023900Y-6387300D01*
X7073900Y-6287300D02*
X7073900Y-6387300D01*
X7023900Y-6337300D02*
X7123900Y-6337300D01*
X9589300Y-15803600D02*
X9689300Y-15903600D01*
X9689300Y-15803600D02*
X9589300Y-15903600D01*
X9639300Y-15803600D02*
X9639300Y-15903600D01*
X9589300Y-15853600D02*
X9689300Y-15853600D01*
X9589300Y-16053600D02*
X9689300Y-16153600D01*
X9689300Y-16053600D02*
X9589300Y-16153600D01*
X9639300Y-16053600D02*
X9639300Y-16153600D01*
X9589300Y-16103600D02*
X9689300Y-16103600D01*
D12*
X7365700Y-14352262D02*
X7615700Y-14602262D01*
X7615700Y-14352262D02*
X7365700Y-14602262D01*
X7579089Y-14565651D02*
X7579089Y-14388873D01*
X7402311Y-14388873D01*
X7402311Y-14565651D01*
X7579089Y-14565651D01*
X8965700Y-6752262D02*
X9215700Y-7002262D01*
X9215700Y-6752262D02*
X8965700Y-7002262D01*
X9179089Y-6965651D02*
X9179089Y-6788873D01*
X9002311Y-6788873D01*
X9002311Y-6965651D01*
X9179089Y-6965651D01*
X8965700Y-14352262D02*
X9215700Y-14602262D01*
X9215700Y-14352262D02*
X8965700Y-14602262D01*
X9179089Y-14565651D02*
X9179089Y-14388873D01*
X9002311Y-14388873D01*
X9002311Y-14565651D01*
X9179089Y-14565651D01*
D13*
X5465700Y-6629700D02*
X5735700Y-6899700D01*
X5735700Y-6629700D02*
X5465700Y-6899700D01*
X5600700Y-6899700D02*
X5735700Y-6764700D01*
X5600700Y-6629700D01*
X5465700Y-6764700D01*
X5600700Y-6899700D01*
X5465700Y-12429700D02*
X5735700Y-12699700D01*
X5735700Y-12429700D02*
X5465700Y-12699700D01*
X5600700Y-12699700D02*
X5735700Y-12564700D01*
X5600700Y-12429700D01*
X5465700Y-12564700D01*
X5600700Y-12699700D01*
D11*
X5246877Y-16813784D02*
X5246877Y-16613784D01*
X5246877Y-16613784D02*
X5294496Y-16613784D01*
X5294496Y-16613784D02*
X5323067Y-16623308D01*
X5323067Y-16623308D02*
X5342115Y-16642355D01*
X5342115Y-16642355D02*
X5351639Y-16661403D01*
X5351639Y-16661403D02*
X5361163Y-16699498D01*
X5361163Y-16699498D02*
X5361163Y-16728069D01*
X5361163Y-16728069D02*
X5351639Y-16766165D01*
X5351639Y-16766165D02*
X5342115Y-16785212D01*
X5342115Y-16785212D02*
X5323067Y-16804260D01*
X5323067Y-16804260D02*
X5294496Y-16813784D01*
X5294496Y-16813784D02*
X5246877Y-16813784D01*
X5446877Y-16813784D02*
X5446877Y-16680450D01*
X5446877Y-16718546D02*
X5456401Y-16699498D01*
X5456401Y-16699498D02*
X5465924Y-16689974D01*
X5465924Y-16689974D02*
X5484972Y-16680450D01*
X5484972Y-16680450D02*
X5504020Y-16680450D01*
X5570686Y-16813784D02*
X5570686Y-16680450D01*
X5570686Y-16613784D02*
X5561163Y-16623308D01*
X5561163Y-16623308D02*
X5570686Y-16632831D01*
X5570686Y-16632831D02*
X5580210Y-16623308D01*
X5580210Y-16623308D02*
X5570686Y-16613784D01*
X5570686Y-16613784D02*
X5570686Y-16632831D01*
X5694496Y-16813784D02*
X5675448Y-16804260D01*
X5675448Y-16804260D02*
X5665924Y-16785212D01*
X5665924Y-16785212D02*
X5665924Y-16613784D01*
X5799258Y-16813784D02*
X5780210Y-16804260D01*
X5780210Y-16804260D02*
X5770686Y-16785212D01*
X5770686Y-16785212D02*
X5770686Y-16613784D01*
X6027829Y-16813784D02*
X6027829Y-16613784D01*
X6027829Y-16613784D02*
X6094496Y-16756641D01*
X6094496Y-16756641D02*
X6161162Y-16613784D01*
X6161162Y-16613784D02*
X6161162Y-16813784D01*
X6342115Y-16813784D02*
X6342115Y-16709022D01*
X6342115Y-16709022D02*
X6332591Y-16689974D01*
X6332591Y-16689974D02*
X6313543Y-16680450D01*
X6313543Y-16680450D02*
X6275448Y-16680450D01*
X6275448Y-16680450D02*
X6256401Y-16689974D01*
X6342115Y-16804260D02*
X6323067Y-16813784D01*
X6323067Y-16813784D02*
X6275448Y-16813784D01*
X6275448Y-16813784D02*
X6256401Y-16804260D01*
X6256401Y-16804260D02*
X6246877Y-16785212D01*
X6246877Y-16785212D02*
X6246877Y-16766165D01*
X6246877Y-16766165D02*
X6256401Y-16747117D01*
X6256401Y-16747117D02*
X6275448Y-16737593D01*
X6275448Y-16737593D02*
X6323067Y-16737593D01*
X6323067Y-16737593D02*
X6342115Y-16728069D01*
X6437353Y-16680450D02*
X6437353Y-16880450D01*
X6437353Y-16689974D02*
X6456401Y-16680450D01*
X6456401Y-16680450D02*
X6494496Y-16680450D01*
X6494496Y-16680450D02*
X6513543Y-16689974D01*
X6513543Y-16689974D02*
X6523067Y-16699498D01*
X6523067Y-16699498D02*
X6532591Y-16718546D01*
X6532591Y-16718546D02*
X6532591Y-16775688D01*
X6532591Y-16775688D02*
X6523067Y-16794736D01*
X6523067Y-16794736D02*
X6513543Y-16804260D01*
X6513543Y-16804260D02*
X6494496Y-16813784D01*
X6494496Y-16813784D02*
X6456401Y-16813784D01*
X6456401Y-16813784D02*
X6437353Y-16804260D01*
X6618305Y-16794736D02*
X6627829Y-16804260D01*
X6627829Y-16804260D02*
X6618305Y-16813784D01*
X6618305Y-16813784D02*
X6608782Y-16804260D01*
X6608782Y-16804260D02*
X6618305Y-16794736D01*
X6618305Y-16794736D02*
X6618305Y-16813784D01*
X6618305Y-16689974D02*
X6627829Y-16699498D01*
X6627829Y-16699498D02*
X6618305Y-16709022D01*
X6618305Y-16709022D02*
X6608782Y-16699498D01*
X6608782Y-16699498D02*
X6618305Y-16689974D01*
X6618305Y-16689974D02*
X6618305Y-16709022D01*
D10*
X4955620Y-17127060D02*
X4986100Y-17157540D01*
X4986100Y-17127060D02*
X4955620Y-17157540D01*
D11*
X5284972Y-17033784D02*
X5304020Y-17033784D01*
X5304020Y-17033784D02*
X5323067Y-17043308D01*
X5323067Y-17043308D02*
X5332591Y-17052831D01*
X5332591Y-17052831D02*
X5342115Y-17071879D01*
X5342115Y-17071879D02*
X5351639Y-17109974D01*
X5351639Y-17109974D02*
X5351639Y-17157593D01*
X5351639Y-17157593D02*
X5342115Y-17195689D01*
X5342115Y-17195689D02*
X5332591Y-17214736D01*
X5332591Y-17214736D02*
X5323067Y-17224260D01*
X5323067Y-17224260D02*
X5304020Y-17233784D01*
X5304020Y-17233784D02*
X5284972Y-17233784D01*
X5284972Y-17233784D02*
X5265924Y-17224260D01*
X5265924Y-17224260D02*
X5256401Y-17214736D01*
X5256401Y-17214736D02*
X5246877Y-17195689D01*
X5246877Y-17195689D02*
X5237353Y-17157593D01*
X5237353Y-17157593D02*
X5237353Y-17109974D01*
X5237353Y-17109974D02*
X5246877Y-17071879D01*
X5246877Y-17071879D02*
X5256401Y-17052831D01*
X5256401Y-17052831D02*
X5265924Y-17043308D01*
X5265924Y-17043308D02*
X5284972Y-17033784D01*
X5437353Y-17214736D02*
X5446877Y-17224260D01*
X5446877Y-17224260D02*
X5437353Y-17233784D01*
X5437353Y-17233784D02*
X5427829Y-17224260D01*
X5427829Y-17224260D02*
X5437353Y-17214736D01*
X5437353Y-17214736D02*
X5437353Y-17233784D01*
X5513544Y-17033784D02*
X5637353Y-17033784D01*
X5637353Y-17033784D02*
X5570686Y-17109974D01*
X5570686Y-17109974D02*
X5599258Y-17109974D01*
X5599258Y-17109974D02*
X5618305Y-17119498D01*
X5618305Y-17119498D02*
X5627829Y-17129022D01*
X5627829Y-17129022D02*
X5637353Y-17148070D01*
X5637353Y-17148070D02*
X5637353Y-17195689D01*
X5637353Y-17195689D02*
X5627829Y-17214736D01*
X5627829Y-17214736D02*
X5618305Y-17224260D01*
X5618305Y-17224260D02*
X5599258Y-17233784D01*
X5599258Y-17233784D02*
X5542115Y-17233784D01*
X5542115Y-17233784D02*
X5523067Y-17224260D01*
X5523067Y-17224260D02*
X5513544Y-17214736D01*
X5761162Y-17033784D02*
X5780210Y-17033784D01*
X5780210Y-17033784D02*
X5799258Y-17043308D01*
X5799258Y-17043308D02*
X5808782Y-17052831D01*
X5808782Y-17052831D02*
X5818305Y-17071879D01*
X5818305Y-17071879D02*
X5827829Y-17109974D01*
X5827829Y-17109974D02*
X5827829Y-17157593D01*
X5827829Y-17157593D02*
X5818305Y-17195689D01*
X5818305Y-17195689D02*
X5808782Y-17214736D01*
X5808782Y-17214736D02*
X5799258Y-17224260D01*
X5799258Y-17224260D02*
X5780210Y-17233784D01*
X5780210Y-17233784D02*
X5761162Y-17233784D01*
X5761162Y-17233784D02*
X5742115Y-17224260D01*
X5742115Y-17224260D02*
X5732591Y-17214736D01*
X5732591Y-17214736D02*
X5723067Y-17195689D01*
X5723067Y-17195689D02*
X5713543Y-17157593D01*
X5713543Y-17157593D02*
X5713543Y-17109974D01*
X5713543Y-17109974D02*
X5723067Y-17071879D01*
X5723067Y-17071879D02*
X5732591Y-17052831D01*
X5732591Y-17052831D02*
X5742115Y-17043308D01*
X5742115Y-17043308D02*
X5761162Y-17033784D01*
X6008782Y-17033784D02*
X5913543Y-17033784D01*
X5913543Y-17033784D02*
X5904020Y-17129022D01*
X5904020Y-17129022D02*
X5913543Y-17119498D01*
X5913543Y-17119498D02*
X5932591Y-17109974D01*
X5932591Y-17109974D02*
X5980210Y-17109974D01*
X5980210Y-17109974D02*
X5999258Y-17119498D01*
X5999258Y-17119498D02*
X6008782Y-17129022D01*
X6008782Y-17129022D02*
X6018305Y-17148070D01*
X6018305Y-17148070D02*
X6018305Y-17195689D01*
X6018305Y-17195689D02*
X6008782Y-17214736D01*
X6008782Y-17214736D02*
X5999258Y-17224260D01*
X5999258Y-17224260D02*
X5980210Y-17233784D01*
X5980210Y-17233784D02*
X5932591Y-17233784D01*
X5932591Y-17233784D02*
X5913543Y-17224260D01*
X5913543Y-17224260D02*
X5904020Y-17214736D01*
X6104020Y-17233784D02*
X6104020Y-17100450D01*
X6104020Y-17119498D02*
X6113543Y-17109974D01*
X6113543Y-17109974D02*
X6132591Y-17100450D01*
X6132591Y-17100450D02*
X6161163Y-17100450D01*
X6161163Y-17100450D02*
X6180210Y-17109974D01*
X6180210Y-17109974D02*
X6189734Y-17129022D01*
X6189734Y-17129022D02*
X6189734Y-17233784D01*
X6189734Y-17129022D02*
X6199258Y-17109974D01*
X6199258Y-17109974D02*
X6218305Y-17100450D01*
X6218305Y-17100450D02*
X6246877Y-17100450D01*
X6246877Y-17100450D02*
X6265924Y-17109974D01*
X6265924Y-17109974D02*
X6275448Y-17129022D01*
X6275448Y-17129022D02*
X6275448Y-17233784D01*
X6370686Y-17233784D02*
X6370686Y-17100450D01*
X6370686Y-17119498D02*
X6380210Y-17109974D01*
X6380210Y-17109974D02*
X6399258Y-17100450D01*
X6399258Y-17100450D02*
X6427829Y-17100450D01*
X6427829Y-17100450D02*
X6446877Y-17109974D01*
X6446877Y-17109974D02*
X6456401Y-17129022D01*
X6456401Y-17129022D02*
X6456401Y-17233784D01*
X6456401Y-17129022D02*
X6465924Y-17109974D01*
X6465924Y-17109974D02*
X6484972Y-17100450D01*
X6484972Y-17100450D02*
X6513543Y-17100450D01*
X6513543Y-17100450D02*
X6532591Y-17109974D01*
X6532591Y-17109974D02*
X6542115Y-17129022D01*
X6542115Y-17129022D02*
X6542115Y-17233784D01*
X6932591Y-17024260D02*
X6761163Y-17281403D01*
X7189734Y-17033784D02*
X7208782Y-17033784D01*
X7208782Y-17033784D02*
X7227829Y-17043308D01*
X7227829Y-17043308D02*
X7237353Y-17052831D01*
X7237353Y-17052831D02*
X7246877Y-17071879D01*
X7246877Y-17071879D02*
X7256401Y-17109974D01*
X7256401Y-17109974D02*
X7256401Y-17157593D01*
X7256401Y-17157593D02*
X7246877Y-17195689D01*
X7246877Y-17195689D02*
X7237353Y-17214736D01*
X7237353Y-17214736D02*
X7227829Y-17224260D01*
X7227829Y-17224260D02*
X7208782Y-17233784D01*
X7208782Y-17233784D02*
X7189734Y-17233784D01*
X7189734Y-17233784D02*
X7170686Y-17224260D01*
X7170686Y-17224260D02*
X7161163Y-17214736D01*
X7161163Y-17214736D02*
X7151639Y-17195689D01*
X7151639Y-17195689D02*
X7142115Y-17157593D01*
X7142115Y-17157593D02*
X7142115Y-17109974D01*
X7142115Y-17109974D02*
X7151639Y-17071879D01*
X7151639Y-17071879D02*
X7161163Y-17052831D01*
X7161163Y-17052831D02*
X7170686Y-17043308D01*
X7170686Y-17043308D02*
X7189734Y-17033784D01*
X7342115Y-17214736D02*
X7351639Y-17224260D01*
X7351639Y-17224260D02*
X7342115Y-17233784D01*
X7342115Y-17233784D02*
X7332591Y-17224260D01*
X7332591Y-17224260D02*
X7342115Y-17214736D01*
X7342115Y-17214736D02*
X7342115Y-17233784D01*
X7475448Y-17033784D02*
X7494496Y-17033784D01*
X7494496Y-17033784D02*
X7513544Y-17043308D01*
X7513544Y-17043308D02*
X7523067Y-17052831D01*
X7523067Y-17052831D02*
X7532591Y-17071879D01*
X7532591Y-17071879D02*
X7542115Y-17109974D01*
X7542115Y-17109974D02*
X7542115Y-17157593D01*
X7542115Y-17157593D02*
X7532591Y-17195689D01*
X7532591Y-17195689D02*
X7523067Y-17214736D01*
X7523067Y-17214736D02*
X7513544Y-17224260D01*
X7513544Y-17224260D02*
X7494496Y-17233784D01*
X7494496Y-17233784D02*
X7475448Y-17233784D01*
X7475448Y-17233784D02*
X7456401Y-17224260D01*
X7456401Y-17224260D02*
X7446877Y-17214736D01*
X7446877Y-17214736D02*
X7437353Y-17195689D01*
X7437353Y-17195689D02*
X7427829Y-17157593D01*
X7427829Y-17157593D02*
X7427829Y-17109974D01*
X7427829Y-17109974D02*
X7437353Y-17071879D01*
X7437353Y-17071879D02*
X7446877Y-17052831D01*
X7446877Y-17052831D02*
X7456401Y-17043308D01*
X7456401Y-17043308D02*
X7475448Y-17033784D01*
X7732591Y-17233784D02*
X7618306Y-17233784D01*
X7675448Y-17233784D02*
X7675448Y-17033784D01*
X7675448Y-17033784D02*
X7656401Y-17062355D01*
X7656401Y-17062355D02*
X7637353Y-17081403D01*
X7637353Y-17081403D02*
X7618306Y-17090927D01*
X7808782Y-17052831D02*
X7818306Y-17043308D01*
X7818306Y-17043308D02*
X7837353Y-17033784D01*
X7837353Y-17033784D02*
X7884972Y-17033784D01*
X7884972Y-17033784D02*
X7904020Y-17043308D01*
X7904020Y-17043308D02*
X7913544Y-17052831D01*
X7913544Y-17052831D02*
X7923067Y-17071879D01*
X7923067Y-17071879D02*
X7923067Y-17090927D01*
X7923067Y-17090927D02*
X7913544Y-17119498D01*
X7913544Y-17119498D02*
X7799258Y-17233784D01*
X7799258Y-17233784D02*
X7923067Y-17233784D01*
X8046877Y-17033784D02*
X8065925Y-17033784D01*
X8065925Y-17033784D02*
X8084972Y-17043308D01*
X8084972Y-17043308D02*
X8094496Y-17052831D01*
X8094496Y-17052831D02*
X8104020Y-17071879D01*
X8104020Y-17071879D02*
X8113544Y-17109974D01*
X8113544Y-17109974D02*
X8113544Y-17157593D01*
X8113544Y-17157593D02*
X8104020Y-17195689D01*
X8104020Y-17195689D02*
X8094496Y-17214736D01*
X8094496Y-17214736D02*
X8084972Y-17224260D01*
X8084972Y-17224260D02*
X8065925Y-17233784D01*
X8065925Y-17233784D02*
X8046877Y-17233784D01*
X8046877Y-17233784D02*
X8027829Y-17224260D01*
X8027829Y-17224260D02*
X8018306Y-17214736D01*
X8018306Y-17214736D02*
X8008782Y-17195689D01*
X8008782Y-17195689D02*
X7999258Y-17157593D01*
X7999258Y-17157593D02*
X7999258Y-17109974D01*
X7999258Y-17109974D02*
X8008782Y-17071879D01*
X8008782Y-17071879D02*
X8018306Y-17052831D01*
X8018306Y-17052831D02*
X8027829Y-17043308D01*
X8027829Y-17043308D02*
X8046877Y-17033784D01*
X8189734Y-17033784D02*
X8189734Y-17071879D01*
X8265925Y-17033784D02*
X8265925Y-17071879D01*
X8561163Y-17309974D02*
X8551639Y-17300450D01*
X8551639Y-17300450D02*
X8532591Y-17271879D01*
X8532591Y-17271879D02*
X8523068Y-17252831D01*
X8523068Y-17252831D02*
X8513544Y-17224260D01*
X8513544Y-17224260D02*
X8504020Y-17176641D01*
X8504020Y-17176641D02*
X8504020Y-17138546D01*
X8504020Y-17138546D02*
X8513544Y-17090927D01*
X8513544Y-17090927D02*
X8523068Y-17062355D01*
X8523068Y-17062355D02*
X8532591Y-17043308D01*
X8532591Y-17043308D02*
X8551639Y-17014736D01*
X8551639Y-17014736D02*
X8561163Y-17005212D01*
X8646877Y-17233784D02*
X8684972Y-17233784D01*
X8684972Y-17233784D02*
X8704020Y-17224260D01*
X8704020Y-17224260D02*
X8713544Y-17214736D01*
X8713544Y-17214736D02*
X8732591Y-17186165D01*
X8732591Y-17186165D02*
X8742115Y-17148070D01*
X8742115Y-17148070D02*
X8742115Y-17071879D01*
X8742115Y-17071879D02*
X8732591Y-17052831D01*
X8732591Y-17052831D02*
X8723068Y-17043308D01*
X8723068Y-17043308D02*
X8704020Y-17033784D01*
X8704020Y-17033784D02*
X8665925Y-17033784D01*
X8665925Y-17033784D02*
X8646877Y-17043308D01*
X8646877Y-17043308D02*
X8637353Y-17052831D01*
X8637353Y-17052831D02*
X8627830Y-17071879D01*
X8627830Y-17071879D02*
X8627830Y-17119498D01*
X8627830Y-17119498D02*
X8637353Y-17138546D01*
X8637353Y-17138546D02*
X8646877Y-17148070D01*
X8646877Y-17148070D02*
X8665925Y-17157593D01*
X8665925Y-17157593D02*
X8704020Y-17157593D01*
X8704020Y-17157593D02*
X8723068Y-17148070D01*
X8723068Y-17148070D02*
X8732591Y-17138546D01*
X8732591Y-17138546D02*
X8742115Y-17119498D01*
X8913544Y-17033784D02*
X8875449Y-17033784D01*
X8875449Y-17033784D02*
X8856401Y-17043308D01*
X8856401Y-17043308D02*
X8846877Y-17052831D01*
X8846877Y-17052831D02*
X8827830Y-17081403D01*
X8827830Y-17081403D02*
X8818306Y-17119498D01*
X8818306Y-17119498D02*
X8818306Y-17195689D01*
X8818306Y-17195689D02*
X8827830Y-17214736D01*
X8827830Y-17214736D02*
X8837353Y-17224260D01*
X8837353Y-17224260D02*
X8856401Y-17233784D01*
X8856401Y-17233784D02*
X8894496Y-17233784D01*
X8894496Y-17233784D02*
X8913544Y-17224260D01*
X8913544Y-17224260D02*
X8923068Y-17214736D01*
X8923068Y-17214736D02*
X8932591Y-17195689D01*
X8932591Y-17195689D02*
X8932591Y-17148070D01*
X8932591Y-17148070D02*
X8923068Y-17129022D01*
X8923068Y-17129022D02*
X8913544Y-17119498D01*
X8913544Y-17119498D02*
X8894496Y-17109974D01*
X8894496Y-17109974D02*
X8856401Y-17109974D01*
X8856401Y-17109974D02*
X8837353Y-17119498D01*
X8837353Y-17119498D02*
X8827830Y-17129022D01*
X8827830Y-17129022D02*
X8818306Y-17148070D01*
X9170687Y-17233784D02*
X9170687Y-17033784D01*
X9256401Y-17233784D02*
X9256401Y-17129022D01*
X9256401Y-17129022D02*
X9246877Y-17109974D01*
X9246877Y-17109974D02*
X9227830Y-17100450D01*
X9227830Y-17100450D02*
X9199258Y-17100450D01*
X9199258Y-17100450D02*
X9180211Y-17109974D01*
X9180211Y-17109974D02*
X9170687Y-17119498D01*
X9380211Y-17233784D02*
X9361163Y-17224260D01*
X9361163Y-17224260D02*
X9351639Y-17214736D01*
X9351639Y-17214736D02*
X9342115Y-17195689D01*
X9342115Y-17195689D02*
X9342115Y-17138546D01*
X9342115Y-17138546D02*
X9351639Y-17119498D01*
X9351639Y-17119498D02*
X9361163Y-17109974D01*
X9361163Y-17109974D02*
X9380211Y-17100450D01*
X9380211Y-17100450D02*
X9408782Y-17100450D01*
X9408782Y-17100450D02*
X9427830Y-17109974D01*
X9427830Y-17109974D02*
X9437353Y-17119498D01*
X9437353Y-17119498D02*
X9446877Y-17138546D01*
X9446877Y-17138546D02*
X9446877Y-17195689D01*
X9446877Y-17195689D02*
X9437353Y-17214736D01*
X9437353Y-17214736D02*
X9427830Y-17224260D01*
X9427830Y-17224260D02*
X9408782Y-17233784D01*
X9408782Y-17233784D02*
X9380211Y-17233784D01*
X9561163Y-17233784D02*
X9542115Y-17224260D01*
X9542115Y-17224260D02*
X9532592Y-17205212D01*
X9532592Y-17205212D02*
X9532592Y-17033784D01*
X9713544Y-17224260D02*
X9694496Y-17233784D01*
X9694496Y-17233784D02*
X9656401Y-17233784D01*
X9656401Y-17233784D02*
X9637353Y-17224260D01*
X9637353Y-17224260D02*
X9627830Y-17205212D01*
X9627830Y-17205212D02*
X9627830Y-17129022D01*
X9627830Y-17129022D02*
X9637353Y-17109974D01*
X9637353Y-17109974D02*
X9656401Y-17100450D01*
X9656401Y-17100450D02*
X9694496Y-17100450D01*
X9694496Y-17100450D02*
X9713544Y-17109974D01*
X9713544Y-17109974D02*
X9723068Y-17129022D01*
X9723068Y-17129022D02*
X9723068Y-17148070D01*
X9723068Y-17148070D02*
X9627830Y-17167117D01*
X9799258Y-17224260D02*
X9818306Y-17233784D01*
X9818306Y-17233784D02*
X9856401Y-17233784D01*
X9856401Y-17233784D02*
X9875449Y-17224260D01*
X9875449Y-17224260D02*
X9884973Y-17205212D01*
X9884973Y-17205212D02*
X9884973Y-17195689D01*
X9884973Y-17195689D02*
X9875449Y-17176641D01*
X9875449Y-17176641D02*
X9856401Y-17167117D01*
X9856401Y-17167117D02*
X9827830Y-17167117D01*
X9827830Y-17167117D02*
X9808782Y-17157593D01*
X9808782Y-17157593D02*
X9799258Y-17138546D01*
X9799258Y-17138546D02*
X9799258Y-17129022D01*
X9799258Y-17129022D02*
X9808782Y-17109974D01*
X9808782Y-17109974D02*
X9827830Y-17100450D01*
X9827830Y-17100450D02*
X9856401Y-17100450D01*
X9856401Y-17100450D02*
X9875449Y-17109974D01*
X9951639Y-17309974D02*
X9961163Y-17300450D01*
X9961163Y-17300450D02*
X9980211Y-17271879D01*
X9980211Y-17271879D02*
X9989734Y-17252831D01*
X9989734Y-17252831D02*
X9999258Y-17224260D01*
X9999258Y-17224260D02*
X10008782Y-17176641D01*
X10008782Y-17176641D02*
X10008782Y-17138546D01*
X10008782Y-17138546D02*
X9999258Y-17090927D01*
X9999258Y-17090927D02*
X9989734Y-17062355D01*
X9989734Y-17062355D02*
X9980211Y-17043308D01*
X9980211Y-17043308D02*
X9961163Y-17014736D01*
X9961163Y-17014736D02*
X9951639Y-17005212D01*
D10*
X4986100Y-17406300D02*
G75*
G02*
X4936100Y-17406300I-25000J0D01*
G01*
X4936100Y-17406300D02*
G75*
G02*
X4986100Y-17406300I25000J0D01*
G01*
D11*
X5284972Y-17297784D02*
X5304020Y-17297784D01*
X5304020Y-17297784D02*
X5323067Y-17307308D01*
X5323067Y-17307308D02*
X5332591Y-17316831D01*
X5332591Y-17316831D02*
X5342115Y-17335879D01*
X5342115Y-17335879D02*
X5351639Y-17373974D01*
X5351639Y-17373974D02*
X5351639Y-17421593D01*
X5351639Y-17421593D02*
X5342115Y-17459689D01*
X5342115Y-17459689D02*
X5332591Y-17478736D01*
X5332591Y-17478736D02*
X5323067Y-17488260D01*
X5323067Y-17488260D02*
X5304020Y-17497784D01*
X5304020Y-17497784D02*
X5284972Y-17497784D01*
X5284972Y-17497784D02*
X5265924Y-17488260D01*
X5265924Y-17488260D02*
X5256401Y-17478736D01*
X5256401Y-17478736D02*
X5246877Y-17459689D01*
X5246877Y-17459689D02*
X5237353Y-17421593D01*
X5237353Y-17421593D02*
X5237353Y-17373974D01*
X5237353Y-17373974D02*
X5246877Y-17335879D01*
X5246877Y-17335879D02*
X5256401Y-17316831D01*
X5256401Y-17316831D02*
X5265924Y-17307308D01*
X5265924Y-17307308D02*
X5284972Y-17297784D01*
X5437353Y-17478736D02*
X5446877Y-17488260D01*
X5446877Y-17488260D02*
X5437353Y-17497784D01*
X5437353Y-17497784D02*
X5427829Y-17488260D01*
X5427829Y-17488260D02*
X5437353Y-17478736D01*
X5437353Y-17478736D02*
X5437353Y-17497784D01*
X5627829Y-17297784D02*
X5532591Y-17297784D01*
X5532591Y-17297784D02*
X5523067Y-17393022D01*
X5523067Y-17393022D02*
X5532591Y-17383498D01*
X5532591Y-17383498D02*
X5551639Y-17373974D01*
X5551639Y-17373974D02*
X5599258Y-17373974D01*
X5599258Y-17373974D02*
X5618305Y-17383498D01*
X5618305Y-17383498D02*
X5627829Y-17393022D01*
X5627829Y-17393022D02*
X5637353Y-17412070D01*
X5637353Y-17412070D02*
X5637353Y-17459689D01*
X5637353Y-17459689D02*
X5627829Y-17478736D01*
X5627829Y-17478736D02*
X5618305Y-17488260D01*
X5618305Y-17488260D02*
X5599258Y-17497784D01*
X5599258Y-17497784D02*
X5551639Y-17497784D01*
X5551639Y-17497784D02*
X5532591Y-17488260D01*
X5532591Y-17488260D02*
X5523067Y-17478736D01*
X5761162Y-17297784D02*
X5780210Y-17297784D01*
X5780210Y-17297784D02*
X5799258Y-17307308D01*
X5799258Y-17307308D02*
X5808782Y-17316831D01*
X5808782Y-17316831D02*
X5818305Y-17335879D01*
X5818305Y-17335879D02*
X5827829Y-17373974D01*
X5827829Y-17373974D02*
X5827829Y-17421593D01*
X5827829Y-17421593D02*
X5818305Y-17459689D01*
X5818305Y-17459689D02*
X5808782Y-17478736D01*
X5808782Y-17478736D02*
X5799258Y-17488260D01*
X5799258Y-17488260D02*
X5780210Y-17497784D01*
X5780210Y-17497784D02*
X5761162Y-17497784D01*
X5761162Y-17497784D02*
X5742115Y-17488260D01*
X5742115Y-17488260D02*
X5732591Y-17478736D01*
X5732591Y-17478736D02*
X5723067Y-17459689D01*
X5723067Y-17459689D02*
X5713543Y-17421593D01*
X5713543Y-17421593D02*
X5713543Y-17373974D01*
X5713543Y-17373974D02*
X5723067Y-17335879D01*
X5723067Y-17335879D02*
X5732591Y-17316831D01*
X5732591Y-17316831D02*
X5742115Y-17307308D01*
X5742115Y-17307308D02*
X5761162Y-17297784D01*
X5951639Y-17297784D02*
X5970686Y-17297784D01*
X5970686Y-17297784D02*
X5989734Y-17307308D01*
X5989734Y-17307308D02*
X5999258Y-17316831D01*
X5999258Y-17316831D02*
X6008782Y-17335879D01*
X6008782Y-17335879D02*
X6018305Y-17373974D01*
X6018305Y-17373974D02*
X6018305Y-17421593D01*
X6018305Y-17421593D02*
X6008782Y-17459689D01*
X6008782Y-17459689D02*
X5999258Y-17478736D01*
X5999258Y-17478736D02*
X5989734Y-17488260D01*
X5989734Y-17488260D02*
X5970686Y-17497784D01*
X5970686Y-17497784D02*
X5951639Y-17497784D01*
X5951639Y-17497784D02*
X5932591Y-17488260D01*
X5932591Y-17488260D02*
X5923067Y-17478736D01*
X5923067Y-17478736D02*
X5913543Y-17459689D01*
X5913543Y-17459689D02*
X5904020Y-17421593D01*
X5904020Y-17421593D02*
X5904020Y-17373974D01*
X5904020Y-17373974D02*
X5913543Y-17335879D01*
X5913543Y-17335879D02*
X5923067Y-17316831D01*
X5923067Y-17316831D02*
X5932591Y-17307308D01*
X5932591Y-17307308D02*
X5951639Y-17297784D01*
X6104020Y-17497784D02*
X6104020Y-17364450D01*
X6104020Y-17383498D02*
X6113543Y-17373974D01*
X6113543Y-17373974D02*
X6132591Y-17364450D01*
X6132591Y-17364450D02*
X6161163Y-17364450D01*
X6161163Y-17364450D02*
X6180210Y-17373974D01*
X6180210Y-17373974D02*
X6189734Y-17393022D01*
X6189734Y-17393022D02*
X6189734Y-17497784D01*
X6189734Y-17393022D02*
X6199258Y-17373974D01*
X6199258Y-17373974D02*
X6218305Y-17364450D01*
X6218305Y-17364450D02*
X6246877Y-17364450D01*
X6246877Y-17364450D02*
X6265924Y-17373974D01*
X6265924Y-17373974D02*
X6275448Y-17393022D01*
X6275448Y-17393022D02*
X6275448Y-17497784D01*
X6370686Y-17497784D02*
X6370686Y-17364450D01*
X6370686Y-17383498D02*
X6380210Y-17373974D01*
X6380210Y-17373974D02*
X6399258Y-17364450D01*
X6399258Y-17364450D02*
X6427829Y-17364450D01*
X6427829Y-17364450D02*
X6446877Y-17373974D01*
X6446877Y-17373974D02*
X6456401Y-17393022D01*
X6456401Y-17393022D02*
X6456401Y-17497784D01*
X6456401Y-17393022D02*
X6465924Y-17373974D01*
X6465924Y-17373974D02*
X6484972Y-17364450D01*
X6484972Y-17364450D02*
X6513543Y-17364450D01*
X6513543Y-17364450D02*
X6532591Y-17373974D01*
X6532591Y-17373974D02*
X6542115Y-17393022D01*
X6542115Y-17393022D02*
X6542115Y-17497784D01*
X6932591Y-17288260D02*
X6761163Y-17545403D01*
X7189734Y-17297784D02*
X7208782Y-17297784D01*
X7208782Y-17297784D02*
X7227829Y-17307308D01*
X7227829Y-17307308D02*
X7237353Y-17316831D01*
X7237353Y-17316831D02*
X7246877Y-17335879D01*
X7246877Y-17335879D02*
X7256401Y-17373974D01*
X7256401Y-17373974D02*
X7256401Y-17421593D01*
X7256401Y-17421593D02*
X7246877Y-17459689D01*
X7246877Y-17459689D02*
X7237353Y-17478736D01*
X7237353Y-17478736D02*
X7227829Y-17488260D01*
X7227829Y-17488260D02*
X7208782Y-17497784D01*
X7208782Y-17497784D02*
X7189734Y-17497784D01*
X7189734Y-17497784D02*
X7170686Y-17488260D01*
X7170686Y-17488260D02*
X7161163Y-17478736D01*
X7161163Y-17478736D02*
X7151639Y-17459689D01*
X7151639Y-17459689D02*
X7142115Y-17421593D01*
X7142115Y-17421593D02*
X7142115Y-17373974D01*
X7142115Y-17373974D02*
X7151639Y-17335879D01*
X7151639Y-17335879D02*
X7161163Y-17316831D01*
X7161163Y-17316831D02*
X7170686Y-17307308D01*
X7170686Y-17307308D02*
X7189734Y-17297784D01*
X7342115Y-17478736D02*
X7351639Y-17488260D01*
X7351639Y-17488260D02*
X7342115Y-17497784D01*
X7342115Y-17497784D02*
X7332591Y-17488260D01*
X7332591Y-17488260D02*
X7342115Y-17478736D01*
X7342115Y-17478736D02*
X7342115Y-17497784D01*
X7475448Y-17297784D02*
X7494496Y-17297784D01*
X7494496Y-17297784D02*
X7513544Y-17307308D01*
X7513544Y-17307308D02*
X7523067Y-17316831D01*
X7523067Y-17316831D02*
X7532591Y-17335879D01*
X7532591Y-17335879D02*
X7542115Y-17373974D01*
X7542115Y-17373974D02*
X7542115Y-17421593D01*
X7542115Y-17421593D02*
X7532591Y-17459689D01*
X7532591Y-17459689D02*
X7523067Y-17478736D01*
X7523067Y-17478736D02*
X7513544Y-17488260D01*
X7513544Y-17488260D02*
X7494496Y-17497784D01*
X7494496Y-17497784D02*
X7475448Y-17497784D01*
X7475448Y-17497784D02*
X7456401Y-17488260D01*
X7456401Y-17488260D02*
X7446877Y-17478736D01*
X7446877Y-17478736D02*
X7437353Y-17459689D01*
X7437353Y-17459689D02*
X7427829Y-17421593D01*
X7427829Y-17421593D02*
X7427829Y-17373974D01*
X7427829Y-17373974D02*
X7437353Y-17335879D01*
X7437353Y-17335879D02*
X7446877Y-17316831D01*
X7446877Y-17316831D02*
X7456401Y-17307308D01*
X7456401Y-17307308D02*
X7475448Y-17297784D01*
X7732591Y-17497784D02*
X7618306Y-17497784D01*
X7675448Y-17497784D02*
X7675448Y-17297784D01*
X7675448Y-17297784D02*
X7656401Y-17326355D01*
X7656401Y-17326355D02*
X7637353Y-17345403D01*
X7637353Y-17345403D02*
X7618306Y-17354927D01*
X7827829Y-17497784D02*
X7865925Y-17497784D01*
X7865925Y-17497784D02*
X7884972Y-17488260D01*
X7884972Y-17488260D02*
X7894496Y-17478736D01*
X7894496Y-17478736D02*
X7913544Y-17450165D01*
X7913544Y-17450165D02*
X7923067Y-17412070D01*
X7923067Y-17412070D02*
X7923067Y-17335879D01*
X7923067Y-17335879D02*
X7913544Y-17316831D01*
X7913544Y-17316831D02*
X7904020Y-17307308D01*
X7904020Y-17307308D02*
X7884972Y-17297784D01*
X7884972Y-17297784D02*
X7846877Y-17297784D01*
X7846877Y-17297784D02*
X7827829Y-17307308D01*
X7827829Y-17307308D02*
X7818306Y-17316831D01*
X7818306Y-17316831D02*
X7808782Y-17335879D01*
X7808782Y-17335879D02*
X7808782Y-17383498D01*
X7808782Y-17383498D02*
X7818306Y-17402546D01*
X7818306Y-17402546D02*
X7827829Y-17412070D01*
X7827829Y-17412070D02*
X7846877Y-17421593D01*
X7846877Y-17421593D02*
X7884972Y-17421593D01*
X7884972Y-17421593D02*
X7904020Y-17412070D01*
X7904020Y-17412070D02*
X7913544Y-17402546D01*
X7913544Y-17402546D02*
X7923067Y-17383498D01*
X7989734Y-17297784D02*
X8123067Y-17297784D01*
X8123067Y-17297784D02*
X8037353Y-17497784D01*
X8189734Y-17297784D02*
X8189734Y-17335879D01*
X8265925Y-17297784D02*
X8265925Y-17335879D01*
X8561163Y-17573974D02*
X8551639Y-17564450D01*
X8551639Y-17564450D02*
X8532591Y-17535879D01*
X8532591Y-17535879D02*
X8523068Y-17516831D01*
X8523068Y-17516831D02*
X8513544Y-17488260D01*
X8513544Y-17488260D02*
X8504020Y-17440641D01*
X8504020Y-17440641D02*
X8504020Y-17402546D01*
X8504020Y-17402546D02*
X8513544Y-17354927D01*
X8513544Y-17354927D02*
X8523068Y-17326355D01*
X8523068Y-17326355D02*
X8532591Y-17307308D01*
X8532591Y-17307308D02*
X8551639Y-17278736D01*
X8551639Y-17278736D02*
X8561163Y-17269212D01*
X8723068Y-17364450D02*
X8723068Y-17497784D01*
X8675449Y-17288260D02*
X8627830Y-17431117D01*
X8627830Y-17431117D02*
X8751639Y-17431117D01*
X8865925Y-17297784D02*
X8884972Y-17297784D01*
X8884972Y-17297784D02*
X8904020Y-17307308D01*
X8904020Y-17307308D02*
X8913544Y-17316831D01*
X8913544Y-17316831D02*
X8923068Y-17335879D01*
X8923068Y-17335879D02*
X8932591Y-17373974D01*
X8932591Y-17373974D02*
X8932591Y-17421593D01*
X8932591Y-17421593D02*
X8923068Y-17459689D01*
X8923068Y-17459689D02*
X8913544Y-17478736D01*
X8913544Y-17478736D02*
X8904020Y-17488260D01*
X8904020Y-17488260D02*
X8884972Y-17497784D01*
X8884972Y-17497784D02*
X8865925Y-17497784D01*
X8865925Y-17497784D02*
X8846877Y-17488260D01*
X8846877Y-17488260D02*
X8837353Y-17478736D01*
X8837353Y-17478736D02*
X8827830Y-17459689D01*
X8827830Y-17459689D02*
X8818306Y-17421593D01*
X8818306Y-17421593D02*
X8818306Y-17373974D01*
X8818306Y-17373974D02*
X8827830Y-17335879D01*
X8827830Y-17335879D02*
X8837353Y-17316831D01*
X8837353Y-17316831D02*
X8846877Y-17307308D01*
X8846877Y-17307308D02*
X8865925Y-17297784D01*
X9170687Y-17497784D02*
X9170687Y-17297784D01*
X9256401Y-17497784D02*
X9256401Y-17393022D01*
X9256401Y-17393022D02*
X9246877Y-17373974D01*
X9246877Y-17373974D02*
X9227830Y-17364450D01*
X9227830Y-17364450D02*
X9199258Y-17364450D01*
X9199258Y-17364450D02*
X9180211Y-17373974D01*
X9180211Y-17373974D02*
X9170687Y-17383498D01*
X9380211Y-17497784D02*
X9361163Y-17488260D01*
X9361163Y-17488260D02*
X9351639Y-17478736D01*
X9351639Y-17478736D02*
X9342115Y-17459689D01*
X9342115Y-17459689D02*
X9342115Y-17402546D01*
X9342115Y-17402546D02*
X9351639Y-17383498D01*
X9351639Y-17383498D02*
X9361163Y-17373974D01*
X9361163Y-17373974D02*
X9380211Y-17364450D01*
X9380211Y-17364450D02*
X9408782Y-17364450D01*
X9408782Y-17364450D02*
X9427830Y-17373974D01*
X9427830Y-17373974D02*
X9437353Y-17383498D01*
X9437353Y-17383498D02*
X9446877Y-17402546D01*
X9446877Y-17402546D02*
X9446877Y-17459689D01*
X9446877Y-17459689D02*
X9437353Y-17478736D01*
X9437353Y-17478736D02*
X9427830Y-17488260D01*
X9427830Y-17488260D02*
X9408782Y-17497784D01*
X9408782Y-17497784D02*
X9380211Y-17497784D01*
X9561163Y-17497784D02*
X9542115Y-17488260D01*
X9542115Y-17488260D02*
X9532592Y-17469212D01*
X9532592Y-17469212D02*
X9532592Y-17297784D01*
X9713544Y-17488260D02*
X9694496Y-17497784D01*
X9694496Y-17497784D02*
X9656401Y-17497784D01*
X9656401Y-17497784D02*
X9637353Y-17488260D01*
X9637353Y-17488260D02*
X9627830Y-17469212D01*
X9627830Y-17469212D02*
X9627830Y-17393022D01*
X9627830Y-17393022D02*
X9637353Y-17373974D01*
X9637353Y-17373974D02*
X9656401Y-17364450D01*
X9656401Y-17364450D02*
X9694496Y-17364450D01*
X9694496Y-17364450D02*
X9713544Y-17373974D01*
X9713544Y-17373974D02*
X9723068Y-17393022D01*
X9723068Y-17393022D02*
X9723068Y-17412070D01*
X9723068Y-17412070D02*
X9627830Y-17431117D01*
X9799258Y-17488260D02*
X9818306Y-17497784D01*
X9818306Y-17497784D02*
X9856401Y-17497784D01*
X9856401Y-17497784D02*
X9875449Y-17488260D01*
X9875449Y-17488260D02*
X9884973Y-17469212D01*
X9884973Y-17469212D02*
X9884973Y-17459689D01*
X9884973Y-17459689D02*
X9875449Y-17440641D01*
X9875449Y-17440641D02*
X9856401Y-17431117D01*
X9856401Y-17431117D02*
X9827830Y-17431117D01*
X9827830Y-17431117D02*
X9808782Y-17421593D01*
X9808782Y-17421593D02*
X9799258Y-17402546D01*
X9799258Y-17402546D02*
X9799258Y-17393022D01*
X9799258Y-17393022D02*
X9808782Y-17373974D01*
X9808782Y-17373974D02*
X9827830Y-17364450D01*
X9827830Y-17364450D02*
X9856401Y-17364450D01*
X9856401Y-17364450D02*
X9875449Y-17373974D01*
X9951639Y-17573974D02*
X9961163Y-17564450D01*
X9961163Y-17564450D02*
X9980211Y-17535879D01*
X9980211Y-17535879D02*
X9989734Y-17516831D01*
X9989734Y-17516831D02*
X9999258Y-17488260D01*
X9999258Y-17488260D02*
X10008782Y-17440641D01*
X10008782Y-17440641D02*
X10008782Y-17402546D01*
X10008782Y-17402546D02*
X9999258Y-17354927D01*
X9999258Y-17354927D02*
X9989734Y-17326355D01*
X9989734Y-17326355D02*
X9980211Y-17307308D01*
X9980211Y-17307308D02*
X9961163Y-17278736D01*
X9961163Y-17278736D02*
X9951639Y-17269212D01*
D10*
X4956100Y-17640300D02*
X4956100Y-17700300D01*
X4926100Y-17670300D02*
X4986100Y-17670300D01*
D11*
X5284972Y-17561784D02*
X5304020Y-17561784D01*
X5304020Y-17561784D02*
X5323067Y-17571308D01*
X5323067Y-17571308D02*
X5332591Y-17580831D01*
X5332591Y-17580831D02*
X5342115Y-17599879D01*
X5342115Y-17599879D02*
X5351639Y-17637974D01*
X5351639Y-17637974D02*
X5351639Y-17685593D01*
X5351639Y-17685593D02*
X5342115Y-17723689D01*
X5342115Y-17723689D02*
X5332591Y-17742736D01*
X5332591Y-17742736D02*
X5323067Y-17752260D01*
X5323067Y-17752260D02*
X5304020Y-17761784D01*
X5304020Y-17761784D02*
X5284972Y-17761784D01*
X5284972Y-17761784D02*
X5265924Y-17752260D01*
X5265924Y-17752260D02*
X5256401Y-17742736D01*
X5256401Y-17742736D02*
X5246877Y-17723689D01*
X5246877Y-17723689D02*
X5237353Y-17685593D01*
X5237353Y-17685593D02*
X5237353Y-17637974D01*
X5237353Y-17637974D02*
X5246877Y-17599879D01*
X5246877Y-17599879D02*
X5256401Y-17580831D01*
X5256401Y-17580831D02*
X5265924Y-17571308D01*
X5265924Y-17571308D02*
X5284972Y-17561784D01*
X5437353Y-17742736D02*
X5446877Y-17752260D01*
X5446877Y-17752260D02*
X5437353Y-17761784D01*
X5437353Y-17761784D02*
X5427829Y-17752260D01*
X5427829Y-17752260D02*
X5437353Y-17742736D01*
X5437353Y-17742736D02*
X5437353Y-17761784D01*
X5618305Y-17561784D02*
X5580210Y-17561784D01*
X5580210Y-17561784D02*
X5561163Y-17571308D01*
X5561163Y-17571308D02*
X5551639Y-17580831D01*
X5551639Y-17580831D02*
X5532591Y-17609403D01*
X5532591Y-17609403D02*
X5523067Y-17647498D01*
X5523067Y-17647498D02*
X5523067Y-17723689D01*
X5523067Y-17723689D02*
X5532591Y-17742736D01*
X5532591Y-17742736D02*
X5542115Y-17752260D01*
X5542115Y-17752260D02*
X5561163Y-17761784D01*
X5561163Y-17761784D02*
X5599258Y-17761784D01*
X5599258Y-17761784D02*
X5618305Y-17752260D01*
X5618305Y-17752260D02*
X5627829Y-17742736D01*
X5627829Y-17742736D02*
X5637353Y-17723689D01*
X5637353Y-17723689D02*
X5637353Y-17676070D01*
X5637353Y-17676070D02*
X5627829Y-17657022D01*
X5627829Y-17657022D02*
X5618305Y-17647498D01*
X5618305Y-17647498D02*
X5599258Y-17637974D01*
X5599258Y-17637974D02*
X5561163Y-17637974D01*
X5561163Y-17637974D02*
X5542115Y-17647498D01*
X5542115Y-17647498D02*
X5532591Y-17657022D01*
X5532591Y-17657022D02*
X5523067Y-17676070D01*
X5761162Y-17561784D02*
X5780210Y-17561784D01*
X5780210Y-17561784D02*
X5799258Y-17571308D01*
X5799258Y-17571308D02*
X5808782Y-17580831D01*
X5808782Y-17580831D02*
X5818305Y-17599879D01*
X5818305Y-17599879D02*
X5827829Y-17637974D01*
X5827829Y-17637974D02*
X5827829Y-17685593D01*
X5827829Y-17685593D02*
X5818305Y-17723689D01*
X5818305Y-17723689D02*
X5808782Y-17742736D01*
X5808782Y-17742736D02*
X5799258Y-17752260D01*
X5799258Y-17752260D02*
X5780210Y-17761784D01*
X5780210Y-17761784D02*
X5761162Y-17761784D01*
X5761162Y-17761784D02*
X5742115Y-17752260D01*
X5742115Y-17752260D02*
X5732591Y-17742736D01*
X5732591Y-17742736D02*
X5723067Y-17723689D01*
X5723067Y-17723689D02*
X5713543Y-17685593D01*
X5713543Y-17685593D02*
X5713543Y-17637974D01*
X5713543Y-17637974D02*
X5723067Y-17599879D01*
X5723067Y-17599879D02*
X5732591Y-17580831D01*
X5732591Y-17580831D02*
X5742115Y-17571308D01*
X5742115Y-17571308D02*
X5761162Y-17561784D01*
X5951639Y-17561784D02*
X5970686Y-17561784D01*
X5970686Y-17561784D02*
X5989734Y-17571308D01*
X5989734Y-17571308D02*
X5999258Y-17580831D01*
X5999258Y-17580831D02*
X6008782Y-17599879D01*
X6008782Y-17599879D02*
X6018305Y-17637974D01*
X6018305Y-17637974D02*
X6018305Y-17685593D01*
X6018305Y-17685593D02*
X6008782Y-17723689D01*
X6008782Y-17723689D02*
X5999258Y-17742736D01*
X5999258Y-17742736D02*
X5989734Y-17752260D01*
X5989734Y-17752260D02*
X5970686Y-17761784D01*
X5970686Y-17761784D02*
X5951639Y-17761784D01*
X5951639Y-17761784D02*
X5932591Y-17752260D01*
X5932591Y-17752260D02*
X5923067Y-17742736D01*
X5923067Y-17742736D02*
X5913543Y-17723689D01*
X5913543Y-17723689D02*
X5904020Y-17685593D01*
X5904020Y-17685593D02*
X5904020Y-17637974D01*
X5904020Y-17637974D02*
X5913543Y-17599879D01*
X5913543Y-17599879D02*
X5923067Y-17580831D01*
X5923067Y-17580831D02*
X5932591Y-17571308D01*
X5932591Y-17571308D02*
X5951639Y-17561784D01*
X6104020Y-17761784D02*
X6104020Y-17628450D01*
X6104020Y-17647498D02*
X6113543Y-17637974D01*
X6113543Y-17637974D02*
X6132591Y-17628450D01*
X6132591Y-17628450D02*
X6161163Y-17628450D01*
X6161163Y-17628450D02*
X6180210Y-17637974D01*
X6180210Y-17637974D02*
X6189734Y-17657022D01*
X6189734Y-17657022D02*
X6189734Y-17761784D01*
X6189734Y-17657022D02*
X6199258Y-17637974D01*
X6199258Y-17637974D02*
X6218305Y-17628450D01*
X6218305Y-17628450D02*
X6246877Y-17628450D01*
X6246877Y-17628450D02*
X6265924Y-17637974D01*
X6265924Y-17637974D02*
X6275448Y-17657022D01*
X6275448Y-17657022D02*
X6275448Y-17761784D01*
X6370686Y-17761784D02*
X6370686Y-17628450D01*
X6370686Y-17647498D02*
X6380210Y-17637974D01*
X6380210Y-17637974D02*
X6399258Y-17628450D01*
X6399258Y-17628450D02*
X6427829Y-17628450D01*
X6427829Y-17628450D02*
X6446877Y-17637974D01*
X6446877Y-17637974D02*
X6456401Y-17657022D01*
X6456401Y-17657022D02*
X6456401Y-17761784D01*
X6456401Y-17657022D02*
X6465924Y-17637974D01*
X6465924Y-17637974D02*
X6484972Y-17628450D01*
X6484972Y-17628450D02*
X6513543Y-17628450D01*
X6513543Y-17628450D02*
X6532591Y-17637974D01*
X6532591Y-17637974D02*
X6542115Y-17657022D01*
X6542115Y-17657022D02*
X6542115Y-17761784D01*
X6932591Y-17552260D02*
X6761163Y-17809403D01*
X7189734Y-17561784D02*
X7208782Y-17561784D01*
X7208782Y-17561784D02*
X7227829Y-17571308D01*
X7227829Y-17571308D02*
X7237353Y-17580831D01*
X7237353Y-17580831D02*
X7246877Y-17599879D01*
X7246877Y-17599879D02*
X7256401Y-17637974D01*
X7256401Y-17637974D02*
X7256401Y-17685593D01*
X7256401Y-17685593D02*
X7246877Y-17723689D01*
X7246877Y-17723689D02*
X7237353Y-17742736D01*
X7237353Y-17742736D02*
X7227829Y-17752260D01*
X7227829Y-17752260D02*
X7208782Y-17761784D01*
X7208782Y-17761784D02*
X7189734Y-17761784D01*
X7189734Y-17761784D02*
X7170686Y-17752260D01*
X7170686Y-17752260D02*
X7161163Y-17742736D01*
X7161163Y-17742736D02*
X7151639Y-17723689D01*
X7151639Y-17723689D02*
X7142115Y-17685593D01*
X7142115Y-17685593D02*
X7142115Y-17637974D01*
X7142115Y-17637974D02*
X7151639Y-17599879D01*
X7151639Y-17599879D02*
X7161163Y-17580831D01*
X7161163Y-17580831D02*
X7170686Y-17571308D01*
X7170686Y-17571308D02*
X7189734Y-17561784D01*
X7342115Y-17742736D02*
X7351639Y-17752260D01*
X7351639Y-17752260D02*
X7342115Y-17761784D01*
X7342115Y-17761784D02*
X7332591Y-17752260D01*
X7332591Y-17752260D02*
X7342115Y-17742736D01*
X7342115Y-17742736D02*
X7342115Y-17761784D01*
X7475448Y-17561784D02*
X7494496Y-17561784D01*
X7494496Y-17561784D02*
X7513544Y-17571308D01*
X7513544Y-17571308D02*
X7523067Y-17580831D01*
X7523067Y-17580831D02*
X7532591Y-17599879D01*
X7532591Y-17599879D02*
X7542115Y-17637974D01*
X7542115Y-17637974D02*
X7542115Y-17685593D01*
X7542115Y-17685593D02*
X7532591Y-17723689D01*
X7532591Y-17723689D02*
X7523067Y-17742736D01*
X7523067Y-17742736D02*
X7513544Y-17752260D01*
X7513544Y-17752260D02*
X7494496Y-17761784D01*
X7494496Y-17761784D02*
X7475448Y-17761784D01*
X7475448Y-17761784D02*
X7456401Y-17752260D01*
X7456401Y-17752260D02*
X7446877Y-17742736D01*
X7446877Y-17742736D02*
X7437353Y-17723689D01*
X7437353Y-17723689D02*
X7427829Y-17685593D01*
X7427829Y-17685593D02*
X7427829Y-17637974D01*
X7427829Y-17637974D02*
X7437353Y-17599879D01*
X7437353Y-17599879D02*
X7446877Y-17580831D01*
X7446877Y-17580831D02*
X7456401Y-17571308D01*
X7456401Y-17571308D02*
X7475448Y-17561784D01*
X7618306Y-17580831D02*
X7627829Y-17571308D01*
X7627829Y-17571308D02*
X7646877Y-17561784D01*
X7646877Y-17561784D02*
X7694496Y-17561784D01*
X7694496Y-17561784D02*
X7713544Y-17571308D01*
X7713544Y-17571308D02*
X7723067Y-17580831D01*
X7723067Y-17580831D02*
X7732591Y-17599879D01*
X7732591Y-17599879D02*
X7732591Y-17618927D01*
X7732591Y-17618927D02*
X7723067Y-17647498D01*
X7723067Y-17647498D02*
X7608782Y-17761784D01*
X7608782Y-17761784D02*
X7732591Y-17761784D01*
X7799258Y-17561784D02*
X7923067Y-17561784D01*
X7923067Y-17561784D02*
X7856401Y-17637974D01*
X7856401Y-17637974D02*
X7884972Y-17637974D01*
X7884972Y-17637974D02*
X7904020Y-17647498D01*
X7904020Y-17647498D02*
X7913544Y-17657022D01*
X7913544Y-17657022D02*
X7923067Y-17676070D01*
X7923067Y-17676070D02*
X7923067Y-17723689D01*
X7923067Y-17723689D02*
X7913544Y-17742736D01*
X7913544Y-17742736D02*
X7904020Y-17752260D01*
X7904020Y-17752260D02*
X7884972Y-17761784D01*
X7884972Y-17761784D02*
X7827829Y-17761784D01*
X7827829Y-17761784D02*
X7808782Y-17752260D01*
X7808782Y-17752260D02*
X7799258Y-17742736D01*
X8094496Y-17561784D02*
X8056401Y-17561784D01*
X8056401Y-17561784D02*
X8037353Y-17571308D01*
X8037353Y-17571308D02*
X8027829Y-17580831D01*
X8027829Y-17580831D02*
X8008782Y-17609403D01*
X8008782Y-17609403D02*
X7999258Y-17647498D01*
X7999258Y-17647498D02*
X7999258Y-17723689D01*
X7999258Y-17723689D02*
X8008782Y-17742736D01*
X8008782Y-17742736D02*
X8018306Y-17752260D01*
X8018306Y-17752260D02*
X8037353Y-17761784D01*
X8037353Y-17761784D02*
X8075448Y-17761784D01*
X8075448Y-17761784D02*
X8094496Y-17752260D01*
X8094496Y-17752260D02*
X8104020Y-17742736D01*
X8104020Y-17742736D02*
X8113544Y-17723689D01*
X8113544Y-17723689D02*
X8113544Y-17676070D01*
X8113544Y-17676070D02*
X8104020Y-17657022D01*
X8104020Y-17657022D02*
X8094496Y-17647498D01*
X8094496Y-17647498D02*
X8075448Y-17637974D01*
X8075448Y-17637974D02*
X8037353Y-17637974D01*
X8037353Y-17637974D02*
X8018306Y-17647498D01*
X8018306Y-17647498D02*
X8008782Y-17657022D01*
X8008782Y-17657022D02*
X7999258Y-17676070D01*
X8189734Y-17561784D02*
X8189734Y-17599879D01*
X8265925Y-17561784D02*
X8265925Y-17599879D01*
X8561163Y-17837974D02*
X8551639Y-17828450D01*
X8551639Y-17828450D02*
X8532591Y-17799879D01*
X8532591Y-17799879D02*
X8523068Y-17780831D01*
X8523068Y-17780831D02*
X8513544Y-17752260D01*
X8513544Y-17752260D02*
X8504020Y-17704641D01*
X8504020Y-17704641D02*
X8504020Y-17666546D01*
X8504020Y-17666546D02*
X8513544Y-17618927D01*
X8513544Y-17618927D02*
X8523068Y-17590355D01*
X8523068Y-17590355D02*
X8532591Y-17571308D01*
X8532591Y-17571308D02*
X8551639Y-17542736D01*
X8551639Y-17542736D02*
X8561163Y-17533212D01*
X8675449Y-17561784D02*
X8694496Y-17561784D01*
X8694496Y-17561784D02*
X8713544Y-17571308D01*
X8713544Y-17571308D02*
X8723068Y-17580831D01*
X8723068Y-17580831D02*
X8732591Y-17599879D01*
X8732591Y-17599879D02*
X8742115Y-17637974D01*
X8742115Y-17637974D02*
X8742115Y-17685593D01*
X8742115Y-17685593D02*
X8732591Y-17723689D01*
X8732591Y-17723689D02*
X8723068Y-17742736D01*
X8723068Y-17742736D02*
X8713544Y-17752260D01*
X8713544Y-17752260D02*
X8694496Y-17761784D01*
X8694496Y-17761784D02*
X8675449Y-17761784D01*
X8675449Y-17761784D02*
X8656401Y-17752260D01*
X8656401Y-17752260D02*
X8646877Y-17742736D01*
X8646877Y-17742736D02*
X8637353Y-17723689D01*
X8637353Y-17723689D02*
X8627830Y-17685593D01*
X8627830Y-17685593D02*
X8627830Y-17637974D01*
X8627830Y-17637974D02*
X8637353Y-17599879D01*
X8637353Y-17599879D02*
X8646877Y-17580831D01*
X8646877Y-17580831D02*
X8656401Y-17571308D01*
X8656401Y-17571308D02*
X8675449Y-17561784D01*
X8980211Y-17761784D02*
X8980211Y-17561784D01*
X9065925Y-17761784D02*
X9065925Y-17657022D01*
X9065925Y-17657022D02*
X9056401Y-17637974D01*
X9056401Y-17637974D02*
X9037353Y-17628450D01*
X9037353Y-17628450D02*
X9008782Y-17628450D01*
X9008782Y-17628450D02*
X8989734Y-17637974D01*
X8989734Y-17637974D02*
X8980211Y-17647498D01*
X9189734Y-17761784D02*
X9170687Y-17752260D01*
X9170687Y-17752260D02*
X9161163Y-17742736D01*
X9161163Y-17742736D02*
X9151639Y-17723689D01*
X9151639Y-17723689D02*
X9151639Y-17666546D01*
X9151639Y-17666546D02*
X9161163Y-17647498D01*
X9161163Y-17647498D02*
X9170687Y-17637974D01*
X9170687Y-17637974D02*
X9189734Y-17628450D01*
X9189734Y-17628450D02*
X9218306Y-17628450D01*
X9218306Y-17628450D02*
X9237353Y-17637974D01*
X9237353Y-17637974D02*
X9246877Y-17647498D01*
X9246877Y-17647498D02*
X9256401Y-17666546D01*
X9256401Y-17666546D02*
X9256401Y-17723689D01*
X9256401Y-17723689D02*
X9246877Y-17742736D01*
X9246877Y-17742736D02*
X9237353Y-17752260D01*
X9237353Y-17752260D02*
X9218306Y-17761784D01*
X9218306Y-17761784D02*
X9189734Y-17761784D01*
X9370687Y-17761784D02*
X9351639Y-17752260D01*
X9351639Y-17752260D02*
X9342115Y-17733212D01*
X9342115Y-17733212D02*
X9342115Y-17561784D01*
X9523068Y-17752260D02*
X9504020Y-17761784D01*
X9504020Y-17761784D02*
X9465925Y-17761784D01*
X9465925Y-17761784D02*
X9446877Y-17752260D01*
X9446877Y-17752260D02*
X9437353Y-17733212D01*
X9437353Y-17733212D02*
X9437353Y-17657022D01*
X9437353Y-17657022D02*
X9446877Y-17637974D01*
X9446877Y-17637974D02*
X9465925Y-17628450D01*
X9465925Y-17628450D02*
X9504020Y-17628450D01*
X9504020Y-17628450D02*
X9523068Y-17637974D01*
X9523068Y-17637974D02*
X9532592Y-17657022D01*
X9532592Y-17657022D02*
X9532592Y-17676070D01*
X9532592Y-17676070D02*
X9437353Y-17695117D01*
X9608782Y-17752260D02*
X9627830Y-17761784D01*
X9627830Y-17761784D02*
X9665925Y-17761784D01*
X9665925Y-17761784D02*
X9684973Y-17752260D01*
X9684973Y-17752260D02*
X9694496Y-17733212D01*
X9694496Y-17733212D02*
X9694496Y-17723689D01*
X9694496Y-17723689D02*
X9684973Y-17704641D01*
X9684973Y-17704641D02*
X9665925Y-17695117D01*
X9665925Y-17695117D02*
X9637353Y-17695117D01*
X9637353Y-17695117D02*
X9618306Y-17685593D01*
X9618306Y-17685593D02*
X9608782Y-17666546D01*
X9608782Y-17666546D02*
X9608782Y-17657022D01*
X9608782Y-17657022D02*
X9618306Y-17637974D01*
X9618306Y-17637974D02*
X9637353Y-17628450D01*
X9637353Y-17628450D02*
X9665925Y-17628450D01*
X9665925Y-17628450D02*
X9684973Y-17637974D01*
X9932592Y-17685593D02*
X10084973Y-17685593D01*
X10008782Y-17761784D02*
X10008782Y-17609403D01*
X10418306Y-17628450D02*
X10418306Y-17761784D01*
X10370687Y-17552260D02*
X10323068Y-17695117D01*
X10323068Y-17695117D02*
X10446877Y-17695117D01*
X10665925Y-17752260D02*
X10684973Y-17761784D01*
X10684973Y-17761784D02*
X10723068Y-17761784D01*
X10723068Y-17761784D02*
X10742116Y-17752260D01*
X10742116Y-17752260D02*
X10751639Y-17733212D01*
X10751639Y-17733212D02*
X10751639Y-17723689D01*
X10751639Y-17723689D02*
X10742116Y-17704641D01*
X10742116Y-17704641D02*
X10723068Y-17695117D01*
X10723068Y-17695117D02*
X10694496Y-17695117D01*
X10694496Y-17695117D02*
X10675449Y-17685593D01*
X10675449Y-17685593D02*
X10665925Y-17666546D01*
X10665925Y-17666546D02*
X10665925Y-17657022D01*
X10665925Y-17657022D02*
X10675449Y-17637974D01*
X10675449Y-17637974D02*
X10694496Y-17628450D01*
X10694496Y-17628450D02*
X10723068Y-17628450D01*
X10723068Y-17628450D02*
X10742116Y-17637974D01*
X10865925Y-17761784D02*
X10846877Y-17752260D01*
X10846877Y-17752260D02*
X10837354Y-17733212D01*
X10837354Y-17733212D02*
X10837354Y-17561784D01*
X10970687Y-17761784D02*
X10951639Y-17752260D01*
X10951639Y-17752260D02*
X10942116Y-17742736D01*
X10942116Y-17742736D02*
X10932592Y-17723689D01*
X10932592Y-17723689D02*
X10932592Y-17666546D01*
X10932592Y-17666546D02*
X10942116Y-17647498D01*
X10942116Y-17647498D02*
X10951639Y-17637974D01*
X10951639Y-17637974D02*
X10970687Y-17628450D01*
X10970687Y-17628450D02*
X10999258Y-17628450D01*
X10999258Y-17628450D02*
X11018306Y-17637974D01*
X11018306Y-17637974D02*
X11027830Y-17647498D01*
X11027830Y-17647498D02*
X11037354Y-17666546D01*
X11037354Y-17666546D02*
X11037354Y-17723689D01*
X11037354Y-17723689D02*
X11027830Y-17742736D01*
X11027830Y-17742736D02*
X11018306Y-17752260D01*
X11018306Y-17752260D02*
X10999258Y-17761784D01*
X10999258Y-17761784D02*
X10970687Y-17761784D01*
X11094497Y-17628450D02*
X11170687Y-17628450D01*
X11123068Y-17561784D02*
X11123068Y-17733212D01*
X11123068Y-17733212D02*
X11132592Y-17752260D01*
X11132592Y-17752260D02*
X11151639Y-17761784D01*
X11151639Y-17761784D02*
X11170687Y-17761784D01*
X11227830Y-17752260D02*
X11246877Y-17761784D01*
X11246877Y-17761784D02*
X11284973Y-17761784D01*
X11284973Y-17761784D02*
X11304020Y-17752260D01*
X11304020Y-17752260D02*
X11313544Y-17733212D01*
X11313544Y-17733212D02*
X11313544Y-17723689D01*
X11313544Y-17723689D02*
X11304020Y-17704641D01*
X11304020Y-17704641D02*
X11284973Y-17695117D01*
X11284973Y-17695117D02*
X11256401Y-17695117D01*
X11256401Y-17695117D02*
X11237354Y-17685593D01*
X11237354Y-17685593D02*
X11227830Y-17666546D01*
X11227830Y-17666546D02*
X11227830Y-17657022D01*
X11227830Y-17657022D02*
X11237354Y-17637974D01*
X11237354Y-17637974D02*
X11256401Y-17628450D01*
X11256401Y-17628450D02*
X11284973Y-17628450D01*
X11284973Y-17628450D02*
X11304020Y-17637974D01*
X11380211Y-17837974D02*
X11389735Y-17828450D01*
X11389735Y-17828450D02*
X11408782Y-17799879D01*
X11408782Y-17799879D02*
X11418306Y-17780831D01*
X11418306Y-17780831D02*
X11427830Y-17752260D01*
X11427830Y-17752260D02*
X11437354Y-17704641D01*
X11437354Y-17704641D02*
X11437354Y-17666546D01*
X11437354Y-17666546D02*
X11427830Y-17618927D01*
X11427830Y-17618927D02*
X11418306Y-17590355D01*
X11418306Y-17590355D02*
X11408782Y-17571308D01*
X11408782Y-17571308D02*
X11389735Y-17542736D01*
X11389735Y-17542736D02*
X11380211Y-17533212D01*
D10*
X4977173Y-17955853D02*
X4977173Y-17912747D01*
X4934067Y-17912747D01*
X4934067Y-17955853D01*
X4977173Y-17955853D01*
D11*
X5284972Y-17825784D02*
X5304020Y-17825784D01*
X5304020Y-17825784D02*
X5323067Y-17835308D01*
X5323067Y-17835308D02*
X5332591Y-17844831D01*
X5332591Y-17844831D02*
X5342115Y-17863879D01*
X5342115Y-17863879D02*
X5351639Y-17901974D01*
X5351639Y-17901974D02*
X5351639Y-17949593D01*
X5351639Y-17949593D02*
X5342115Y-17987689D01*
X5342115Y-17987689D02*
X5332591Y-18006736D01*
X5332591Y-18006736D02*
X5323067Y-18016260D01*
X5323067Y-18016260D02*
X5304020Y-18025784D01*
X5304020Y-18025784D02*
X5284972Y-18025784D01*
X5284972Y-18025784D02*
X5265924Y-18016260D01*
X5265924Y-18016260D02*
X5256401Y-18006736D01*
X5256401Y-18006736D02*
X5246877Y-17987689D01*
X5246877Y-17987689D02*
X5237353Y-17949593D01*
X5237353Y-17949593D02*
X5237353Y-17901974D01*
X5237353Y-17901974D02*
X5246877Y-17863879D01*
X5246877Y-17863879D02*
X5256401Y-17844831D01*
X5256401Y-17844831D02*
X5265924Y-17835308D01*
X5265924Y-17835308D02*
X5284972Y-17825784D01*
X5437353Y-18006736D02*
X5446877Y-18016260D01*
X5446877Y-18016260D02*
X5437353Y-18025784D01*
X5437353Y-18025784D02*
X5427829Y-18016260D01*
X5427829Y-18016260D02*
X5437353Y-18006736D01*
X5437353Y-18006736D02*
X5437353Y-18025784D01*
X5618305Y-17825784D02*
X5580210Y-17825784D01*
X5580210Y-17825784D02*
X5561163Y-17835308D01*
X5561163Y-17835308D02*
X5551639Y-17844831D01*
X5551639Y-17844831D02*
X5532591Y-17873403D01*
X5532591Y-17873403D02*
X5523067Y-17911498D01*
X5523067Y-17911498D02*
X5523067Y-17987689D01*
X5523067Y-17987689D02*
X5532591Y-18006736D01*
X5532591Y-18006736D02*
X5542115Y-18016260D01*
X5542115Y-18016260D02*
X5561163Y-18025784D01*
X5561163Y-18025784D02*
X5599258Y-18025784D01*
X5599258Y-18025784D02*
X5618305Y-18016260D01*
X5618305Y-18016260D02*
X5627829Y-18006736D01*
X5627829Y-18006736D02*
X5637353Y-17987689D01*
X5637353Y-17987689D02*
X5637353Y-17940070D01*
X5637353Y-17940070D02*
X5627829Y-17921022D01*
X5627829Y-17921022D02*
X5618305Y-17911498D01*
X5618305Y-17911498D02*
X5599258Y-17901974D01*
X5599258Y-17901974D02*
X5561163Y-17901974D01*
X5561163Y-17901974D02*
X5542115Y-17911498D01*
X5542115Y-17911498D02*
X5532591Y-17921022D01*
X5532591Y-17921022D02*
X5523067Y-17940070D01*
X5827829Y-18025784D02*
X5713543Y-18025784D01*
X5770686Y-18025784D02*
X5770686Y-17825784D01*
X5770686Y-17825784D02*
X5751639Y-17854355D01*
X5751639Y-17854355D02*
X5732591Y-17873403D01*
X5732591Y-17873403D02*
X5713543Y-17882927D01*
X5951639Y-17825784D02*
X5970686Y-17825784D01*
X5970686Y-17825784D02*
X5989734Y-17835308D01*
X5989734Y-17835308D02*
X5999258Y-17844831D01*
X5999258Y-17844831D02*
X6008782Y-17863879D01*
X6008782Y-17863879D02*
X6018305Y-17901974D01*
X6018305Y-17901974D02*
X6018305Y-17949593D01*
X6018305Y-17949593D02*
X6008782Y-17987689D01*
X6008782Y-17987689D02*
X5999258Y-18006736D01*
X5999258Y-18006736D02*
X5989734Y-18016260D01*
X5989734Y-18016260D02*
X5970686Y-18025784D01*
X5970686Y-18025784D02*
X5951639Y-18025784D01*
X5951639Y-18025784D02*
X5932591Y-18016260D01*
X5932591Y-18016260D02*
X5923067Y-18006736D01*
X5923067Y-18006736D02*
X5913543Y-17987689D01*
X5913543Y-17987689D02*
X5904020Y-17949593D01*
X5904020Y-17949593D02*
X5904020Y-17901974D01*
X5904020Y-17901974D02*
X5913543Y-17863879D01*
X5913543Y-17863879D02*
X5923067Y-17844831D01*
X5923067Y-17844831D02*
X5932591Y-17835308D01*
X5932591Y-17835308D02*
X5951639Y-17825784D01*
X6104020Y-18025784D02*
X6104020Y-17892450D01*
X6104020Y-17911498D02*
X6113543Y-17901974D01*
X6113543Y-17901974D02*
X6132591Y-17892450D01*
X6132591Y-17892450D02*
X6161163Y-17892450D01*
X6161163Y-17892450D02*
X6180210Y-17901974D01*
X6180210Y-17901974D02*
X6189734Y-17921022D01*
X6189734Y-17921022D02*
X6189734Y-18025784D01*
X6189734Y-17921022D02*
X6199258Y-17901974D01*
X6199258Y-17901974D02*
X6218305Y-17892450D01*
X6218305Y-17892450D02*
X6246877Y-17892450D01*
X6246877Y-17892450D02*
X6265924Y-17901974D01*
X6265924Y-17901974D02*
X6275448Y-17921022D01*
X6275448Y-17921022D02*
X6275448Y-18025784D01*
X6370686Y-18025784D02*
X6370686Y-17892450D01*
X6370686Y-17911498D02*
X6380210Y-17901974D01*
X6380210Y-17901974D02*
X6399258Y-17892450D01*
X6399258Y-17892450D02*
X6427829Y-17892450D01*
X6427829Y-17892450D02*
X6446877Y-17901974D01*
X6446877Y-17901974D02*
X6456401Y-17921022D01*
X6456401Y-17921022D02*
X6456401Y-18025784D01*
X6456401Y-17921022D02*
X6465924Y-17901974D01*
X6465924Y-17901974D02*
X6484972Y-17892450D01*
X6484972Y-17892450D02*
X6513543Y-17892450D01*
X6513543Y-17892450D02*
X6532591Y-17901974D01*
X6532591Y-17901974D02*
X6542115Y-17921022D01*
X6542115Y-17921022D02*
X6542115Y-18025784D01*
X6932591Y-17816260D02*
X6761163Y-18073403D01*
X7189734Y-17825784D02*
X7208782Y-17825784D01*
X7208782Y-17825784D02*
X7227829Y-17835308D01*
X7227829Y-17835308D02*
X7237353Y-17844831D01*
X7237353Y-17844831D02*
X7246877Y-17863879D01*
X7246877Y-17863879D02*
X7256401Y-17901974D01*
X7256401Y-17901974D02*
X7256401Y-17949593D01*
X7256401Y-17949593D02*
X7246877Y-17987689D01*
X7246877Y-17987689D02*
X7237353Y-18006736D01*
X7237353Y-18006736D02*
X7227829Y-18016260D01*
X7227829Y-18016260D02*
X7208782Y-18025784D01*
X7208782Y-18025784D02*
X7189734Y-18025784D01*
X7189734Y-18025784D02*
X7170686Y-18016260D01*
X7170686Y-18016260D02*
X7161163Y-18006736D01*
X7161163Y-18006736D02*
X7151639Y-17987689D01*
X7151639Y-17987689D02*
X7142115Y-17949593D01*
X7142115Y-17949593D02*
X7142115Y-17901974D01*
X7142115Y-17901974D02*
X7151639Y-17863879D01*
X7151639Y-17863879D02*
X7161163Y-17844831D01*
X7161163Y-17844831D02*
X7170686Y-17835308D01*
X7170686Y-17835308D02*
X7189734Y-17825784D01*
X7342115Y-18006736D02*
X7351639Y-18016260D01*
X7351639Y-18016260D02*
X7342115Y-18025784D01*
X7342115Y-18025784D02*
X7332591Y-18016260D01*
X7332591Y-18016260D02*
X7342115Y-18006736D01*
X7342115Y-18006736D02*
X7342115Y-18025784D01*
X7475448Y-17825784D02*
X7494496Y-17825784D01*
X7494496Y-17825784D02*
X7513544Y-17835308D01*
X7513544Y-17835308D02*
X7523067Y-17844831D01*
X7523067Y-17844831D02*
X7532591Y-17863879D01*
X7532591Y-17863879D02*
X7542115Y-17901974D01*
X7542115Y-17901974D02*
X7542115Y-17949593D01*
X7542115Y-17949593D02*
X7532591Y-17987689D01*
X7532591Y-17987689D02*
X7523067Y-18006736D01*
X7523067Y-18006736D02*
X7513544Y-18016260D01*
X7513544Y-18016260D02*
X7494496Y-18025784D01*
X7494496Y-18025784D02*
X7475448Y-18025784D01*
X7475448Y-18025784D02*
X7456401Y-18016260D01*
X7456401Y-18016260D02*
X7446877Y-18006736D01*
X7446877Y-18006736D02*
X7437353Y-17987689D01*
X7437353Y-17987689D02*
X7427829Y-17949593D01*
X7427829Y-17949593D02*
X7427829Y-17901974D01*
X7427829Y-17901974D02*
X7437353Y-17863879D01*
X7437353Y-17863879D02*
X7446877Y-17844831D01*
X7446877Y-17844831D02*
X7456401Y-17835308D01*
X7456401Y-17835308D02*
X7475448Y-17825784D01*
X7618306Y-17844831D02*
X7627829Y-17835308D01*
X7627829Y-17835308D02*
X7646877Y-17825784D01*
X7646877Y-17825784D02*
X7694496Y-17825784D01*
X7694496Y-17825784D02*
X7713544Y-17835308D01*
X7713544Y-17835308D02*
X7723067Y-17844831D01*
X7723067Y-17844831D02*
X7732591Y-17863879D01*
X7732591Y-17863879D02*
X7732591Y-17882927D01*
X7732591Y-17882927D02*
X7723067Y-17911498D01*
X7723067Y-17911498D02*
X7608782Y-18025784D01*
X7608782Y-18025784D02*
X7732591Y-18025784D01*
X7904020Y-17892450D02*
X7904020Y-18025784D01*
X7856401Y-17816260D02*
X7808782Y-17959117D01*
X7808782Y-17959117D02*
X7932591Y-17959117D01*
X8046877Y-17825784D02*
X8065925Y-17825784D01*
X8065925Y-17825784D02*
X8084972Y-17835308D01*
X8084972Y-17835308D02*
X8094496Y-17844831D01*
X8094496Y-17844831D02*
X8104020Y-17863879D01*
X8104020Y-17863879D02*
X8113544Y-17901974D01*
X8113544Y-17901974D02*
X8113544Y-17949593D01*
X8113544Y-17949593D02*
X8104020Y-17987689D01*
X8104020Y-17987689D02*
X8094496Y-18006736D01*
X8094496Y-18006736D02*
X8084972Y-18016260D01*
X8084972Y-18016260D02*
X8065925Y-18025784D01*
X8065925Y-18025784D02*
X8046877Y-18025784D01*
X8046877Y-18025784D02*
X8027829Y-18016260D01*
X8027829Y-18016260D02*
X8018306Y-18006736D01*
X8018306Y-18006736D02*
X8008782Y-17987689D01*
X8008782Y-17987689D02*
X7999258Y-17949593D01*
X7999258Y-17949593D02*
X7999258Y-17901974D01*
X7999258Y-17901974D02*
X8008782Y-17863879D01*
X8008782Y-17863879D02*
X8018306Y-17844831D01*
X8018306Y-17844831D02*
X8027829Y-17835308D01*
X8027829Y-17835308D02*
X8046877Y-17825784D01*
X8189734Y-17825784D02*
X8189734Y-17863879D01*
X8265925Y-17825784D02*
X8265925Y-17863879D01*
X8561163Y-18101974D02*
X8551639Y-18092450D01*
X8551639Y-18092450D02*
X8532591Y-18063879D01*
X8532591Y-18063879D02*
X8523068Y-18044831D01*
X8523068Y-18044831D02*
X8513544Y-18016260D01*
X8513544Y-18016260D02*
X8504020Y-17968641D01*
X8504020Y-17968641D02*
X8504020Y-17930546D01*
X8504020Y-17930546D02*
X8513544Y-17882927D01*
X8513544Y-17882927D02*
X8523068Y-17854355D01*
X8523068Y-17854355D02*
X8532591Y-17835308D01*
X8532591Y-17835308D02*
X8551639Y-17806736D01*
X8551639Y-17806736D02*
X8561163Y-17797212D01*
X8732591Y-17825784D02*
X8637353Y-17825784D01*
X8637353Y-17825784D02*
X8627830Y-17921022D01*
X8627830Y-17921022D02*
X8637353Y-17911498D01*
X8637353Y-17911498D02*
X8656401Y-17901974D01*
X8656401Y-17901974D02*
X8704020Y-17901974D01*
X8704020Y-17901974D02*
X8723068Y-17911498D01*
X8723068Y-17911498D02*
X8732591Y-17921022D01*
X8732591Y-17921022D02*
X8742115Y-17940070D01*
X8742115Y-17940070D02*
X8742115Y-17987689D01*
X8742115Y-17987689D02*
X8732591Y-18006736D01*
X8732591Y-18006736D02*
X8723068Y-18016260D01*
X8723068Y-18016260D02*
X8704020Y-18025784D01*
X8704020Y-18025784D02*
X8656401Y-18025784D01*
X8656401Y-18025784D02*
X8637353Y-18016260D01*
X8637353Y-18016260D02*
X8627830Y-18006736D01*
X8980211Y-18025784D02*
X8980211Y-17825784D01*
X9065925Y-18025784D02*
X9065925Y-17921022D01*
X9065925Y-17921022D02*
X9056401Y-17901974D01*
X9056401Y-17901974D02*
X9037353Y-17892450D01*
X9037353Y-17892450D02*
X9008782Y-17892450D01*
X9008782Y-17892450D02*
X8989734Y-17901974D01*
X8989734Y-17901974D02*
X8980211Y-17911498D01*
X9189734Y-18025784D02*
X9170687Y-18016260D01*
X9170687Y-18016260D02*
X9161163Y-18006736D01*
X9161163Y-18006736D02*
X9151639Y-17987689D01*
X9151639Y-17987689D02*
X9151639Y-17930546D01*
X9151639Y-17930546D02*
X9161163Y-17911498D01*
X9161163Y-17911498D02*
X9170687Y-17901974D01*
X9170687Y-17901974D02*
X9189734Y-17892450D01*
X9189734Y-17892450D02*
X9218306Y-17892450D01*
X9218306Y-17892450D02*
X9237353Y-17901974D01*
X9237353Y-17901974D02*
X9246877Y-17911498D01*
X9246877Y-17911498D02*
X9256401Y-17930546D01*
X9256401Y-17930546D02*
X9256401Y-17987689D01*
X9256401Y-17987689D02*
X9246877Y-18006736D01*
X9246877Y-18006736D02*
X9237353Y-18016260D01*
X9237353Y-18016260D02*
X9218306Y-18025784D01*
X9218306Y-18025784D02*
X9189734Y-18025784D01*
X9370687Y-18025784D02*
X9351639Y-18016260D01*
X9351639Y-18016260D02*
X9342115Y-17997212D01*
X9342115Y-17997212D02*
X9342115Y-17825784D01*
X9523068Y-18016260D02*
X9504020Y-18025784D01*
X9504020Y-18025784D02*
X9465925Y-18025784D01*
X9465925Y-18025784D02*
X9446877Y-18016260D01*
X9446877Y-18016260D02*
X9437353Y-17997212D01*
X9437353Y-17997212D02*
X9437353Y-17921022D01*
X9437353Y-17921022D02*
X9446877Y-17901974D01*
X9446877Y-17901974D02*
X9465925Y-17892450D01*
X9465925Y-17892450D02*
X9504020Y-17892450D01*
X9504020Y-17892450D02*
X9523068Y-17901974D01*
X9523068Y-17901974D02*
X9532592Y-17921022D01*
X9532592Y-17921022D02*
X9532592Y-17940070D01*
X9532592Y-17940070D02*
X9437353Y-17959117D01*
X9608782Y-18016260D02*
X9627830Y-18025784D01*
X9627830Y-18025784D02*
X9665925Y-18025784D01*
X9665925Y-18025784D02*
X9684973Y-18016260D01*
X9684973Y-18016260D02*
X9694496Y-17997212D01*
X9694496Y-17997212D02*
X9694496Y-17987689D01*
X9694496Y-17987689D02*
X9684973Y-17968641D01*
X9684973Y-17968641D02*
X9665925Y-17959117D01*
X9665925Y-17959117D02*
X9637353Y-17959117D01*
X9637353Y-17959117D02*
X9618306Y-17949593D01*
X9618306Y-17949593D02*
X9608782Y-17930546D01*
X9608782Y-17930546D02*
X9608782Y-17921022D01*
X9608782Y-17921022D02*
X9618306Y-17901974D01*
X9618306Y-17901974D02*
X9637353Y-17892450D01*
X9637353Y-17892450D02*
X9665925Y-17892450D01*
X9665925Y-17892450D02*
X9684973Y-17901974D01*
X9761163Y-18101974D02*
X9770687Y-18092450D01*
X9770687Y-18092450D02*
X9789734Y-18063879D01*
X9789734Y-18063879D02*
X9799258Y-18044831D01*
X9799258Y-18044831D02*
X9808782Y-18016260D01*
X9808782Y-18016260D02*
X9818306Y-17968641D01*
X9818306Y-17968641D02*
X9818306Y-17930546D01*
X9818306Y-17930546D02*
X9808782Y-17882927D01*
X9808782Y-17882927D02*
X9799258Y-17854355D01*
X9799258Y-17854355D02*
X9789734Y-17835308D01*
X9789734Y-17835308D02*
X9770687Y-17806736D01*
X9770687Y-17806736D02*
X9761163Y-17797212D01*
D10*
X4953600Y-18230800D02*
X4986100Y-18198300D01*
X4953600Y-18165800D01*
X4921100Y-18198300D01*
X4953600Y-18230800D01*
D11*
X5284972Y-18089784D02*
X5304020Y-18089784D01*
X5304020Y-18089784D02*
X5323067Y-18099308D01*
X5323067Y-18099308D02*
X5332591Y-18108831D01*
X5332591Y-18108831D02*
X5342115Y-18127879D01*
X5342115Y-18127879D02*
X5351639Y-18165974D01*
X5351639Y-18165974D02*
X5351639Y-18213593D01*
X5351639Y-18213593D02*
X5342115Y-18251689D01*
X5342115Y-18251689D02*
X5332591Y-18270736D01*
X5332591Y-18270736D02*
X5323067Y-18280260D01*
X5323067Y-18280260D02*
X5304020Y-18289784D01*
X5304020Y-18289784D02*
X5284972Y-18289784D01*
X5284972Y-18289784D02*
X5265924Y-18280260D01*
X5265924Y-18280260D02*
X5256401Y-18270736D01*
X5256401Y-18270736D02*
X5246877Y-18251689D01*
X5246877Y-18251689D02*
X5237353Y-18213593D01*
X5237353Y-18213593D02*
X5237353Y-18165974D01*
X5237353Y-18165974D02*
X5246877Y-18127879D01*
X5246877Y-18127879D02*
X5256401Y-18108831D01*
X5256401Y-18108831D02*
X5265924Y-18099308D01*
X5265924Y-18099308D02*
X5284972Y-18089784D01*
X5437353Y-18270736D02*
X5446877Y-18280260D01*
X5446877Y-18280260D02*
X5437353Y-18289784D01*
X5437353Y-18289784D02*
X5427829Y-18280260D01*
X5427829Y-18280260D02*
X5437353Y-18270736D01*
X5437353Y-18270736D02*
X5437353Y-18289784D01*
X5618305Y-18089784D02*
X5580210Y-18089784D01*
X5580210Y-18089784D02*
X5561163Y-18099308D01*
X5561163Y-18099308D02*
X5551639Y-18108831D01*
X5551639Y-18108831D02*
X5532591Y-18137403D01*
X5532591Y-18137403D02*
X5523067Y-18175498D01*
X5523067Y-18175498D02*
X5523067Y-18251689D01*
X5523067Y-18251689D02*
X5532591Y-18270736D01*
X5532591Y-18270736D02*
X5542115Y-18280260D01*
X5542115Y-18280260D02*
X5561163Y-18289784D01*
X5561163Y-18289784D02*
X5599258Y-18289784D01*
X5599258Y-18289784D02*
X5618305Y-18280260D01*
X5618305Y-18280260D02*
X5627829Y-18270736D01*
X5627829Y-18270736D02*
X5637353Y-18251689D01*
X5637353Y-18251689D02*
X5637353Y-18204070D01*
X5637353Y-18204070D02*
X5627829Y-18185022D01*
X5627829Y-18185022D02*
X5618305Y-18175498D01*
X5618305Y-18175498D02*
X5599258Y-18165974D01*
X5599258Y-18165974D02*
X5561163Y-18165974D01*
X5561163Y-18165974D02*
X5542115Y-18175498D01*
X5542115Y-18175498D02*
X5532591Y-18185022D01*
X5532591Y-18185022D02*
X5523067Y-18204070D01*
X5818305Y-18089784D02*
X5723067Y-18089784D01*
X5723067Y-18089784D02*
X5713543Y-18185022D01*
X5713543Y-18185022D02*
X5723067Y-18175498D01*
X5723067Y-18175498D02*
X5742115Y-18165974D01*
X5742115Y-18165974D02*
X5789734Y-18165974D01*
X5789734Y-18165974D02*
X5808782Y-18175498D01*
X5808782Y-18175498D02*
X5818305Y-18185022D01*
X5818305Y-18185022D02*
X5827829Y-18204070D01*
X5827829Y-18204070D02*
X5827829Y-18251689D01*
X5827829Y-18251689D02*
X5818305Y-18270736D01*
X5818305Y-18270736D02*
X5808782Y-18280260D01*
X5808782Y-18280260D02*
X5789734Y-18289784D01*
X5789734Y-18289784D02*
X5742115Y-18289784D01*
X5742115Y-18289784D02*
X5723067Y-18280260D01*
X5723067Y-18280260D02*
X5713543Y-18270736D01*
X5951639Y-18089784D02*
X5970686Y-18089784D01*
X5970686Y-18089784D02*
X5989734Y-18099308D01*
X5989734Y-18099308D02*
X5999258Y-18108831D01*
X5999258Y-18108831D02*
X6008782Y-18127879D01*
X6008782Y-18127879D02*
X6018305Y-18165974D01*
X6018305Y-18165974D02*
X6018305Y-18213593D01*
X6018305Y-18213593D02*
X6008782Y-18251689D01*
X6008782Y-18251689D02*
X5999258Y-18270736D01*
X5999258Y-18270736D02*
X5989734Y-18280260D01*
X5989734Y-18280260D02*
X5970686Y-18289784D01*
X5970686Y-18289784D02*
X5951639Y-18289784D01*
X5951639Y-18289784D02*
X5932591Y-18280260D01*
X5932591Y-18280260D02*
X5923067Y-18270736D01*
X5923067Y-18270736D02*
X5913543Y-18251689D01*
X5913543Y-18251689D02*
X5904020Y-18213593D01*
X5904020Y-18213593D02*
X5904020Y-18165974D01*
X5904020Y-18165974D02*
X5913543Y-18127879D01*
X5913543Y-18127879D02*
X5923067Y-18108831D01*
X5923067Y-18108831D02*
X5932591Y-18099308D01*
X5932591Y-18099308D02*
X5951639Y-18089784D01*
X6104020Y-18289784D02*
X6104020Y-18156450D01*
X6104020Y-18175498D02*
X6113543Y-18165974D01*
X6113543Y-18165974D02*
X6132591Y-18156450D01*
X6132591Y-18156450D02*
X6161163Y-18156450D01*
X6161163Y-18156450D02*
X6180210Y-18165974D01*
X6180210Y-18165974D02*
X6189734Y-18185022D01*
X6189734Y-18185022D02*
X6189734Y-18289784D01*
X6189734Y-18185022D02*
X6199258Y-18165974D01*
X6199258Y-18165974D02*
X6218305Y-18156450D01*
X6218305Y-18156450D02*
X6246877Y-18156450D01*
X6246877Y-18156450D02*
X6265924Y-18165974D01*
X6265924Y-18165974D02*
X6275448Y-18185022D01*
X6275448Y-18185022D02*
X6275448Y-18289784D01*
X6370686Y-18289784D02*
X6370686Y-18156450D01*
X6370686Y-18175498D02*
X6380210Y-18165974D01*
X6380210Y-18165974D02*
X6399258Y-18156450D01*
X6399258Y-18156450D02*
X6427829Y-18156450D01*
X6427829Y-18156450D02*
X6446877Y-18165974D01*
X6446877Y-18165974D02*
X6456401Y-18185022D01*
X6456401Y-18185022D02*
X6456401Y-18289784D01*
X6456401Y-18185022D02*
X6465924Y-18165974D01*
X6465924Y-18165974D02*
X6484972Y-18156450D01*
X6484972Y-18156450D02*
X6513543Y-18156450D01*
X6513543Y-18156450D02*
X6532591Y-18165974D01*
X6532591Y-18165974D02*
X6542115Y-18185022D01*
X6542115Y-18185022D02*
X6542115Y-18289784D01*
X6932591Y-18080260D02*
X6761163Y-18337403D01*
X7189734Y-18089784D02*
X7208782Y-18089784D01*
X7208782Y-18089784D02*
X7227829Y-18099308D01*
X7227829Y-18099308D02*
X7237353Y-18108831D01*
X7237353Y-18108831D02*
X7246877Y-18127879D01*
X7246877Y-18127879D02*
X7256401Y-18165974D01*
X7256401Y-18165974D02*
X7256401Y-18213593D01*
X7256401Y-18213593D02*
X7246877Y-18251689D01*
X7246877Y-18251689D02*
X7237353Y-18270736D01*
X7237353Y-18270736D02*
X7227829Y-18280260D01*
X7227829Y-18280260D02*
X7208782Y-18289784D01*
X7208782Y-18289784D02*
X7189734Y-18289784D01*
X7189734Y-18289784D02*
X7170686Y-18280260D01*
X7170686Y-18280260D02*
X7161163Y-18270736D01*
X7161163Y-18270736D02*
X7151639Y-18251689D01*
X7151639Y-18251689D02*
X7142115Y-18213593D01*
X7142115Y-18213593D02*
X7142115Y-18165974D01*
X7142115Y-18165974D02*
X7151639Y-18127879D01*
X7151639Y-18127879D02*
X7161163Y-18108831D01*
X7161163Y-18108831D02*
X7170686Y-18099308D01*
X7170686Y-18099308D02*
X7189734Y-18089784D01*
X7342115Y-18270736D02*
X7351639Y-18280260D01*
X7351639Y-18280260D02*
X7342115Y-18289784D01*
X7342115Y-18289784D02*
X7332591Y-18280260D01*
X7332591Y-18280260D02*
X7342115Y-18270736D01*
X7342115Y-18270736D02*
X7342115Y-18289784D01*
X7475448Y-18089784D02*
X7494496Y-18089784D01*
X7494496Y-18089784D02*
X7513544Y-18099308D01*
X7513544Y-18099308D02*
X7523067Y-18108831D01*
X7523067Y-18108831D02*
X7532591Y-18127879D01*
X7532591Y-18127879D02*
X7542115Y-18165974D01*
X7542115Y-18165974D02*
X7542115Y-18213593D01*
X7542115Y-18213593D02*
X7532591Y-18251689D01*
X7532591Y-18251689D02*
X7523067Y-18270736D01*
X7523067Y-18270736D02*
X7513544Y-18280260D01*
X7513544Y-18280260D02*
X7494496Y-18289784D01*
X7494496Y-18289784D02*
X7475448Y-18289784D01*
X7475448Y-18289784D02*
X7456401Y-18280260D01*
X7456401Y-18280260D02*
X7446877Y-18270736D01*
X7446877Y-18270736D02*
X7437353Y-18251689D01*
X7437353Y-18251689D02*
X7427829Y-18213593D01*
X7427829Y-18213593D02*
X7427829Y-18165974D01*
X7427829Y-18165974D02*
X7437353Y-18127879D01*
X7437353Y-18127879D02*
X7446877Y-18108831D01*
X7446877Y-18108831D02*
X7456401Y-18099308D01*
X7456401Y-18099308D02*
X7475448Y-18089784D01*
X7618306Y-18108831D02*
X7627829Y-18099308D01*
X7627829Y-18099308D02*
X7646877Y-18089784D01*
X7646877Y-18089784D02*
X7694496Y-18089784D01*
X7694496Y-18089784D02*
X7713544Y-18099308D01*
X7713544Y-18099308D02*
X7723067Y-18108831D01*
X7723067Y-18108831D02*
X7732591Y-18127879D01*
X7732591Y-18127879D02*
X7732591Y-18146927D01*
X7732591Y-18146927D02*
X7723067Y-18175498D01*
X7723067Y-18175498D02*
X7608782Y-18289784D01*
X7608782Y-18289784D02*
X7732591Y-18289784D01*
X7913544Y-18089784D02*
X7818306Y-18089784D01*
X7818306Y-18089784D02*
X7808782Y-18185022D01*
X7808782Y-18185022D02*
X7818306Y-18175498D01*
X7818306Y-18175498D02*
X7837353Y-18165974D01*
X7837353Y-18165974D02*
X7884972Y-18165974D01*
X7884972Y-18165974D02*
X7904020Y-18175498D01*
X7904020Y-18175498D02*
X7913544Y-18185022D01*
X7913544Y-18185022D02*
X7923067Y-18204070D01*
X7923067Y-18204070D02*
X7923067Y-18251689D01*
X7923067Y-18251689D02*
X7913544Y-18270736D01*
X7913544Y-18270736D02*
X7904020Y-18280260D01*
X7904020Y-18280260D02*
X7884972Y-18289784D01*
X7884972Y-18289784D02*
X7837353Y-18289784D01*
X7837353Y-18289784D02*
X7818306Y-18280260D01*
X7818306Y-18280260D02*
X7808782Y-18270736D01*
X8094496Y-18089784D02*
X8056401Y-18089784D01*
X8056401Y-18089784D02*
X8037353Y-18099308D01*
X8037353Y-18099308D02*
X8027829Y-18108831D01*
X8027829Y-18108831D02*
X8008782Y-18137403D01*
X8008782Y-18137403D02*
X7999258Y-18175498D01*
X7999258Y-18175498D02*
X7999258Y-18251689D01*
X7999258Y-18251689D02*
X8008782Y-18270736D01*
X8008782Y-18270736D02*
X8018306Y-18280260D01*
X8018306Y-18280260D02*
X8037353Y-18289784D01*
X8037353Y-18289784D02*
X8075448Y-18289784D01*
X8075448Y-18289784D02*
X8094496Y-18280260D01*
X8094496Y-18280260D02*
X8104020Y-18270736D01*
X8104020Y-18270736D02*
X8113544Y-18251689D01*
X8113544Y-18251689D02*
X8113544Y-18204070D01*
X8113544Y-18204070D02*
X8104020Y-18185022D01*
X8104020Y-18185022D02*
X8094496Y-18175498D01*
X8094496Y-18175498D02*
X8075448Y-18165974D01*
X8075448Y-18165974D02*
X8037353Y-18165974D01*
X8037353Y-18165974D02*
X8018306Y-18175498D01*
X8018306Y-18175498D02*
X8008782Y-18185022D01*
X8008782Y-18185022D02*
X7999258Y-18204070D01*
X8189734Y-18089784D02*
X8189734Y-18127879D01*
X8265925Y-18089784D02*
X8265925Y-18127879D01*
X8561163Y-18365974D02*
X8551639Y-18356450D01*
X8551639Y-18356450D02*
X8532591Y-18327879D01*
X8532591Y-18327879D02*
X8523068Y-18308831D01*
X8523068Y-18308831D02*
X8513544Y-18280260D01*
X8513544Y-18280260D02*
X8504020Y-18232641D01*
X8504020Y-18232641D02*
X8504020Y-18194546D01*
X8504020Y-18194546D02*
X8513544Y-18146927D01*
X8513544Y-18146927D02*
X8523068Y-18118355D01*
X8523068Y-18118355D02*
X8532591Y-18099308D01*
X8532591Y-18099308D02*
X8551639Y-18070736D01*
X8551639Y-18070736D02*
X8561163Y-18061212D01*
X8723068Y-18156450D02*
X8723068Y-18289784D01*
X8675449Y-18080260D02*
X8627830Y-18223117D01*
X8627830Y-18223117D02*
X8751639Y-18223117D01*
X8865925Y-18089784D02*
X8884972Y-18089784D01*
X8884972Y-18089784D02*
X8904020Y-18099308D01*
X8904020Y-18099308D02*
X8913544Y-18108831D01*
X8913544Y-18108831D02*
X8923068Y-18127879D01*
X8923068Y-18127879D02*
X8932591Y-18165974D01*
X8932591Y-18165974D02*
X8932591Y-18213593D01*
X8932591Y-18213593D02*
X8923068Y-18251689D01*
X8923068Y-18251689D02*
X8913544Y-18270736D01*
X8913544Y-18270736D02*
X8904020Y-18280260D01*
X8904020Y-18280260D02*
X8884972Y-18289784D01*
X8884972Y-18289784D02*
X8865925Y-18289784D01*
X8865925Y-18289784D02*
X8846877Y-18280260D01*
X8846877Y-18280260D02*
X8837353Y-18270736D01*
X8837353Y-18270736D02*
X8827830Y-18251689D01*
X8827830Y-18251689D02*
X8818306Y-18213593D01*
X8818306Y-18213593D02*
X8818306Y-18165974D01*
X8818306Y-18165974D02*
X8827830Y-18127879D01*
X8827830Y-18127879D02*
X8837353Y-18108831D01*
X8837353Y-18108831D02*
X8846877Y-18099308D01*
X8846877Y-18099308D02*
X8865925Y-18089784D01*
X9170687Y-18289784D02*
X9170687Y-18089784D01*
X9256401Y-18289784D02*
X9256401Y-18185022D01*
X9256401Y-18185022D02*
X9246877Y-18165974D01*
X9246877Y-18165974D02*
X9227830Y-18156450D01*
X9227830Y-18156450D02*
X9199258Y-18156450D01*
X9199258Y-18156450D02*
X9180211Y-18165974D01*
X9180211Y-18165974D02*
X9170687Y-18175498D01*
X9380211Y-18289784D02*
X9361163Y-18280260D01*
X9361163Y-18280260D02*
X9351639Y-18270736D01*
X9351639Y-18270736D02*
X9342115Y-18251689D01*
X9342115Y-18251689D02*
X9342115Y-18194546D01*
X9342115Y-18194546D02*
X9351639Y-18175498D01*
X9351639Y-18175498D02*
X9361163Y-18165974D01*
X9361163Y-18165974D02*
X9380211Y-18156450D01*
X9380211Y-18156450D02*
X9408782Y-18156450D01*
X9408782Y-18156450D02*
X9427830Y-18165974D01*
X9427830Y-18165974D02*
X9437353Y-18175498D01*
X9437353Y-18175498D02*
X9446877Y-18194546D01*
X9446877Y-18194546D02*
X9446877Y-18251689D01*
X9446877Y-18251689D02*
X9437353Y-18270736D01*
X9437353Y-18270736D02*
X9427830Y-18280260D01*
X9427830Y-18280260D02*
X9408782Y-18289784D01*
X9408782Y-18289784D02*
X9380211Y-18289784D01*
X9561163Y-18289784D02*
X9542115Y-18280260D01*
X9542115Y-18280260D02*
X9532592Y-18261212D01*
X9532592Y-18261212D02*
X9532592Y-18089784D01*
X9713544Y-18280260D02*
X9694496Y-18289784D01*
X9694496Y-18289784D02*
X9656401Y-18289784D01*
X9656401Y-18289784D02*
X9637353Y-18280260D01*
X9637353Y-18280260D02*
X9627830Y-18261212D01*
X9627830Y-18261212D02*
X9627830Y-18185022D01*
X9627830Y-18185022D02*
X9637353Y-18165974D01*
X9637353Y-18165974D02*
X9656401Y-18156450D01*
X9656401Y-18156450D02*
X9694496Y-18156450D01*
X9694496Y-18156450D02*
X9713544Y-18165974D01*
X9713544Y-18165974D02*
X9723068Y-18185022D01*
X9723068Y-18185022D02*
X9723068Y-18204070D01*
X9723068Y-18204070D02*
X9627830Y-18223117D01*
X9799258Y-18280260D02*
X9818306Y-18289784D01*
X9818306Y-18289784D02*
X9856401Y-18289784D01*
X9856401Y-18289784D02*
X9875449Y-18280260D01*
X9875449Y-18280260D02*
X9884973Y-18261212D01*
X9884973Y-18261212D02*
X9884973Y-18251689D01*
X9884973Y-18251689D02*
X9875449Y-18232641D01*
X9875449Y-18232641D02*
X9856401Y-18223117D01*
X9856401Y-18223117D02*
X9827830Y-18223117D01*
X9827830Y-18223117D02*
X9808782Y-18213593D01*
X9808782Y-18213593D02*
X9799258Y-18194546D01*
X9799258Y-18194546D02*
X9799258Y-18185022D01*
X9799258Y-18185022D02*
X9808782Y-18165974D01*
X9808782Y-18165974D02*
X9827830Y-18156450D01*
X9827830Y-18156450D02*
X9856401Y-18156450D01*
X9856401Y-18156450D02*
X9875449Y-18165974D01*
X9951639Y-18365974D02*
X9961163Y-18356450D01*
X9961163Y-18356450D02*
X9980211Y-18327879D01*
X9980211Y-18327879D02*
X9989734Y-18308831D01*
X9989734Y-18308831D02*
X9999258Y-18280260D01*
X9999258Y-18280260D02*
X10008782Y-18232641D01*
X10008782Y-18232641D02*
X10008782Y-18194546D01*
X10008782Y-18194546D02*
X9999258Y-18146927D01*
X9999258Y-18146927D02*
X9989734Y-18118355D01*
X9989734Y-18118355D02*
X9980211Y-18099308D01*
X9980211Y-18099308D02*
X9961163Y-18070736D01*
X9961163Y-18070736D02*
X9951639Y-18061212D01*
D10*
X4891100Y-18414800D02*
X4986100Y-18509800D01*
X4986100Y-18414800D02*
X4891100Y-18509800D01*
X4986100Y-18462300D02*
G75*
G02*
X4891100Y-18462300I-47500J0D01*
G01*
X4891100Y-18462300D02*
G75*
G02*
X4986100Y-18462300I47500J0D01*
G01*
D11*
X5284972Y-18353784D02*
X5304020Y-18353784D01*
X5304020Y-18353784D02*
X5323067Y-18363308D01*
X5323067Y-18363308D02*
X5332591Y-18372831D01*
X5332591Y-18372831D02*
X5342115Y-18391879D01*
X5342115Y-18391879D02*
X5351639Y-18429974D01*
X5351639Y-18429974D02*
X5351639Y-18477593D01*
X5351639Y-18477593D02*
X5342115Y-18515689D01*
X5342115Y-18515689D02*
X5332591Y-18534736D01*
X5332591Y-18534736D02*
X5323067Y-18544260D01*
X5323067Y-18544260D02*
X5304020Y-18553784D01*
X5304020Y-18553784D02*
X5284972Y-18553784D01*
X5284972Y-18553784D02*
X5265924Y-18544260D01*
X5265924Y-18544260D02*
X5256401Y-18534736D01*
X5256401Y-18534736D02*
X5246877Y-18515689D01*
X5246877Y-18515689D02*
X5237353Y-18477593D01*
X5237353Y-18477593D02*
X5237353Y-18429974D01*
X5237353Y-18429974D02*
X5246877Y-18391879D01*
X5246877Y-18391879D02*
X5256401Y-18372831D01*
X5256401Y-18372831D02*
X5265924Y-18363308D01*
X5265924Y-18363308D02*
X5284972Y-18353784D01*
X5437353Y-18534736D02*
X5446877Y-18544260D01*
X5446877Y-18544260D02*
X5437353Y-18553784D01*
X5437353Y-18553784D02*
X5427829Y-18544260D01*
X5427829Y-18544260D02*
X5437353Y-18534736D01*
X5437353Y-18534736D02*
X5437353Y-18553784D01*
X5542115Y-18553784D02*
X5580210Y-18553784D01*
X5580210Y-18553784D02*
X5599258Y-18544260D01*
X5599258Y-18544260D02*
X5608782Y-18534736D01*
X5608782Y-18534736D02*
X5627829Y-18506165D01*
X5627829Y-18506165D02*
X5637353Y-18468070D01*
X5637353Y-18468070D02*
X5637353Y-18391879D01*
X5637353Y-18391879D02*
X5627829Y-18372831D01*
X5627829Y-18372831D02*
X5618305Y-18363308D01*
X5618305Y-18363308D02*
X5599258Y-18353784D01*
X5599258Y-18353784D02*
X5561163Y-18353784D01*
X5561163Y-18353784D02*
X5542115Y-18363308D01*
X5542115Y-18363308D02*
X5532591Y-18372831D01*
X5532591Y-18372831D02*
X5523067Y-18391879D01*
X5523067Y-18391879D02*
X5523067Y-18439498D01*
X5523067Y-18439498D02*
X5532591Y-18458546D01*
X5532591Y-18458546D02*
X5542115Y-18468070D01*
X5542115Y-18468070D02*
X5561163Y-18477593D01*
X5561163Y-18477593D02*
X5599258Y-18477593D01*
X5599258Y-18477593D02*
X5618305Y-18468070D01*
X5618305Y-18468070D02*
X5627829Y-18458546D01*
X5627829Y-18458546D02*
X5637353Y-18439498D01*
X5818305Y-18353784D02*
X5723067Y-18353784D01*
X5723067Y-18353784D02*
X5713543Y-18449022D01*
X5713543Y-18449022D02*
X5723067Y-18439498D01*
X5723067Y-18439498D02*
X5742115Y-18429974D01*
X5742115Y-18429974D02*
X5789734Y-18429974D01*
X5789734Y-18429974D02*
X5808782Y-18439498D01*
X5808782Y-18439498D02*
X5818305Y-18449022D01*
X5818305Y-18449022D02*
X5827829Y-18468070D01*
X5827829Y-18468070D02*
X5827829Y-18515689D01*
X5827829Y-18515689D02*
X5818305Y-18534736D01*
X5818305Y-18534736D02*
X5808782Y-18544260D01*
X5808782Y-18544260D02*
X5789734Y-18553784D01*
X5789734Y-18553784D02*
X5742115Y-18553784D01*
X5742115Y-18553784D02*
X5723067Y-18544260D01*
X5723067Y-18544260D02*
X5713543Y-18534736D01*
X5951639Y-18353784D02*
X5970686Y-18353784D01*
X5970686Y-18353784D02*
X5989734Y-18363308D01*
X5989734Y-18363308D02*
X5999258Y-18372831D01*
X5999258Y-18372831D02*
X6008782Y-18391879D01*
X6008782Y-18391879D02*
X6018305Y-18429974D01*
X6018305Y-18429974D02*
X6018305Y-18477593D01*
X6018305Y-18477593D02*
X6008782Y-18515689D01*
X6008782Y-18515689D02*
X5999258Y-18534736D01*
X5999258Y-18534736D02*
X5989734Y-18544260D01*
X5989734Y-18544260D02*
X5970686Y-18553784D01*
X5970686Y-18553784D02*
X5951639Y-18553784D01*
X5951639Y-18553784D02*
X5932591Y-18544260D01*
X5932591Y-18544260D02*
X5923067Y-18534736D01*
X5923067Y-18534736D02*
X5913543Y-18515689D01*
X5913543Y-18515689D02*
X5904020Y-18477593D01*
X5904020Y-18477593D02*
X5904020Y-18429974D01*
X5904020Y-18429974D02*
X5913543Y-18391879D01*
X5913543Y-18391879D02*
X5923067Y-18372831D01*
X5923067Y-18372831D02*
X5932591Y-18363308D01*
X5932591Y-18363308D02*
X5951639Y-18353784D01*
X6104020Y-18553784D02*
X6104020Y-18420450D01*
X6104020Y-18439498D02*
X6113543Y-18429974D01*
X6113543Y-18429974D02*
X6132591Y-18420450D01*
X6132591Y-18420450D02*
X6161163Y-18420450D01*
X6161163Y-18420450D02*
X6180210Y-18429974D01*
X6180210Y-18429974D02*
X6189734Y-18449022D01*
X6189734Y-18449022D02*
X6189734Y-18553784D01*
X6189734Y-18449022D02*
X6199258Y-18429974D01*
X6199258Y-18429974D02*
X6218305Y-18420450D01*
X6218305Y-18420450D02*
X6246877Y-18420450D01*
X6246877Y-18420450D02*
X6265924Y-18429974D01*
X6265924Y-18429974D02*
X6275448Y-18449022D01*
X6275448Y-18449022D02*
X6275448Y-18553784D01*
X6370686Y-18553784D02*
X6370686Y-18420450D01*
X6370686Y-18439498D02*
X6380210Y-18429974D01*
X6380210Y-18429974D02*
X6399258Y-18420450D01*
X6399258Y-18420450D02*
X6427829Y-18420450D01*
X6427829Y-18420450D02*
X6446877Y-18429974D01*
X6446877Y-18429974D02*
X6456401Y-18449022D01*
X6456401Y-18449022D02*
X6456401Y-18553784D01*
X6456401Y-18449022D02*
X6465924Y-18429974D01*
X6465924Y-18429974D02*
X6484972Y-18420450D01*
X6484972Y-18420450D02*
X6513543Y-18420450D01*
X6513543Y-18420450D02*
X6532591Y-18429974D01*
X6532591Y-18429974D02*
X6542115Y-18449022D01*
X6542115Y-18449022D02*
X6542115Y-18553784D01*
X6932591Y-18344260D02*
X6761163Y-18601403D01*
X7189734Y-18353784D02*
X7208782Y-18353784D01*
X7208782Y-18353784D02*
X7227829Y-18363308D01*
X7227829Y-18363308D02*
X7237353Y-18372831D01*
X7237353Y-18372831D02*
X7246877Y-18391879D01*
X7246877Y-18391879D02*
X7256401Y-18429974D01*
X7256401Y-18429974D02*
X7256401Y-18477593D01*
X7256401Y-18477593D02*
X7246877Y-18515689D01*
X7246877Y-18515689D02*
X7237353Y-18534736D01*
X7237353Y-18534736D02*
X7227829Y-18544260D01*
X7227829Y-18544260D02*
X7208782Y-18553784D01*
X7208782Y-18553784D02*
X7189734Y-18553784D01*
X7189734Y-18553784D02*
X7170686Y-18544260D01*
X7170686Y-18544260D02*
X7161163Y-18534736D01*
X7161163Y-18534736D02*
X7151639Y-18515689D01*
X7151639Y-18515689D02*
X7142115Y-18477593D01*
X7142115Y-18477593D02*
X7142115Y-18429974D01*
X7142115Y-18429974D02*
X7151639Y-18391879D01*
X7151639Y-18391879D02*
X7161163Y-18372831D01*
X7161163Y-18372831D02*
X7170686Y-18363308D01*
X7170686Y-18363308D02*
X7189734Y-18353784D01*
X7342115Y-18534736D02*
X7351639Y-18544260D01*
X7351639Y-18544260D02*
X7342115Y-18553784D01*
X7342115Y-18553784D02*
X7332591Y-18544260D01*
X7332591Y-18544260D02*
X7342115Y-18534736D01*
X7342115Y-18534736D02*
X7342115Y-18553784D01*
X7475448Y-18353784D02*
X7494496Y-18353784D01*
X7494496Y-18353784D02*
X7513544Y-18363308D01*
X7513544Y-18363308D02*
X7523067Y-18372831D01*
X7523067Y-18372831D02*
X7532591Y-18391879D01*
X7532591Y-18391879D02*
X7542115Y-18429974D01*
X7542115Y-18429974D02*
X7542115Y-18477593D01*
X7542115Y-18477593D02*
X7532591Y-18515689D01*
X7532591Y-18515689D02*
X7523067Y-18534736D01*
X7523067Y-18534736D02*
X7513544Y-18544260D01*
X7513544Y-18544260D02*
X7494496Y-18553784D01*
X7494496Y-18553784D02*
X7475448Y-18553784D01*
X7475448Y-18553784D02*
X7456401Y-18544260D01*
X7456401Y-18544260D02*
X7446877Y-18534736D01*
X7446877Y-18534736D02*
X7437353Y-18515689D01*
X7437353Y-18515689D02*
X7427829Y-18477593D01*
X7427829Y-18477593D02*
X7427829Y-18429974D01*
X7427829Y-18429974D02*
X7437353Y-18391879D01*
X7437353Y-18391879D02*
X7446877Y-18372831D01*
X7446877Y-18372831D02*
X7456401Y-18363308D01*
X7456401Y-18363308D02*
X7475448Y-18353784D01*
X7608782Y-18353784D02*
X7732591Y-18353784D01*
X7732591Y-18353784D02*
X7665925Y-18429974D01*
X7665925Y-18429974D02*
X7694496Y-18429974D01*
X7694496Y-18429974D02*
X7713544Y-18439498D01*
X7713544Y-18439498D02*
X7723067Y-18449022D01*
X7723067Y-18449022D02*
X7732591Y-18468070D01*
X7732591Y-18468070D02*
X7732591Y-18515689D01*
X7732591Y-18515689D02*
X7723067Y-18534736D01*
X7723067Y-18534736D02*
X7713544Y-18544260D01*
X7713544Y-18544260D02*
X7694496Y-18553784D01*
X7694496Y-18553784D02*
X7637353Y-18553784D01*
X7637353Y-18553784D02*
X7618306Y-18544260D01*
X7618306Y-18544260D02*
X7608782Y-18534736D01*
X7799258Y-18353784D02*
X7932591Y-18353784D01*
X7932591Y-18353784D02*
X7846877Y-18553784D01*
X8094496Y-18420450D02*
X8094496Y-18553784D01*
X8046877Y-18344260D02*
X7999258Y-18487117D01*
X7999258Y-18487117D02*
X8123067Y-18487117D01*
X8189734Y-18353784D02*
X8189734Y-18391879D01*
X8265925Y-18353784D02*
X8265925Y-18391879D01*
X8561163Y-18629974D02*
X8551639Y-18620450D01*
X8551639Y-18620450D02*
X8532591Y-18591879D01*
X8532591Y-18591879D02*
X8523068Y-18572831D01*
X8523068Y-18572831D02*
X8513544Y-18544260D01*
X8513544Y-18544260D02*
X8504020Y-18496641D01*
X8504020Y-18496641D02*
X8504020Y-18458546D01*
X8504020Y-18458546D02*
X8513544Y-18410927D01*
X8513544Y-18410927D02*
X8523068Y-18382355D01*
X8523068Y-18382355D02*
X8532591Y-18363308D01*
X8532591Y-18363308D02*
X8551639Y-18334736D01*
X8551639Y-18334736D02*
X8561163Y-18325212D01*
X8723068Y-18420450D02*
X8723068Y-18553784D01*
X8675449Y-18344260D02*
X8627830Y-18487117D01*
X8627830Y-18487117D02*
X8751639Y-18487117D01*
X8808782Y-18353784D02*
X8932591Y-18353784D01*
X8932591Y-18353784D02*
X8865925Y-18429974D01*
X8865925Y-18429974D02*
X8894496Y-18429974D01*
X8894496Y-18429974D02*
X8913544Y-18439498D01*
X8913544Y-18439498D02*
X8923068Y-18449022D01*
X8923068Y-18449022D02*
X8932591Y-18468070D01*
X8932591Y-18468070D02*
X8932591Y-18515689D01*
X8932591Y-18515689D02*
X8923068Y-18534736D01*
X8923068Y-18534736D02*
X8913544Y-18544260D01*
X8913544Y-18544260D02*
X8894496Y-18553784D01*
X8894496Y-18553784D02*
X8837353Y-18553784D01*
X8837353Y-18553784D02*
X8818306Y-18544260D01*
X8818306Y-18544260D02*
X8808782Y-18534736D01*
X9170687Y-18553784D02*
X9170687Y-18353784D01*
X9256401Y-18553784D02*
X9256401Y-18449022D01*
X9256401Y-18449022D02*
X9246877Y-18429974D01*
X9246877Y-18429974D02*
X9227830Y-18420450D01*
X9227830Y-18420450D02*
X9199258Y-18420450D01*
X9199258Y-18420450D02*
X9180211Y-18429974D01*
X9180211Y-18429974D02*
X9170687Y-18439498D01*
X9380211Y-18553784D02*
X9361163Y-18544260D01*
X9361163Y-18544260D02*
X9351639Y-18534736D01*
X9351639Y-18534736D02*
X9342115Y-18515689D01*
X9342115Y-18515689D02*
X9342115Y-18458546D01*
X9342115Y-18458546D02*
X9351639Y-18439498D01*
X9351639Y-18439498D02*
X9361163Y-18429974D01*
X9361163Y-18429974D02*
X9380211Y-18420450D01*
X9380211Y-18420450D02*
X9408782Y-18420450D01*
X9408782Y-18420450D02*
X9427830Y-18429974D01*
X9427830Y-18429974D02*
X9437353Y-18439498D01*
X9437353Y-18439498D02*
X9446877Y-18458546D01*
X9446877Y-18458546D02*
X9446877Y-18515689D01*
X9446877Y-18515689D02*
X9437353Y-18534736D01*
X9437353Y-18534736D02*
X9427830Y-18544260D01*
X9427830Y-18544260D02*
X9408782Y-18553784D01*
X9408782Y-18553784D02*
X9380211Y-18553784D01*
X9561163Y-18553784D02*
X9542115Y-18544260D01*
X9542115Y-18544260D02*
X9532592Y-18525212D01*
X9532592Y-18525212D02*
X9532592Y-18353784D01*
X9713544Y-18544260D02*
X9694496Y-18553784D01*
X9694496Y-18553784D02*
X9656401Y-18553784D01*
X9656401Y-18553784D02*
X9637353Y-18544260D01*
X9637353Y-18544260D02*
X9627830Y-18525212D01*
X9627830Y-18525212D02*
X9627830Y-18449022D01*
X9627830Y-18449022D02*
X9637353Y-18429974D01*
X9637353Y-18429974D02*
X9656401Y-18420450D01*
X9656401Y-18420450D02*
X9694496Y-18420450D01*
X9694496Y-18420450D02*
X9713544Y-18429974D01*
X9713544Y-18429974D02*
X9723068Y-18449022D01*
X9723068Y-18449022D02*
X9723068Y-18468070D01*
X9723068Y-18468070D02*
X9627830Y-18487117D01*
X9799258Y-18544260D02*
X9818306Y-18553784D01*
X9818306Y-18553784D02*
X9856401Y-18553784D01*
X9856401Y-18553784D02*
X9875449Y-18544260D01*
X9875449Y-18544260D02*
X9884973Y-18525212D01*
X9884973Y-18525212D02*
X9884973Y-18515689D01*
X9884973Y-18515689D02*
X9875449Y-18496641D01*
X9875449Y-18496641D02*
X9856401Y-18487117D01*
X9856401Y-18487117D02*
X9827830Y-18487117D01*
X9827830Y-18487117D02*
X9808782Y-18477593D01*
X9808782Y-18477593D02*
X9799258Y-18458546D01*
X9799258Y-18458546D02*
X9799258Y-18449022D01*
X9799258Y-18449022D02*
X9808782Y-18429974D01*
X9808782Y-18429974D02*
X9827830Y-18420450D01*
X9827830Y-18420450D02*
X9856401Y-18420450D01*
X9856401Y-18420450D02*
X9875449Y-18429974D01*
X9951639Y-18629974D02*
X9961163Y-18620450D01*
X9961163Y-18620450D02*
X9980211Y-18591879D01*
X9980211Y-18591879D02*
X9989734Y-18572831D01*
X9989734Y-18572831D02*
X9999258Y-18544260D01*
X9999258Y-18544260D02*
X10008782Y-18496641D01*
X10008782Y-18496641D02*
X10008782Y-18458546D01*
X10008782Y-18458546D02*
X9999258Y-18410927D01*
X9999258Y-18410927D02*
X9989734Y-18382355D01*
X9989734Y-18382355D02*
X9980211Y-18363308D01*
X9980211Y-18363308D02*
X9961163Y-18334736D01*
X9961163Y-18334736D02*
X9951639Y-18325212D01*
D10*
X4886100Y-18676300D02*
X4986100Y-18776300D01*
X4986100Y-18676300D02*
X4886100Y-18776300D01*
X4936100Y-18676300D02*
X4936100Y-18776300D01*
X4886100Y-18726300D02*
X4986100Y-18726300D01*
D11*
X5351639Y-18817784D02*
X5237353Y-18817784D01*
X5294496Y-18817784D02*
X5294496Y-18617784D01*
X5294496Y-18617784D02*
X5275448Y-18646355D01*
X5275448Y-18646355D02*
X5256401Y-18665403D01*
X5256401Y-18665403D02*
X5237353Y-18674927D01*
X5437353Y-18798736D02*
X5446877Y-18808260D01*
X5446877Y-18808260D02*
X5437353Y-18817784D01*
X5437353Y-18817784D02*
X5427829Y-18808260D01*
X5427829Y-18808260D02*
X5437353Y-18798736D01*
X5437353Y-18798736D02*
X5437353Y-18817784D01*
X5570686Y-18617784D02*
X5589734Y-18617784D01*
X5589734Y-18617784D02*
X5608782Y-18627308D01*
X5608782Y-18627308D02*
X5618305Y-18636831D01*
X5618305Y-18636831D02*
X5627829Y-18655879D01*
X5627829Y-18655879D02*
X5637353Y-18693974D01*
X5637353Y-18693974D02*
X5637353Y-18741593D01*
X5637353Y-18741593D02*
X5627829Y-18779689D01*
X5627829Y-18779689D02*
X5618305Y-18798736D01*
X5618305Y-18798736D02*
X5608782Y-18808260D01*
X5608782Y-18808260D02*
X5589734Y-18817784D01*
X5589734Y-18817784D02*
X5570686Y-18817784D01*
X5570686Y-18817784D02*
X5551639Y-18808260D01*
X5551639Y-18808260D02*
X5542115Y-18798736D01*
X5542115Y-18798736D02*
X5532591Y-18779689D01*
X5532591Y-18779689D02*
X5523067Y-18741593D01*
X5523067Y-18741593D02*
X5523067Y-18693974D01*
X5523067Y-18693974D02*
X5532591Y-18655879D01*
X5532591Y-18655879D02*
X5542115Y-18636831D01*
X5542115Y-18636831D02*
X5551639Y-18627308D01*
X5551639Y-18627308D02*
X5570686Y-18617784D01*
X5761162Y-18617784D02*
X5780210Y-18617784D01*
X5780210Y-18617784D02*
X5799258Y-18627308D01*
X5799258Y-18627308D02*
X5808782Y-18636831D01*
X5808782Y-18636831D02*
X5818305Y-18655879D01*
X5818305Y-18655879D02*
X5827829Y-18693974D01*
X5827829Y-18693974D02*
X5827829Y-18741593D01*
X5827829Y-18741593D02*
X5818305Y-18779689D01*
X5818305Y-18779689D02*
X5808782Y-18798736D01*
X5808782Y-18798736D02*
X5799258Y-18808260D01*
X5799258Y-18808260D02*
X5780210Y-18817784D01*
X5780210Y-18817784D02*
X5761162Y-18817784D01*
X5761162Y-18817784D02*
X5742115Y-18808260D01*
X5742115Y-18808260D02*
X5732591Y-18798736D01*
X5732591Y-18798736D02*
X5723067Y-18779689D01*
X5723067Y-18779689D02*
X5713543Y-18741593D01*
X5713543Y-18741593D02*
X5713543Y-18693974D01*
X5713543Y-18693974D02*
X5723067Y-18655879D01*
X5723067Y-18655879D02*
X5732591Y-18636831D01*
X5732591Y-18636831D02*
X5742115Y-18627308D01*
X5742115Y-18627308D02*
X5761162Y-18617784D01*
X5951639Y-18617784D02*
X5970686Y-18617784D01*
X5970686Y-18617784D02*
X5989734Y-18627308D01*
X5989734Y-18627308D02*
X5999258Y-18636831D01*
X5999258Y-18636831D02*
X6008782Y-18655879D01*
X6008782Y-18655879D02*
X6018305Y-18693974D01*
X6018305Y-18693974D02*
X6018305Y-18741593D01*
X6018305Y-18741593D02*
X6008782Y-18779689D01*
X6008782Y-18779689D02*
X5999258Y-18798736D01*
X5999258Y-18798736D02*
X5989734Y-18808260D01*
X5989734Y-18808260D02*
X5970686Y-18817784D01*
X5970686Y-18817784D02*
X5951639Y-18817784D01*
X5951639Y-18817784D02*
X5932591Y-18808260D01*
X5932591Y-18808260D02*
X5923067Y-18798736D01*
X5923067Y-18798736D02*
X5913543Y-18779689D01*
X5913543Y-18779689D02*
X5904020Y-18741593D01*
X5904020Y-18741593D02*
X5904020Y-18693974D01*
X5904020Y-18693974D02*
X5913543Y-18655879D01*
X5913543Y-18655879D02*
X5923067Y-18636831D01*
X5923067Y-18636831D02*
X5932591Y-18627308D01*
X5932591Y-18627308D02*
X5951639Y-18617784D01*
X6104020Y-18817784D02*
X6104020Y-18684450D01*
X6104020Y-18703498D02*
X6113543Y-18693974D01*
X6113543Y-18693974D02*
X6132591Y-18684450D01*
X6132591Y-18684450D02*
X6161163Y-18684450D01*
X6161163Y-18684450D02*
X6180210Y-18693974D01*
X6180210Y-18693974D02*
X6189734Y-18713022D01*
X6189734Y-18713022D02*
X6189734Y-18817784D01*
X6189734Y-18713022D02*
X6199258Y-18693974D01*
X6199258Y-18693974D02*
X6218305Y-18684450D01*
X6218305Y-18684450D02*
X6246877Y-18684450D01*
X6246877Y-18684450D02*
X6265924Y-18693974D01*
X6265924Y-18693974D02*
X6275448Y-18713022D01*
X6275448Y-18713022D02*
X6275448Y-18817784D01*
X6370686Y-18817784D02*
X6370686Y-18684450D01*
X6370686Y-18703498D02*
X6380210Y-18693974D01*
X6380210Y-18693974D02*
X6399258Y-18684450D01*
X6399258Y-18684450D02*
X6427829Y-18684450D01*
X6427829Y-18684450D02*
X6446877Y-18693974D01*
X6446877Y-18693974D02*
X6456401Y-18713022D01*
X6456401Y-18713022D02*
X6456401Y-18817784D01*
X6456401Y-18713022D02*
X6465924Y-18693974D01*
X6465924Y-18693974D02*
X6484972Y-18684450D01*
X6484972Y-18684450D02*
X6513543Y-18684450D01*
X6513543Y-18684450D02*
X6532591Y-18693974D01*
X6532591Y-18693974D02*
X6542115Y-18713022D01*
X6542115Y-18713022D02*
X6542115Y-18817784D01*
X6932591Y-18608260D02*
X6761163Y-18865403D01*
X7189734Y-18617784D02*
X7208782Y-18617784D01*
X7208782Y-18617784D02*
X7227829Y-18627308D01*
X7227829Y-18627308D02*
X7237353Y-18636831D01*
X7237353Y-18636831D02*
X7246877Y-18655879D01*
X7246877Y-18655879D02*
X7256401Y-18693974D01*
X7256401Y-18693974D02*
X7256401Y-18741593D01*
X7256401Y-18741593D02*
X7246877Y-18779689D01*
X7246877Y-18779689D02*
X7237353Y-18798736D01*
X7237353Y-18798736D02*
X7227829Y-18808260D01*
X7227829Y-18808260D02*
X7208782Y-18817784D01*
X7208782Y-18817784D02*
X7189734Y-18817784D01*
X7189734Y-18817784D02*
X7170686Y-18808260D01*
X7170686Y-18808260D02*
X7161163Y-18798736D01*
X7161163Y-18798736D02*
X7151639Y-18779689D01*
X7151639Y-18779689D02*
X7142115Y-18741593D01*
X7142115Y-18741593D02*
X7142115Y-18693974D01*
X7142115Y-18693974D02*
X7151639Y-18655879D01*
X7151639Y-18655879D02*
X7161163Y-18636831D01*
X7161163Y-18636831D02*
X7170686Y-18627308D01*
X7170686Y-18627308D02*
X7189734Y-18617784D01*
X7342115Y-18798736D02*
X7351639Y-18808260D01*
X7351639Y-18808260D02*
X7342115Y-18817784D01*
X7342115Y-18817784D02*
X7332591Y-18808260D01*
X7332591Y-18808260D02*
X7342115Y-18798736D01*
X7342115Y-18798736D02*
X7342115Y-18817784D01*
X7475448Y-18617784D02*
X7494496Y-18617784D01*
X7494496Y-18617784D02*
X7513544Y-18627308D01*
X7513544Y-18627308D02*
X7523067Y-18636831D01*
X7523067Y-18636831D02*
X7532591Y-18655879D01*
X7532591Y-18655879D02*
X7542115Y-18693974D01*
X7542115Y-18693974D02*
X7542115Y-18741593D01*
X7542115Y-18741593D02*
X7532591Y-18779689D01*
X7532591Y-18779689D02*
X7523067Y-18798736D01*
X7523067Y-18798736D02*
X7513544Y-18808260D01*
X7513544Y-18808260D02*
X7494496Y-18817784D01*
X7494496Y-18817784D02*
X7475448Y-18817784D01*
X7475448Y-18817784D02*
X7456401Y-18808260D01*
X7456401Y-18808260D02*
X7446877Y-18798736D01*
X7446877Y-18798736D02*
X7437353Y-18779689D01*
X7437353Y-18779689D02*
X7427829Y-18741593D01*
X7427829Y-18741593D02*
X7427829Y-18693974D01*
X7427829Y-18693974D02*
X7437353Y-18655879D01*
X7437353Y-18655879D02*
X7446877Y-18636831D01*
X7446877Y-18636831D02*
X7456401Y-18627308D01*
X7456401Y-18627308D02*
X7475448Y-18617784D01*
X7608782Y-18617784D02*
X7732591Y-18617784D01*
X7732591Y-18617784D02*
X7665925Y-18693974D01*
X7665925Y-18693974D02*
X7694496Y-18693974D01*
X7694496Y-18693974D02*
X7713544Y-18703498D01*
X7713544Y-18703498D02*
X7723067Y-18713022D01*
X7723067Y-18713022D02*
X7732591Y-18732070D01*
X7732591Y-18732070D02*
X7732591Y-18779689D01*
X7732591Y-18779689D02*
X7723067Y-18798736D01*
X7723067Y-18798736D02*
X7713544Y-18808260D01*
X7713544Y-18808260D02*
X7694496Y-18817784D01*
X7694496Y-18817784D02*
X7637353Y-18817784D01*
X7637353Y-18817784D02*
X7618306Y-18808260D01*
X7618306Y-18808260D02*
X7608782Y-18798736D01*
X7827829Y-18817784D02*
X7865925Y-18817784D01*
X7865925Y-18817784D02*
X7884972Y-18808260D01*
X7884972Y-18808260D02*
X7894496Y-18798736D01*
X7894496Y-18798736D02*
X7913544Y-18770165D01*
X7913544Y-18770165D02*
X7923067Y-18732070D01*
X7923067Y-18732070D02*
X7923067Y-18655879D01*
X7923067Y-18655879D02*
X7913544Y-18636831D01*
X7913544Y-18636831D02*
X7904020Y-18627308D01*
X7904020Y-18627308D02*
X7884972Y-18617784D01*
X7884972Y-18617784D02*
X7846877Y-18617784D01*
X7846877Y-18617784D02*
X7827829Y-18627308D01*
X7827829Y-18627308D02*
X7818306Y-18636831D01*
X7818306Y-18636831D02*
X7808782Y-18655879D01*
X7808782Y-18655879D02*
X7808782Y-18703498D01*
X7808782Y-18703498D02*
X7818306Y-18722546D01*
X7818306Y-18722546D02*
X7827829Y-18732070D01*
X7827829Y-18732070D02*
X7846877Y-18741593D01*
X7846877Y-18741593D02*
X7884972Y-18741593D01*
X7884972Y-18741593D02*
X7904020Y-18732070D01*
X7904020Y-18732070D02*
X7913544Y-18722546D01*
X7913544Y-18722546D02*
X7923067Y-18703498D01*
X8094496Y-18684450D02*
X8094496Y-18817784D01*
X8046877Y-18608260D02*
X7999258Y-18751117D01*
X7999258Y-18751117D02*
X8123067Y-18751117D01*
X8189734Y-18617784D02*
X8189734Y-18655879D01*
X8265925Y-18617784D02*
X8265925Y-18655879D01*
X8561163Y-18893974D02*
X8551639Y-18884450D01*
X8551639Y-18884450D02*
X8532591Y-18855879D01*
X8532591Y-18855879D02*
X8523068Y-18836831D01*
X8523068Y-18836831D02*
X8513544Y-18808260D01*
X8513544Y-18808260D02*
X8504020Y-18760641D01*
X8504020Y-18760641D02*
X8504020Y-18722546D01*
X8504020Y-18722546D02*
X8513544Y-18674927D01*
X8513544Y-18674927D02*
X8523068Y-18646355D01*
X8523068Y-18646355D02*
X8532591Y-18627308D01*
X8532591Y-18627308D02*
X8551639Y-18598736D01*
X8551639Y-18598736D02*
X8561163Y-18589212D01*
X8723068Y-18684450D02*
X8723068Y-18817784D01*
X8675449Y-18608260D02*
X8627830Y-18751117D01*
X8627830Y-18751117D02*
X8751639Y-18751117D01*
X8808782Y-18617784D02*
X8942115Y-18617784D01*
X8942115Y-18617784D02*
X8856401Y-18817784D01*
X9170687Y-18817784D02*
X9170687Y-18617784D01*
X9256401Y-18817784D02*
X9256401Y-18713022D01*
X9256401Y-18713022D02*
X9246877Y-18693974D01*
X9246877Y-18693974D02*
X9227830Y-18684450D01*
X9227830Y-18684450D02*
X9199258Y-18684450D01*
X9199258Y-18684450D02*
X9180211Y-18693974D01*
X9180211Y-18693974D02*
X9170687Y-18703498D01*
X9380211Y-18817784D02*
X9361163Y-18808260D01*
X9361163Y-18808260D02*
X9351639Y-18798736D01*
X9351639Y-18798736D02*
X9342115Y-18779689D01*
X9342115Y-18779689D02*
X9342115Y-18722546D01*
X9342115Y-18722546D02*
X9351639Y-18703498D01*
X9351639Y-18703498D02*
X9361163Y-18693974D01*
X9361163Y-18693974D02*
X9380211Y-18684450D01*
X9380211Y-18684450D02*
X9408782Y-18684450D01*
X9408782Y-18684450D02*
X9427830Y-18693974D01*
X9427830Y-18693974D02*
X9437353Y-18703498D01*
X9437353Y-18703498D02*
X9446877Y-18722546D01*
X9446877Y-18722546D02*
X9446877Y-18779689D01*
X9446877Y-18779689D02*
X9437353Y-18798736D01*
X9437353Y-18798736D02*
X9427830Y-18808260D01*
X9427830Y-18808260D02*
X9408782Y-18817784D01*
X9408782Y-18817784D02*
X9380211Y-18817784D01*
X9561163Y-18817784D02*
X9542115Y-18808260D01*
X9542115Y-18808260D02*
X9532592Y-18789212D01*
X9532592Y-18789212D02*
X9532592Y-18617784D01*
X9713544Y-18808260D02*
X9694496Y-18817784D01*
X9694496Y-18817784D02*
X9656401Y-18817784D01*
X9656401Y-18817784D02*
X9637353Y-18808260D01*
X9637353Y-18808260D02*
X9627830Y-18789212D01*
X9627830Y-18789212D02*
X9627830Y-18713022D01*
X9627830Y-18713022D02*
X9637353Y-18693974D01*
X9637353Y-18693974D02*
X9656401Y-18684450D01*
X9656401Y-18684450D02*
X9694496Y-18684450D01*
X9694496Y-18684450D02*
X9713544Y-18693974D01*
X9713544Y-18693974D02*
X9723068Y-18713022D01*
X9723068Y-18713022D02*
X9723068Y-18732070D01*
X9723068Y-18732070D02*
X9627830Y-18751117D01*
X9799258Y-18808260D02*
X9818306Y-18817784D01*
X9818306Y-18817784D02*
X9856401Y-18817784D01*
X9856401Y-18817784D02*
X9875449Y-18808260D01*
X9875449Y-18808260D02*
X9884973Y-18789212D01*
X9884973Y-18789212D02*
X9884973Y-18779689D01*
X9884973Y-18779689D02*
X9875449Y-18760641D01*
X9875449Y-18760641D02*
X9856401Y-18751117D01*
X9856401Y-18751117D02*
X9827830Y-18751117D01*
X9827830Y-18751117D02*
X9808782Y-18741593D01*
X9808782Y-18741593D02*
X9799258Y-18722546D01*
X9799258Y-18722546D02*
X9799258Y-18713022D01*
X9799258Y-18713022D02*
X9808782Y-18693974D01*
X9808782Y-18693974D02*
X9827830Y-18684450D01*
X9827830Y-18684450D02*
X9856401Y-18684450D01*
X9856401Y-18684450D02*
X9875449Y-18693974D01*
X9951639Y-18893974D02*
X9961163Y-18884450D01*
X9961163Y-18884450D02*
X9980211Y-18855879D01*
X9980211Y-18855879D02*
X9989734Y-18836831D01*
X9989734Y-18836831D02*
X9999258Y-18808260D01*
X9999258Y-18808260D02*
X10008782Y-18760641D01*
X10008782Y-18760641D02*
X10008782Y-18722546D01*
X10008782Y-18722546D02*
X9999258Y-18674927D01*
X9999258Y-18674927D02*
X9989734Y-18646355D01*
X9989734Y-18646355D02*
X9980211Y-18627308D01*
X9980211Y-18627308D02*
X9961163Y-18598736D01*
X9961163Y-18598736D02*
X9951639Y-18589212D01*
X4786100Y-18890300D02*
X4986100Y-19090300D01*
X4986100Y-18890300D02*
X4786100Y-19090300D01*
X4956811Y-19061011D02*
X4956811Y-18919589D01*
X4815389Y-18919589D01*
X4815389Y-19061011D01*
X4956811Y-19061011D01*
X5237353Y-18900831D02*
X5246877Y-18891308D01*
X5246877Y-18891308D02*
X5265924Y-18881784D01*
X5265924Y-18881784D02*
X5313544Y-18881784D01*
X5313544Y-18881784D02*
X5332591Y-18891308D01*
X5332591Y-18891308D02*
X5342115Y-18900831D01*
X5342115Y-18900831D02*
X5351639Y-18919879D01*
X5351639Y-18919879D02*
X5351639Y-18938927D01*
X5351639Y-18938927D02*
X5342115Y-18967498D01*
X5342115Y-18967498D02*
X5227829Y-19081784D01*
X5227829Y-19081784D02*
X5351639Y-19081784D01*
X5437353Y-19062736D02*
X5446877Y-19072260D01*
X5446877Y-19072260D02*
X5437353Y-19081784D01*
X5437353Y-19081784D02*
X5427829Y-19072260D01*
X5427829Y-19072260D02*
X5437353Y-19062736D01*
X5437353Y-19062736D02*
X5437353Y-19081784D01*
X5627829Y-18881784D02*
X5532591Y-18881784D01*
X5532591Y-18881784D02*
X5523067Y-18977022D01*
X5523067Y-18977022D02*
X5532591Y-18967498D01*
X5532591Y-18967498D02*
X5551639Y-18957974D01*
X5551639Y-18957974D02*
X5599258Y-18957974D01*
X5599258Y-18957974D02*
X5618305Y-18967498D01*
X5618305Y-18967498D02*
X5627829Y-18977022D01*
X5627829Y-18977022D02*
X5637353Y-18996070D01*
X5637353Y-18996070D02*
X5637353Y-19043689D01*
X5637353Y-19043689D02*
X5627829Y-19062736D01*
X5627829Y-19062736D02*
X5618305Y-19072260D01*
X5618305Y-19072260D02*
X5599258Y-19081784D01*
X5599258Y-19081784D02*
X5551639Y-19081784D01*
X5551639Y-19081784D02*
X5532591Y-19072260D01*
X5532591Y-19072260D02*
X5523067Y-19062736D01*
X5761162Y-18881784D02*
X5780210Y-18881784D01*
X5780210Y-18881784D02*
X5799258Y-18891308D01*
X5799258Y-18891308D02*
X5808782Y-18900831D01*
X5808782Y-18900831D02*
X5818305Y-18919879D01*
X5818305Y-18919879D02*
X5827829Y-18957974D01*
X5827829Y-18957974D02*
X5827829Y-19005593D01*
X5827829Y-19005593D02*
X5818305Y-19043689D01*
X5818305Y-19043689D02*
X5808782Y-19062736D01*
X5808782Y-19062736D02*
X5799258Y-19072260D01*
X5799258Y-19072260D02*
X5780210Y-19081784D01*
X5780210Y-19081784D02*
X5761162Y-19081784D01*
X5761162Y-19081784D02*
X5742115Y-19072260D01*
X5742115Y-19072260D02*
X5732591Y-19062736D01*
X5732591Y-19062736D02*
X5723067Y-19043689D01*
X5723067Y-19043689D02*
X5713543Y-19005593D01*
X5713543Y-19005593D02*
X5713543Y-18957974D01*
X5713543Y-18957974D02*
X5723067Y-18919879D01*
X5723067Y-18919879D02*
X5732591Y-18900831D01*
X5732591Y-18900831D02*
X5742115Y-18891308D01*
X5742115Y-18891308D02*
X5761162Y-18881784D01*
X5951639Y-18881784D02*
X5970686Y-18881784D01*
X5970686Y-18881784D02*
X5989734Y-18891308D01*
X5989734Y-18891308D02*
X5999258Y-18900831D01*
X5999258Y-18900831D02*
X6008782Y-18919879D01*
X6008782Y-18919879D02*
X6018305Y-18957974D01*
X6018305Y-18957974D02*
X6018305Y-19005593D01*
X6018305Y-19005593D02*
X6008782Y-19043689D01*
X6008782Y-19043689D02*
X5999258Y-19062736D01*
X5999258Y-19062736D02*
X5989734Y-19072260D01*
X5989734Y-19072260D02*
X5970686Y-19081784D01*
X5970686Y-19081784D02*
X5951639Y-19081784D01*
X5951639Y-19081784D02*
X5932591Y-19072260D01*
X5932591Y-19072260D02*
X5923067Y-19062736D01*
X5923067Y-19062736D02*
X5913543Y-19043689D01*
X5913543Y-19043689D02*
X5904020Y-19005593D01*
X5904020Y-19005593D02*
X5904020Y-18957974D01*
X5904020Y-18957974D02*
X5913543Y-18919879D01*
X5913543Y-18919879D02*
X5923067Y-18900831D01*
X5923067Y-18900831D02*
X5932591Y-18891308D01*
X5932591Y-18891308D02*
X5951639Y-18881784D01*
X6104020Y-19081784D02*
X6104020Y-18948450D01*
X6104020Y-18967498D02*
X6113543Y-18957974D01*
X6113543Y-18957974D02*
X6132591Y-18948450D01*
X6132591Y-18948450D02*
X6161163Y-18948450D01*
X6161163Y-18948450D02*
X6180210Y-18957974D01*
X6180210Y-18957974D02*
X6189734Y-18977022D01*
X6189734Y-18977022D02*
X6189734Y-19081784D01*
X6189734Y-18977022D02*
X6199258Y-18957974D01*
X6199258Y-18957974D02*
X6218305Y-18948450D01*
X6218305Y-18948450D02*
X6246877Y-18948450D01*
X6246877Y-18948450D02*
X6265924Y-18957974D01*
X6265924Y-18957974D02*
X6275448Y-18977022D01*
X6275448Y-18977022D02*
X6275448Y-19081784D01*
X6370686Y-19081784D02*
X6370686Y-18948450D01*
X6370686Y-18967498D02*
X6380210Y-18957974D01*
X6380210Y-18957974D02*
X6399258Y-18948450D01*
X6399258Y-18948450D02*
X6427829Y-18948450D01*
X6427829Y-18948450D02*
X6446877Y-18957974D01*
X6446877Y-18957974D02*
X6456401Y-18977022D01*
X6456401Y-18977022D02*
X6456401Y-19081784D01*
X6456401Y-18977022D02*
X6465924Y-18957974D01*
X6465924Y-18957974D02*
X6484972Y-18948450D01*
X6484972Y-18948450D02*
X6513543Y-18948450D01*
X6513543Y-18948450D02*
X6532591Y-18957974D01*
X6532591Y-18957974D02*
X6542115Y-18977022D01*
X6542115Y-18977022D02*
X6542115Y-19081784D01*
X6932591Y-18872260D02*
X6761163Y-19129403D01*
X7189734Y-18881784D02*
X7208782Y-18881784D01*
X7208782Y-18881784D02*
X7227829Y-18891308D01*
X7227829Y-18891308D02*
X7237353Y-18900831D01*
X7237353Y-18900831D02*
X7246877Y-18919879D01*
X7246877Y-18919879D02*
X7256401Y-18957974D01*
X7256401Y-18957974D02*
X7256401Y-19005593D01*
X7256401Y-19005593D02*
X7246877Y-19043689D01*
X7246877Y-19043689D02*
X7237353Y-19062736D01*
X7237353Y-19062736D02*
X7227829Y-19072260D01*
X7227829Y-19072260D02*
X7208782Y-19081784D01*
X7208782Y-19081784D02*
X7189734Y-19081784D01*
X7189734Y-19081784D02*
X7170686Y-19072260D01*
X7170686Y-19072260D02*
X7161163Y-19062736D01*
X7161163Y-19062736D02*
X7151639Y-19043689D01*
X7151639Y-19043689D02*
X7142115Y-19005593D01*
X7142115Y-19005593D02*
X7142115Y-18957974D01*
X7142115Y-18957974D02*
X7151639Y-18919879D01*
X7151639Y-18919879D02*
X7161163Y-18900831D01*
X7161163Y-18900831D02*
X7170686Y-18891308D01*
X7170686Y-18891308D02*
X7189734Y-18881784D01*
X7342115Y-19062736D02*
X7351639Y-19072260D01*
X7351639Y-19072260D02*
X7342115Y-19081784D01*
X7342115Y-19081784D02*
X7332591Y-19072260D01*
X7332591Y-19072260D02*
X7342115Y-19062736D01*
X7342115Y-19062736D02*
X7342115Y-19081784D01*
X7475448Y-18881784D02*
X7494496Y-18881784D01*
X7494496Y-18881784D02*
X7513544Y-18891308D01*
X7513544Y-18891308D02*
X7523067Y-18900831D01*
X7523067Y-18900831D02*
X7532591Y-18919879D01*
X7532591Y-18919879D02*
X7542115Y-18957974D01*
X7542115Y-18957974D02*
X7542115Y-19005593D01*
X7542115Y-19005593D02*
X7532591Y-19043689D01*
X7532591Y-19043689D02*
X7523067Y-19062736D01*
X7523067Y-19062736D02*
X7513544Y-19072260D01*
X7513544Y-19072260D02*
X7494496Y-19081784D01*
X7494496Y-19081784D02*
X7475448Y-19081784D01*
X7475448Y-19081784D02*
X7456401Y-19072260D01*
X7456401Y-19072260D02*
X7446877Y-19062736D01*
X7446877Y-19062736D02*
X7437353Y-19043689D01*
X7437353Y-19043689D02*
X7427829Y-19005593D01*
X7427829Y-19005593D02*
X7427829Y-18957974D01*
X7427829Y-18957974D02*
X7437353Y-18919879D01*
X7437353Y-18919879D02*
X7446877Y-18900831D01*
X7446877Y-18900831D02*
X7456401Y-18891308D01*
X7456401Y-18891308D02*
X7475448Y-18881784D01*
X7637353Y-19081784D02*
X7675448Y-19081784D01*
X7675448Y-19081784D02*
X7694496Y-19072260D01*
X7694496Y-19072260D02*
X7704020Y-19062736D01*
X7704020Y-19062736D02*
X7723067Y-19034165D01*
X7723067Y-19034165D02*
X7732591Y-18996070D01*
X7732591Y-18996070D02*
X7732591Y-18919879D01*
X7732591Y-18919879D02*
X7723067Y-18900831D01*
X7723067Y-18900831D02*
X7713544Y-18891308D01*
X7713544Y-18891308D02*
X7694496Y-18881784D01*
X7694496Y-18881784D02*
X7656401Y-18881784D01*
X7656401Y-18881784D02*
X7637353Y-18891308D01*
X7637353Y-18891308D02*
X7627829Y-18900831D01*
X7627829Y-18900831D02*
X7618306Y-18919879D01*
X7618306Y-18919879D02*
X7618306Y-18967498D01*
X7618306Y-18967498D02*
X7627829Y-18986546D01*
X7627829Y-18986546D02*
X7637353Y-18996070D01*
X7637353Y-18996070D02*
X7656401Y-19005593D01*
X7656401Y-19005593D02*
X7694496Y-19005593D01*
X7694496Y-19005593D02*
X7713544Y-18996070D01*
X7713544Y-18996070D02*
X7723067Y-18986546D01*
X7723067Y-18986546D02*
X7732591Y-18967498D01*
X7846877Y-18967498D02*
X7827829Y-18957974D01*
X7827829Y-18957974D02*
X7818306Y-18948450D01*
X7818306Y-18948450D02*
X7808782Y-18929403D01*
X7808782Y-18929403D02*
X7808782Y-18919879D01*
X7808782Y-18919879D02*
X7818306Y-18900831D01*
X7818306Y-18900831D02*
X7827829Y-18891308D01*
X7827829Y-18891308D02*
X7846877Y-18881784D01*
X7846877Y-18881784D02*
X7884972Y-18881784D01*
X7884972Y-18881784D02*
X7904020Y-18891308D01*
X7904020Y-18891308D02*
X7913544Y-18900831D01*
X7913544Y-18900831D02*
X7923067Y-18919879D01*
X7923067Y-18919879D02*
X7923067Y-18929403D01*
X7923067Y-18929403D02*
X7913544Y-18948450D01*
X7913544Y-18948450D02*
X7904020Y-18957974D01*
X7904020Y-18957974D02*
X7884972Y-18967498D01*
X7884972Y-18967498D02*
X7846877Y-18967498D01*
X7846877Y-18967498D02*
X7827829Y-18977022D01*
X7827829Y-18977022D02*
X7818306Y-18986546D01*
X7818306Y-18986546D02*
X7808782Y-19005593D01*
X7808782Y-19005593D02*
X7808782Y-19043689D01*
X7808782Y-19043689D02*
X7818306Y-19062736D01*
X7818306Y-19062736D02*
X7827829Y-19072260D01*
X7827829Y-19072260D02*
X7846877Y-19081784D01*
X7846877Y-19081784D02*
X7884972Y-19081784D01*
X7884972Y-19081784D02*
X7904020Y-19072260D01*
X7904020Y-19072260D02*
X7913544Y-19062736D01*
X7913544Y-19062736D02*
X7923067Y-19043689D01*
X7923067Y-19043689D02*
X7923067Y-19005593D01*
X7923067Y-19005593D02*
X7913544Y-18986546D01*
X7913544Y-18986546D02*
X7904020Y-18977022D01*
X7904020Y-18977022D02*
X7884972Y-18967498D01*
X8094496Y-18948450D02*
X8094496Y-19081784D01*
X8046877Y-18872260D02*
X7999258Y-19015117D01*
X7999258Y-19015117D02*
X8123067Y-19015117D01*
X8189734Y-18881784D02*
X8189734Y-18919879D01*
X8265925Y-18881784D02*
X8265925Y-18919879D01*
X8561163Y-19157974D02*
X8551639Y-19148450D01*
X8551639Y-19148450D02*
X8532591Y-19119879D01*
X8532591Y-19119879D02*
X8523068Y-19100831D01*
X8523068Y-19100831D02*
X8513544Y-19072260D01*
X8513544Y-19072260D02*
X8504020Y-19024641D01*
X8504020Y-19024641D02*
X8504020Y-18986546D01*
X8504020Y-18986546D02*
X8513544Y-18938927D01*
X8513544Y-18938927D02*
X8523068Y-18910355D01*
X8523068Y-18910355D02*
X8532591Y-18891308D01*
X8532591Y-18891308D02*
X8551639Y-18862736D01*
X8551639Y-18862736D02*
X8561163Y-18853212D01*
X8618306Y-18881784D02*
X8742115Y-18881784D01*
X8742115Y-18881784D02*
X8675449Y-18957974D01*
X8675449Y-18957974D02*
X8704020Y-18957974D01*
X8704020Y-18957974D02*
X8723068Y-18967498D01*
X8723068Y-18967498D02*
X8732591Y-18977022D01*
X8732591Y-18977022D02*
X8742115Y-18996070D01*
X8742115Y-18996070D02*
X8742115Y-19043689D01*
X8742115Y-19043689D02*
X8732591Y-19062736D01*
X8732591Y-19062736D02*
X8723068Y-19072260D01*
X8723068Y-19072260D02*
X8704020Y-19081784D01*
X8704020Y-19081784D02*
X8646877Y-19081784D01*
X8646877Y-19081784D02*
X8627830Y-19072260D01*
X8627830Y-19072260D02*
X8618306Y-19062736D01*
X8980211Y-19081784D02*
X8980211Y-18881784D01*
X9065925Y-19081784D02*
X9065925Y-18977022D01*
X9065925Y-18977022D02*
X9056401Y-18957974D01*
X9056401Y-18957974D02*
X9037353Y-18948450D01*
X9037353Y-18948450D02*
X9008782Y-18948450D01*
X9008782Y-18948450D02*
X8989734Y-18957974D01*
X8989734Y-18957974D02*
X8980211Y-18967498D01*
X9189734Y-19081784D02*
X9170687Y-19072260D01*
X9170687Y-19072260D02*
X9161163Y-19062736D01*
X9161163Y-19062736D02*
X9151639Y-19043689D01*
X9151639Y-19043689D02*
X9151639Y-18986546D01*
X9151639Y-18986546D02*
X9161163Y-18967498D01*
X9161163Y-18967498D02*
X9170687Y-18957974D01*
X9170687Y-18957974D02*
X9189734Y-18948450D01*
X9189734Y-18948450D02*
X9218306Y-18948450D01*
X9218306Y-18948450D02*
X9237353Y-18957974D01*
X9237353Y-18957974D02*
X9246877Y-18967498D01*
X9246877Y-18967498D02*
X9256401Y-18986546D01*
X9256401Y-18986546D02*
X9256401Y-19043689D01*
X9256401Y-19043689D02*
X9246877Y-19062736D01*
X9246877Y-19062736D02*
X9237353Y-19072260D01*
X9237353Y-19072260D02*
X9218306Y-19081784D01*
X9218306Y-19081784D02*
X9189734Y-19081784D01*
X9370687Y-19081784D02*
X9351639Y-19072260D01*
X9351639Y-19072260D02*
X9342115Y-19053212D01*
X9342115Y-19053212D02*
X9342115Y-18881784D01*
X9523068Y-19072260D02*
X9504020Y-19081784D01*
X9504020Y-19081784D02*
X9465925Y-19081784D01*
X9465925Y-19081784D02*
X9446877Y-19072260D01*
X9446877Y-19072260D02*
X9437353Y-19053212D01*
X9437353Y-19053212D02*
X9437353Y-18977022D01*
X9437353Y-18977022D02*
X9446877Y-18957974D01*
X9446877Y-18957974D02*
X9465925Y-18948450D01*
X9465925Y-18948450D02*
X9504020Y-18948450D01*
X9504020Y-18948450D02*
X9523068Y-18957974D01*
X9523068Y-18957974D02*
X9532592Y-18977022D01*
X9532592Y-18977022D02*
X9532592Y-18996070D01*
X9532592Y-18996070D02*
X9437353Y-19015117D01*
X9608782Y-19072260D02*
X9627830Y-19081784D01*
X9627830Y-19081784D02*
X9665925Y-19081784D01*
X9665925Y-19081784D02*
X9684973Y-19072260D01*
X9684973Y-19072260D02*
X9694496Y-19053212D01*
X9694496Y-19053212D02*
X9694496Y-19043689D01*
X9694496Y-19043689D02*
X9684973Y-19024641D01*
X9684973Y-19024641D02*
X9665925Y-19015117D01*
X9665925Y-19015117D02*
X9637353Y-19015117D01*
X9637353Y-19015117D02*
X9618306Y-19005593D01*
X9618306Y-19005593D02*
X9608782Y-18986546D01*
X9608782Y-18986546D02*
X9608782Y-18977022D01*
X9608782Y-18977022D02*
X9618306Y-18957974D01*
X9618306Y-18957974D02*
X9637353Y-18948450D01*
X9637353Y-18948450D02*
X9665925Y-18948450D01*
X9665925Y-18948450D02*
X9684973Y-18957974D01*
X9761163Y-19157974D02*
X9770687Y-19148450D01*
X9770687Y-19148450D02*
X9789734Y-19119879D01*
X9789734Y-19119879D02*
X9799258Y-19100831D01*
X9799258Y-19100831D02*
X9808782Y-19072260D01*
X9808782Y-19072260D02*
X9818306Y-19024641D01*
X9818306Y-19024641D02*
X9818306Y-18986546D01*
X9818306Y-18986546D02*
X9808782Y-18938927D01*
X9808782Y-18938927D02*
X9799258Y-18910355D01*
X9799258Y-18910355D02*
X9789734Y-18891308D01*
X9789734Y-18891308D02*
X9770687Y-18862736D01*
X9770687Y-18862736D02*
X9761163Y-18853212D01*
X4786100Y-19210300D02*
X4986100Y-19410300D01*
X4986100Y-19210300D02*
X4786100Y-19410300D01*
X4886100Y-19410300D02*
X4986100Y-19310300D01*
X4886100Y-19210300D01*
X4786100Y-19310300D01*
X4886100Y-19410300D01*
X5237353Y-19220831D02*
X5246877Y-19211308D01*
X5246877Y-19211308D02*
X5265924Y-19201784D01*
X5265924Y-19201784D02*
X5313544Y-19201784D01*
X5313544Y-19201784D02*
X5332591Y-19211308D01*
X5332591Y-19211308D02*
X5342115Y-19220831D01*
X5342115Y-19220831D02*
X5351639Y-19239879D01*
X5351639Y-19239879D02*
X5351639Y-19258927D01*
X5351639Y-19258927D02*
X5342115Y-19287498D01*
X5342115Y-19287498D02*
X5227829Y-19401784D01*
X5227829Y-19401784D02*
X5351639Y-19401784D01*
X5437353Y-19382736D02*
X5446877Y-19392260D01*
X5446877Y-19392260D02*
X5437353Y-19401784D01*
X5437353Y-19401784D02*
X5427829Y-19392260D01*
X5427829Y-19392260D02*
X5437353Y-19382736D01*
X5437353Y-19382736D02*
X5437353Y-19401784D01*
X5513544Y-19201784D02*
X5646877Y-19201784D01*
X5646877Y-19201784D02*
X5561163Y-19401784D01*
X5761162Y-19201784D02*
X5780210Y-19201784D01*
X5780210Y-19201784D02*
X5799258Y-19211308D01*
X5799258Y-19211308D02*
X5808782Y-19220831D01*
X5808782Y-19220831D02*
X5818305Y-19239879D01*
X5818305Y-19239879D02*
X5827829Y-19277974D01*
X5827829Y-19277974D02*
X5827829Y-19325593D01*
X5827829Y-19325593D02*
X5818305Y-19363689D01*
X5818305Y-19363689D02*
X5808782Y-19382736D01*
X5808782Y-19382736D02*
X5799258Y-19392260D01*
X5799258Y-19392260D02*
X5780210Y-19401784D01*
X5780210Y-19401784D02*
X5761162Y-19401784D01*
X5761162Y-19401784D02*
X5742115Y-19392260D01*
X5742115Y-19392260D02*
X5732591Y-19382736D01*
X5732591Y-19382736D02*
X5723067Y-19363689D01*
X5723067Y-19363689D02*
X5713543Y-19325593D01*
X5713543Y-19325593D02*
X5713543Y-19277974D01*
X5713543Y-19277974D02*
X5723067Y-19239879D01*
X5723067Y-19239879D02*
X5732591Y-19220831D01*
X5732591Y-19220831D02*
X5742115Y-19211308D01*
X5742115Y-19211308D02*
X5761162Y-19201784D01*
X5951639Y-19201784D02*
X5970686Y-19201784D01*
X5970686Y-19201784D02*
X5989734Y-19211308D01*
X5989734Y-19211308D02*
X5999258Y-19220831D01*
X5999258Y-19220831D02*
X6008782Y-19239879D01*
X6008782Y-19239879D02*
X6018305Y-19277974D01*
X6018305Y-19277974D02*
X6018305Y-19325593D01*
X6018305Y-19325593D02*
X6008782Y-19363689D01*
X6008782Y-19363689D02*
X5999258Y-19382736D01*
X5999258Y-19382736D02*
X5989734Y-19392260D01*
X5989734Y-19392260D02*
X5970686Y-19401784D01*
X5970686Y-19401784D02*
X5951639Y-19401784D01*
X5951639Y-19401784D02*
X5932591Y-19392260D01*
X5932591Y-19392260D02*
X5923067Y-19382736D01*
X5923067Y-19382736D02*
X5913543Y-19363689D01*
X5913543Y-19363689D02*
X5904020Y-19325593D01*
X5904020Y-19325593D02*
X5904020Y-19277974D01*
X5904020Y-19277974D02*
X5913543Y-19239879D01*
X5913543Y-19239879D02*
X5923067Y-19220831D01*
X5923067Y-19220831D02*
X5932591Y-19211308D01*
X5932591Y-19211308D02*
X5951639Y-19201784D01*
X6104020Y-19401784D02*
X6104020Y-19268450D01*
X6104020Y-19287498D02*
X6113543Y-19277974D01*
X6113543Y-19277974D02*
X6132591Y-19268450D01*
X6132591Y-19268450D02*
X6161163Y-19268450D01*
X6161163Y-19268450D02*
X6180210Y-19277974D01*
X6180210Y-19277974D02*
X6189734Y-19297022D01*
X6189734Y-19297022D02*
X6189734Y-19401784D01*
X6189734Y-19297022D02*
X6199258Y-19277974D01*
X6199258Y-19277974D02*
X6218305Y-19268450D01*
X6218305Y-19268450D02*
X6246877Y-19268450D01*
X6246877Y-19268450D02*
X6265924Y-19277974D01*
X6265924Y-19277974D02*
X6275448Y-19297022D01*
X6275448Y-19297022D02*
X6275448Y-19401784D01*
X6370686Y-19401784D02*
X6370686Y-19268450D01*
X6370686Y-19287498D02*
X6380210Y-19277974D01*
X6380210Y-19277974D02*
X6399258Y-19268450D01*
X6399258Y-19268450D02*
X6427829Y-19268450D01*
X6427829Y-19268450D02*
X6446877Y-19277974D01*
X6446877Y-19277974D02*
X6456401Y-19297022D01*
X6456401Y-19297022D02*
X6456401Y-19401784D01*
X6456401Y-19297022D02*
X6465924Y-19277974D01*
X6465924Y-19277974D02*
X6484972Y-19268450D01*
X6484972Y-19268450D02*
X6513543Y-19268450D01*
X6513543Y-19268450D02*
X6532591Y-19277974D01*
X6532591Y-19277974D02*
X6542115Y-19297022D01*
X6542115Y-19297022D02*
X6542115Y-19401784D01*
X6932591Y-19192260D02*
X6761163Y-19449403D01*
X7189734Y-19201784D02*
X7208782Y-19201784D01*
X7208782Y-19201784D02*
X7227829Y-19211308D01*
X7227829Y-19211308D02*
X7237353Y-19220831D01*
X7237353Y-19220831D02*
X7246877Y-19239879D01*
X7246877Y-19239879D02*
X7256401Y-19277974D01*
X7256401Y-19277974D02*
X7256401Y-19325593D01*
X7256401Y-19325593D02*
X7246877Y-19363689D01*
X7246877Y-19363689D02*
X7237353Y-19382736D01*
X7237353Y-19382736D02*
X7227829Y-19392260D01*
X7227829Y-19392260D02*
X7208782Y-19401784D01*
X7208782Y-19401784D02*
X7189734Y-19401784D01*
X7189734Y-19401784D02*
X7170686Y-19392260D01*
X7170686Y-19392260D02*
X7161163Y-19382736D01*
X7161163Y-19382736D02*
X7151639Y-19363689D01*
X7151639Y-19363689D02*
X7142115Y-19325593D01*
X7142115Y-19325593D02*
X7142115Y-19277974D01*
X7142115Y-19277974D02*
X7151639Y-19239879D01*
X7151639Y-19239879D02*
X7161163Y-19220831D01*
X7161163Y-19220831D02*
X7170686Y-19211308D01*
X7170686Y-19211308D02*
X7189734Y-19201784D01*
X7342115Y-19382736D02*
X7351639Y-19392260D01*
X7351639Y-19392260D02*
X7342115Y-19401784D01*
X7342115Y-19401784D02*
X7332591Y-19392260D01*
X7332591Y-19392260D02*
X7342115Y-19382736D01*
X7342115Y-19382736D02*
X7342115Y-19401784D01*
X7542115Y-19401784D02*
X7427829Y-19401784D01*
X7484972Y-19401784D02*
X7484972Y-19201784D01*
X7484972Y-19201784D02*
X7465925Y-19230355D01*
X7465925Y-19230355D02*
X7446877Y-19249403D01*
X7446877Y-19249403D02*
X7427829Y-19258927D01*
X7665925Y-19201784D02*
X7684972Y-19201784D01*
X7684972Y-19201784D02*
X7704020Y-19211308D01*
X7704020Y-19211308D02*
X7713544Y-19220831D01*
X7713544Y-19220831D02*
X7723067Y-19239879D01*
X7723067Y-19239879D02*
X7732591Y-19277974D01*
X7732591Y-19277974D02*
X7732591Y-19325593D01*
X7732591Y-19325593D02*
X7723067Y-19363689D01*
X7723067Y-19363689D02*
X7713544Y-19382736D01*
X7713544Y-19382736D02*
X7704020Y-19392260D01*
X7704020Y-19392260D02*
X7684972Y-19401784D01*
X7684972Y-19401784D02*
X7665925Y-19401784D01*
X7665925Y-19401784D02*
X7646877Y-19392260D01*
X7646877Y-19392260D02*
X7637353Y-19382736D01*
X7637353Y-19382736D02*
X7627829Y-19363689D01*
X7627829Y-19363689D02*
X7618306Y-19325593D01*
X7618306Y-19325593D02*
X7618306Y-19277974D01*
X7618306Y-19277974D02*
X7627829Y-19239879D01*
X7627829Y-19239879D02*
X7637353Y-19220831D01*
X7637353Y-19220831D02*
X7646877Y-19211308D01*
X7646877Y-19211308D02*
X7665925Y-19201784D01*
X7904020Y-19201784D02*
X7865925Y-19201784D01*
X7865925Y-19201784D02*
X7846877Y-19211308D01*
X7846877Y-19211308D02*
X7837353Y-19220831D01*
X7837353Y-19220831D02*
X7818306Y-19249403D01*
X7818306Y-19249403D02*
X7808782Y-19287498D01*
X7808782Y-19287498D02*
X7808782Y-19363689D01*
X7808782Y-19363689D02*
X7818306Y-19382736D01*
X7818306Y-19382736D02*
X7827829Y-19392260D01*
X7827829Y-19392260D02*
X7846877Y-19401784D01*
X7846877Y-19401784D02*
X7884972Y-19401784D01*
X7884972Y-19401784D02*
X7904020Y-19392260D01*
X7904020Y-19392260D02*
X7913544Y-19382736D01*
X7913544Y-19382736D02*
X7923067Y-19363689D01*
X7923067Y-19363689D02*
X7923067Y-19316070D01*
X7923067Y-19316070D02*
X7913544Y-19297022D01*
X7913544Y-19297022D02*
X7904020Y-19287498D01*
X7904020Y-19287498D02*
X7884972Y-19277974D01*
X7884972Y-19277974D02*
X7846877Y-19277974D01*
X7846877Y-19277974D02*
X7827829Y-19287498D01*
X7827829Y-19287498D02*
X7818306Y-19297022D01*
X7818306Y-19297022D02*
X7808782Y-19316070D01*
X7989734Y-19201784D02*
X8113544Y-19201784D01*
X8113544Y-19201784D02*
X8046877Y-19277974D01*
X8046877Y-19277974D02*
X8075448Y-19277974D01*
X8075448Y-19277974D02*
X8094496Y-19287498D01*
X8094496Y-19287498D02*
X8104020Y-19297022D01*
X8104020Y-19297022D02*
X8113544Y-19316070D01*
X8113544Y-19316070D02*
X8113544Y-19363689D01*
X8113544Y-19363689D02*
X8104020Y-19382736D01*
X8104020Y-19382736D02*
X8094496Y-19392260D01*
X8094496Y-19392260D02*
X8075448Y-19401784D01*
X8075448Y-19401784D02*
X8018306Y-19401784D01*
X8018306Y-19401784D02*
X7999258Y-19392260D01*
X7999258Y-19392260D02*
X7989734Y-19382736D01*
X8189734Y-19201784D02*
X8189734Y-19239879D01*
X8265925Y-19201784D02*
X8265925Y-19239879D01*
X8561163Y-19477974D02*
X8551639Y-19468450D01*
X8551639Y-19468450D02*
X8532591Y-19439879D01*
X8532591Y-19439879D02*
X8523068Y-19420831D01*
X8523068Y-19420831D02*
X8513544Y-19392260D01*
X8513544Y-19392260D02*
X8504020Y-19344641D01*
X8504020Y-19344641D02*
X8504020Y-19306546D01*
X8504020Y-19306546D02*
X8513544Y-19258927D01*
X8513544Y-19258927D02*
X8523068Y-19230355D01*
X8523068Y-19230355D02*
X8532591Y-19211308D01*
X8532591Y-19211308D02*
X8551639Y-19182736D01*
X8551639Y-19182736D02*
X8561163Y-19173212D01*
X8627830Y-19220831D02*
X8637353Y-19211308D01*
X8637353Y-19211308D02*
X8656401Y-19201784D01*
X8656401Y-19201784D02*
X8704020Y-19201784D01*
X8704020Y-19201784D02*
X8723068Y-19211308D01*
X8723068Y-19211308D02*
X8732591Y-19220831D01*
X8732591Y-19220831D02*
X8742115Y-19239879D01*
X8742115Y-19239879D02*
X8742115Y-19258927D01*
X8742115Y-19258927D02*
X8732591Y-19287498D01*
X8732591Y-19287498D02*
X8618306Y-19401784D01*
X8618306Y-19401784D02*
X8742115Y-19401784D01*
X8980211Y-19401784D02*
X8980211Y-19201784D01*
X9065925Y-19401784D02*
X9065925Y-19297022D01*
X9065925Y-19297022D02*
X9056401Y-19277974D01*
X9056401Y-19277974D02*
X9037353Y-19268450D01*
X9037353Y-19268450D02*
X9008782Y-19268450D01*
X9008782Y-19268450D02*
X8989734Y-19277974D01*
X8989734Y-19277974D02*
X8980211Y-19287498D01*
X9189734Y-19401784D02*
X9170687Y-19392260D01*
X9170687Y-19392260D02*
X9161163Y-19382736D01*
X9161163Y-19382736D02*
X9151639Y-19363689D01*
X9151639Y-19363689D02*
X9151639Y-19306546D01*
X9151639Y-19306546D02*
X9161163Y-19287498D01*
X9161163Y-19287498D02*
X9170687Y-19277974D01*
X9170687Y-19277974D02*
X9189734Y-19268450D01*
X9189734Y-19268450D02*
X9218306Y-19268450D01*
X9218306Y-19268450D02*
X9237353Y-19277974D01*
X9237353Y-19277974D02*
X9246877Y-19287498D01*
X9246877Y-19287498D02*
X9256401Y-19306546D01*
X9256401Y-19306546D02*
X9256401Y-19363689D01*
X9256401Y-19363689D02*
X9246877Y-19382736D01*
X9246877Y-19382736D02*
X9237353Y-19392260D01*
X9237353Y-19392260D02*
X9218306Y-19401784D01*
X9218306Y-19401784D02*
X9189734Y-19401784D01*
X9370687Y-19401784D02*
X9351639Y-19392260D01*
X9351639Y-19392260D02*
X9342115Y-19373212D01*
X9342115Y-19373212D02*
X9342115Y-19201784D01*
X9523068Y-19392260D02*
X9504020Y-19401784D01*
X9504020Y-19401784D02*
X9465925Y-19401784D01*
X9465925Y-19401784D02*
X9446877Y-19392260D01*
X9446877Y-19392260D02*
X9437353Y-19373212D01*
X9437353Y-19373212D02*
X9437353Y-19297022D01*
X9437353Y-19297022D02*
X9446877Y-19277974D01*
X9446877Y-19277974D02*
X9465925Y-19268450D01*
X9465925Y-19268450D02*
X9504020Y-19268450D01*
X9504020Y-19268450D02*
X9523068Y-19277974D01*
X9523068Y-19277974D02*
X9532592Y-19297022D01*
X9532592Y-19297022D02*
X9532592Y-19316070D01*
X9532592Y-19316070D02*
X9437353Y-19335117D01*
X9608782Y-19392260D02*
X9627830Y-19401784D01*
X9627830Y-19401784D02*
X9665925Y-19401784D01*
X9665925Y-19401784D02*
X9684973Y-19392260D01*
X9684973Y-19392260D02*
X9694496Y-19373212D01*
X9694496Y-19373212D02*
X9694496Y-19363689D01*
X9694496Y-19363689D02*
X9684973Y-19344641D01*
X9684973Y-19344641D02*
X9665925Y-19335117D01*
X9665925Y-19335117D02*
X9637353Y-19335117D01*
X9637353Y-19335117D02*
X9618306Y-19325593D01*
X9618306Y-19325593D02*
X9608782Y-19306546D01*
X9608782Y-19306546D02*
X9608782Y-19297022D01*
X9608782Y-19297022D02*
X9618306Y-19277974D01*
X9618306Y-19277974D02*
X9637353Y-19268450D01*
X9637353Y-19268450D02*
X9665925Y-19268450D01*
X9665925Y-19268450D02*
X9684973Y-19277974D01*
X9761163Y-19477974D02*
X9770687Y-19468450D01*
X9770687Y-19468450D02*
X9789734Y-19439879D01*
X9789734Y-19439879D02*
X9799258Y-19420831D01*
X9799258Y-19420831D02*
X9808782Y-19392260D01*
X9808782Y-19392260D02*
X9818306Y-19344641D01*
X9818306Y-19344641D02*
X9818306Y-19306546D01*
X9818306Y-19306546D02*
X9808782Y-19258927D01*
X9808782Y-19258927D02*
X9799258Y-19230355D01*
X9799258Y-19230355D02*
X9789734Y-19211308D01*
X9789734Y-19211308D02*
X9770687Y-19182736D01*
X9770687Y-19182736D02*
X9761163Y-19173212D01*
M02*
