M48
; DRILL file {KiCad 9.0.0} date 2025-04-10T20:16:36-0700
; FORMAT={-:-/ absolute / metric / decimal}
; #@! TF.CreationDate,2025-04-10T20:16:36-07:00
; #@! TF.GenerationSoftware,Kicad,Pcbnew,9.0.0
; #@! TF.FileFunction,Plated,1,2,PTH
FMAT,2
METRIC
; #@! TA.AperFunction,Plated,PTH,ViaDrill
T1C0.305
; #@! TA.AperFunction,Plated,PTH,ComponentDrill
T2C0.500
; #@! TA.AperFunction,Plated,PTH,ComponentDrill
T3C0.600
; #@! TA.AperFunction,Plated,PTH,ComponentDrill
T4C0.610
; #@! TA.AperFunction,Plated,PTH,ComponentDrill
T5C0.650
; #@! TA.AperFunction,Plated,PTH,ComponentDrill
T6C0.950
; #@! TA.AperFunction,Plated,PTH,ComponentDrill
T7C1.000
; #@! TA.AperFunction,Plated,PTH,ComponentDrill
T8C2.500
; #@! TA.AperFunction,Plated,PTH,ComponentDrill
T9C2.700
%
G90
G05
T1
X51.562Y-70.993
X51.562Y-121.158
X51.689Y-68.072
X52.832Y-115.697
X59.563Y-110.617
X60.706Y-66.421
X61.976Y-126.594
X62.23Y-90.551
X62.357Y-120.015
X62.484Y-81.534
X62.611Y-99.568
X62.738Y-112.776
X65.278Y-111.811
X65.278Y-115.697
X65.278Y-130.886
X65.351Y-107.419
X65.405Y-118.237
X65.532Y-105.537
X65.532Y-108.966
X67.183Y-163.703
X68.072Y-146.05
X68.072Y-155.473
X68.859Y-129.184
X69.342Y-144.526
X69.367Y-139.446
X69.596Y-115.697
X69.85Y-101.219
X69.977Y-124.206
X70.358Y-112.014
X71.628Y-110.744
X72.136Y-100.584
X72.644Y-126.746
X72.898Y-105.156
X73.025Y-121.92
X73.99Y-148.361
X74.041Y-67.056
X74.041Y-129.921
X74.168Y-92.075
X74.676Y-75.946
X75.184Y-117.983
X75.311Y-111.125
X75.565Y-131.191
X76.073Y-99.187
X76.2Y-123.444
X76.327Y-129.032
X76.683Y-137.566
X76.708Y-130.048
X77.33Y-96.647
X77.343Y-142.113
X77.47Y-131.123
X78.613Y-80.391
X78.613Y-110.744
X78.613Y-122.174
X79.248Y-152.273
X79.99Y-69.359
X80.137Y-109.474
X80.311Y-62.84
X80.337Y-72.974
X81.28Y-108.204
X81.355Y-69.231
X81.915Y-103.632
X82.042Y-97.028
X82.042Y-99.822
X82.169Y-106.934
X82.677Y-98.044
X82.804Y-105.664
X83.947Y-98.933
X84.963Y-91.313
X85.09Y-79.375
X85.471Y-152.146
X85.725Y-163.449
X85.979Y-156.718
X86.055Y-128.778
X86.106Y-135.255
X86.487Y-122.047
X86.487Y-144.272
X86.995Y-65.405
X86.995Y-117.729
X87.122Y-62.306
X88.138Y-109.321
X88.519Y-103.124
X89.154Y-93.091
X94.615Y-100.965
X94.742Y-109.22
X94.742Y-115.824
X95.504Y-154.94
X96.063Y-67.945
X96.139Y-122.301
X96.139Y-128.905
X96.139Y-135.382
X97.028Y-96.774
X97.155Y-76.962
X97.282Y-102.87
X97.79Y-83.312
X97.79Y-89.789
X98.171Y-95.631
T2
X53.982Y-67.647
X53.982Y-125.647
X54.575Y-66.215
X54.575Y-69.079
X54.575Y-124.215
X54.575Y-127.079
X56.007Y-65.622
X56.007Y-69.672
X56.007Y-123.622
X56.007Y-127.672
X57.439Y-66.215
X57.439Y-69.079
X57.439Y-124.215
X57.439Y-127.079
X58.032Y-67.647
X58.032Y-125.647
X73.032Y-144.773
X73.581Y-143.447
X73.581Y-146.098
X74.907Y-142.898
X74.907Y-146.648
X76.233Y-143.447
X76.233Y-146.098
X76.782Y-144.773
X89.032Y-68.773
X89.032Y-144.773
X89.581Y-67.447
X89.581Y-70.098
X89.581Y-143.447
X89.581Y-146.098
X90.907Y-66.898
X90.907Y-70.648
X90.907Y-142.898
X90.907Y-146.648
X92.233Y-67.447
X92.233Y-70.098
X92.233Y-143.447
X92.233Y-146.098
X92.782Y-68.773
X92.782Y-144.773
T4
X74.403Y-157.693
X74.403Y-162.773
X76.943Y-157.693
X76.943Y-160.233
X76.943Y-162.773
T5
X69.469Y-148.844
X69.469Y-150.114
X69.469Y-151.384
X69.469Y-152.654
X69.469Y-153.924
X70.739Y-148.844
X70.739Y-150.114
X70.739Y-151.384
X70.739Y-152.654
X70.739Y-153.924
X75.65Y-148.844
X75.65Y-150.114
X75.65Y-151.384
X75.65Y-152.654
X75.65Y-153.924
X76.92Y-148.844
X76.92Y-150.114
X76.92Y-151.384
X76.92Y-152.654
X76.92Y-153.924
X81.83Y-148.844
X81.83Y-150.114
X81.83Y-151.384
X81.83Y-152.654
X81.83Y-153.924
X83.1Y-148.844
X83.1Y-150.114
X83.1Y-151.384
X83.1Y-152.654
X83.1Y-153.924
X88.011Y-148.844
X88.011Y-150.114
X88.011Y-151.384
X88.011Y-152.654
X88.011Y-153.924
X89.281Y-148.844
X89.281Y-150.114
X89.281Y-151.384
X89.281Y-152.654
X89.281Y-153.924
T6
X88.178Y-125.251
X88.178Y-131.732
X88.178Y-138.214
X90.602Y-62.763
X90.678Y-79.883
X90.678Y-86.364
X90.678Y-92.845
X90.678Y-99.327
X90.678Y-105.808
X90.678Y-112.289
X90.678Y-118.77
X90.678Y-125.251
X90.678Y-131.732
X90.678Y-138.214
X90.703Y-73.736
X93.102Y-62.763
X93.178Y-79.883
X93.178Y-86.364
X93.178Y-92.845
X93.178Y-99.327
X93.178Y-105.808
X93.178Y-112.289
X93.178Y-118.77
X93.178Y-125.251
X93.178Y-131.732
X93.178Y-138.214
X93.203Y-73.736
X95.602Y-62.763
X95.678Y-79.883
X95.678Y-86.364
X95.678Y-92.845
X95.678Y-99.327
X95.678Y-105.808
X95.678Y-112.289
X95.678Y-118.77
X95.678Y-125.251
X95.678Y-131.732
X95.678Y-138.214
X95.703Y-73.736
X95.758Y-144.138
X95.758Y-146.638
X95.758Y-149.138
X95.758Y-151.638
T7
X54.737Y-72.517
X54.737Y-75.057
X54.737Y-77.597
X54.737Y-80.137
X54.737Y-82.677
X54.737Y-85.217
X54.737Y-87.757
X54.737Y-90.297
X54.737Y-92.837
X54.737Y-95.377
X54.737Y-97.917
X54.737Y-100.457
X54.737Y-102.997
X54.737Y-105.537
X54.737Y-108.077
X54.737Y-110.617
X54.737Y-113.157
X54.737Y-115.697
X54.737Y-118.237
X54.737Y-120.777
X57.277Y-72.517
X57.277Y-75.057
X57.277Y-77.597
X57.277Y-80.137
X57.277Y-82.677
X57.277Y-85.217
X57.277Y-87.757
X57.277Y-90.297
X57.277Y-92.837
X57.277Y-95.377
X57.277Y-97.917
X57.277Y-100.457
X57.277Y-102.997
X57.277Y-105.537
X57.277Y-108.077
X57.277Y-110.617
X57.277Y-113.157
X57.277Y-115.697
X57.277Y-118.237
X57.277Y-120.777
X63.373Y-63.373
X67.056Y-63.373
X69.977Y-158.877
X69.977Y-161.377
X70.739Y-63.373
X96.393Y-158.536
X96.393Y-161.036
T8
X74.907Y-144.773
X90.907Y-68.773
X90.907Y-144.773
T9
X56.007Y-67.647
X56.007Y-125.647
T3
X76.175Y-63.214G85X76.175Y-62.414
G05
X76.175Y-67.544G85X76.175Y-66.444
G05
X84.815Y-63.214G85X84.815Y-62.414
G05
X84.815Y-67.544G85X84.815Y-66.444
G05
M30
