G04 #@! TF.GenerationSoftware,KiCad,Pcbnew,9.0.0*
G04 #@! TF.CreationDate,2025-04-10T20:16:32-07:00*
G04 #@! TF.ProjectId,ESP32_S2_SOLO_N4 Kicad Reference Design,45535033-325f-4533-925f-534f4c4f5f4e,rev?*
G04 #@! TF.SameCoordinates,Original*
G04 #@! TF.FileFunction,Legend,Top*
G04 #@! TF.FilePolarity,Positive*
%FSLAX46Y46*%
G04 Gerber Fmt 4.6, Leading zero omitted, Abs format (unit mm)*
G04 Created by KiCad (PCBNEW 9.0.0) date 2025-04-10 20:16:32*
%MOMM*%
%LPD*%
G01*
G04 APERTURE LIST*
G04 Aperture macros list*
%AMRoundRect*
0 Rectangle with rounded corners*
0 $1 Rounding radius*
0 $2 $3 $4 $5 $6 $7 $8 $9 X,Y pos of 4 corners*
0 Add a 4 corners polygon primitive as box body*
4,1,4,$2,$3,$4,$5,$6,$7,$8,$9,$2,$3,0*
0 Add four circle primitives for the rounded corners*
1,1,$1+$1,$2,$3*
1,1,$1+$1,$4,$5*
1,1,$1+$1,$6,$7*
1,1,$1+$1,$8,$9*
0 Add four rect primitives between the rounded corners*
20,1,$1+$1,$2,$3,$4,$5,0*
20,1,$1+$1,$4,$5,$6,$7,0*
20,1,$1+$1,$6,$7,$8,$9,0*
20,1,$1+$1,$8,$9,$2,$3,0*%
%AMOutline4P*
0 Free polygon, 4 corners , with rotation*
0 The origin of the aperture is its center*
0 number of corners: always 4*
0 $1 to $8 corner X, Y*
0 $9 Rotation angle, in degrees counterclockwise*
0 create outline with 4 corners*
4,1,4,$1,$2,$3,$4,$5,$6,$7,$8,$1,$2,$9*%
G04 Aperture macros list end*
%ADD10C,0.150000*%
%ADD11C,0.190500*%
%ADD12C,0.120000*%
%ADD13C,0.127000*%
%ADD14C,0.400000*%
%ADD15C,0.200000*%
%ADD16C,0.152400*%
%ADD17C,0.508000*%
%ADD18C,0.010000*%
%ADD19RoundRect,0.250000X0.325000X0.650000X-0.325000X0.650000X-0.325000X-0.650000X0.325000X-0.650000X0*%
%ADD20RoundRect,0.225000X-0.225000X-0.250000X0.225000X-0.250000X0.225000X0.250000X-0.225000X0.250000X0*%
%ADD21C,0.850000*%
%ADD22C,5.000000*%
%ADD23RoundRect,0.250000X-0.600000X-0.725000X0.600000X-0.725000X0.600000X0.725000X-0.600000X0.725000X0*%
%ADD24O,1.700000X1.950000*%
%ADD25RoundRect,0.102000X0.700000X-1.050000X0.700000X1.050000X-0.700000X1.050000X-0.700000X-1.050000X0*%
%ADD26RoundRect,0.050000X-0.225000X-0.050000X0.225000X-0.050000X0.225000X0.050000X-0.225000X0.050000X0*%
%ADD27RoundRect,0.050000X0.050000X-0.225000X0.050000X0.225000X-0.050000X0.225000X-0.050000X-0.225000X0*%
%ADD28RoundRect,0.250000X-0.250000X-0.475000X0.250000X-0.475000X0.250000X0.475000X-0.250000X0.475000X0*%
%ADD29R,1.700000X1.700000*%
%ADD30RoundRect,0.250000X-0.262500X-0.450000X0.262500X-0.450000X0.262500X0.450000X-0.262500X0.450000X0*%
%ADD31RoundRect,0.200000X-0.200000X-0.275000X0.200000X-0.275000X0.200000X0.275000X-0.200000X0.275000X0*%
%ADD32RoundRect,0.200000X0.275000X-0.200000X0.275000X0.200000X-0.275000X0.200000X-0.275000X-0.200000X0*%
%ADD33Outline4P,-2.150000X-1.800000X2.150000X-0.800000X2.150000X0.800000X-2.150000X1.800000X0.000000*%
%ADD34Outline4P,-2.150000X-1.800000X2.150000X-0.800000X2.150000X0.800000X-2.150000X1.800000X180.000000*%
%ADD35O,1.700000X1.700000*%
%ADD36R,1.000000X1.000000*%
%ADD37O,1.000000X1.000000*%
%ADD38RoundRect,0.250000X0.250000X0.475000X-0.250000X0.475000X-0.250000X-0.475000X0.250000X-0.475000X0*%
%ADD39RoundRect,0.250000X0.262500X0.450000X-0.262500X0.450000X-0.262500X-0.450000X0.262500X-0.450000X0*%
%ADD40R,1.500000X0.900000*%
%ADD41R,0.900000X1.500000*%
%ADD42R,0.900000X0.900000*%
%ADD43C,0.650000*%
%ADD44O,1.204000X2.304000*%
%ADD45O,1.204000X2.004000*%
%ADD46RoundRect,0.250000X0.725000X-0.600000X0.725000X0.600000X-0.725000X0.600000X-0.725000X-0.600000X0*%
%ADD47O,1.950000X1.700000*%
%ADD48RoundRect,0.218750X0.218750X0.256250X-0.218750X0.256250X-0.218750X-0.256250X0.218750X-0.256250X0*%
%ADD49RoundRect,0.250000X0.750000X-0.600000X0.750000X0.600000X-0.750000X0.600000X-0.750000X-0.600000X0*%
%ADD50O,2.000000X1.700000*%
%ADD51RoundRect,0.375000X-0.625000X-0.375000X0.625000X-0.375000X0.625000X0.375000X-0.625000X0.375000X0*%
%ADD52RoundRect,0.500000X-0.500000X-1.400000X0.500000X-1.400000X0.500000X1.400000X-0.500000X1.400000X0*%
%ADD53Outline4P,-2.150000X-1.800000X2.150000X-0.800000X2.150000X0.800000X-2.150000X1.800000X90.000000*%
%ADD54Outline4P,-2.150000X-1.800000X2.150000X-0.800000X2.150000X0.800000X-2.150000X1.800000X270.000000*%
%ADD55C,1.117600*%
%ADD56C,5.400000*%
%ADD57RoundRect,0.250000X-0.750000X0.600000X-0.750000X-0.600000X0.750000X-0.600000X0.750000X0.600000X0*%
%ADD58RoundRect,0.200000X-0.275000X0.200000X-0.275000X-0.200000X0.275000X-0.200000X0.275000X0.200000X0*%
G04 APERTURE END LIST*
D10*
X90316207Y-116233580D02*
X90268588Y-116281200D01*
X90268588Y-116281200D02*
X90125731Y-116328819D01*
X90125731Y-116328819D02*
X90030493Y-116328819D01*
X90030493Y-116328819D02*
X89887636Y-116281200D01*
X89887636Y-116281200D02*
X89792398Y-116185961D01*
X89792398Y-116185961D02*
X89744779Y-116090723D01*
X89744779Y-116090723D02*
X89697160Y-115900247D01*
X89697160Y-115900247D02*
X89697160Y-115757390D01*
X89697160Y-115757390D02*
X89744779Y-115566914D01*
X89744779Y-115566914D02*
X89792398Y-115471676D01*
X89792398Y-115471676D02*
X89887636Y-115376438D01*
X89887636Y-115376438D02*
X90030493Y-115328819D01*
X90030493Y-115328819D02*
X90125731Y-115328819D01*
X90125731Y-115328819D02*
X90268588Y-115376438D01*
X90268588Y-115376438D02*
X90316207Y-115424057D01*
X90649541Y-115328819D02*
X90887636Y-116328819D01*
X90887636Y-116328819D02*
X91078112Y-115614533D01*
X91078112Y-115614533D02*
X91268588Y-116328819D01*
X91268588Y-116328819D02*
X91506684Y-115328819D01*
X92554303Y-115328819D02*
X93220969Y-115328819D01*
X93220969Y-115328819D02*
X92554303Y-116328819D01*
X92554303Y-116328819D02*
X93220969Y-116328819D01*
X93554303Y-115424057D02*
X93601922Y-115376438D01*
X93601922Y-115376438D02*
X93697160Y-115328819D01*
X93697160Y-115328819D02*
X93935255Y-115328819D01*
X93935255Y-115328819D02*
X94030493Y-115376438D01*
X94030493Y-115376438D02*
X94078112Y-115424057D01*
X94078112Y-115424057D02*
X94125731Y-115519295D01*
X94125731Y-115519295D02*
X94125731Y-115614533D01*
X94125731Y-115614533D02*
X94078112Y-115757390D01*
X94078112Y-115757390D02*
X93506684Y-116328819D01*
X93506684Y-116328819D02*
X94125731Y-116328819D01*
X95173351Y-115328819D02*
X95744779Y-115328819D01*
X95459065Y-116328819D02*
X95459065Y-115328819D01*
X96078113Y-116328819D02*
X96078113Y-115328819D01*
X97125731Y-116233580D02*
X97078112Y-116281200D01*
X97078112Y-116281200D02*
X96935255Y-116328819D01*
X96935255Y-116328819D02*
X96840017Y-116328819D01*
X96840017Y-116328819D02*
X96697160Y-116281200D01*
X96697160Y-116281200D02*
X96601922Y-116185961D01*
X96601922Y-116185961D02*
X96554303Y-116090723D01*
X96554303Y-116090723D02*
X96506684Y-115900247D01*
X96506684Y-115900247D02*
X96506684Y-115757390D01*
X96506684Y-115757390D02*
X96554303Y-115566914D01*
X96554303Y-115566914D02*
X96601922Y-115471676D01*
X96601922Y-115471676D02*
X96697160Y-115376438D01*
X96697160Y-115376438D02*
X96840017Y-115328819D01*
X96840017Y-115328819D02*
X96935255Y-115328819D01*
X96935255Y-115328819D02*
X97078112Y-115376438D01*
X97078112Y-115376438D02*
X97125731Y-115424057D01*
X90443207Y-109756580D02*
X90395588Y-109804200D01*
X90395588Y-109804200D02*
X90252731Y-109851819D01*
X90252731Y-109851819D02*
X90157493Y-109851819D01*
X90157493Y-109851819D02*
X90014636Y-109804200D01*
X90014636Y-109804200D02*
X89919398Y-109708961D01*
X89919398Y-109708961D02*
X89871779Y-109613723D01*
X89871779Y-109613723D02*
X89824160Y-109423247D01*
X89824160Y-109423247D02*
X89824160Y-109280390D01*
X89824160Y-109280390D02*
X89871779Y-109089914D01*
X89871779Y-109089914D02*
X89919398Y-108994676D01*
X89919398Y-108994676D02*
X90014636Y-108899438D01*
X90014636Y-108899438D02*
X90157493Y-108851819D01*
X90157493Y-108851819D02*
X90252731Y-108851819D01*
X90252731Y-108851819D02*
X90395588Y-108899438D01*
X90395588Y-108899438D02*
X90443207Y-108947057D01*
X90776541Y-108851819D02*
X91014636Y-109851819D01*
X91014636Y-109851819D02*
X91205112Y-109137533D01*
X91205112Y-109137533D02*
X91395588Y-109851819D01*
X91395588Y-109851819D02*
X91633684Y-108851819D01*
X92681303Y-108851819D02*
X93347969Y-108851819D01*
X93347969Y-108851819D02*
X92681303Y-109851819D01*
X92681303Y-109851819D02*
X93347969Y-109851819D01*
X94252731Y-109851819D02*
X93681303Y-109851819D01*
X93967017Y-109851819D02*
X93967017Y-108851819D01*
X93967017Y-108851819D02*
X93871779Y-108994676D01*
X93871779Y-108994676D02*
X93776541Y-109089914D01*
X93776541Y-109089914D02*
X93681303Y-109137533D01*
X95300351Y-108851819D02*
X95871779Y-108851819D01*
X95586065Y-109851819D02*
X95586065Y-108851819D01*
X96205113Y-109851819D02*
X96205113Y-108851819D01*
X97252731Y-109756580D02*
X97205112Y-109804200D01*
X97205112Y-109804200D02*
X97062255Y-109851819D01*
X97062255Y-109851819D02*
X96967017Y-109851819D01*
X96967017Y-109851819D02*
X96824160Y-109804200D01*
X96824160Y-109804200D02*
X96728922Y-109708961D01*
X96728922Y-109708961D02*
X96681303Y-109613723D01*
X96681303Y-109613723D02*
X96633684Y-109423247D01*
X96633684Y-109423247D02*
X96633684Y-109280390D01*
X96633684Y-109280390D02*
X96681303Y-109089914D01*
X96681303Y-109089914D02*
X96728922Y-108994676D01*
X96728922Y-108994676D02*
X96824160Y-108899438D01*
X96824160Y-108899438D02*
X96967017Y-108851819D01*
X96967017Y-108851819D02*
X97062255Y-108851819D01*
X97062255Y-108851819D02*
X97205112Y-108899438D01*
X97205112Y-108899438D02*
X97252731Y-108947057D01*
X89982922Y-82943819D02*
X90554350Y-82943819D01*
X90268636Y-83943819D02*
X90268636Y-82943819D01*
X90792446Y-82943819D02*
X91030541Y-83943819D01*
X91030541Y-83943819D02*
X91221017Y-83229533D01*
X91221017Y-83229533D02*
X91411493Y-83943819D01*
X91411493Y-83943819D02*
X91649589Y-82943819D01*
X92697208Y-82943819D02*
X93363874Y-82943819D01*
X93363874Y-82943819D02*
X92697208Y-83943819D01*
X92697208Y-83943819D02*
X93363874Y-83943819D01*
X94268636Y-83943819D02*
X93697208Y-83943819D01*
X93982922Y-83943819D02*
X93982922Y-82943819D01*
X93982922Y-82943819D02*
X93887684Y-83086676D01*
X93887684Y-83086676D02*
X93792446Y-83181914D01*
X93792446Y-83181914D02*
X93697208Y-83229533D01*
X95316256Y-82943819D02*
X95887684Y-82943819D01*
X95601970Y-83943819D02*
X95601970Y-82943819D01*
X96221018Y-83943819D02*
X96221018Y-82943819D01*
X97268636Y-83848580D02*
X97221017Y-83896200D01*
X97221017Y-83896200D02*
X97078160Y-83943819D01*
X97078160Y-83943819D02*
X96982922Y-83943819D01*
X96982922Y-83943819D02*
X96840065Y-83896200D01*
X96840065Y-83896200D02*
X96744827Y-83800961D01*
X96744827Y-83800961D02*
X96697208Y-83705723D01*
X96697208Y-83705723D02*
X96649589Y-83515247D01*
X96649589Y-83515247D02*
X96649589Y-83372390D01*
X96649589Y-83372390D02*
X96697208Y-83181914D01*
X96697208Y-83181914D02*
X96744827Y-83086676D01*
X96744827Y-83086676D02*
X96840065Y-82991438D01*
X96840065Y-82991438D02*
X96982922Y-82943819D01*
X96982922Y-82943819D02*
X97078160Y-82943819D01*
X97078160Y-82943819D02*
X97221017Y-82991438D01*
X97221017Y-82991438D02*
X97268636Y-83039057D01*
X67687819Y-162604220D02*
X66687819Y-162604220D01*
X66687819Y-162604220D02*
X66687819Y-162366125D01*
X66687819Y-162366125D02*
X66735438Y-162223268D01*
X66735438Y-162223268D02*
X66830676Y-162128030D01*
X66830676Y-162128030D02*
X66925914Y-162080411D01*
X66925914Y-162080411D02*
X67116390Y-162032792D01*
X67116390Y-162032792D02*
X67259247Y-162032792D01*
X67259247Y-162032792D02*
X67449723Y-162080411D01*
X67449723Y-162080411D02*
X67544961Y-162128030D01*
X67544961Y-162128030D02*
X67640200Y-162223268D01*
X67640200Y-162223268D02*
X67687819Y-162366125D01*
X67687819Y-162366125D02*
X67687819Y-162604220D01*
X67687819Y-161604220D02*
X66687819Y-161604220D01*
X67687819Y-160556602D02*
X67211628Y-160889935D01*
X67687819Y-161128030D02*
X66687819Y-161128030D01*
X66687819Y-161128030D02*
X66687819Y-160747078D01*
X66687819Y-160747078D02*
X66735438Y-160651840D01*
X66735438Y-160651840D02*
X66783057Y-160604221D01*
X66783057Y-160604221D02*
X66878295Y-160556602D01*
X66878295Y-160556602D02*
X67021152Y-160556602D01*
X67021152Y-160556602D02*
X67116390Y-160604221D01*
X67116390Y-160604221D02*
X67164009Y-160651840D01*
X67164009Y-160651840D02*
X67211628Y-160747078D01*
X67211628Y-160747078D02*
X67211628Y-161128030D01*
X69456541Y-65290819D02*
X70075588Y-65290819D01*
X70075588Y-65290819D02*
X69742255Y-65671771D01*
X69742255Y-65671771D02*
X69885112Y-65671771D01*
X69885112Y-65671771D02*
X69980350Y-65719390D01*
X69980350Y-65719390D02*
X70027969Y-65767009D01*
X70027969Y-65767009D02*
X70075588Y-65862247D01*
X70075588Y-65862247D02*
X70075588Y-66100342D01*
X70075588Y-66100342D02*
X70027969Y-66195580D01*
X70027969Y-66195580D02*
X69980350Y-66243200D01*
X69980350Y-66243200D02*
X69885112Y-66290819D01*
X69885112Y-66290819D02*
X69599398Y-66290819D01*
X69599398Y-66290819D02*
X69504160Y-66243200D01*
X69504160Y-66243200D02*
X69456541Y-66195580D01*
X70504160Y-66195580D02*
X70551779Y-66243200D01*
X70551779Y-66243200D02*
X70504160Y-66290819D01*
X70504160Y-66290819D02*
X70456541Y-66243200D01*
X70456541Y-66243200D02*
X70504160Y-66195580D01*
X70504160Y-66195580D02*
X70504160Y-66290819D01*
X70885112Y-65290819D02*
X71504159Y-65290819D01*
X71504159Y-65290819D02*
X71170826Y-65671771D01*
X71170826Y-65671771D02*
X71313683Y-65671771D01*
X71313683Y-65671771D02*
X71408921Y-65719390D01*
X71408921Y-65719390D02*
X71456540Y-65767009D01*
X71456540Y-65767009D02*
X71504159Y-65862247D01*
X71504159Y-65862247D02*
X71504159Y-66100342D01*
X71504159Y-66100342D02*
X71456540Y-66195580D01*
X71456540Y-66195580D02*
X71408921Y-66243200D01*
X71408921Y-66243200D02*
X71313683Y-66290819D01*
X71313683Y-66290819D02*
X71027969Y-66290819D01*
X71027969Y-66290819D02*
X70932731Y-66243200D01*
X70932731Y-66243200D02*
X70885112Y-66195580D01*
X71789874Y-65290819D02*
X72123207Y-66290819D01*
X72123207Y-66290819D02*
X72456540Y-65290819D01*
X85823082Y-144422765D02*
X86227143Y-144826826D01*
X85318005Y-145331902D02*
X86025112Y-144624795D01*
X86395502Y-144995184D02*
X85856754Y-145870650D01*
X85856754Y-145870650D02*
X86496517Y-145500261D01*
X86496517Y-145500261D02*
X86126128Y-146140024D01*
X86126128Y-146140024D02*
X87001593Y-145601276D01*
X87506670Y-147520566D02*
X87607685Y-146948146D01*
X87102609Y-147116505D02*
X87809715Y-146409398D01*
X87809715Y-146409398D02*
X88079089Y-146678772D01*
X88079089Y-146678772D02*
X88112761Y-146779787D01*
X88112761Y-146779787D02*
X88112761Y-146847131D01*
X88112761Y-146847131D02*
X88079089Y-146948146D01*
X88079089Y-146948146D02*
X87978074Y-147049161D01*
X87978074Y-147049161D02*
X87877059Y-147082833D01*
X87877059Y-147082833D02*
X87809715Y-147082833D01*
X87809715Y-147082833D02*
X87708700Y-147049161D01*
X87708700Y-147049161D02*
X87439326Y-146779787D01*
X89982922Y-89420819D02*
X90554350Y-89420819D01*
X90268636Y-90420819D02*
X90268636Y-89420819D01*
X90792446Y-89420819D02*
X91030541Y-90420819D01*
X91030541Y-90420819D02*
X91221017Y-89706533D01*
X91221017Y-89706533D02*
X91411493Y-90420819D01*
X91411493Y-90420819D02*
X91649589Y-89420819D01*
X92697208Y-89420819D02*
X93363874Y-89420819D01*
X93363874Y-89420819D02*
X92697208Y-90420819D01*
X92697208Y-90420819D02*
X93363874Y-90420819D01*
X93697208Y-89516057D02*
X93744827Y-89468438D01*
X93744827Y-89468438D02*
X93840065Y-89420819D01*
X93840065Y-89420819D02*
X94078160Y-89420819D01*
X94078160Y-89420819D02*
X94173398Y-89468438D01*
X94173398Y-89468438D02*
X94221017Y-89516057D01*
X94221017Y-89516057D02*
X94268636Y-89611295D01*
X94268636Y-89611295D02*
X94268636Y-89706533D01*
X94268636Y-89706533D02*
X94221017Y-89849390D01*
X94221017Y-89849390D02*
X93649589Y-90420819D01*
X93649589Y-90420819D02*
X94268636Y-90420819D01*
X95316256Y-89420819D02*
X95887684Y-89420819D01*
X95601970Y-90420819D02*
X95601970Y-89420819D01*
X96221018Y-90420819D02*
X96221018Y-89420819D01*
X97268636Y-90325580D02*
X97221017Y-90373200D01*
X97221017Y-90373200D02*
X97078160Y-90420819D01*
X97078160Y-90420819D02*
X96982922Y-90420819D01*
X96982922Y-90420819D02*
X96840065Y-90373200D01*
X96840065Y-90373200D02*
X96744827Y-90277961D01*
X96744827Y-90277961D02*
X96697208Y-90182723D01*
X96697208Y-90182723D02*
X96649589Y-89992247D01*
X96649589Y-89992247D02*
X96649589Y-89849390D01*
X96649589Y-89849390D02*
X96697208Y-89658914D01*
X96697208Y-89658914D02*
X96744827Y-89563676D01*
X96744827Y-89563676D02*
X96840065Y-89468438D01*
X96840065Y-89468438D02*
X96982922Y-89420819D01*
X96982922Y-89420819D02*
X97078160Y-89420819D01*
X97078160Y-89420819D02*
X97221017Y-89468438D01*
X97221017Y-89468438D02*
X97268636Y-89516057D01*
X67106969Y-65417819D02*
X66630779Y-65417819D01*
X66630779Y-65417819D02*
X66583160Y-65894009D01*
X66583160Y-65894009D02*
X66630779Y-65846390D01*
X66630779Y-65846390D02*
X66726017Y-65798771D01*
X66726017Y-65798771D02*
X66964112Y-65798771D01*
X66964112Y-65798771D02*
X67059350Y-65846390D01*
X67059350Y-65846390D02*
X67106969Y-65894009D01*
X67106969Y-65894009D02*
X67154588Y-65989247D01*
X67154588Y-65989247D02*
X67154588Y-66227342D01*
X67154588Y-66227342D02*
X67106969Y-66322580D01*
X67106969Y-66322580D02*
X67059350Y-66370200D01*
X67059350Y-66370200D02*
X66964112Y-66417819D01*
X66964112Y-66417819D02*
X66726017Y-66417819D01*
X66726017Y-66417819D02*
X66630779Y-66370200D01*
X66630779Y-66370200D02*
X66583160Y-66322580D01*
X67487922Y-65751152D02*
X67726017Y-66417819D01*
X67726017Y-66417819D02*
X67964112Y-65751152D01*
X69234207Y-147297780D02*
X69186588Y-147345400D01*
X69186588Y-147345400D02*
X69043731Y-147393019D01*
X69043731Y-147393019D02*
X68948493Y-147393019D01*
X68948493Y-147393019D02*
X68805636Y-147345400D01*
X68805636Y-147345400D02*
X68710398Y-147250161D01*
X68710398Y-147250161D02*
X68662779Y-147154923D01*
X68662779Y-147154923D02*
X68615160Y-146964447D01*
X68615160Y-146964447D02*
X68615160Y-146821590D01*
X68615160Y-146821590D02*
X68662779Y-146631114D01*
X68662779Y-146631114D02*
X68710398Y-146535876D01*
X68710398Y-146535876D02*
X68805636Y-146440638D01*
X68805636Y-146440638D02*
X68948493Y-146393019D01*
X68948493Y-146393019D02*
X69043731Y-146393019D01*
X69043731Y-146393019D02*
X69186588Y-146440638D01*
X69186588Y-146440638D02*
X69234207Y-146488257D01*
X69567541Y-146393019D02*
X69805636Y-147393019D01*
X69805636Y-147393019D02*
X69996112Y-146678733D01*
X69996112Y-146678733D02*
X70186588Y-147393019D01*
X70186588Y-147393019D02*
X70424684Y-146393019D01*
X71424684Y-146393019D02*
X71996112Y-146393019D01*
X71710398Y-147393019D02*
X71710398Y-146393019D01*
X88982779Y-135363009D02*
X89316112Y-135363009D01*
X89458969Y-135886819D02*
X88982779Y-135886819D01*
X88982779Y-135886819D02*
X88982779Y-134886819D01*
X88982779Y-134886819D02*
X89458969Y-134886819D01*
X89792303Y-135886819D02*
X90316112Y-135220152D01*
X89792303Y-135220152D02*
X90316112Y-135886819D01*
X90554208Y-135220152D02*
X90935160Y-135220152D01*
X90697065Y-134886819D02*
X90697065Y-135743961D01*
X90697065Y-135743961D02*
X90744684Y-135839200D01*
X90744684Y-135839200D02*
X90839922Y-135886819D01*
X90839922Y-135886819D02*
X90935160Y-135886819D01*
X91268494Y-135886819D02*
X91268494Y-135220152D01*
X91268494Y-135410628D02*
X91316113Y-135315390D01*
X91316113Y-135315390D02*
X91363732Y-135267771D01*
X91363732Y-135267771D02*
X91458970Y-135220152D01*
X91458970Y-135220152D02*
X91554208Y-135220152D01*
X92316113Y-135886819D02*
X92316113Y-135363009D01*
X92316113Y-135363009D02*
X92268494Y-135267771D01*
X92268494Y-135267771D02*
X92173256Y-135220152D01*
X92173256Y-135220152D02*
X91982780Y-135220152D01*
X91982780Y-135220152D02*
X91887542Y-135267771D01*
X92316113Y-135839200D02*
X92220875Y-135886819D01*
X92220875Y-135886819D02*
X91982780Y-135886819D01*
X91982780Y-135886819D02*
X91887542Y-135839200D01*
X91887542Y-135839200D02*
X91839923Y-135743961D01*
X91839923Y-135743961D02*
X91839923Y-135648723D01*
X91839923Y-135648723D02*
X91887542Y-135553485D01*
X91887542Y-135553485D02*
X91982780Y-135505866D01*
X91982780Y-135505866D02*
X92220875Y-135505866D01*
X92220875Y-135505866D02*
X92316113Y-135458247D01*
X93554209Y-135886819D02*
X93554209Y-134886819D01*
X93982780Y-134982057D02*
X94030399Y-134934438D01*
X94030399Y-134934438D02*
X94125637Y-134886819D01*
X94125637Y-134886819D02*
X94363732Y-134886819D01*
X94363732Y-134886819D02*
X94458970Y-134934438D01*
X94458970Y-134934438D02*
X94506589Y-134982057D01*
X94506589Y-134982057D02*
X94554208Y-135077295D01*
X94554208Y-135077295D02*
X94554208Y-135172533D01*
X94554208Y-135172533D02*
X94506589Y-135315390D01*
X94506589Y-135315390D02*
X93935161Y-135886819D01*
X93935161Y-135886819D02*
X94554208Y-135886819D01*
X95554208Y-135791580D02*
X95506589Y-135839200D01*
X95506589Y-135839200D02*
X95363732Y-135886819D01*
X95363732Y-135886819D02*
X95268494Y-135886819D01*
X95268494Y-135886819D02*
X95125637Y-135839200D01*
X95125637Y-135839200D02*
X95030399Y-135743961D01*
X95030399Y-135743961D02*
X94982780Y-135648723D01*
X94982780Y-135648723D02*
X94935161Y-135458247D01*
X94935161Y-135458247D02*
X94935161Y-135315390D01*
X94935161Y-135315390D02*
X94982780Y-135124914D01*
X94982780Y-135124914D02*
X95030399Y-135029676D01*
X95030399Y-135029676D02*
X95125637Y-134934438D01*
X95125637Y-134934438D02*
X95268494Y-134886819D01*
X95268494Y-134886819D02*
X95363732Y-134886819D01*
X95363732Y-134886819D02*
X95506589Y-134934438D01*
X95506589Y-134934438D02*
X95554208Y-134982057D01*
X75561819Y-85578792D02*
X75085628Y-85912125D01*
X75561819Y-86150220D02*
X74561819Y-86150220D01*
X74561819Y-86150220D02*
X74561819Y-85769268D01*
X74561819Y-85769268D02*
X74609438Y-85674030D01*
X74609438Y-85674030D02*
X74657057Y-85626411D01*
X74657057Y-85626411D02*
X74752295Y-85578792D01*
X74752295Y-85578792D02*
X74895152Y-85578792D01*
X74895152Y-85578792D02*
X74990390Y-85626411D01*
X74990390Y-85626411D02*
X75038009Y-85674030D01*
X75038009Y-85674030D02*
X75085628Y-85769268D01*
X75085628Y-85769268D02*
X75085628Y-86150220D01*
X75514200Y-84769268D02*
X75561819Y-84864506D01*
X75561819Y-84864506D02*
X75561819Y-85054982D01*
X75561819Y-85054982D02*
X75514200Y-85150220D01*
X75514200Y-85150220D02*
X75418961Y-85197839D01*
X75418961Y-85197839D02*
X75038009Y-85197839D01*
X75038009Y-85197839D02*
X74942771Y-85150220D01*
X74942771Y-85150220D02*
X74895152Y-85054982D01*
X74895152Y-85054982D02*
X74895152Y-84864506D01*
X74895152Y-84864506D02*
X74942771Y-84769268D01*
X74942771Y-84769268D02*
X75038009Y-84721649D01*
X75038009Y-84721649D02*
X75133247Y-84721649D01*
X75133247Y-84721649D02*
X75228485Y-85197839D01*
X75514200Y-84340696D02*
X75561819Y-84245458D01*
X75561819Y-84245458D02*
X75561819Y-84054982D01*
X75561819Y-84054982D02*
X75514200Y-83959744D01*
X75514200Y-83959744D02*
X75418961Y-83912125D01*
X75418961Y-83912125D02*
X75371342Y-83912125D01*
X75371342Y-83912125D02*
X75276104Y-83959744D01*
X75276104Y-83959744D02*
X75228485Y-84054982D01*
X75228485Y-84054982D02*
X75228485Y-84197839D01*
X75228485Y-84197839D02*
X75180866Y-84293077D01*
X75180866Y-84293077D02*
X75085628Y-84340696D01*
X75085628Y-84340696D02*
X75038009Y-84340696D01*
X75038009Y-84340696D02*
X74942771Y-84293077D01*
X74942771Y-84293077D02*
X74895152Y-84197839D01*
X74895152Y-84197839D02*
X74895152Y-84054982D01*
X74895152Y-84054982D02*
X74942771Y-83959744D01*
X75514200Y-83102601D02*
X75561819Y-83197839D01*
X75561819Y-83197839D02*
X75561819Y-83388315D01*
X75561819Y-83388315D02*
X75514200Y-83483553D01*
X75514200Y-83483553D02*
X75418961Y-83531172D01*
X75418961Y-83531172D02*
X75038009Y-83531172D01*
X75038009Y-83531172D02*
X74942771Y-83483553D01*
X74942771Y-83483553D02*
X74895152Y-83388315D01*
X74895152Y-83388315D02*
X74895152Y-83197839D01*
X74895152Y-83197839D02*
X74942771Y-83102601D01*
X74942771Y-83102601D02*
X75038009Y-83054982D01*
X75038009Y-83054982D02*
X75133247Y-83054982D01*
X75133247Y-83054982D02*
X75228485Y-83531172D01*
X74895152Y-82769267D02*
X74895152Y-82388315D01*
X74561819Y-82626410D02*
X75418961Y-82626410D01*
X75418961Y-82626410D02*
X75514200Y-82578791D01*
X75514200Y-82578791D02*
X75561819Y-82483553D01*
X75561819Y-82483553D02*
X75561819Y-82388315D01*
X88982779Y-122282009D02*
X89316112Y-122282009D01*
X89458969Y-122805819D02*
X88982779Y-122805819D01*
X88982779Y-122805819D02*
X88982779Y-121805819D01*
X88982779Y-121805819D02*
X89458969Y-121805819D01*
X89792303Y-122805819D02*
X90316112Y-122139152D01*
X89792303Y-122139152D02*
X90316112Y-122805819D01*
X90554208Y-122139152D02*
X90935160Y-122139152D01*
X90697065Y-121805819D02*
X90697065Y-122662961D01*
X90697065Y-122662961D02*
X90744684Y-122758200D01*
X90744684Y-122758200D02*
X90839922Y-122805819D01*
X90839922Y-122805819D02*
X90935160Y-122805819D01*
X91268494Y-122805819D02*
X91268494Y-122139152D01*
X91268494Y-122329628D02*
X91316113Y-122234390D01*
X91316113Y-122234390D02*
X91363732Y-122186771D01*
X91363732Y-122186771D02*
X91458970Y-122139152D01*
X91458970Y-122139152D02*
X91554208Y-122139152D01*
X92316113Y-122805819D02*
X92316113Y-122282009D01*
X92316113Y-122282009D02*
X92268494Y-122186771D01*
X92268494Y-122186771D02*
X92173256Y-122139152D01*
X92173256Y-122139152D02*
X91982780Y-122139152D01*
X91982780Y-122139152D02*
X91887542Y-122186771D01*
X92316113Y-122758200D02*
X92220875Y-122805819D01*
X92220875Y-122805819D02*
X91982780Y-122805819D01*
X91982780Y-122805819D02*
X91887542Y-122758200D01*
X91887542Y-122758200D02*
X91839923Y-122662961D01*
X91839923Y-122662961D02*
X91839923Y-122567723D01*
X91839923Y-122567723D02*
X91887542Y-122472485D01*
X91887542Y-122472485D02*
X91982780Y-122424866D01*
X91982780Y-122424866D02*
X92220875Y-122424866D01*
X92220875Y-122424866D02*
X92316113Y-122377247D01*
X93554209Y-122805819D02*
X93554209Y-121805819D01*
X93982780Y-121901057D02*
X94030399Y-121853438D01*
X94030399Y-121853438D02*
X94125637Y-121805819D01*
X94125637Y-121805819D02*
X94363732Y-121805819D01*
X94363732Y-121805819D02*
X94458970Y-121853438D01*
X94458970Y-121853438D02*
X94506589Y-121901057D01*
X94506589Y-121901057D02*
X94554208Y-121996295D01*
X94554208Y-121996295D02*
X94554208Y-122091533D01*
X94554208Y-122091533D02*
X94506589Y-122234390D01*
X94506589Y-122234390D02*
X93935161Y-122805819D01*
X93935161Y-122805819D02*
X94554208Y-122805819D01*
X95554208Y-122710580D02*
X95506589Y-122758200D01*
X95506589Y-122758200D02*
X95363732Y-122805819D01*
X95363732Y-122805819D02*
X95268494Y-122805819D01*
X95268494Y-122805819D02*
X95125637Y-122758200D01*
X95125637Y-122758200D02*
X95030399Y-122662961D01*
X95030399Y-122662961D02*
X94982780Y-122567723D01*
X94982780Y-122567723D02*
X94935161Y-122377247D01*
X94935161Y-122377247D02*
X94935161Y-122234390D01*
X94935161Y-122234390D02*
X94982780Y-122043914D01*
X94982780Y-122043914D02*
X95030399Y-121948676D01*
X95030399Y-121948676D02*
X95125637Y-121853438D01*
X95125637Y-121853438D02*
X95268494Y-121805819D01*
X95268494Y-121805819D02*
X95363732Y-121805819D01*
X95363732Y-121805819D02*
X95506589Y-121853438D01*
X95506589Y-121853438D02*
X95554208Y-121901057D01*
X66529009Y-85689887D02*
X66576628Y-85547030D01*
X66576628Y-85547030D02*
X66624247Y-85499411D01*
X66624247Y-85499411D02*
X66719485Y-85451792D01*
X66719485Y-85451792D02*
X66862342Y-85451792D01*
X66862342Y-85451792D02*
X66957580Y-85499411D01*
X66957580Y-85499411D02*
X67005200Y-85547030D01*
X67005200Y-85547030D02*
X67052819Y-85642268D01*
X67052819Y-85642268D02*
X67052819Y-86023220D01*
X67052819Y-86023220D02*
X66052819Y-86023220D01*
X66052819Y-86023220D02*
X66052819Y-85689887D01*
X66052819Y-85689887D02*
X66100438Y-85594649D01*
X66100438Y-85594649D02*
X66148057Y-85547030D01*
X66148057Y-85547030D02*
X66243295Y-85499411D01*
X66243295Y-85499411D02*
X66338533Y-85499411D01*
X66338533Y-85499411D02*
X66433771Y-85547030D01*
X66433771Y-85547030D02*
X66481390Y-85594649D01*
X66481390Y-85594649D02*
X66529009Y-85689887D01*
X66529009Y-85689887D02*
X66529009Y-86023220D01*
X67052819Y-84880363D02*
X67005200Y-84975601D01*
X67005200Y-84975601D02*
X66957580Y-85023220D01*
X66957580Y-85023220D02*
X66862342Y-85070839D01*
X66862342Y-85070839D02*
X66576628Y-85070839D01*
X66576628Y-85070839D02*
X66481390Y-85023220D01*
X66481390Y-85023220D02*
X66433771Y-84975601D01*
X66433771Y-84975601D02*
X66386152Y-84880363D01*
X66386152Y-84880363D02*
X66386152Y-84737506D01*
X66386152Y-84737506D02*
X66433771Y-84642268D01*
X66433771Y-84642268D02*
X66481390Y-84594649D01*
X66481390Y-84594649D02*
X66576628Y-84547030D01*
X66576628Y-84547030D02*
X66862342Y-84547030D01*
X66862342Y-84547030D02*
X66957580Y-84594649D01*
X66957580Y-84594649D02*
X67005200Y-84642268D01*
X67005200Y-84642268D02*
X67052819Y-84737506D01*
X67052819Y-84737506D02*
X67052819Y-84880363D01*
X67052819Y-83975601D02*
X67005200Y-84070839D01*
X67005200Y-84070839D02*
X66957580Y-84118458D01*
X66957580Y-84118458D02*
X66862342Y-84166077D01*
X66862342Y-84166077D02*
X66576628Y-84166077D01*
X66576628Y-84166077D02*
X66481390Y-84118458D01*
X66481390Y-84118458D02*
X66433771Y-84070839D01*
X66433771Y-84070839D02*
X66386152Y-83975601D01*
X66386152Y-83975601D02*
X66386152Y-83832744D01*
X66386152Y-83832744D02*
X66433771Y-83737506D01*
X66433771Y-83737506D02*
X66481390Y-83689887D01*
X66481390Y-83689887D02*
X66576628Y-83642268D01*
X66576628Y-83642268D02*
X66862342Y-83642268D01*
X66862342Y-83642268D02*
X66957580Y-83689887D01*
X66957580Y-83689887D02*
X67005200Y-83737506D01*
X67005200Y-83737506D02*
X67052819Y-83832744D01*
X67052819Y-83832744D02*
X67052819Y-83975601D01*
X66386152Y-83356553D02*
X66386152Y-82975601D01*
X66052819Y-83213696D02*
X66909961Y-83213696D01*
X66909961Y-83213696D02*
X67005200Y-83166077D01*
X67005200Y-83166077D02*
X67052819Y-83070839D01*
X67052819Y-83070839D02*
X67052819Y-82975601D01*
X93240341Y-149325570D02*
X93716531Y-149325570D01*
X93145103Y-149611285D02*
X93478436Y-148611285D01*
X93478436Y-148611285D02*
X93811769Y-149611285D01*
X90443207Y-96929580D02*
X90395588Y-96977200D01*
X90395588Y-96977200D02*
X90252731Y-97024819D01*
X90252731Y-97024819D02*
X90157493Y-97024819D01*
X90157493Y-97024819D02*
X90014636Y-96977200D01*
X90014636Y-96977200D02*
X89919398Y-96881961D01*
X89919398Y-96881961D02*
X89871779Y-96786723D01*
X89871779Y-96786723D02*
X89824160Y-96596247D01*
X89824160Y-96596247D02*
X89824160Y-96453390D01*
X89824160Y-96453390D02*
X89871779Y-96262914D01*
X89871779Y-96262914D02*
X89919398Y-96167676D01*
X89919398Y-96167676D02*
X90014636Y-96072438D01*
X90014636Y-96072438D02*
X90157493Y-96024819D01*
X90157493Y-96024819D02*
X90252731Y-96024819D01*
X90252731Y-96024819D02*
X90395588Y-96072438D01*
X90395588Y-96072438D02*
X90443207Y-96120057D01*
X90776541Y-96024819D02*
X91014636Y-97024819D01*
X91014636Y-97024819D02*
X91205112Y-96310533D01*
X91205112Y-96310533D02*
X91395588Y-97024819D01*
X91395588Y-97024819D02*
X91633684Y-96024819D01*
X93347969Y-97024819D02*
X93014636Y-96548628D01*
X92776541Y-97024819D02*
X92776541Y-96024819D01*
X92776541Y-96024819D02*
X93157493Y-96024819D01*
X93157493Y-96024819D02*
X93252731Y-96072438D01*
X93252731Y-96072438D02*
X93300350Y-96120057D01*
X93300350Y-96120057D02*
X93347969Y-96215295D01*
X93347969Y-96215295D02*
X93347969Y-96358152D01*
X93347969Y-96358152D02*
X93300350Y-96453390D01*
X93300350Y-96453390D02*
X93252731Y-96501009D01*
X93252731Y-96501009D02*
X93157493Y-96548628D01*
X93157493Y-96548628D02*
X92776541Y-96548628D01*
X94395589Y-96024819D02*
X94967017Y-96024819D01*
X94681303Y-97024819D02*
X94681303Y-96024819D01*
X95300351Y-97024819D02*
X95300351Y-96024819D01*
X96347969Y-96929580D02*
X96300350Y-96977200D01*
X96300350Y-96977200D02*
X96157493Y-97024819D01*
X96157493Y-97024819D02*
X96062255Y-97024819D01*
X96062255Y-97024819D02*
X95919398Y-96977200D01*
X95919398Y-96977200D02*
X95824160Y-96881961D01*
X95824160Y-96881961D02*
X95776541Y-96786723D01*
X95776541Y-96786723D02*
X95728922Y-96596247D01*
X95728922Y-96596247D02*
X95728922Y-96453390D01*
X95728922Y-96453390D02*
X95776541Y-96262914D01*
X95776541Y-96262914D02*
X95824160Y-96167676D01*
X95824160Y-96167676D02*
X95919398Y-96072438D01*
X95919398Y-96072438D02*
X96062255Y-96024819D01*
X96062255Y-96024819D02*
X96157493Y-96024819D01*
X96157493Y-96024819D02*
X96300350Y-96072438D01*
X96300350Y-96072438D02*
X96347969Y-96120057D01*
D11*
X52558185Y-63532185D02*
X52558185Y-62008185D01*
X52558185Y-62733899D02*
X53429042Y-62733899D01*
X53429042Y-63532185D02*
X53429042Y-62008185D01*
X54735327Y-63459614D02*
X54590184Y-63532185D01*
X54590184Y-63532185D02*
X54299899Y-63532185D01*
X54299899Y-63532185D02*
X54154756Y-63459614D01*
X54154756Y-63459614D02*
X54082184Y-63314471D01*
X54082184Y-63314471D02*
X54082184Y-62733899D01*
X54082184Y-62733899D02*
X54154756Y-62588756D01*
X54154756Y-62588756D02*
X54299899Y-62516185D01*
X54299899Y-62516185D02*
X54590184Y-62516185D01*
X54590184Y-62516185D02*
X54735327Y-62588756D01*
X54735327Y-62588756D02*
X54807899Y-62733899D01*
X54807899Y-62733899D02*
X54807899Y-62879042D01*
X54807899Y-62879042D02*
X54082184Y-63024185D01*
X55678756Y-63532185D02*
X55533613Y-63459614D01*
X55533613Y-63459614D02*
X55461042Y-63314471D01*
X55461042Y-63314471D02*
X55461042Y-62008185D01*
X56259328Y-63532185D02*
X56259328Y-62516185D01*
X56259328Y-62008185D02*
X56186756Y-62080756D01*
X56186756Y-62080756D02*
X56259328Y-62153328D01*
X56259328Y-62153328D02*
X56331899Y-62080756D01*
X56331899Y-62080756D02*
X56259328Y-62008185D01*
X56259328Y-62008185D02*
X56259328Y-62153328D01*
X57855899Y-63387042D02*
X57783327Y-63459614D01*
X57783327Y-63459614D02*
X57565613Y-63532185D01*
X57565613Y-63532185D02*
X57420470Y-63532185D01*
X57420470Y-63532185D02*
X57202756Y-63459614D01*
X57202756Y-63459614D02*
X57057613Y-63314471D01*
X57057613Y-63314471D02*
X56985042Y-63169328D01*
X56985042Y-63169328D02*
X56912470Y-62879042D01*
X56912470Y-62879042D02*
X56912470Y-62661328D01*
X56912470Y-62661328D02*
X56985042Y-62371042D01*
X56985042Y-62371042D02*
X57057613Y-62225899D01*
X57057613Y-62225899D02*
X57202756Y-62080756D01*
X57202756Y-62080756D02*
X57420470Y-62008185D01*
X57420470Y-62008185D02*
X57565613Y-62008185D01*
X57565613Y-62008185D02*
X57783327Y-62080756D01*
X57783327Y-62080756D02*
X57855899Y-62153328D01*
X58436470Y-63096756D02*
X59162185Y-63096756D01*
X58291327Y-63532185D02*
X58799327Y-62008185D01*
X58799327Y-62008185D02*
X59307327Y-63532185D01*
X60541042Y-63532185D02*
X59815328Y-63532185D01*
X59815328Y-63532185D02*
X59815328Y-62008185D01*
D10*
X80737322Y-146393019D02*
X81308750Y-146393019D01*
X81023036Y-147393019D02*
X81023036Y-146393019D01*
X81546846Y-146393019D02*
X81784941Y-147393019D01*
X81784941Y-147393019D02*
X81975417Y-146678733D01*
X81975417Y-146678733D02*
X82165893Y-147393019D01*
X82165893Y-147393019D02*
X82403989Y-146393019D01*
X83403989Y-146393019D02*
X83975417Y-146393019D01*
X83689703Y-147393019D02*
X83689703Y-146393019D01*
X62582588Y-65338438D02*
X62487350Y-65290819D01*
X62487350Y-65290819D02*
X62344493Y-65290819D01*
X62344493Y-65290819D02*
X62201636Y-65338438D01*
X62201636Y-65338438D02*
X62106398Y-65433676D01*
X62106398Y-65433676D02*
X62058779Y-65528914D01*
X62058779Y-65528914D02*
X62011160Y-65719390D01*
X62011160Y-65719390D02*
X62011160Y-65862247D01*
X62011160Y-65862247D02*
X62058779Y-66052723D01*
X62058779Y-66052723D02*
X62106398Y-66147961D01*
X62106398Y-66147961D02*
X62201636Y-66243200D01*
X62201636Y-66243200D02*
X62344493Y-66290819D01*
X62344493Y-66290819D02*
X62439731Y-66290819D01*
X62439731Y-66290819D02*
X62582588Y-66243200D01*
X62582588Y-66243200D02*
X62630207Y-66195580D01*
X62630207Y-66195580D02*
X62630207Y-65862247D01*
X62630207Y-65862247D02*
X62439731Y-65862247D01*
X63058779Y-66290819D02*
X63058779Y-65290819D01*
X63058779Y-65290819D02*
X63630207Y-66290819D01*
X63630207Y-66290819D02*
X63630207Y-65290819D01*
X64106398Y-66290819D02*
X64106398Y-65290819D01*
X64106398Y-65290819D02*
X64344493Y-65290819D01*
X64344493Y-65290819D02*
X64487350Y-65338438D01*
X64487350Y-65338438D02*
X64582588Y-65433676D01*
X64582588Y-65433676D02*
X64630207Y-65528914D01*
X64630207Y-65528914D02*
X64677826Y-65719390D01*
X64677826Y-65719390D02*
X64677826Y-65862247D01*
X64677826Y-65862247D02*
X64630207Y-66052723D01*
X64630207Y-66052723D02*
X64582588Y-66147961D01*
X64582588Y-66147961D02*
X64487350Y-66243200D01*
X64487350Y-66243200D02*
X64344493Y-66290819D01*
X64344493Y-66290819D02*
X64106398Y-66290819D01*
X90443207Y-103279580D02*
X90395588Y-103327200D01*
X90395588Y-103327200D02*
X90252731Y-103374819D01*
X90252731Y-103374819D02*
X90157493Y-103374819D01*
X90157493Y-103374819D02*
X90014636Y-103327200D01*
X90014636Y-103327200D02*
X89919398Y-103231961D01*
X89919398Y-103231961D02*
X89871779Y-103136723D01*
X89871779Y-103136723D02*
X89824160Y-102946247D01*
X89824160Y-102946247D02*
X89824160Y-102803390D01*
X89824160Y-102803390D02*
X89871779Y-102612914D01*
X89871779Y-102612914D02*
X89919398Y-102517676D01*
X89919398Y-102517676D02*
X90014636Y-102422438D01*
X90014636Y-102422438D02*
X90157493Y-102374819D01*
X90157493Y-102374819D02*
X90252731Y-102374819D01*
X90252731Y-102374819D02*
X90395588Y-102422438D01*
X90395588Y-102422438D02*
X90443207Y-102470057D01*
X90776541Y-102374819D02*
X91014636Y-103374819D01*
X91014636Y-103374819D02*
X91205112Y-102660533D01*
X91205112Y-102660533D02*
X91395588Y-103374819D01*
X91395588Y-103374819D02*
X91633684Y-102374819D01*
X92633684Y-102374819D02*
X93205112Y-102374819D01*
X92919398Y-103374819D02*
X92919398Y-102374819D01*
X94157494Y-102374819D02*
X94728922Y-102374819D01*
X94443208Y-103374819D02*
X94443208Y-102374819D01*
X95062256Y-103374819D02*
X95062256Y-102374819D01*
X96109874Y-103279580D02*
X96062255Y-103327200D01*
X96062255Y-103327200D02*
X95919398Y-103374819D01*
X95919398Y-103374819D02*
X95824160Y-103374819D01*
X95824160Y-103374819D02*
X95681303Y-103327200D01*
X95681303Y-103327200D02*
X95586065Y-103231961D01*
X95586065Y-103231961D02*
X95538446Y-103136723D01*
X95538446Y-103136723D02*
X95490827Y-102946247D01*
X95490827Y-102946247D02*
X95490827Y-102803390D01*
X95490827Y-102803390D02*
X95538446Y-102612914D01*
X95538446Y-102612914D02*
X95586065Y-102517676D01*
X95586065Y-102517676D02*
X95681303Y-102422438D01*
X95681303Y-102422438D02*
X95824160Y-102374819D01*
X95824160Y-102374819D02*
X95919398Y-102374819D01*
X95919398Y-102374819D02*
X96062255Y-102422438D01*
X96062255Y-102422438D02*
X96109874Y-102470057D01*
X89982922Y-76593819D02*
X90554350Y-76593819D01*
X90268636Y-77593819D02*
X90268636Y-76593819D01*
X90792446Y-76593819D02*
X91030541Y-77593819D01*
X91030541Y-77593819D02*
X91221017Y-76879533D01*
X91221017Y-76879533D02*
X91411493Y-77593819D01*
X91411493Y-77593819D02*
X91649589Y-76593819D01*
X92649589Y-76593819D02*
X93221017Y-76593819D01*
X92935303Y-77593819D02*
X92935303Y-76593819D01*
X94173399Y-76593819D02*
X94744827Y-76593819D01*
X94459113Y-77593819D02*
X94459113Y-76593819D01*
X95078161Y-77593819D02*
X95078161Y-76593819D01*
X96125779Y-77498580D02*
X96078160Y-77546200D01*
X96078160Y-77546200D02*
X95935303Y-77593819D01*
X95935303Y-77593819D02*
X95840065Y-77593819D01*
X95840065Y-77593819D02*
X95697208Y-77546200D01*
X95697208Y-77546200D02*
X95601970Y-77450961D01*
X95601970Y-77450961D02*
X95554351Y-77355723D01*
X95554351Y-77355723D02*
X95506732Y-77165247D01*
X95506732Y-77165247D02*
X95506732Y-77022390D01*
X95506732Y-77022390D02*
X95554351Y-76831914D01*
X95554351Y-76831914D02*
X95601970Y-76736676D01*
X95601970Y-76736676D02*
X95697208Y-76641438D01*
X95697208Y-76641438D02*
X95840065Y-76593819D01*
X95840065Y-76593819D02*
X95935303Y-76593819D01*
X95935303Y-76593819D02*
X96078160Y-76641438D01*
X96078160Y-76641438D02*
X96125779Y-76689057D01*
X93640522Y-70370819D02*
X94211950Y-70370819D01*
X93926236Y-71370819D02*
X93926236Y-70370819D01*
X94450046Y-70370819D02*
X94688141Y-71370819D01*
X94688141Y-71370819D02*
X94878617Y-70656533D01*
X94878617Y-70656533D02*
X95069093Y-71370819D01*
X95069093Y-71370819D02*
X95307189Y-70370819D01*
X97021474Y-71370819D02*
X96688141Y-70894628D01*
X96450046Y-71370819D02*
X96450046Y-70370819D01*
X96450046Y-70370819D02*
X96830998Y-70370819D01*
X96830998Y-70370819D02*
X96926236Y-70418438D01*
X96926236Y-70418438D02*
X96973855Y-70466057D01*
X96973855Y-70466057D02*
X97021474Y-70561295D01*
X97021474Y-70561295D02*
X97021474Y-70704152D01*
X97021474Y-70704152D02*
X96973855Y-70799390D01*
X96973855Y-70799390D02*
X96926236Y-70847009D01*
X96926236Y-70847009D02*
X96830998Y-70894628D01*
X96830998Y-70894628D02*
X96450046Y-70894628D01*
X98069094Y-70370819D02*
X98640522Y-70370819D01*
X98354808Y-71370819D02*
X98354808Y-70370819D01*
X92872038Y-152530011D02*
X92824419Y-152625249D01*
X92824419Y-152625249D02*
X92824419Y-152768106D01*
X92824419Y-152768106D02*
X92872038Y-152910963D01*
X92872038Y-152910963D02*
X92967276Y-153006201D01*
X92967276Y-153006201D02*
X93062514Y-153053820D01*
X93062514Y-153053820D02*
X93252990Y-153101439D01*
X93252990Y-153101439D02*
X93395847Y-153101439D01*
X93395847Y-153101439D02*
X93586323Y-153053820D01*
X93586323Y-153053820D02*
X93681561Y-153006201D01*
X93681561Y-153006201D02*
X93776800Y-152910963D01*
X93776800Y-152910963D02*
X93824419Y-152768106D01*
X93824419Y-152768106D02*
X93824419Y-152672868D01*
X93824419Y-152672868D02*
X93776800Y-152530011D01*
X93776800Y-152530011D02*
X93729180Y-152482392D01*
X93729180Y-152482392D02*
X93395847Y-152482392D01*
X93395847Y-152482392D02*
X93395847Y-152672868D01*
X93824419Y-152053820D02*
X92824419Y-152053820D01*
X92824419Y-152053820D02*
X93824419Y-151482392D01*
X93824419Y-151482392D02*
X92824419Y-151482392D01*
X93824419Y-151006201D02*
X92824419Y-151006201D01*
X92824419Y-151006201D02*
X92824419Y-150768106D01*
X92824419Y-150768106D02*
X92872038Y-150625249D01*
X92872038Y-150625249D02*
X92967276Y-150530011D01*
X92967276Y-150530011D02*
X93062514Y-150482392D01*
X93062514Y-150482392D02*
X93252990Y-150434773D01*
X93252990Y-150434773D02*
X93395847Y-150434773D01*
X93395847Y-150434773D02*
X93586323Y-150482392D01*
X93586323Y-150482392D02*
X93681561Y-150530011D01*
X93681561Y-150530011D02*
X93776800Y-150625249D01*
X93776800Y-150625249D02*
X93824419Y-150768106D01*
X93824419Y-150768106D02*
X93824419Y-151006201D01*
X93100712Y-65767009D02*
X93243569Y-65814628D01*
X93243569Y-65814628D02*
X93291188Y-65862247D01*
X93291188Y-65862247D02*
X93338807Y-65957485D01*
X93338807Y-65957485D02*
X93338807Y-66100342D01*
X93338807Y-66100342D02*
X93291188Y-66195580D01*
X93291188Y-66195580D02*
X93243569Y-66243200D01*
X93243569Y-66243200D02*
X93148331Y-66290819D01*
X93148331Y-66290819D02*
X92767379Y-66290819D01*
X92767379Y-66290819D02*
X92767379Y-65290819D01*
X92767379Y-65290819D02*
X93100712Y-65290819D01*
X93100712Y-65290819D02*
X93195950Y-65338438D01*
X93195950Y-65338438D02*
X93243569Y-65386057D01*
X93243569Y-65386057D02*
X93291188Y-65481295D01*
X93291188Y-65481295D02*
X93291188Y-65576533D01*
X93291188Y-65576533D02*
X93243569Y-65671771D01*
X93243569Y-65671771D02*
X93195950Y-65719390D01*
X93195950Y-65719390D02*
X93100712Y-65767009D01*
X93100712Y-65767009D02*
X92767379Y-65767009D01*
X94100712Y-65767009D02*
X94243569Y-65814628D01*
X94243569Y-65814628D02*
X94291188Y-65862247D01*
X94291188Y-65862247D02*
X94338807Y-65957485D01*
X94338807Y-65957485D02*
X94338807Y-66100342D01*
X94338807Y-66100342D02*
X94291188Y-66195580D01*
X94291188Y-66195580D02*
X94243569Y-66243200D01*
X94243569Y-66243200D02*
X94148331Y-66290819D01*
X94148331Y-66290819D02*
X93767379Y-66290819D01*
X93767379Y-66290819D02*
X93767379Y-65290819D01*
X93767379Y-65290819D02*
X94100712Y-65290819D01*
X94100712Y-65290819D02*
X94195950Y-65338438D01*
X94195950Y-65338438D02*
X94243569Y-65386057D01*
X94243569Y-65386057D02*
X94291188Y-65481295D01*
X94291188Y-65481295D02*
X94291188Y-65576533D01*
X94291188Y-65576533D02*
X94243569Y-65671771D01*
X94243569Y-65671771D02*
X94195950Y-65719390D01*
X94195950Y-65719390D02*
X94100712Y-65767009D01*
X94100712Y-65767009D02*
X93767379Y-65767009D01*
X95481665Y-66243200D02*
X95624522Y-66290819D01*
X95624522Y-66290819D02*
X95862617Y-66290819D01*
X95862617Y-66290819D02*
X95957855Y-66243200D01*
X95957855Y-66243200D02*
X96005474Y-66195580D01*
X96005474Y-66195580D02*
X96053093Y-66100342D01*
X96053093Y-66100342D02*
X96053093Y-66005104D01*
X96053093Y-66005104D02*
X96005474Y-65909866D01*
X96005474Y-65909866D02*
X95957855Y-65862247D01*
X95957855Y-65862247D02*
X95862617Y-65814628D01*
X95862617Y-65814628D02*
X95672141Y-65767009D01*
X95672141Y-65767009D02*
X95576903Y-65719390D01*
X95576903Y-65719390D02*
X95529284Y-65671771D01*
X95529284Y-65671771D02*
X95481665Y-65576533D01*
X95481665Y-65576533D02*
X95481665Y-65481295D01*
X95481665Y-65481295D02*
X95529284Y-65386057D01*
X95529284Y-65386057D02*
X95576903Y-65338438D01*
X95576903Y-65338438D02*
X95672141Y-65290819D01*
X95672141Y-65290819D02*
X95910236Y-65290819D01*
X95910236Y-65290819D02*
X96053093Y-65338438D01*
X96862617Y-66243200D02*
X96767379Y-66290819D01*
X96767379Y-66290819D02*
X96576903Y-66290819D01*
X96576903Y-66290819D02*
X96481665Y-66243200D01*
X96481665Y-66243200D02*
X96434046Y-66147961D01*
X96434046Y-66147961D02*
X96434046Y-65767009D01*
X96434046Y-65767009D02*
X96481665Y-65671771D01*
X96481665Y-65671771D02*
X96576903Y-65624152D01*
X96576903Y-65624152D02*
X96767379Y-65624152D01*
X96767379Y-65624152D02*
X96862617Y-65671771D01*
X96862617Y-65671771D02*
X96910236Y-65767009D01*
X96910236Y-65767009D02*
X96910236Y-65862247D01*
X96910236Y-65862247D02*
X96434046Y-65957485D01*
X97338808Y-65624152D02*
X97338808Y-66290819D01*
X97338808Y-65719390D02*
X97386427Y-65671771D01*
X97386427Y-65671771D02*
X97481665Y-65624152D01*
X97481665Y-65624152D02*
X97624522Y-65624152D01*
X97624522Y-65624152D02*
X97719760Y-65671771D01*
X97719760Y-65671771D02*
X97767379Y-65767009D01*
X97767379Y-65767009D02*
X97767379Y-66290819D01*
X98195951Y-66243200D02*
X98291189Y-66290819D01*
X98291189Y-66290819D02*
X98481665Y-66290819D01*
X98481665Y-66290819D02*
X98576903Y-66243200D01*
X98576903Y-66243200D02*
X98624522Y-66147961D01*
X98624522Y-66147961D02*
X98624522Y-66100342D01*
X98624522Y-66100342D02*
X98576903Y-66005104D01*
X98576903Y-66005104D02*
X98481665Y-65957485D01*
X98481665Y-65957485D02*
X98338808Y-65957485D01*
X98338808Y-65957485D02*
X98243570Y-65909866D01*
X98243570Y-65909866D02*
X98195951Y-65814628D01*
X98195951Y-65814628D02*
X98195951Y-65767009D01*
X98195951Y-65767009D02*
X98243570Y-65671771D01*
X98243570Y-65671771D02*
X98338808Y-65624152D01*
X98338808Y-65624152D02*
X98481665Y-65624152D01*
X98481665Y-65624152D02*
X98576903Y-65671771D01*
X78333804Y-147077204D02*
X78333804Y-147144548D01*
X78333804Y-147144548D02*
X78266461Y-147279235D01*
X78266461Y-147279235D02*
X78199117Y-147346578D01*
X78199117Y-147346578D02*
X78064430Y-147413922D01*
X78064430Y-147413922D02*
X77929743Y-147413922D01*
X77929743Y-147413922D02*
X77828728Y-147380250D01*
X77828728Y-147380250D02*
X77660369Y-147279235D01*
X77660369Y-147279235D02*
X77559354Y-147178220D01*
X77559354Y-147178220D02*
X77458339Y-147009861D01*
X77458339Y-147009861D02*
X77424667Y-146908846D01*
X77424667Y-146908846D02*
X77424667Y-146774158D01*
X77424667Y-146774158D02*
X77492010Y-146639471D01*
X77492010Y-146639471D02*
X77559354Y-146572128D01*
X77559354Y-146572128D02*
X77694041Y-146504784D01*
X77694041Y-146504784D02*
X77761384Y-146504784D01*
X77929743Y-146201739D02*
X78805209Y-146740487D01*
X78805209Y-146740487D02*
X78434819Y-146100723D01*
X78434819Y-146100723D02*
X79074583Y-146471113D01*
X79074583Y-146471113D02*
X78535835Y-145595647D01*
X80455124Y-145090571D02*
X79882705Y-144989556D01*
X80051063Y-145494632D02*
X79343957Y-144787525D01*
X79343957Y-144787525D02*
X79613331Y-144518151D01*
X79613331Y-144518151D02*
X79714346Y-144484479D01*
X79714346Y-144484479D02*
X79781689Y-144484479D01*
X79781689Y-144484479D02*
X79882705Y-144518151D01*
X79882705Y-144518151D02*
X79983720Y-144619166D01*
X79983720Y-144619166D02*
X80017392Y-144720182D01*
X80017392Y-144720182D02*
X80017392Y-144787525D01*
X80017392Y-144787525D02*
X79983720Y-144888540D01*
X79983720Y-144888540D02*
X79714346Y-145157914D01*
X88982779Y-128886009D02*
X89316112Y-128886009D01*
X89458969Y-129409819D02*
X88982779Y-129409819D01*
X88982779Y-129409819D02*
X88982779Y-128409819D01*
X88982779Y-128409819D02*
X89458969Y-128409819D01*
X89792303Y-129409819D02*
X90316112Y-128743152D01*
X89792303Y-128743152D02*
X90316112Y-129409819D01*
X90554208Y-128743152D02*
X90935160Y-128743152D01*
X90697065Y-128409819D02*
X90697065Y-129266961D01*
X90697065Y-129266961D02*
X90744684Y-129362200D01*
X90744684Y-129362200D02*
X90839922Y-129409819D01*
X90839922Y-129409819D02*
X90935160Y-129409819D01*
X91268494Y-129409819D02*
X91268494Y-128743152D01*
X91268494Y-128933628D02*
X91316113Y-128838390D01*
X91316113Y-128838390D02*
X91363732Y-128790771D01*
X91363732Y-128790771D02*
X91458970Y-128743152D01*
X91458970Y-128743152D02*
X91554208Y-128743152D01*
X92316113Y-129409819D02*
X92316113Y-128886009D01*
X92316113Y-128886009D02*
X92268494Y-128790771D01*
X92268494Y-128790771D02*
X92173256Y-128743152D01*
X92173256Y-128743152D02*
X91982780Y-128743152D01*
X91982780Y-128743152D02*
X91887542Y-128790771D01*
X92316113Y-129362200D02*
X92220875Y-129409819D01*
X92220875Y-129409819D02*
X91982780Y-129409819D01*
X91982780Y-129409819D02*
X91887542Y-129362200D01*
X91887542Y-129362200D02*
X91839923Y-129266961D01*
X91839923Y-129266961D02*
X91839923Y-129171723D01*
X91839923Y-129171723D02*
X91887542Y-129076485D01*
X91887542Y-129076485D02*
X91982780Y-129028866D01*
X91982780Y-129028866D02*
X92220875Y-129028866D01*
X92220875Y-129028866D02*
X92316113Y-128981247D01*
X93554209Y-129409819D02*
X93554209Y-128409819D01*
X93982780Y-128505057D02*
X94030399Y-128457438D01*
X94030399Y-128457438D02*
X94125637Y-128409819D01*
X94125637Y-128409819D02*
X94363732Y-128409819D01*
X94363732Y-128409819D02*
X94458970Y-128457438D01*
X94458970Y-128457438D02*
X94506589Y-128505057D01*
X94506589Y-128505057D02*
X94554208Y-128600295D01*
X94554208Y-128600295D02*
X94554208Y-128695533D01*
X94554208Y-128695533D02*
X94506589Y-128838390D01*
X94506589Y-128838390D02*
X93935161Y-129409819D01*
X93935161Y-129409819D02*
X94554208Y-129409819D01*
X95554208Y-129314580D02*
X95506589Y-129362200D01*
X95506589Y-129362200D02*
X95363732Y-129409819D01*
X95363732Y-129409819D02*
X95268494Y-129409819D01*
X95268494Y-129409819D02*
X95125637Y-129362200D01*
X95125637Y-129362200D02*
X95030399Y-129266961D01*
X95030399Y-129266961D02*
X94982780Y-129171723D01*
X94982780Y-129171723D02*
X94935161Y-128981247D01*
X94935161Y-128981247D02*
X94935161Y-128838390D01*
X94935161Y-128838390D02*
X94982780Y-128647914D01*
X94982780Y-128647914D02*
X95030399Y-128552676D01*
X95030399Y-128552676D02*
X95125637Y-128457438D01*
X95125637Y-128457438D02*
X95268494Y-128409819D01*
X95268494Y-128409819D02*
X95363732Y-128409819D01*
X95363732Y-128409819D02*
X95506589Y-128457438D01*
X95506589Y-128457438D02*
X95554208Y-128505057D01*
X83353522Y-141109819D02*
X83924950Y-141109819D01*
X83639236Y-142109819D02*
X83639236Y-141109819D01*
X84258284Y-142109819D02*
X84258284Y-141109819D01*
X84686855Y-142109819D02*
X84686855Y-141586009D01*
X84686855Y-141586009D02*
X84639236Y-141490771D01*
X84639236Y-141490771D02*
X84543998Y-141443152D01*
X84543998Y-141443152D02*
X84401141Y-141443152D01*
X84401141Y-141443152D02*
X84305903Y-141490771D01*
X84305903Y-141490771D02*
X84258284Y-141538390D01*
X85543998Y-142062200D02*
X85448760Y-142109819D01*
X85448760Y-142109819D02*
X85258284Y-142109819D01*
X85258284Y-142109819D02*
X85163046Y-142062200D01*
X85163046Y-142062200D02*
X85115427Y-141966961D01*
X85115427Y-141966961D02*
X85115427Y-141586009D01*
X85115427Y-141586009D02*
X85163046Y-141490771D01*
X85163046Y-141490771D02*
X85258284Y-141443152D01*
X85258284Y-141443152D02*
X85448760Y-141443152D01*
X85448760Y-141443152D02*
X85543998Y-141490771D01*
X85543998Y-141490771D02*
X85591617Y-141586009D01*
X85591617Y-141586009D02*
X85591617Y-141681247D01*
X85591617Y-141681247D02*
X85115427Y-141776485D01*
X85877332Y-141443152D02*
X86258284Y-141443152D01*
X86020189Y-141109819D02*
X86020189Y-141966961D01*
X86020189Y-141966961D02*
X86067808Y-142062200D01*
X86067808Y-142062200D02*
X86163046Y-142109819D01*
X86163046Y-142109819D02*
X86258284Y-142109819D01*
X87020189Y-142109819D02*
X87020189Y-141586009D01*
X87020189Y-141586009D02*
X86972570Y-141490771D01*
X86972570Y-141490771D02*
X86877332Y-141443152D01*
X86877332Y-141443152D02*
X86686856Y-141443152D01*
X86686856Y-141443152D02*
X86591618Y-141490771D01*
X87020189Y-142062200D02*
X86924951Y-142109819D01*
X86924951Y-142109819D02*
X86686856Y-142109819D01*
X86686856Y-142109819D02*
X86591618Y-142062200D01*
X86591618Y-142062200D02*
X86543999Y-141966961D01*
X86543999Y-141966961D02*
X86543999Y-141871723D01*
X86543999Y-141871723D02*
X86591618Y-141776485D01*
X86591618Y-141776485D02*
X86686856Y-141728866D01*
X86686856Y-141728866D02*
X86924951Y-141728866D01*
X86924951Y-141728866D02*
X87020189Y-141681247D01*
X87496380Y-141728866D02*
X88258285Y-141728866D01*
X88734475Y-141443152D02*
X89496380Y-141728866D01*
X89496380Y-141728866D02*
X88734475Y-142014580D01*
X83272333Y-132642780D02*
X83224714Y-132690400D01*
X83224714Y-132690400D02*
X83081857Y-132738019D01*
X83081857Y-132738019D02*
X82986619Y-132738019D01*
X82986619Y-132738019D02*
X82843762Y-132690400D01*
X82843762Y-132690400D02*
X82748524Y-132595161D01*
X82748524Y-132595161D02*
X82700905Y-132499923D01*
X82700905Y-132499923D02*
X82653286Y-132309447D01*
X82653286Y-132309447D02*
X82653286Y-132166590D01*
X82653286Y-132166590D02*
X82700905Y-131976114D01*
X82700905Y-131976114D02*
X82748524Y-131880876D01*
X82748524Y-131880876D02*
X82843762Y-131785638D01*
X82843762Y-131785638D02*
X82986619Y-131738019D01*
X82986619Y-131738019D02*
X83081857Y-131738019D01*
X83081857Y-131738019D02*
X83224714Y-131785638D01*
X83224714Y-131785638D02*
X83272333Y-131833257D01*
X83843762Y-132166590D02*
X83748524Y-132118971D01*
X83748524Y-132118971D02*
X83700905Y-132071352D01*
X83700905Y-132071352D02*
X83653286Y-131976114D01*
X83653286Y-131976114D02*
X83653286Y-131928495D01*
X83653286Y-131928495D02*
X83700905Y-131833257D01*
X83700905Y-131833257D02*
X83748524Y-131785638D01*
X83748524Y-131785638D02*
X83843762Y-131738019D01*
X83843762Y-131738019D02*
X84034238Y-131738019D01*
X84034238Y-131738019D02*
X84129476Y-131785638D01*
X84129476Y-131785638D02*
X84177095Y-131833257D01*
X84177095Y-131833257D02*
X84224714Y-131928495D01*
X84224714Y-131928495D02*
X84224714Y-131976114D01*
X84224714Y-131976114D02*
X84177095Y-132071352D01*
X84177095Y-132071352D02*
X84129476Y-132118971D01*
X84129476Y-132118971D02*
X84034238Y-132166590D01*
X84034238Y-132166590D02*
X83843762Y-132166590D01*
X83843762Y-132166590D02*
X83748524Y-132214209D01*
X83748524Y-132214209D02*
X83700905Y-132261828D01*
X83700905Y-132261828D02*
X83653286Y-132357066D01*
X83653286Y-132357066D02*
X83653286Y-132547542D01*
X83653286Y-132547542D02*
X83700905Y-132642780D01*
X83700905Y-132642780D02*
X83748524Y-132690400D01*
X83748524Y-132690400D02*
X83843762Y-132738019D01*
X83843762Y-132738019D02*
X84034238Y-132738019D01*
X84034238Y-132738019D02*
X84129476Y-132690400D01*
X84129476Y-132690400D02*
X84177095Y-132642780D01*
X84177095Y-132642780D02*
X84224714Y-132547542D01*
X84224714Y-132547542D02*
X84224714Y-132357066D01*
X84224714Y-132357066D02*
X84177095Y-132261828D01*
X84177095Y-132261828D02*
X84129476Y-132214209D01*
X84129476Y-132214209D02*
X84034238Y-132166590D01*
X81900733Y-128223180D02*
X81853114Y-128270800D01*
X81853114Y-128270800D02*
X81710257Y-128318419D01*
X81710257Y-128318419D02*
X81615019Y-128318419D01*
X81615019Y-128318419D02*
X81472162Y-128270800D01*
X81472162Y-128270800D02*
X81376924Y-128175561D01*
X81376924Y-128175561D02*
X81329305Y-128080323D01*
X81329305Y-128080323D02*
X81281686Y-127889847D01*
X81281686Y-127889847D02*
X81281686Y-127746990D01*
X81281686Y-127746990D02*
X81329305Y-127556514D01*
X81329305Y-127556514D02*
X81376924Y-127461276D01*
X81376924Y-127461276D02*
X81472162Y-127366038D01*
X81472162Y-127366038D02*
X81615019Y-127318419D01*
X81615019Y-127318419D02*
X81710257Y-127318419D01*
X81710257Y-127318419D02*
X81853114Y-127366038D01*
X81853114Y-127366038D02*
X81900733Y-127413657D01*
X82281686Y-127413657D02*
X82329305Y-127366038D01*
X82329305Y-127366038D02*
X82424543Y-127318419D01*
X82424543Y-127318419D02*
X82662638Y-127318419D01*
X82662638Y-127318419D02*
X82757876Y-127366038D01*
X82757876Y-127366038D02*
X82805495Y-127413657D01*
X82805495Y-127413657D02*
X82853114Y-127508895D01*
X82853114Y-127508895D02*
X82853114Y-127604133D01*
X82853114Y-127604133D02*
X82805495Y-127746990D01*
X82805495Y-127746990D02*
X82234067Y-128318419D01*
X82234067Y-128318419D02*
X82853114Y-128318419D01*
X73914095Y-122823819D02*
X73914095Y-123633342D01*
X73914095Y-123633342D02*
X73961714Y-123728580D01*
X73961714Y-123728580D02*
X74009333Y-123776200D01*
X74009333Y-123776200D02*
X74104571Y-123823819D01*
X74104571Y-123823819D02*
X74295047Y-123823819D01*
X74295047Y-123823819D02*
X74390285Y-123776200D01*
X74390285Y-123776200D02*
X74437904Y-123728580D01*
X74437904Y-123728580D02*
X74485523Y-123633342D01*
X74485523Y-123633342D02*
X74485523Y-122823819D01*
X75390285Y-123157152D02*
X75390285Y-123823819D01*
X75152190Y-122776200D02*
X74914095Y-123490485D01*
X74914095Y-123490485D02*
X75533142Y-123490485D01*
X82134333Y-126107723D02*
X82086714Y-126155343D01*
X82086714Y-126155343D02*
X81943857Y-126202962D01*
X81943857Y-126202962D02*
X81848619Y-126202962D01*
X81848619Y-126202962D02*
X81705762Y-126155343D01*
X81705762Y-126155343D02*
X81610524Y-126060104D01*
X81610524Y-126060104D02*
X81562905Y-125964866D01*
X81562905Y-125964866D02*
X81515286Y-125774390D01*
X81515286Y-125774390D02*
X81515286Y-125631533D01*
X81515286Y-125631533D02*
X81562905Y-125441057D01*
X81562905Y-125441057D02*
X81610524Y-125345819D01*
X81610524Y-125345819D02*
X81705762Y-125250581D01*
X81705762Y-125250581D02*
X81848619Y-125202962D01*
X81848619Y-125202962D02*
X81943857Y-125202962D01*
X81943857Y-125202962D02*
X82086714Y-125250581D01*
X82086714Y-125250581D02*
X82134333Y-125298200D01*
X83039095Y-125202962D02*
X82562905Y-125202962D01*
X82562905Y-125202962D02*
X82515286Y-125679152D01*
X82515286Y-125679152D02*
X82562905Y-125631533D01*
X82562905Y-125631533D02*
X82658143Y-125583914D01*
X82658143Y-125583914D02*
X82896238Y-125583914D01*
X82896238Y-125583914D02*
X82991476Y-125631533D01*
X82991476Y-125631533D02*
X83039095Y-125679152D01*
X83039095Y-125679152D02*
X83086714Y-125774390D01*
X83086714Y-125774390D02*
X83086714Y-126012485D01*
X83086714Y-126012485D02*
X83039095Y-126107723D01*
X83039095Y-126107723D02*
X82991476Y-126155343D01*
X82991476Y-126155343D02*
X82896238Y-126202962D01*
X82896238Y-126202962D02*
X82658143Y-126202962D01*
X82658143Y-126202962D02*
X82562905Y-126155343D01*
X82562905Y-126155343D02*
X82515286Y-126107723D01*
X82281733Y-140034180D02*
X82234114Y-140081800D01*
X82234114Y-140081800D02*
X82091257Y-140129419D01*
X82091257Y-140129419D02*
X81996019Y-140129419D01*
X81996019Y-140129419D02*
X81853162Y-140081800D01*
X81853162Y-140081800D02*
X81757924Y-139986561D01*
X81757924Y-139986561D02*
X81710305Y-139891323D01*
X81710305Y-139891323D02*
X81662686Y-139700847D01*
X81662686Y-139700847D02*
X81662686Y-139557990D01*
X81662686Y-139557990D02*
X81710305Y-139367514D01*
X81710305Y-139367514D02*
X81757924Y-139272276D01*
X81757924Y-139272276D02*
X81853162Y-139177038D01*
X81853162Y-139177038D02*
X81996019Y-139129419D01*
X81996019Y-139129419D02*
X82091257Y-139129419D01*
X82091257Y-139129419D02*
X82234114Y-139177038D01*
X82234114Y-139177038D02*
X82281733Y-139224657D01*
X83234114Y-140129419D02*
X82662686Y-140129419D01*
X82948400Y-140129419D02*
X82948400Y-139129419D01*
X82948400Y-139129419D02*
X82853162Y-139272276D01*
X82853162Y-139272276D02*
X82757924Y-139367514D01*
X82757924Y-139367514D02*
X82662686Y-139415133D01*
X70548833Y-125676819D02*
X70215500Y-125200628D01*
X69977405Y-125676819D02*
X69977405Y-124676819D01*
X69977405Y-124676819D02*
X70358357Y-124676819D01*
X70358357Y-124676819D02*
X70453595Y-124724438D01*
X70453595Y-124724438D02*
X70501214Y-124772057D01*
X70501214Y-124772057D02*
X70548833Y-124867295D01*
X70548833Y-124867295D02*
X70548833Y-125010152D01*
X70548833Y-125010152D02*
X70501214Y-125105390D01*
X70501214Y-125105390D02*
X70453595Y-125153009D01*
X70453595Y-125153009D02*
X70358357Y-125200628D01*
X70358357Y-125200628D02*
X69977405Y-125200628D01*
X71120262Y-125105390D02*
X71025024Y-125057771D01*
X71025024Y-125057771D02*
X70977405Y-125010152D01*
X70977405Y-125010152D02*
X70929786Y-124914914D01*
X70929786Y-124914914D02*
X70929786Y-124867295D01*
X70929786Y-124867295D02*
X70977405Y-124772057D01*
X70977405Y-124772057D02*
X71025024Y-124724438D01*
X71025024Y-124724438D02*
X71120262Y-124676819D01*
X71120262Y-124676819D02*
X71310738Y-124676819D01*
X71310738Y-124676819D02*
X71405976Y-124724438D01*
X71405976Y-124724438D02*
X71453595Y-124772057D01*
X71453595Y-124772057D02*
X71501214Y-124867295D01*
X71501214Y-124867295D02*
X71501214Y-124914914D01*
X71501214Y-124914914D02*
X71453595Y-125010152D01*
X71453595Y-125010152D02*
X71405976Y-125057771D01*
X71405976Y-125057771D02*
X71310738Y-125105390D01*
X71310738Y-125105390D02*
X71120262Y-125105390D01*
X71120262Y-125105390D02*
X71025024Y-125153009D01*
X71025024Y-125153009D02*
X70977405Y-125200628D01*
X70977405Y-125200628D02*
X70929786Y-125295866D01*
X70929786Y-125295866D02*
X70929786Y-125486342D01*
X70929786Y-125486342D02*
X70977405Y-125581580D01*
X70977405Y-125581580D02*
X71025024Y-125629200D01*
X71025024Y-125629200D02*
X71120262Y-125676819D01*
X71120262Y-125676819D02*
X71310738Y-125676819D01*
X71310738Y-125676819D02*
X71405976Y-125629200D01*
X71405976Y-125629200D02*
X71453595Y-125581580D01*
X71453595Y-125581580D02*
X71501214Y-125486342D01*
X71501214Y-125486342D02*
X71501214Y-125295866D01*
X71501214Y-125295866D02*
X71453595Y-125200628D01*
X71453595Y-125200628D02*
X71405976Y-125153009D01*
X71405976Y-125153009D02*
X71310738Y-125105390D01*
X70318333Y-133246019D02*
X69985000Y-132769828D01*
X69746905Y-133246019D02*
X69746905Y-132246019D01*
X69746905Y-132246019D02*
X70127857Y-132246019D01*
X70127857Y-132246019D02*
X70223095Y-132293638D01*
X70223095Y-132293638D02*
X70270714Y-132341257D01*
X70270714Y-132341257D02*
X70318333Y-132436495D01*
X70318333Y-132436495D02*
X70318333Y-132579352D01*
X70318333Y-132579352D02*
X70270714Y-132674590D01*
X70270714Y-132674590D02*
X70223095Y-132722209D01*
X70223095Y-132722209D02*
X70127857Y-132769828D01*
X70127857Y-132769828D02*
X69746905Y-132769828D01*
X70699286Y-132341257D02*
X70746905Y-132293638D01*
X70746905Y-132293638D02*
X70842143Y-132246019D01*
X70842143Y-132246019D02*
X71080238Y-132246019D01*
X71080238Y-132246019D02*
X71175476Y-132293638D01*
X71175476Y-132293638D02*
X71223095Y-132341257D01*
X71223095Y-132341257D02*
X71270714Y-132436495D01*
X71270714Y-132436495D02*
X71270714Y-132531733D01*
X71270714Y-132531733D02*
X71223095Y-132674590D01*
X71223095Y-132674590D02*
X70651667Y-133246019D01*
X70651667Y-133246019D02*
X71270714Y-133246019D01*
X86633419Y-72314866D02*
X86157228Y-72648199D01*
X86633419Y-72886294D02*
X85633419Y-72886294D01*
X85633419Y-72886294D02*
X85633419Y-72505342D01*
X85633419Y-72505342D02*
X85681038Y-72410104D01*
X85681038Y-72410104D02*
X85728657Y-72362485D01*
X85728657Y-72362485D02*
X85823895Y-72314866D01*
X85823895Y-72314866D02*
X85966752Y-72314866D01*
X85966752Y-72314866D02*
X86061990Y-72362485D01*
X86061990Y-72362485D02*
X86109609Y-72410104D01*
X86109609Y-72410104D02*
X86157228Y-72505342D01*
X86157228Y-72505342D02*
X86157228Y-72886294D01*
X86633419Y-71362485D02*
X86633419Y-71933913D01*
X86633419Y-71648199D02*
X85633419Y-71648199D01*
X85633419Y-71648199D02*
X85776276Y-71743437D01*
X85776276Y-71743437D02*
X85871514Y-71838675D01*
X85871514Y-71838675D02*
X85919133Y-71933913D01*
X80668905Y-163903819D02*
X80668905Y-162903819D01*
X80668905Y-162903819D02*
X80907000Y-162903819D01*
X80907000Y-162903819D02*
X81049857Y-162951438D01*
X81049857Y-162951438D02*
X81145095Y-163046676D01*
X81145095Y-163046676D02*
X81192714Y-163141914D01*
X81192714Y-163141914D02*
X81240333Y-163332390D01*
X81240333Y-163332390D02*
X81240333Y-163475247D01*
X81240333Y-163475247D02*
X81192714Y-163665723D01*
X81192714Y-163665723D02*
X81145095Y-163760961D01*
X81145095Y-163760961D02*
X81049857Y-163856200D01*
X81049857Y-163856200D02*
X80907000Y-163903819D01*
X80907000Y-163903819D02*
X80668905Y-163903819D01*
X81621286Y-162999057D02*
X81668905Y-162951438D01*
X81668905Y-162951438D02*
X81764143Y-162903819D01*
X81764143Y-162903819D02*
X82002238Y-162903819D01*
X82002238Y-162903819D02*
X82097476Y-162951438D01*
X82097476Y-162951438D02*
X82145095Y-162999057D01*
X82145095Y-162999057D02*
X82192714Y-163094295D01*
X82192714Y-163094295D02*
X82192714Y-163189533D01*
X82192714Y-163189533D02*
X82145095Y-163332390D01*
X82145095Y-163332390D02*
X81573667Y-163903819D01*
X81573667Y-163903819D02*
X82192714Y-163903819D01*
X51054095Y-119469819D02*
X51054095Y-120279342D01*
X51054095Y-120279342D02*
X51101714Y-120374580D01*
X51101714Y-120374580D02*
X51149333Y-120422200D01*
X51149333Y-120422200D02*
X51244571Y-120469819D01*
X51244571Y-120469819D02*
X51435047Y-120469819D01*
X51435047Y-120469819D02*
X51530285Y-120422200D01*
X51530285Y-120422200D02*
X51577904Y-120374580D01*
X51577904Y-120374580D02*
X51625523Y-120279342D01*
X51625523Y-120279342D02*
X51625523Y-119469819D01*
X52054095Y-119565057D02*
X52101714Y-119517438D01*
X52101714Y-119517438D02*
X52196952Y-119469819D01*
X52196952Y-119469819D02*
X52435047Y-119469819D01*
X52435047Y-119469819D02*
X52530285Y-119517438D01*
X52530285Y-119517438D02*
X52577904Y-119565057D01*
X52577904Y-119565057D02*
X52625523Y-119660295D01*
X52625523Y-119660295D02*
X52625523Y-119755533D01*
X52625523Y-119755533D02*
X52577904Y-119898390D01*
X52577904Y-119898390D02*
X52006476Y-120469819D01*
X52006476Y-120469819D02*
X52625523Y-120469819D01*
X60307588Y-108599451D02*
X59736160Y-108599451D01*
X60021874Y-108599451D02*
X60021874Y-107599451D01*
X60021874Y-107599451D02*
X59926636Y-107742308D01*
X59926636Y-107742308D02*
X59831398Y-107837546D01*
X59831398Y-107837546D02*
X59736160Y-107885165D01*
X60688541Y-107694689D02*
X60736160Y-107647070D01*
X60736160Y-107647070D02*
X60831398Y-107599451D01*
X60831398Y-107599451D02*
X61069493Y-107599451D01*
X61069493Y-107599451D02*
X61164731Y-107647070D01*
X61164731Y-107647070D02*
X61212350Y-107694689D01*
X61212350Y-107694689D02*
X61259969Y-107789927D01*
X61259969Y-107789927D02*
X61259969Y-107885165D01*
X61259969Y-107885165D02*
X61212350Y-108028022D01*
X61212350Y-108028022D02*
X60640922Y-108599451D01*
X60640922Y-108599451D02*
X61259969Y-108599451D01*
X63526160Y-87378899D02*
X63573779Y-87331280D01*
X63573779Y-87331280D02*
X63669017Y-87283661D01*
X63669017Y-87283661D02*
X63907112Y-87283661D01*
X63907112Y-87283661D02*
X64002350Y-87331280D01*
X64002350Y-87331280D02*
X64049969Y-87378899D01*
X64049969Y-87378899D02*
X64097588Y-87474137D01*
X64097588Y-87474137D02*
X64097588Y-87569375D01*
X64097588Y-87569375D02*
X64049969Y-87712232D01*
X64049969Y-87712232D02*
X63478541Y-88283661D01*
X63478541Y-88283661D02*
X64097588Y-88283661D01*
X64430922Y-87283661D02*
X65097588Y-87283661D01*
X65097588Y-87283661D02*
X64669017Y-88283661D01*
X63478541Y-120296819D02*
X64097588Y-120296819D01*
X64097588Y-120296819D02*
X63764255Y-120677771D01*
X63764255Y-120677771D02*
X63907112Y-120677771D01*
X63907112Y-120677771D02*
X64002350Y-120725390D01*
X64002350Y-120725390D02*
X64049969Y-120773009D01*
X64049969Y-120773009D02*
X64097588Y-120868247D01*
X64097588Y-120868247D02*
X64097588Y-121106342D01*
X64097588Y-121106342D02*
X64049969Y-121201580D01*
X64049969Y-121201580D02*
X64002350Y-121249200D01*
X64002350Y-121249200D02*
X63907112Y-121296819D01*
X63907112Y-121296819D02*
X63621398Y-121296819D01*
X63621398Y-121296819D02*
X63526160Y-121249200D01*
X63526160Y-121249200D02*
X63478541Y-121201580D01*
X64526160Y-121201580D02*
X64573779Y-121249200D01*
X64573779Y-121249200D02*
X64526160Y-121296819D01*
X64526160Y-121296819D02*
X64478541Y-121249200D01*
X64478541Y-121249200D02*
X64526160Y-121201580D01*
X64526160Y-121201580D02*
X64526160Y-121296819D01*
X64907112Y-120296819D02*
X65526159Y-120296819D01*
X65526159Y-120296819D02*
X65192826Y-120677771D01*
X65192826Y-120677771D02*
X65335683Y-120677771D01*
X65335683Y-120677771D02*
X65430921Y-120725390D01*
X65430921Y-120725390D02*
X65478540Y-120773009D01*
X65478540Y-120773009D02*
X65526159Y-120868247D01*
X65526159Y-120868247D02*
X65526159Y-121106342D01*
X65526159Y-121106342D02*
X65478540Y-121201580D01*
X65478540Y-121201580D02*
X65430921Y-121249200D01*
X65430921Y-121249200D02*
X65335683Y-121296819D01*
X65335683Y-121296819D02*
X65049969Y-121296819D01*
X65049969Y-121296819D02*
X64954731Y-121249200D01*
X64954731Y-121249200D02*
X64907112Y-121201580D01*
X65859493Y-120630152D02*
X66097588Y-121296819D01*
X66097588Y-121296819D02*
X66335683Y-120630152D01*
X63478541Y-74586293D02*
X64097588Y-74586293D01*
X64097588Y-74586293D02*
X63764255Y-74967245D01*
X63764255Y-74967245D02*
X63907112Y-74967245D01*
X63907112Y-74967245D02*
X64002350Y-75014864D01*
X64002350Y-75014864D02*
X64049969Y-75062483D01*
X64049969Y-75062483D02*
X64097588Y-75157721D01*
X64097588Y-75157721D02*
X64097588Y-75395816D01*
X64097588Y-75395816D02*
X64049969Y-75491054D01*
X64049969Y-75491054D02*
X64002350Y-75538674D01*
X64002350Y-75538674D02*
X63907112Y-75586293D01*
X63907112Y-75586293D02*
X63621398Y-75586293D01*
X63621398Y-75586293D02*
X63526160Y-75538674D01*
X63526160Y-75538674D02*
X63478541Y-75491054D01*
X64430922Y-74586293D02*
X65097588Y-74586293D01*
X65097588Y-74586293D02*
X64669017Y-75586293D01*
X64097588Y-110186543D02*
X64002350Y-110138924D01*
X64002350Y-110138924D02*
X63859493Y-110138924D01*
X63859493Y-110138924D02*
X63716636Y-110186543D01*
X63716636Y-110186543D02*
X63621398Y-110281781D01*
X63621398Y-110281781D02*
X63573779Y-110377019D01*
X63573779Y-110377019D02*
X63526160Y-110567495D01*
X63526160Y-110567495D02*
X63526160Y-110710352D01*
X63526160Y-110710352D02*
X63573779Y-110900828D01*
X63573779Y-110900828D02*
X63621398Y-110996066D01*
X63621398Y-110996066D02*
X63716636Y-111091305D01*
X63716636Y-111091305D02*
X63859493Y-111138924D01*
X63859493Y-111138924D02*
X63954731Y-111138924D01*
X63954731Y-111138924D02*
X64097588Y-111091305D01*
X64097588Y-111091305D02*
X64145207Y-111043685D01*
X64145207Y-111043685D02*
X64145207Y-110710352D01*
X64145207Y-110710352D02*
X63954731Y-110710352D01*
X64573779Y-111138924D02*
X64573779Y-110138924D01*
X64573779Y-110138924D02*
X65145207Y-111138924D01*
X65145207Y-111138924D02*
X65145207Y-110138924D01*
X65621398Y-111138924D02*
X65621398Y-110138924D01*
X65621398Y-110138924D02*
X65859493Y-110138924D01*
X65859493Y-110138924D02*
X66002350Y-110186543D01*
X66002350Y-110186543D02*
X66097588Y-110281781D01*
X66097588Y-110281781D02*
X66145207Y-110377019D01*
X66145207Y-110377019D02*
X66192826Y-110567495D01*
X66192826Y-110567495D02*
X66192826Y-110710352D01*
X66192826Y-110710352D02*
X66145207Y-110900828D01*
X66145207Y-110900828D02*
X66097588Y-110996066D01*
X66097588Y-110996066D02*
X66002350Y-111091305D01*
X66002350Y-111091305D02*
X65859493Y-111138924D01*
X65859493Y-111138924D02*
X65621398Y-111138924D01*
X59736160Y-92457846D02*
X59783779Y-92410227D01*
X59783779Y-92410227D02*
X59879017Y-92362608D01*
X59879017Y-92362608D02*
X60117112Y-92362608D01*
X60117112Y-92362608D02*
X60212350Y-92410227D01*
X60212350Y-92410227D02*
X60259969Y-92457846D01*
X60259969Y-92457846D02*
X60307588Y-92553084D01*
X60307588Y-92553084D02*
X60307588Y-92648322D01*
X60307588Y-92648322D02*
X60259969Y-92791179D01*
X60259969Y-92791179D02*
X59688541Y-93362608D01*
X59688541Y-93362608D02*
X60307588Y-93362608D01*
X61164731Y-92695941D02*
X61164731Y-93362608D01*
X60926636Y-92314989D02*
X60688541Y-93029274D01*
X60688541Y-93029274D02*
X61307588Y-93029274D01*
X60307588Y-105107596D02*
X60212350Y-105059977D01*
X60212350Y-105059977D02*
X60069493Y-105059977D01*
X60069493Y-105059977D02*
X59926636Y-105107596D01*
X59926636Y-105107596D02*
X59831398Y-105202834D01*
X59831398Y-105202834D02*
X59783779Y-105298072D01*
X59783779Y-105298072D02*
X59736160Y-105488548D01*
X59736160Y-105488548D02*
X59736160Y-105631405D01*
X59736160Y-105631405D02*
X59783779Y-105821881D01*
X59783779Y-105821881D02*
X59831398Y-105917119D01*
X59831398Y-105917119D02*
X59926636Y-106012358D01*
X59926636Y-106012358D02*
X60069493Y-106059977D01*
X60069493Y-106059977D02*
X60164731Y-106059977D01*
X60164731Y-106059977D02*
X60307588Y-106012358D01*
X60307588Y-106012358D02*
X60355207Y-105964738D01*
X60355207Y-105964738D02*
X60355207Y-105631405D01*
X60355207Y-105631405D02*
X60164731Y-105631405D01*
X60783779Y-106059977D02*
X60783779Y-105059977D01*
X60783779Y-105059977D02*
X61355207Y-106059977D01*
X61355207Y-106059977D02*
X61355207Y-105059977D01*
X61831398Y-106059977D02*
X61831398Y-105059977D01*
X61831398Y-105059977D02*
X62069493Y-105059977D01*
X62069493Y-105059977D02*
X62212350Y-105107596D01*
X62212350Y-105107596D02*
X62307588Y-105202834D01*
X62307588Y-105202834D02*
X62355207Y-105298072D01*
X62355207Y-105298072D02*
X62402826Y-105488548D01*
X62402826Y-105488548D02*
X62402826Y-105631405D01*
X62402826Y-105631405D02*
X62355207Y-105821881D01*
X62355207Y-105821881D02*
X62307588Y-105917119D01*
X62307588Y-105917119D02*
X62212350Y-106012358D01*
X62212350Y-106012358D02*
X62069493Y-106059977D01*
X62069493Y-106059977D02*
X61831398Y-106059977D01*
X64097588Y-106059977D02*
X63526160Y-106059977D01*
X63811874Y-106059977D02*
X63811874Y-105059977D01*
X63811874Y-105059977D02*
X63716636Y-105202834D01*
X63716636Y-105202834D02*
X63621398Y-105298072D01*
X63621398Y-105298072D02*
X63526160Y-105345691D01*
X64430922Y-105059977D02*
X65049969Y-105059977D01*
X65049969Y-105059977D02*
X64716636Y-105440929D01*
X64716636Y-105440929D02*
X64859493Y-105440929D01*
X64859493Y-105440929D02*
X64954731Y-105488548D01*
X64954731Y-105488548D02*
X65002350Y-105536167D01*
X65002350Y-105536167D02*
X65049969Y-105631405D01*
X65049969Y-105631405D02*
X65049969Y-105869500D01*
X65049969Y-105869500D02*
X65002350Y-105964738D01*
X65002350Y-105964738D02*
X64954731Y-106012358D01*
X64954731Y-106012358D02*
X64859493Y-106059977D01*
X64859493Y-106059977D02*
X64573779Y-106059977D01*
X64573779Y-106059977D02*
X64478541Y-106012358D01*
X64478541Y-106012358D02*
X64430922Y-105964738D01*
X60307588Y-115265491D02*
X60212350Y-115217872D01*
X60212350Y-115217872D02*
X60069493Y-115217872D01*
X60069493Y-115217872D02*
X59926636Y-115265491D01*
X59926636Y-115265491D02*
X59831398Y-115360729D01*
X59831398Y-115360729D02*
X59783779Y-115455967D01*
X59783779Y-115455967D02*
X59736160Y-115646443D01*
X59736160Y-115646443D02*
X59736160Y-115789300D01*
X59736160Y-115789300D02*
X59783779Y-115979776D01*
X59783779Y-115979776D02*
X59831398Y-116075014D01*
X59831398Y-116075014D02*
X59926636Y-116170253D01*
X59926636Y-116170253D02*
X60069493Y-116217872D01*
X60069493Y-116217872D02*
X60164731Y-116217872D01*
X60164731Y-116217872D02*
X60307588Y-116170253D01*
X60307588Y-116170253D02*
X60355207Y-116122633D01*
X60355207Y-116122633D02*
X60355207Y-115789300D01*
X60355207Y-115789300D02*
X60164731Y-115789300D01*
X60783779Y-116217872D02*
X60783779Y-115217872D01*
X60783779Y-115217872D02*
X61355207Y-116217872D01*
X61355207Y-116217872D02*
X61355207Y-115217872D01*
X61831398Y-116217872D02*
X61831398Y-115217872D01*
X61831398Y-115217872D02*
X62069493Y-115217872D01*
X62069493Y-115217872D02*
X62212350Y-115265491D01*
X62212350Y-115265491D02*
X62307588Y-115360729D01*
X62307588Y-115360729D02*
X62355207Y-115455967D01*
X62355207Y-115455967D02*
X62402826Y-115646443D01*
X62402826Y-115646443D02*
X62402826Y-115789300D01*
X62402826Y-115789300D02*
X62355207Y-115979776D01*
X62355207Y-115979776D02*
X62307588Y-116075014D01*
X62307588Y-116075014D02*
X62212350Y-116170253D01*
X62212350Y-116170253D02*
X62069493Y-116217872D01*
X62069493Y-116217872D02*
X61831398Y-116217872D01*
X64097588Y-89870754D02*
X64002350Y-89823135D01*
X64002350Y-89823135D02*
X63859493Y-89823135D01*
X63859493Y-89823135D02*
X63716636Y-89870754D01*
X63716636Y-89870754D02*
X63621398Y-89965992D01*
X63621398Y-89965992D02*
X63573779Y-90061230D01*
X63573779Y-90061230D02*
X63526160Y-90251706D01*
X63526160Y-90251706D02*
X63526160Y-90394563D01*
X63526160Y-90394563D02*
X63573779Y-90585039D01*
X63573779Y-90585039D02*
X63621398Y-90680277D01*
X63621398Y-90680277D02*
X63716636Y-90775516D01*
X63716636Y-90775516D02*
X63859493Y-90823135D01*
X63859493Y-90823135D02*
X63954731Y-90823135D01*
X63954731Y-90823135D02*
X64097588Y-90775516D01*
X64097588Y-90775516D02*
X64145207Y-90727896D01*
X64145207Y-90727896D02*
X64145207Y-90394563D01*
X64145207Y-90394563D02*
X63954731Y-90394563D01*
X64573779Y-90823135D02*
X64573779Y-89823135D01*
X64573779Y-89823135D02*
X65145207Y-90823135D01*
X65145207Y-90823135D02*
X65145207Y-89823135D01*
X65621398Y-90823135D02*
X65621398Y-89823135D01*
X65621398Y-89823135D02*
X65859493Y-89823135D01*
X65859493Y-89823135D02*
X66002350Y-89870754D01*
X66002350Y-89870754D02*
X66097588Y-89965992D01*
X66097588Y-89965992D02*
X66145207Y-90061230D01*
X66145207Y-90061230D02*
X66192826Y-90251706D01*
X66192826Y-90251706D02*
X66192826Y-90394563D01*
X66192826Y-90394563D02*
X66145207Y-90585039D01*
X66145207Y-90585039D02*
X66097588Y-90680277D01*
X66097588Y-90680277D02*
X66002350Y-90775516D01*
X66002350Y-90775516D02*
X65859493Y-90823135D01*
X65859493Y-90823135D02*
X65621398Y-90823135D01*
X60259969Y-117757345D02*
X59783779Y-117757345D01*
X59783779Y-117757345D02*
X59736160Y-118233535D01*
X59736160Y-118233535D02*
X59783779Y-118185916D01*
X59783779Y-118185916D02*
X59879017Y-118138297D01*
X59879017Y-118138297D02*
X60117112Y-118138297D01*
X60117112Y-118138297D02*
X60212350Y-118185916D01*
X60212350Y-118185916D02*
X60259969Y-118233535D01*
X60259969Y-118233535D02*
X60307588Y-118328773D01*
X60307588Y-118328773D02*
X60307588Y-118566868D01*
X60307588Y-118566868D02*
X60259969Y-118662106D01*
X60259969Y-118662106D02*
X60212350Y-118709726D01*
X60212350Y-118709726D02*
X60117112Y-118757345D01*
X60117112Y-118757345D02*
X59879017Y-118757345D01*
X59879017Y-118757345D02*
X59783779Y-118709726D01*
X59783779Y-118709726D02*
X59736160Y-118662106D01*
X60640922Y-118090678D02*
X60879017Y-118757345D01*
X60879017Y-118757345D02*
X61117112Y-118090678D01*
X59736160Y-94997320D02*
X59783779Y-94949701D01*
X59783779Y-94949701D02*
X59879017Y-94902082D01*
X59879017Y-94902082D02*
X60117112Y-94902082D01*
X60117112Y-94902082D02*
X60212350Y-94949701D01*
X60212350Y-94949701D02*
X60259969Y-94997320D01*
X60259969Y-94997320D02*
X60307588Y-95092558D01*
X60307588Y-95092558D02*
X60307588Y-95187796D01*
X60307588Y-95187796D02*
X60259969Y-95330653D01*
X60259969Y-95330653D02*
X59688541Y-95902082D01*
X59688541Y-95902082D02*
X60307588Y-95902082D01*
X60688541Y-94997320D02*
X60736160Y-94949701D01*
X60736160Y-94949701D02*
X60831398Y-94902082D01*
X60831398Y-94902082D02*
X61069493Y-94902082D01*
X61069493Y-94902082D02*
X61164731Y-94949701D01*
X61164731Y-94949701D02*
X61212350Y-94997320D01*
X61212350Y-94997320D02*
X61259969Y-95092558D01*
X61259969Y-95092558D02*
X61259969Y-95187796D01*
X61259969Y-95187796D02*
X61212350Y-95330653D01*
X61212350Y-95330653D02*
X60640922Y-95902082D01*
X60640922Y-95902082D02*
X61259969Y-95902082D01*
X59688541Y-77125766D02*
X60307588Y-77125766D01*
X60307588Y-77125766D02*
X59974255Y-77506718D01*
X59974255Y-77506718D02*
X60117112Y-77506718D01*
X60117112Y-77506718D02*
X60212350Y-77554337D01*
X60212350Y-77554337D02*
X60259969Y-77601956D01*
X60259969Y-77601956D02*
X60307588Y-77697194D01*
X60307588Y-77697194D02*
X60307588Y-77935289D01*
X60307588Y-77935289D02*
X60259969Y-78030527D01*
X60259969Y-78030527D02*
X60212350Y-78078147D01*
X60212350Y-78078147D02*
X60117112Y-78125766D01*
X60117112Y-78125766D02*
X59831398Y-78125766D01*
X59831398Y-78125766D02*
X59736160Y-78078147D01*
X59736160Y-78078147D02*
X59688541Y-78030527D01*
X61164731Y-77125766D02*
X60974255Y-77125766D01*
X60974255Y-77125766D02*
X60879017Y-77173385D01*
X60879017Y-77173385D02*
X60831398Y-77221004D01*
X60831398Y-77221004D02*
X60736160Y-77363861D01*
X60736160Y-77363861D02*
X60688541Y-77554337D01*
X60688541Y-77554337D02*
X60688541Y-77935289D01*
X60688541Y-77935289D02*
X60736160Y-78030527D01*
X60736160Y-78030527D02*
X60783779Y-78078147D01*
X60783779Y-78078147D02*
X60879017Y-78125766D01*
X60879017Y-78125766D02*
X61069493Y-78125766D01*
X61069493Y-78125766D02*
X61164731Y-78078147D01*
X61164731Y-78078147D02*
X61212350Y-78030527D01*
X61212350Y-78030527D02*
X61259969Y-77935289D01*
X61259969Y-77935289D02*
X61259969Y-77697194D01*
X61259969Y-77697194D02*
X61212350Y-77601956D01*
X61212350Y-77601956D02*
X61164731Y-77554337D01*
X61164731Y-77554337D02*
X61069493Y-77506718D01*
X61069493Y-77506718D02*
X60879017Y-77506718D01*
X60879017Y-77506718D02*
X60783779Y-77554337D01*
X60783779Y-77554337D02*
X60736160Y-77601956D01*
X60736160Y-77601956D02*
X60688541Y-77697194D01*
X63478541Y-79665240D02*
X64097588Y-79665240D01*
X64097588Y-79665240D02*
X63764255Y-80046192D01*
X63764255Y-80046192D02*
X63907112Y-80046192D01*
X63907112Y-80046192D02*
X64002350Y-80093811D01*
X64002350Y-80093811D02*
X64049969Y-80141430D01*
X64049969Y-80141430D02*
X64097588Y-80236668D01*
X64097588Y-80236668D02*
X64097588Y-80474763D01*
X64097588Y-80474763D02*
X64049969Y-80570001D01*
X64049969Y-80570001D02*
X64002350Y-80617621D01*
X64002350Y-80617621D02*
X63907112Y-80665240D01*
X63907112Y-80665240D02*
X63621398Y-80665240D01*
X63621398Y-80665240D02*
X63526160Y-80617621D01*
X63526160Y-80617621D02*
X63478541Y-80570001D01*
X64430922Y-79665240D02*
X65049969Y-79665240D01*
X65049969Y-79665240D02*
X64716636Y-80046192D01*
X64716636Y-80046192D02*
X64859493Y-80046192D01*
X64859493Y-80046192D02*
X64954731Y-80093811D01*
X64954731Y-80093811D02*
X65002350Y-80141430D01*
X65002350Y-80141430D02*
X65049969Y-80236668D01*
X65049969Y-80236668D02*
X65049969Y-80474763D01*
X65049969Y-80474763D02*
X65002350Y-80570001D01*
X65002350Y-80570001D02*
X64954731Y-80617621D01*
X64954731Y-80617621D02*
X64859493Y-80665240D01*
X64859493Y-80665240D02*
X64573779Y-80665240D01*
X64573779Y-80665240D02*
X64478541Y-80617621D01*
X64478541Y-80617621D02*
X64430922Y-80570001D01*
X64097588Y-72069438D02*
X64002350Y-72021819D01*
X64002350Y-72021819D02*
X63859493Y-72021819D01*
X63859493Y-72021819D02*
X63716636Y-72069438D01*
X63716636Y-72069438D02*
X63621398Y-72164676D01*
X63621398Y-72164676D02*
X63573779Y-72259914D01*
X63573779Y-72259914D02*
X63526160Y-72450390D01*
X63526160Y-72450390D02*
X63526160Y-72593247D01*
X63526160Y-72593247D02*
X63573779Y-72783723D01*
X63573779Y-72783723D02*
X63621398Y-72878961D01*
X63621398Y-72878961D02*
X63716636Y-72974200D01*
X63716636Y-72974200D02*
X63859493Y-73021819D01*
X63859493Y-73021819D02*
X63954731Y-73021819D01*
X63954731Y-73021819D02*
X64097588Y-72974200D01*
X64097588Y-72974200D02*
X64145207Y-72926580D01*
X64145207Y-72926580D02*
X64145207Y-72593247D01*
X64145207Y-72593247D02*
X63954731Y-72593247D01*
X64573779Y-73021819D02*
X64573779Y-72021819D01*
X64573779Y-72021819D02*
X65145207Y-73021819D01*
X65145207Y-73021819D02*
X65145207Y-72021819D01*
X65621398Y-73021819D02*
X65621398Y-72021819D01*
X65621398Y-72021819D02*
X65859493Y-72021819D01*
X65859493Y-72021819D02*
X66002350Y-72069438D01*
X66002350Y-72069438D02*
X66097588Y-72164676D01*
X66097588Y-72164676D02*
X66145207Y-72259914D01*
X66145207Y-72259914D02*
X66192826Y-72450390D01*
X66192826Y-72450390D02*
X66192826Y-72593247D01*
X66192826Y-72593247D02*
X66145207Y-72783723D01*
X66145207Y-72783723D02*
X66097588Y-72878961D01*
X66097588Y-72878961D02*
X66002350Y-72974200D01*
X66002350Y-72974200D02*
X65859493Y-73021819D01*
X65859493Y-73021819D02*
X65621398Y-73021819D01*
X60307588Y-84791806D02*
X60212350Y-84744187D01*
X60212350Y-84744187D02*
X60069493Y-84744187D01*
X60069493Y-84744187D02*
X59926636Y-84791806D01*
X59926636Y-84791806D02*
X59831398Y-84887044D01*
X59831398Y-84887044D02*
X59783779Y-84982282D01*
X59783779Y-84982282D02*
X59736160Y-85172758D01*
X59736160Y-85172758D02*
X59736160Y-85315615D01*
X59736160Y-85315615D02*
X59783779Y-85506091D01*
X59783779Y-85506091D02*
X59831398Y-85601329D01*
X59831398Y-85601329D02*
X59926636Y-85696568D01*
X59926636Y-85696568D02*
X60069493Y-85744187D01*
X60069493Y-85744187D02*
X60164731Y-85744187D01*
X60164731Y-85744187D02*
X60307588Y-85696568D01*
X60307588Y-85696568D02*
X60355207Y-85648948D01*
X60355207Y-85648948D02*
X60355207Y-85315615D01*
X60355207Y-85315615D02*
X60164731Y-85315615D01*
X60783779Y-85744187D02*
X60783779Y-84744187D01*
X60783779Y-84744187D02*
X61355207Y-85744187D01*
X61355207Y-85744187D02*
X61355207Y-84744187D01*
X61831398Y-85744187D02*
X61831398Y-84744187D01*
X61831398Y-84744187D02*
X62069493Y-84744187D01*
X62069493Y-84744187D02*
X62212350Y-84791806D01*
X62212350Y-84791806D02*
X62307588Y-84887044D01*
X62307588Y-84887044D02*
X62355207Y-84982282D01*
X62355207Y-84982282D02*
X62402826Y-85172758D01*
X62402826Y-85172758D02*
X62402826Y-85315615D01*
X62402826Y-85315615D02*
X62355207Y-85506091D01*
X62355207Y-85506091D02*
X62307588Y-85601329D01*
X62307588Y-85601329D02*
X62212350Y-85696568D01*
X62212350Y-85696568D02*
X62069493Y-85744187D01*
X62069493Y-85744187D02*
X61831398Y-85744187D01*
X63478541Y-77125766D02*
X64097588Y-77125766D01*
X64097588Y-77125766D02*
X63764255Y-77506718D01*
X63764255Y-77506718D02*
X63907112Y-77506718D01*
X63907112Y-77506718D02*
X64002350Y-77554337D01*
X64002350Y-77554337D02*
X64049969Y-77601956D01*
X64049969Y-77601956D02*
X64097588Y-77697194D01*
X64097588Y-77697194D02*
X64097588Y-77935289D01*
X64097588Y-77935289D02*
X64049969Y-78030527D01*
X64049969Y-78030527D02*
X64002350Y-78078147D01*
X64002350Y-78078147D02*
X63907112Y-78125766D01*
X63907112Y-78125766D02*
X63621398Y-78125766D01*
X63621398Y-78125766D02*
X63526160Y-78078147D01*
X63526160Y-78078147D02*
X63478541Y-78030527D01*
X65002350Y-77125766D02*
X64526160Y-77125766D01*
X64526160Y-77125766D02*
X64478541Y-77601956D01*
X64478541Y-77601956D02*
X64526160Y-77554337D01*
X64526160Y-77554337D02*
X64621398Y-77506718D01*
X64621398Y-77506718D02*
X64859493Y-77506718D01*
X64859493Y-77506718D02*
X64954731Y-77554337D01*
X64954731Y-77554337D02*
X65002350Y-77601956D01*
X65002350Y-77601956D02*
X65049969Y-77697194D01*
X65049969Y-77697194D02*
X65049969Y-77935289D01*
X65049969Y-77935289D02*
X65002350Y-78030527D01*
X65002350Y-78030527D02*
X64954731Y-78078147D01*
X64954731Y-78078147D02*
X64859493Y-78125766D01*
X64859493Y-78125766D02*
X64621398Y-78125766D01*
X64621398Y-78125766D02*
X64526160Y-78078147D01*
X64526160Y-78078147D02*
X64478541Y-78030527D01*
X60307588Y-79712859D02*
X60212350Y-79665240D01*
X60212350Y-79665240D02*
X60069493Y-79665240D01*
X60069493Y-79665240D02*
X59926636Y-79712859D01*
X59926636Y-79712859D02*
X59831398Y-79808097D01*
X59831398Y-79808097D02*
X59783779Y-79903335D01*
X59783779Y-79903335D02*
X59736160Y-80093811D01*
X59736160Y-80093811D02*
X59736160Y-80236668D01*
X59736160Y-80236668D02*
X59783779Y-80427144D01*
X59783779Y-80427144D02*
X59831398Y-80522382D01*
X59831398Y-80522382D02*
X59926636Y-80617621D01*
X59926636Y-80617621D02*
X60069493Y-80665240D01*
X60069493Y-80665240D02*
X60164731Y-80665240D01*
X60164731Y-80665240D02*
X60307588Y-80617621D01*
X60307588Y-80617621D02*
X60355207Y-80570001D01*
X60355207Y-80570001D02*
X60355207Y-80236668D01*
X60355207Y-80236668D02*
X60164731Y-80236668D01*
X60783779Y-80665240D02*
X60783779Y-79665240D01*
X60783779Y-79665240D02*
X61355207Y-80665240D01*
X61355207Y-80665240D02*
X61355207Y-79665240D01*
X61831398Y-80665240D02*
X61831398Y-79665240D01*
X61831398Y-79665240D02*
X62069493Y-79665240D01*
X62069493Y-79665240D02*
X62212350Y-79712859D01*
X62212350Y-79712859D02*
X62307588Y-79808097D01*
X62307588Y-79808097D02*
X62355207Y-79903335D01*
X62355207Y-79903335D02*
X62402826Y-80093811D01*
X62402826Y-80093811D02*
X62402826Y-80236668D01*
X62402826Y-80236668D02*
X62355207Y-80427144D01*
X62355207Y-80427144D02*
X62307588Y-80522382D01*
X62307588Y-80522382D02*
X62212350Y-80617621D01*
X62212350Y-80617621D02*
X62069493Y-80665240D01*
X62069493Y-80665240D02*
X61831398Y-80665240D01*
X63478541Y-112678398D02*
X64145207Y-112678398D01*
X64145207Y-112678398D02*
X63716636Y-113678398D01*
X60212350Y-72380152D02*
X60212350Y-73046819D01*
X59974255Y-71999200D02*
X59736160Y-72713485D01*
X59736160Y-72713485D02*
X60355207Y-72713485D01*
X60926636Y-72046819D02*
X61021874Y-72046819D01*
X61021874Y-72046819D02*
X61117112Y-72094438D01*
X61117112Y-72094438D02*
X61164731Y-72142057D01*
X61164731Y-72142057D02*
X61212350Y-72237295D01*
X61212350Y-72237295D02*
X61259969Y-72427771D01*
X61259969Y-72427771D02*
X61259969Y-72665866D01*
X61259969Y-72665866D02*
X61212350Y-72856342D01*
X61212350Y-72856342D02*
X61164731Y-72951580D01*
X61164731Y-72951580D02*
X61117112Y-72999200D01*
X61117112Y-72999200D02*
X61021874Y-73046819D01*
X61021874Y-73046819D02*
X60926636Y-73046819D01*
X60926636Y-73046819D02*
X60831398Y-72999200D01*
X60831398Y-72999200D02*
X60783779Y-72951580D01*
X60783779Y-72951580D02*
X60736160Y-72856342D01*
X60736160Y-72856342D02*
X60688541Y-72665866D01*
X60688541Y-72665866D02*
X60688541Y-72427771D01*
X60688541Y-72427771D02*
X60736160Y-72237295D01*
X60736160Y-72237295D02*
X60783779Y-72142057D01*
X60783779Y-72142057D02*
X60831398Y-72094438D01*
X60831398Y-72094438D02*
X60926636Y-72046819D01*
X60557588Y-103520503D02*
X59986160Y-103520503D01*
X60271874Y-103520503D02*
X60271874Y-102520503D01*
X60271874Y-102520503D02*
X60176636Y-102663360D01*
X60176636Y-102663360D02*
X60081398Y-102758598D01*
X60081398Y-102758598D02*
X59986160Y-102806217D01*
X61414731Y-102520503D02*
X61224255Y-102520503D01*
X61224255Y-102520503D02*
X61129017Y-102568122D01*
X61129017Y-102568122D02*
X61081398Y-102615741D01*
X61081398Y-102615741D02*
X60986160Y-102758598D01*
X60986160Y-102758598D02*
X60938541Y-102949074D01*
X60938541Y-102949074D02*
X60938541Y-103330026D01*
X60938541Y-103330026D02*
X60986160Y-103425264D01*
X60986160Y-103425264D02*
X61033779Y-103472884D01*
X61033779Y-103472884D02*
X61129017Y-103520503D01*
X61129017Y-103520503D02*
X61319493Y-103520503D01*
X61319493Y-103520503D02*
X61414731Y-103472884D01*
X61414731Y-103472884D02*
X61462350Y-103425264D01*
X61462350Y-103425264D02*
X61509969Y-103330026D01*
X61509969Y-103330026D02*
X61509969Y-103091931D01*
X61509969Y-103091931D02*
X61462350Y-102996693D01*
X61462350Y-102996693D02*
X61414731Y-102949074D01*
X61414731Y-102949074D02*
X61319493Y-102901455D01*
X61319493Y-102901455D02*
X61129017Y-102901455D01*
X61129017Y-102901455D02*
X61033779Y-102949074D01*
X61033779Y-102949074D02*
X60986160Y-102996693D01*
X60986160Y-102996693D02*
X60938541Y-103091931D01*
X64106588Y-108581819D02*
X63535160Y-108581819D01*
X63820874Y-108581819D02*
X63820874Y-107581819D01*
X63820874Y-107581819D02*
X63725636Y-107724676D01*
X63725636Y-107724676D02*
X63630398Y-107819914D01*
X63630398Y-107819914D02*
X63535160Y-107867533D01*
X65058969Y-108581819D02*
X64487541Y-108581819D01*
X64773255Y-108581819D02*
X64773255Y-107581819D01*
X64773255Y-107581819D02*
X64678017Y-107724676D01*
X64678017Y-107724676D02*
X64582779Y-107819914D01*
X64582779Y-107819914D02*
X64487541Y-107867533D01*
X64097588Y-103520503D02*
X63526160Y-103520503D01*
X63811874Y-103520503D02*
X63811874Y-102520503D01*
X63811874Y-102520503D02*
X63716636Y-102663360D01*
X63716636Y-102663360D02*
X63621398Y-102758598D01*
X63621398Y-102758598D02*
X63526160Y-102806217D01*
X65002350Y-102520503D02*
X64526160Y-102520503D01*
X64526160Y-102520503D02*
X64478541Y-102996693D01*
X64478541Y-102996693D02*
X64526160Y-102949074D01*
X64526160Y-102949074D02*
X64621398Y-102901455D01*
X64621398Y-102901455D02*
X64859493Y-102901455D01*
X64859493Y-102901455D02*
X64954731Y-102949074D01*
X64954731Y-102949074D02*
X65002350Y-102996693D01*
X65002350Y-102996693D02*
X65049969Y-103091931D01*
X65049969Y-103091931D02*
X65049969Y-103330026D01*
X65049969Y-103330026D02*
X65002350Y-103425264D01*
X65002350Y-103425264D02*
X64954731Y-103472884D01*
X64954731Y-103472884D02*
X64859493Y-103520503D01*
X64859493Y-103520503D02*
X64621398Y-103520503D01*
X64621398Y-103520503D02*
X64526160Y-103472884D01*
X64526160Y-103472884D02*
X64478541Y-103425264D01*
X63478541Y-82204714D02*
X64097588Y-82204714D01*
X64097588Y-82204714D02*
X63764255Y-82585666D01*
X63764255Y-82585666D02*
X63907112Y-82585666D01*
X63907112Y-82585666D02*
X64002350Y-82633285D01*
X64002350Y-82633285D02*
X64049969Y-82680904D01*
X64049969Y-82680904D02*
X64097588Y-82776142D01*
X64097588Y-82776142D02*
X64097588Y-83014237D01*
X64097588Y-83014237D02*
X64049969Y-83109475D01*
X64049969Y-83109475D02*
X64002350Y-83157095D01*
X64002350Y-83157095D02*
X63907112Y-83204714D01*
X63907112Y-83204714D02*
X63621398Y-83204714D01*
X63621398Y-83204714D02*
X63526160Y-83157095D01*
X63526160Y-83157095D02*
X63478541Y-83109475D01*
X65049969Y-83204714D02*
X64478541Y-83204714D01*
X64764255Y-83204714D02*
X64764255Y-82204714D01*
X64764255Y-82204714D02*
X64669017Y-82347571D01*
X64669017Y-82347571D02*
X64573779Y-82442809D01*
X64573779Y-82442809D02*
X64478541Y-82490428D01*
X64049969Y-115217872D02*
X63573779Y-115217872D01*
X63573779Y-115217872D02*
X63526160Y-115694062D01*
X63526160Y-115694062D02*
X63573779Y-115646443D01*
X63573779Y-115646443D02*
X63669017Y-115598824D01*
X63669017Y-115598824D02*
X63907112Y-115598824D01*
X63907112Y-115598824D02*
X64002350Y-115646443D01*
X64002350Y-115646443D02*
X64049969Y-115694062D01*
X64049969Y-115694062D02*
X64097588Y-115789300D01*
X64097588Y-115789300D02*
X64097588Y-116027395D01*
X64097588Y-116027395D02*
X64049969Y-116122633D01*
X64049969Y-116122633D02*
X64002350Y-116170253D01*
X64002350Y-116170253D02*
X63907112Y-116217872D01*
X63907112Y-116217872D02*
X63669017Y-116217872D01*
X63669017Y-116217872D02*
X63573779Y-116170253D01*
X63573779Y-116170253D02*
X63526160Y-116122633D01*
X63526160Y-94997320D02*
X63573779Y-94949701D01*
X63573779Y-94949701D02*
X63669017Y-94902082D01*
X63669017Y-94902082D02*
X63907112Y-94902082D01*
X63907112Y-94902082D02*
X64002350Y-94949701D01*
X64002350Y-94949701D02*
X64049969Y-94997320D01*
X64049969Y-94997320D02*
X64097588Y-95092558D01*
X64097588Y-95092558D02*
X64097588Y-95187796D01*
X64097588Y-95187796D02*
X64049969Y-95330653D01*
X64049969Y-95330653D02*
X63478541Y-95902082D01*
X63478541Y-95902082D02*
X64097588Y-95902082D01*
X65049969Y-95902082D02*
X64478541Y-95902082D01*
X64764255Y-95902082D02*
X64764255Y-94902082D01*
X64764255Y-94902082D02*
X64669017Y-95044939D01*
X64669017Y-95044939D02*
X64573779Y-95140177D01*
X64573779Y-95140177D02*
X64478541Y-95187796D01*
X60307588Y-97489175D02*
X60212350Y-97441556D01*
X60212350Y-97441556D02*
X60069493Y-97441556D01*
X60069493Y-97441556D02*
X59926636Y-97489175D01*
X59926636Y-97489175D02*
X59831398Y-97584413D01*
X59831398Y-97584413D02*
X59783779Y-97679651D01*
X59783779Y-97679651D02*
X59736160Y-97870127D01*
X59736160Y-97870127D02*
X59736160Y-98012984D01*
X59736160Y-98012984D02*
X59783779Y-98203460D01*
X59783779Y-98203460D02*
X59831398Y-98298698D01*
X59831398Y-98298698D02*
X59926636Y-98393937D01*
X59926636Y-98393937D02*
X60069493Y-98441556D01*
X60069493Y-98441556D02*
X60164731Y-98441556D01*
X60164731Y-98441556D02*
X60307588Y-98393937D01*
X60307588Y-98393937D02*
X60355207Y-98346317D01*
X60355207Y-98346317D02*
X60355207Y-98012984D01*
X60355207Y-98012984D02*
X60164731Y-98012984D01*
X60783779Y-98441556D02*
X60783779Y-97441556D01*
X60783779Y-97441556D02*
X61355207Y-98441556D01*
X61355207Y-98441556D02*
X61355207Y-97441556D01*
X61831398Y-98441556D02*
X61831398Y-97441556D01*
X61831398Y-97441556D02*
X62069493Y-97441556D01*
X62069493Y-97441556D02*
X62212350Y-97489175D01*
X62212350Y-97489175D02*
X62307588Y-97584413D01*
X62307588Y-97584413D02*
X62355207Y-97679651D01*
X62355207Y-97679651D02*
X62402826Y-97870127D01*
X62402826Y-97870127D02*
X62402826Y-98012984D01*
X62402826Y-98012984D02*
X62355207Y-98203460D01*
X62355207Y-98203460D02*
X62307588Y-98298698D01*
X62307588Y-98298698D02*
X62212350Y-98393937D01*
X62212350Y-98393937D02*
X62069493Y-98441556D01*
X62069493Y-98441556D02*
X61831398Y-98441556D01*
X59688541Y-74586293D02*
X60307588Y-74586293D01*
X60307588Y-74586293D02*
X59974255Y-74967245D01*
X59974255Y-74967245D02*
X60117112Y-74967245D01*
X60117112Y-74967245D02*
X60212350Y-75014864D01*
X60212350Y-75014864D02*
X60259969Y-75062483D01*
X60259969Y-75062483D02*
X60307588Y-75157721D01*
X60307588Y-75157721D02*
X60307588Y-75395816D01*
X60307588Y-75395816D02*
X60259969Y-75491054D01*
X60259969Y-75491054D02*
X60212350Y-75538674D01*
X60212350Y-75538674D02*
X60117112Y-75586293D01*
X60117112Y-75586293D02*
X59831398Y-75586293D01*
X59831398Y-75586293D02*
X59736160Y-75538674D01*
X59736160Y-75538674D02*
X59688541Y-75491054D01*
X60879017Y-75014864D02*
X60783779Y-74967245D01*
X60783779Y-74967245D02*
X60736160Y-74919626D01*
X60736160Y-74919626D02*
X60688541Y-74824388D01*
X60688541Y-74824388D02*
X60688541Y-74776769D01*
X60688541Y-74776769D02*
X60736160Y-74681531D01*
X60736160Y-74681531D02*
X60783779Y-74633912D01*
X60783779Y-74633912D02*
X60879017Y-74586293D01*
X60879017Y-74586293D02*
X61069493Y-74586293D01*
X61069493Y-74586293D02*
X61164731Y-74633912D01*
X61164731Y-74633912D02*
X61212350Y-74681531D01*
X61212350Y-74681531D02*
X61259969Y-74776769D01*
X61259969Y-74776769D02*
X61259969Y-74824388D01*
X61259969Y-74824388D02*
X61212350Y-74919626D01*
X61212350Y-74919626D02*
X61164731Y-74967245D01*
X61164731Y-74967245D02*
X61069493Y-75014864D01*
X61069493Y-75014864D02*
X60879017Y-75014864D01*
X60879017Y-75014864D02*
X60783779Y-75062483D01*
X60783779Y-75062483D02*
X60736160Y-75110102D01*
X60736160Y-75110102D02*
X60688541Y-75205340D01*
X60688541Y-75205340D02*
X60688541Y-75395816D01*
X60688541Y-75395816D02*
X60736160Y-75491054D01*
X60736160Y-75491054D02*
X60783779Y-75538674D01*
X60783779Y-75538674D02*
X60879017Y-75586293D01*
X60879017Y-75586293D02*
X61069493Y-75586293D01*
X61069493Y-75586293D02*
X61164731Y-75538674D01*
X61164731Y-75538674D02*
X61212350Y-75491054D01*
X61212350Y-75491054D02*
X61259969Y-75395816D01*
X61259969Y-75395816D02*
X61259969Y-75205340D01*
X61259969Y-75205340D02*
X61212350Y-75110102D01*
X61212350Y-75110102D02*
X61164731Y-75062483D01*
X61164731Y-75062483D02*
X61069493Y-75014864D01*
X59938541Y-82204714D02*
X60557588Y-82204714D01*
X60557588Y-82204714D02*
X60224255Y-82585666D01*
X60224255Y-82585666D02*
X60367112Y-82585666D01*
X60367112Y-82585666D02*
X60462350Y-82633285D01*
X60462350Y-82633285D02*
X60509969Y-82680904D01*
X60509969Y-82680904D02*
X60557588Y-82776142D01*
X60557588Y-82776142D02*
X60557588Y-83014237D01*
X60557588Y-83014237D02*
X60509969Y-83109475D01*
X60509969Y-83109475D02*
X60462350Y-83157095D01*
X60462350Y-83157095D02*
X60367112Y-83204714D01*
X60367112Y-83204714D02*
X60081398Y-83204714D01*
X60081398Y-83204714D02*
X59986160Y-83157095D01*
X59986160Y-83157095D02*
X59938541Y-83109475D01*
X60938541Y-82299952D02*
X60986160Y-82252333D01*
X60986160Y-82252333D02*
X61081398Y-82204714D01*
X61081398Y-82204714D02*
X61319493Y-82204714D01*
X61319493Y-82204714D02*
X61414731Y-82252333D01*
X61414731Y-82252333D02*
X61462350Y-82299952D01*
X61462350Y-82299952D02*
X61509969Y-82395190D01*
X61509969Y-82395190D02*
X61509969Y-82490428D01*
X61509969Y-82490428D02*
X61462350Y-82633285D01*
X61462350Y-82633285D02*
X60890922Y-83204714D01*
X60890922Y-83204714D02*
X61509969Y-83204714D01*
X60259969Y-120296819D02*
X59783779Y-120296819D01*
X59783779Y-120296819D02*
X59736160Y-120773009D01*
X59736160Y-120773009D02*
X59783779Y-120725390D01*
X59783779Y-120725390D02*
X59879017Y-120677771D01*
X59879017Y-120677771D02*
X60117112Y-120677771D01*
X60117112Y-120677771D02*
X60212350Y-120725390D01*
X60212350Y-120725390D02*
X60259969Y-120773009D01*
X60259969Y-120773009D02*
X60307588Y-120868247D01*
X60307588Y-120868247D02*
X60307588Y-121106342D01*
X60307588Y-121106342D02*
X60259969Y-121201580D01*
X60259969Y-121201580D02*
X60212350Y-121249200D01*
X60212350Y-121249200D02*
X60117112Y-121296819D01*
X60117112Y-121296819D02*
X59879017Y-121296819D01*
X59879017Y-121296819D02*
X59783779Y-121249200D01*
X59783779Y-121249200D02*
X59736160Y-121201580D01*
X60640922Y-120630152D02*
X60879017Y-121296819D01*
X60879017Y-121296819D02*
X61117112Y-120630152D01*
X63478541Y-117757345D02*
X64097588Y-117757345D01*
X64097588Y-117757345D02*
X63764255Y-118138297D01*
X63764255Y-118138297D02*
X63907112Y-118138297D01*
X63907112Y-118138297D02*
X64002350Y-118185916D01*
X64002350Y-118185916D02*
X64049969Y-118233535D01*
X64049969Y-118233535D02*
X64097588Y-118328773D01*
X64097588Y-118328773D02*
X64097588Y-118566868D01*
X64097588Y-118566868D02*
X64049969Y-118662106D01*
X64049969Y-118662106D02*
X64002350Y-118709726D01*
X64002350Y-118709726D02*
X63907112Y-118757345D01*
X63907112Y-118757345D02*
X63621398Y-118757345D01*
X63621398Y-118757345D02*
X63526160Y-118709726D01*
X63526160Y-118709726D02*
X63478541Y-118662106D01*
X63526160Y-84839425D02*
X63573779Y-84791806D01*
X63573779Y-84791806D02*
X63669017Y-84744187D01*
X63669017Y-84744187D02*
X63907112Y-84744187D01*
X63907112Y-84744187D02*
X64002350Y-84791806D01*
X64002350Y-84791806D02*
X64049969Y-84839425D01*
X64049969Y-84839425D02*
X64097588Y-84934663D01*
X64097588Y-84934663D02*
X64097588Y-85029901D01*
X64097588Y-85029901D02*
X64049969Y-85172758D01*
X64049969Y-85172758D02*
X63478541Y-85744187D01*
X63478541Y-85744187D02*
X64097588Y-85744187D01*
X64573779Y-85744187D02*
X64764255Y-85744187D01*
X64764255Y-85744187D02*
X64859493Y-85696568D01*
X64859493Y-85696568D02*
X64907112Y-85648948D01*
X64907112Y-85648948D02*
X65002350Y-85506091D01*
X65002350Y-85506091D02*
X65049969Y-85315615D01*
X65049969Y-85315615D02*
X65049969Y-84934663D01*
X65049969Y-84934663D02*
X65002350Y-84839425D01*
X65002350Y-84839425D02*
X64954731Y-84791806D01*
X64954731Y-84791806D02*
X64859493Y-84744187D01*
X64859493Y-84744187D02*
X64669017Y-84744187D01*
X64669017Y-84744187D02*
X64573779Y-84791806D01*
X64573779Y-84791806D02*
X64526160Y-84839425D01*
X64526160Y-84839425D02*
X64478541Y-84934663D01*
X64478541Y-84934663D02*
X64478541Y-85172758D01*
X64478541Y-85172758D02*
X64526160Y-85267996D01*
X64526160Y-85267996D02*
X64573779Y-85315615D01*
X64573779Y-85315615D02*
X64669017Y-85363234D01*
X64669017Y-85363234D02*
X64859493Y-85363234D01*
X64859493Y-85363234D02*
X64954731Y-85315615D01*
X64954731Y-85315615D02*
X65002350Y-85267996D01*
X65002350Y-85267996D02*
X65049969Y-85172758D01*
X59736160Y-87378899D02*
X59783779Y-87331280D01*
X59783779Y-87331280D02*
X59879017Y-87283661D01*
X59879017Y-87283661D02*
X60117112Y-87283661D01*
X60117112Y-87283661D02*
X60212350Y-87331280D01*
X60212350Y-87331280D02*
X60259969Y-87378899D01*
X60259969Y-87378899D02*
X60307588Y-87474137D01*
X60307588Y-87474137D02*
X60307588Y-87569375D01*
X60307588Y-87569375D02*
X60259969Y-87712232D01*
X60259969Y-87712232D02*
X59688541Y-88283661D01*
X59688541Y-88283661D02*
X60307588Y-88283661D01*
X60879017Y-87712232D02*
X60783779Y-87664613D01*
X60783779Y-87664613D02*
X60736160Y-87616994D01*
X60736160Y-87616994D02*
X60688541Y-87521756D01*
X60688541Y-87521756D02*
X60688541Y-87474137D01*
X60688541Y-87474137D02*
X60736160Y-87378899D01*
X60736160Y-87378899D02*
X60783779Y-87331280D01*
X60783779Y-87331280D02*
X60879017Y-87283661D01*
X60879017Y-87283661D02*
X61069493Y-87283661D01*
X61069493Y-87283661D02*
X61164731Y-87331280D01*
X61164731Y-87331280D02*
X61212350Y-87378899D01*
X61212350Y-87378899D02*
X61259969Y-87474137D01*
X61259969Y-87474137D02*
X61259969Y-87521756D01*
X61259969Y-87521756D02*
X61212350Y-87616994D01*
X61212350Y-87616994D02*
X61164731Y-87664613D01*
X61164731Y-87664613D02*
X61069493Y-87712232D01*
X61069493Y-87712232D02*
X60879017Y-87712232D01*
X60879017Y-87712232D02*
X60783779Y-87759851D01*
X60783779Y-87759851D02*
X60736160Y-87807470D01*
X60736160Y-87807470D02*
X60688541Y-87902708D01*
X60688541Y-87902708D02*
X60688541Y-88093184D01*
X60688541Y-88093184D02*
X60736160Y-88188422D01*
X60736160Y-88188422D02*
X60783779Y-88236042D01*
X60783779Y-88236042D02*
X60879017Y-88283661D01*
X60879017Y-88283661D02*
X61069493Y-88283661D01*
X61069493Y-88283661D02*
X61164731Y-88236042D01*
X61164731Y-88236042D02*
X61212350Y-88188422D01*
X61212350Y-88188422D02*
X61259969Y-88093184D01*
X61259969Y-88093184D02*
X61259969Y-87902708D01*
X61259969Y-87902708D02*
X61212350Y-87807470D01*
X61212350Y-87807470D02*
X61164731Y-87759851D01*
X61164731Y-87759851D02*
X61069493Y-87712232D01*
X59926636Y-113106969D02*
X59831398Y-113059350D01*
X59831398Y-113059350D02*
X59783779Y-113011731D01*
X59783779Y-113011731D02*
X59736160Y-112916493D01*
X59736160Y-112916493D02*
X59736160Y-112868874D01*
X59736160Y-112868874D02*
X59783779Y-112773636D01*
X59783779Y-112773636D02*
X59831398Y-112726017D01*
X59831398Y-112726017D02*
X59926636Y-112678398D01*
X59926636Y-112678398D02*
X60117112Y-112678398D01*
X60117112Y-112678398D02*
X60212350Y-112726017D01*
X60212350Y-112726017D02*
X60259969Y-112773636D01*
X60259969Y-112773636D02*
X60307588Y-112868874D01*
X60307588Y-112868874D02*
X60307588Y-112916493D01*
X60307588Y-112916493D02*
X60259969Y-113011731D01*
X60259969Y-113011731D02*
X60212350Y-113059350D01*
X60212350Y-113059350D02*
X60117112Y-113106969D01*
X60117112Y-113106969D02*
X59926636Y-113106969D01*
X59926636Y-113106969D02*
X59831398Y-113154588D01*
X59831398Y-113154588D02*
X59783779Y-113202207D01*
X59783779Y-113202207D02*
X59736160Y-113297445D01*
X59736160Y-113297445D02*
X59736160Y-113487921D01*
X59736160Y-113487921D02*
X59783779Y-113583159D01*
X59783779Y-113583159D02*
X59831398Y-113630779D01*
X59831398Y-113630779D02*
X59926636Y-113678398D01*
X59926636Y-113678398D02*
X60117112Y-113678398D01*
X60117112Y-113678398D02*
X60212350Y-113630779D01*
X60212350Y-113630779D02*
X60259969Y-113583159D01*
X60259969Y-113583159D02*
X60307588Y-113487921D01*
X60307588Y-113487921D02*
X60307588Y-113297445D01*
X60307588Y-113297445D02*
X60259969Y-113202207D01*
X60259969Y-113202207D02*
X60212350Y-113154588D01*
X60212350Y-113154588D02*
X60117112Y-113106969D01*
X63526160Y-92457846D02*
X63573779Y-92410227D01*
X63573779Y-92410227D02*
X63669017Y-92362608D01*
X63669017Y-92362608D02*
X63907112Y-92362608D01*
X63907112Y-92362608D02*
X64002350Y-92410227D01*
X64002350Y-92410227D02*
X64049969Y-92457846D01*
X64049969Y-92457846D02*
X64097588Y-92553084D01*
X64097588Y-92553084D02*
X64097588Y-92648322D01*
X64097588Y-92648322D02*
X64049969Y-92791179D01*
X64049969Y-92791179D02*
X63478541Y-93362608D01*
X63478541Y-93362608D02*
X64097588Y-93362608D01*
X64430922Y-92362608D02*
X65049969Y-92362608D01*
X65049969Y-92362608D02*
X64716636Y-92743560D01*
X64716636Y-92743560D02*
X64859493Y-92743560D01*
X64859493Y-92743560D02*
X64954731Y-92791179D01*
X64954731Y-92791179D02*
X65002350Y-92838798D01*
X65002350Y-92838798D02*
X65049969Y-92934036D01*
X65049969Y-92934036D02*
X65049969Y-93172131D01*
X65049969Y-93172131D02*
X65002350Y-93267369D01*
X65002350Y-93267369D02*
X64954731Y-93314989D01*
X64954731Y-93314989D02*
X64859493Y-93362608D01*
X64859493Y-93362608D02*
X64573779Y-93362608D01*
X64573779Y-93362608D02*
X64478541Y-93314989D01*
X64478541Y-93314989D02*
X64430922Y-93267369D01*
X60557588Y-111138924D02*
X59986160Y-111138924D01*
X60271874Y-111138924D02*
X60271874Y-110138924D01*
X60271874Y-110138924D02*
X60176636Y-110281781D01*
X60176636Y-110281781D02*
X60081398Y-110377019D01*
X60081398Y-110377019D02*
X59986160Y-110424638D01*
X61176636Y-110138924D02*
X61271874Y-110138924D01*
X61271874Y-110138924D02*
X61367112Y-110186543D01*
X61367112Y-110186543D02*
X61414731Y-110234162D01*
X61414731Y-110234162D02*
X61462350Y-110329400D01*
X61462350Y-110329400D02*
X61509969Y-110519876D01*
X61509969Y-110519876D02*
X61509969Y-110757971D01*
X61509969Y-110757971D02*
X61462350Y-110948447D01*
X61462350Y-110948447D02*
X61414731Y-111043685D01*
X61414731Y-111043685D02*
X61367112Y-111091305D01*
X61367112Y-111091305D02*
X61271874Y-111138924D01*
X61271874Y-111138924D02*
X61176636Y-111138924D01*
X61176636Y-111138924D02*
X61081398Y-111091305D01*
X61081398Y-111091305D02*
X61033779Y-111043685D01*
X61033779Y-111043685D02*
X60986160Y-110948447D01*
X60986160Y-110948447D02*
X60938541Y-110757971D01*
X60938541Y-110757971D02*
X60938541Y-110519876D01*
X60938541Y-110519876D02*
X60986160Y-110329400D01*
X60986160Y-110329400D02*
X61033779Y-110234162D01*
X61033779Y-110234162D02*
X61081398Y-110186543D01*
X61081398Y-110186543D02*
X61176636Y-110138924D01*
X64097588Y-98441556D02*
X63526160Y-98441556D01*
X63811874Y-98441556D02*
X63811874Y-97441556D01*
X63811874Y-97441556D02*
X63716636Y-97584413D01*
X63716636Y-97584413D02*
X63621398Y-97679651D01*
X63621398Y-97679651D02*
X63526160Y-97727270D01*
X64573779Y-98441556D02*
X64764255Y-98441556D01*
X64764255Y-98441556D02*
X64859493Y-98393937D01*
X64859493Y-98393937D02*
X64907112Y-98346317D01*
X64907112Y-98346317D02*
X65002350Y-98203460D01*
X65002350Y-98203460D02*
X65049969Y-98012984D01*
X65049969Y-98012984D02*
X65049969Y-97632032D01*
X65049969Y-97632032D02*
X65002350Y-97536794D01*
X65002350Y-97536794D02*
X64954731Y-97489175D01*
X64954731Y-97489175D02*
X64859493Y-97441556D01*
X64859493Y-97441556D02*
X64669017Y-97441556D01*
X64669017Y-97441556D02*
X64573779Y-97489175D01*
X64573779Y-97489175D02*
X64526160Y-97536794D01*
X64526160Y-97536794D02*
X64478541Y-97632032D01*
X64478541Y-97632032D02*
X64478541Y-97870127D01*
X64478541Y-97870127D02*
X64526160Y-97965365D01*
X64526160Y-97965365D02*
X64573779Y-98012984D01*
X64573779Y-98012984D02*
X64669017Y-98060603D01*
X64669017Y-98060603D02*
X64859493Y-98060603D01*
X64859493Y-98060603D02*
X64954731Y-98012984D01*
X64954731Y-98012984D02*
X65002350Y-97965365D01*
X65002350Y-97965365D02*
X65049969Y-97870127D01*
X63478541Y-99981030D02*
X64097588Y-99981030D01*
X64097588Y-99981030D02*
X63764255Y-100361982D01*
X63764255Y-100361982D02*
X63907112Y-100361982D01*
X63907112Y-100361982D02*
X64002350Y-100409601D01*
X64002350Y-100409601D02*
X64049969Y-100457220D01*
X64049969Y-100457220D02*
X64097588Y-100552458D01*
X64097588Y-100552458D02*
X64097588Y-100790553D01*
X64097588Y-100790553D02*
X64049969Y-100885791D01*
X64049969Y-100885791D02*
X64002350Y-100933411D01*
X64002350Y-100933411D02*
X63907112Y-100981030D01*
X63907112Y-100981030D02*
X63621398Y-100981030D01*
X63621398Y-100981030D02*
X63526160Y-100933411D01*
X63526160Y-100933411D02*
X63478541Y-100885791D01*
X64526160Y-100885791D02*
X64573779Y-100933411D01*
X64573779Y-100933411D02*
X64526160Y-100981030D01*
X64526160Y-100981030D02*
X64478541Y-100933411D01*
X64478541Y-100933411D02*
X64526160Y-100885791D01*
X64526160Y-100885791D02*
X64526160Y-100981030D01*
X64907112Y-99981030D02*
X65526159Y-99981030D01*
X65526159Y-99981030D02*
X65192826Y-100361982D01*
X65192826Y-100361982D02*
X65335683Y-100361982D01*
X65335683Y-100361982D02*
X65430921Y-100409601D01*
X65430921Y-100409601D02*
X65478540Y-100457220D01*
X65478540Y-100457220D02*
X65526159Y-100552458D01*
X65526159Y-100552458D02*
X65526159Y-100790553D01*
X65526159Y-100790553D02*
X65478540Y-100885791D01*
X65478540Y-100885791D02*
X65430921Y-100933411D01*
X65430921Y-100933411D02*
X65335683Y-100981030D01*
X65335683Y-100981030D02*
X65049969Y-100981030D01*
X65049969Y-100981030D02*
X64954731Y-100933411D01*
X64954731Y-100933411D02*
X64907112Y-100885791D01*
X65811874Y-99981030D02*
X66145207Y-100981030D01*
X66145207Y-100981030D02*
X66478540Y-99981030D01*
X60307588Y-100981030D02*
X59736160Y-100981030D01*
X60021874Y-100981030D02*
X60021874Y-99981030D01*
X60021874Y-99981030D02*
X59926636Y-100123887D01*
X59926636Y-100123887D02*
X59831398Y-100219125D01*
X59831398Y-100219125D02*
X59736160Y-100266744D01*
X60879017Y-100409601D02*
X60783779Y-100361982D01*
X60783779Y-100361982D02*
X60736160Y-100314363D01*
X60736160Y-100314363D02*
X60688541Y-100219125D01*
X60688541Y-100219125D02*
X60688541Y-100171506D01*
X60688541Y-100171506D02*
X60736160Y-100076268D01*
X60736160Y-100076268D02*
X60783779Y-100028649D01*
X60783779Y-100028649D02*
X60879017Y-99981030D01*
X60879017Y-99981030D02*
X61069493Y-99981030D01*
X61069493Y-99981030D02*
X61164731Y-100028649D01*
X61164731Y-100028649D02*
X61212350Y-100076268D01*
X61212350Y-100076268D02*
X61259969Y-100171506D01*
X61259969Y-100171506D02*
X61259969Y-100219125D01*
X61259969Y-100219125D02*
X61212350Y-100314363D01*
X61212350Y-100314363D02*
X61164731Y-100361982D01*
X61164731Y-100361982D02*
X61069493Y-100409601D01*
X61069493Y-100409601D02*
X60879017Y-100409601D01*
X60879017Y-100409601D02*
X60783779Y-100457220D01*
X60783779Y-100457220D02*
X60736160Y-100504839D01*
X60736160Y-100504839D02*
X60688541Y-100600077D01*
X60688541Y-100600077D02*
X60688541Y-100790553D01*
X60688541Y-100790553D02*
X60736160Y-100885791D01*
X60736160Y-100885791D02*
X60783779Y-100933411D01*
X60783779Y-100933411D02*
X60879017Y-100981030D01*
X60879017Y-100981030D02*
X61069493Y-100981030D01*
X61069493Y-100981030D02*
X61164731Y-100933411D01*
X61164731Y-100933411D02*
X61212350Y-100885791D01*
X61212350Y-100885791D02*
X61259969Y-100790553D01*
X61259969Y-100790553D02*
X61259969Y-100600077D01*
X61259969Y-100600077D02*
X61212350Y-100504839D01*
X61212350Y-100504839D02*
X61164731Y-100457220D01*
X61164731Y-100457220D02*
X61069493Y-100409601D01*
X59736160Y-89918373D02*
X59783779Y-89870754D01*
X59783779Y-89870754D02*
X59879017Y-89823135D01*
X59879017Y-89823135D02*
X60117112Y-89823135D01*
X60117112Y-89823135D02*
X60212350Y-89870754D01*
X60212350Y-89870754D02*
X60259969Y-89918373D01*
X60259969Y-89918373D02*
X60307588Y-90013611D01*
X60307588Y-90013611D02*
X60307588Y-90108849D01*
X60307588Y-90108849D02*
X60259969Y-90251706D01*
X60259969Y-90251706D02*
X59688541Y-90823135D01*
X59688541Y-90823135D02*
X60307588Y-90823135D01*
X61164731Y-89823135D02*
X60974255Y-89823135D01*
X60974255Y-89823135D02*
X60879017Y-89870754D01*
X60879017Y-89870754D02*
X60831398Y-89918373D01*
X60831398Y-89918373D02*
X60736160Y-90061230D01*
X60736160Y-90061230D02*
X60688541Y-90251706D01*
X60688541Y-90251706D02*
X60688541Y-90632658D01*
X60688541Y-90632658D02*
X60736160Y-90727896D01*
X60736160Y-90727896D02*
X60783779Y-90775516D01*
X60783779Y-90775516D02*
X60879017Y-90823135D01*
X60879017Y-90823135D02*
X61069493Y-90823135D01*
X61069493Y-90823135D02*
X61164731Y-90775516D01*
X61164731Y-90775516D02*
X61212350Y-90727896D01*
X61212350Y-90727896D02*
X61259969Y-90632658D01*
X61259969Y-90632658D02*
X61259969Y-90394563D01*
X61259969Y-90394563D02*
X61212350Y-90299325D01*
X61212350Y-90299325D02*
X61164731Y-90251706D01*
X61164731Y-90251706D02*
X61069493Y-90204087D01*
X61069493Y-90204087D02*
X60879017Y-90204087D01*
X60879017Y-90204087D02*
X60783779Y-90251706D01*
X60783779Y-90251706D02*
X60736160Y-90299325D01*
X60736160Y-90299325D02*
X60688541Y-90394563D01*
X82302133Y-135157380D02*
X82254514Y-135205000D01*
X82254514Y-135205000D02*
X82111657Y-135252619D01*
X82111657Y-135252619D02*
X82016419Y-135252619D01*
X82016419Y-135252619D02*
X81873562Y-135205000D01*
X81873562Y-135205000D02*
X81778324Y-135109761D01*
X81778324Y-135109761D02*
X81730705Y-135014523D01*
X81730705Y-135014523D02*
X81683086Y-134824047D01*
X81683086Y-134824047D02*
X81683086Y-134681190D01*
X81683086Y-134681190D02*
X81730705Y-134490714D01*
X81730705Y-134490714D02*
X81778324Y-134395476D01*
X81778324Y-134395476D02*
X81873562Y-134300238D01*
X81873562Y-134300238D02*
X82016419Y-134252619D01*
X82016419Y-134252619D02*
X82111657Y-134252619D01*
X82111657Y-134252619D02*
X82254514Y-134300238D01*
X82254514Y-134300238D02*
X82302133Y-134347857D01*
X82778324Y-135252619D02*
X82968800Y-135252619D01*
X82968800Y-135252619D02*
X83064038Y-135205000D01*
X83064038Y-135205000D02*
X83111657Y-135157380D01*
X83111657Y-135157380D02*
X83206895Y-135014523D01*
X83206895Y-135014523D02*
X83254514Y-134824047D01*
X83254514Y-134824047D02*
X83254514Y-134443095D01*
X83254514Y-134443095D02*
X83206895Y-134347857D01*
X83206895Y-134347857D02*
X83159276Y-134300238D01*
X83159276Y-134300238D02*
X83064038Y-134252619D01*
X83064038Y-134252619D02*
X82873562Y-134252619D01*
X82873562Y-134252619D02*
X82778324Y-134300238D01*
X82778324Y-134300238D02*
X82730705Y-134347857D01*
X82730705Y-134347857D02*
X82683086Y-134443095D01*
X82683086Y-134443095D02*
X82683086Y-134681190D01*
X82683086Y-134681190D02*
X82730705Y-134776428D01*
X82730705Y-134776428D02*
X82778324Y-134824047D01*
X82778324Y-134824047D02*
X82873562Y-134871666D01*
X82873562Y-134871666D02*
X83064038Y-134871666D01*
X83064038Y-134871666D02*
X83159276Y-134824047D01*
X83159276Y-134824047D02*
X83206895Y-134776428D01*
X83206895Y-134776428D02*
X83254514Y-134681190D01*
X71461333Y-92815580D02*
X71413714Y-92863200D01*
X71413714Y-92863200D02*
X71270857Y-92910819D01*
X71270857Y-92910819D02*
X71175619Y-92910819D01*
X71175619Y-92910819D02*
X71032762Y-92863200D01*
X71032762Y-92863200D02*
X70937524Y-92767961D01*
X70937524Y-92767961D02*
X70889905Y-92672723D01*
X70889905Y-92672723D02*
X70842286Y-92482247D01*
X70842286Y-92482247D02*
X70842286Y-92339390D01*
X70842286Y-92339390D02*
X70889905Y-92148914D01*
X70889905Y-92148914D02*
X70937524Y-92053676D01*
X70937524Y-92053676D02*
X71032762Y-91958438D01*
X71032762Y-91958438D02*
X71175619Y-91910819D01*
X71175619Y-91910819D02*
X71270857Y-91910819D01*
X71270857Y-91910819D02*
X71413714Y-91958438D01*
X71413714Y-91958438D02*
X71461333Y-92006057D01*
X72318476Y-91910819D02*
X72128000Y-91910819D01*
X72128000Y-91910819D02*
X72032762Y-91958438D01*
X72032762Y-91958438D02*
X71985143Y-92006057D01*
X71985143Y-92006057D02*
X71889905Y-92148914D01*
X71889905Y-92148914D02*
X71842286Y-92339390D01*
X71842286Y-92339390D02*
X71842286Y-92720342D01*
X71842286Y-92720342D02*
X71889905Y-92815580D01*
X71889905Y-92815580D02*
X71937524Y-92863200D01*
X71937524Y-92863200D02*
X72032762Y-92910819D01*
X72032762Y-92910819D02*
X72223238Y-92910819D01*
X72223238Y-92910819D02*
X72318476Y-92863200D01*
X72318476Y-92863200D02*
X72366095Y-92815580D01*
X72366095Y-92815580D02*
X72413714Y-92720342D01*
X72413714Y-92720342D02*
X72413714Y-92482247D01*
X72413714Y-92482247D02*
X72366095Y-92387009D01*
X72366095Y-92387009D02*
X72318476Y-92339390D01*
X72318476Y-92339390D02*
X72223238Y-92291771D01*
X72223238Y-92291771D02*
X72032762Y-92291771D01*
X72032762Y-92291771D02*
X71937524Y-92339390D01*
X71937524Y-92339390D02*
X71889905Y-92387009D01*
X71889905Y-92387009D02*
X71842286Y-92482247D01*
X70492333Y-131442619D02*
X70159000Y-130966428D01*
X69920905Y-131442619D02*
X69920905Y-130442619D01*
X69920905Y-130442619D02*
X70301857Y-130442619D01*
X70301857Y-130442619D02*
X70397095Y-130490238D01*
X70397095Y-130490238D02*
X70444714Y-130537857D01*
X70444714Y-130537857D02*
X70492333Y-130633095D01*
X70492333Y-130633095D02*
X70492333Y-130775952D01*
X70492333Y-130775952D02*
X70444714Y-130871190D01*
X70444714Y-130871190D02*
X70397095Y-130918809D01*
X70397095Y-130918809D02*
X70301857Y-130966428D01*
X70301857Y-130966428D02*
X69920905Y-130966428D01*
X71397095Y-130442619D02*
X70920905Y-130442619D01*
X70920905Y-130442619D02*
X70873286Y-130918809D01*
X70873286Y-130918809D02*
X70920905Y-130871190D01*
X70920905Y-130871190D02*
X71016143Y-130823571D01*
X71016143Y-130823571D02*
X71254238Y-130823571D01*
X71254238Y-130823571D02*
X71349476Y-130871190D01*
X71349476Y-130871190D02*
X71397095Y-130918809D01*
X71397095Y-130918809D02*
X71444714Y-131014047D01*
X71444714Y-131014047D02*
X71444714Y-131252142D01*
X71444714Y-131252142D02*
X71397095Y-131347380D01*
X71397095Y-131347380D02*
X71349476Y-131395000D01*
X71349476Y-131395000D02*
X71254238Y-131442619D01*
X71254238Y-131442619D02*
X71016143Y-131442619D01*
X71016143Y-131442619D02*
X70920905Y-131395000D01*
X70920905Y-131395000D02*
X70873286Y-131347380D01*
X75933095Y-121528819D02*
X75933095Y-122338342D01*
X75933095Y-122338342D02*
X75980714Y-122433580D01*
X75980714Y-122433580D02*
X76028333Y-122481200D01*
X76028333Y-122481200D02*
X76123571Y-122528819D01*
X76123571Y-122528819D02*
X76314047Y-122528819D01*
X76314047Y-122528819D02*
X76409285Y-122481200D01*
X76409285Y-122481200D02*
X76456904Y-122433580D01*
X76456904Y-122433580D02*
X76504523Y-122338342D01*
X76504523Y-122338342D02*
X76504523Y-121528819D01*
X76885476Y-121528819D02*
X77504523Y-121528819D01*
X77504523Y-121528819D02*
X77171190Y-121909771D01*
X77171190Y-121909771D02*
X77314047Y-121909771D01*
X77314047Y-121909771D02*
X77409285Y-121957390D01*
X77409285Y-121957390D02*
X77456904Y-122005009D01*
X77456904Y-122005009D02*
X77504523Y-122100247D01*
X77504523Y-122100247D02*
X77504523Y-122338342D01*
X77504523Y-122338342D02*
X77456904Y-122433580D01*
X77456904Y-122433580D02*
X77409285Y-122481200D01*
X77409285Y-122481200D02*
X77314047Y-122528819D01*
X77314047Y-122528819D02*
X77028333Y-122528819D01*
X77028333Y-122528819D02*
X76933095Y-122481200D01*
X76933095Y-122481200D02*
X76885476Y-122433580D01*
X70445333Y-127835819D02*
X70112000Y-127359628D01*
X69873905Y-127835819D02*
X69873905Y-126835819D01*
X69873905Y-126835819D02*
X70254857Y-126835819D01*
X70254857Y-126835819D02*
X70350095Y-126883438D01*
X70350095Y-126883438D02*
X70397714Y-126931057D01*
X70397714Y-126931057D02*
X70445333Y-127026295D01*
X70445333Y-127026295D02*
X70445333Y-127169152D01*
X70445333Y-127169152D02*
X70397714Y-127264390D01*
X70397714Y-127264390D02*
X70350095Y-127312009D01*
X70350095Y-127312009D02*
X70254857Y-127359628D01*
X70254857Y-127359628D02*
X69873905Y-127359628D01*
X71302476Y-126835819D02*
X71112000Y-126835819D01*
X71112000Y-126835819D02*
X71016762Y-126883438D01*
X71016762Y-126883438D02*
X70969143Y-126931057D01*
X70969143Y-126931057D02*
X70873905Y-127073914D01*
X70873905Y-127073914D02*
X70826286Y-127264390D01*
X70826286Y-127264390D02*
X70826286Y-127645342D01*
X70826286Y-127645342D02*
X70873905Y-127740580D01*
X70873905Y-127740580D02*
X70921524Y-127788200D01*
X70921524Y-127788200D02*
X71016762Y-127835819D01*
X71016762Y-127835819D02*
X71207238Y-127835819D01*
X71207238Y-127835819D02*
X71302476Y-127788200D01*
X71302476Y-127788200D02*
X71350095Y-127740580D01*
X71350095Y-127740580D02*
X71397714Y-127645342D01*
X71397714Y-127645342D02*
X71397714Y-127407247D01*
X71397714Y-127407247D02*
X71350095Y-127312009D01*
X71350095Y-127312009D02*
X71302476Y-127264390D01*
X71302476Y-127264390D02*
X71207238Y-127216771D01*
X71207238Y-127216771D02*
X71016762Y-127216771D01*
X71016762Y-127216771D02*
X70921524Y-127264390D01*
X70921524Y-127264390D02*
X70873905Y-127312009D01*
X70873905Y-127312009D02*
X70826286Y-127407247D01*
X72579405Y-131722019D02*
X72579405Y-130722019D01*
X72579405Y-130722019D02*
X72817500Y-130722019D01*
X72817500Y-130722019D02*
X72960357Y-130769638D01*
X72960357Y-130769638D02*
X73055595Y-130864876D01*
X73055595Y-130864876D02*
X73103214Y-130960114D01*
X73103214Y-130960114D02*
X73150833Y-131150590D01*
X73150833Y-131150590D02*
X73150833Y-131293447D01*
X73150833Y-131293447D02*
X73103214Y-131483923D01*
X73103214Y-131483923D02*
X73055595Y-131579161D01*
X73055595Y-131579161D02*
X72960357Y-131674400D01*
X72960357Y-131674400D02*
X72817500Y-131722019D01*
X72817500Y-131722019D02*
X72579405Y-131722019D01*
X74103214Y-131722019D02*
X73531786Y-131722019D01*
X73817500Y-131722019D02*
X73817500Y-130722019D01*
X73817500Y-130722019D02*
X73722262Y-130864876D01*
X73722262Y-130864876D02*
X73627024Y-130960114D01*
X73627024Y-130960114D02*
X73531786Y-131007733D01*
X82215733Y-137925980D02*
X82168114Y-137973600D01*
X82168114Y-137973600D02*
X82025257Y-138021219D01*
X82025257Y-138021219D02*
X81930019Y-138021219D01*
X81930019Y-138021219D02*
X81787162Y-137973600D01*
X81787162Y-137973600D02*
X81691924Y-137878361D01*
X81691924Y-137878361D02*
X81644305Y-137783123D01*
X81644305Y-137783123D02*
X81596686Y-137592647D01*
X81596686Y-137592647D02*
X81596686Y-137449790D01*
X81596686Y-137449790D02*
X81644305Y-137259314D01*
X81644305Y-137259314D02*
X81691924Y-137164076D01*
X81691924Y-137164076D02*
X81787162Y-137068838D01*
X81787162Y-137068838D02*
X81930019Y-137021219D01*
X81930019Y-137021219D02*
X82025257Y-137021219D01*
X82025257Y-137021219D02*
X82168114Y-137068838D01*
X82168114Y-137068838D02*
X82215733Y-137116457D01*
X82549067Y-137021219D02*
X83215733Y-137021219D01*
X83215733Y-137021219D02*
X82787162Y-138021219D01*
X67687819Y-159429220D02*
X66687819Y-159429220D01*
X66687819Y-159429220D02*
X66687819Y-159048268D01*
X66687819Y-159048268D02*
X66735438Y-158953030D01*
X66735438Y-158953030D02*
X66783057Y-158905411D01*
X66783057Y-158905411D02*
X66878295Y-158857792D01*
X66878295Y-158857792D02*
X67021152Y-158857792D01*
X67021152Y-158857792D02*
X67116390Y-158905411D01*
X67116390Y-158905411D02*
X67164009Y-158953030D01*
X67164009Y-158953030D02*
X67211628Y-159048268D01*
X67211628Y-159048268D02*
X67211628Y-159429220D01*
X66687819Y-158524458D02*
X67687819Y-158286363D01*
X67687819Y-158286363D02*
X66973533Y-158095887D01*
X66973533Y-158095887D02*
X67687819Y-157905411D01*
X67687819Y-157905411D02*
X66687819Y-157667316D01*
X67687819Y-157286363D02*
X66687819Y-157286363D01*
X66687819Y-157286363D02*
X67402104Y-156953030D01*
X67402104Y-156953030D02*
X66687819Y-156619697D01*
X66687819Y-156619697D02*
X67687819Y-156619697D01*
X70525333Y-123644819D02*
X70192000Y-123168628D01*
X69953905Y-123644819D02*
X69953905Y-122644819D01*
X69953905Y-122644819D02*
X70334857Y-122644819D01*
X70334857Y-122644819D02*
X70430095Y-122692438D01*
X70430095Y-122692438D02*
X70477714Y-122740057D01*
X70477714Y-122740057D02*
X70525333Y-122835295D01*
X70525333Y-122835295D02*
X70525333Y-122978152D01*
X70525333Y-122978152D02*
X70477714Y-123073390D01*
X70477714Y-123073390D02*
X70430095Y-123121009D01*
X70430095Y-123121009D02*
X70334857Y-123168628D01*
X70334857Y-123168628D02*
X69953905Y-123168628D01*
X71382476Y-122978152D02*
X71382476Y-123644819D01*
X71144381Y-122597200D02*
X70906286Y-123311485D01*
X70906286Y-123311485D02*
X71525333Y-123311485D01*
X70027495Y-136741819D02*
X70027495Y-137551342D01*
X70027495Y-137551342D02*
X70075114Y-137646580D01*
X70075114Y-137646580D02*
X70122733Y-137694200D01*
X70122733Y-137694200D02*
X70217971Y-137741819D01*
X70217971Y-137741819D02*
X70408447Y-137741819D01*
X70408447Y-137741819D02*
X70503685Y-137694200D01*
X70503685Y-137694200D02*
X70551304Y-137646580D01*
X70551304Y-137646580D02*
X70598923Y-137551342D01*
X70598923Y-137551342D02*
X70598923Y-136741819D01*
X71598923Y-137741819D02*
X71027495Y-137741819D01*
X71313209Y-137741819D02*
X71313209Y-136741819D01*
X71313209Y-136741819D02*
X71217971Y-136884676D01*
X71217971Y-136884676D02*
X71122733Y-136979914D01*
X71122733Y-136979914D02*
X71027495Y-137027533D01*
X82129333Y-130335009D02*
X82081714Y-130382629D01*
X82081714Y-130382629D02*
X81938857Y-130430248D01*
X81938857Y-130430248D02*
X81843619Y-130430248D01*
X81843619Y-130430248D02*
X81700762Y-130382629D01*
X81700762Y-130382629D02*
X81605524Y-130287390D01*
X81605524Y-130287390D02*
X81557905Y-130192152D01*
X81557905Y-130192152D02*
X81510286Y-130001676D01*
X81510286Y-130001676D02*
X81510286Y-129858819D01*
X81510286Y-129858819D02*
X81557905Y-129668343D01*
X81557905Y-129668343D02*
X81605524Y-129573105D01*
X81605524Y-129573105D02*
X81700762Y-129477867D01*
X81700762Y-129477867D02*
X81843619Y-129430248D01*
X81843619Y-129430248D02*
X81938857Y-129430248D01*
X81938857Y-129430248D02*
X82081714Y-129477867D01*
X82081714Y-129477867D02*
X82129333Y-129525486D01*
X82986476Y-129763581D02*
X82986476Y-130430248D01*
X82748381Y-129382629D02*
X82510286Y-130096914D01*
X82510286Y-130096914D02*
X83129333Y-130096914D01*
X82002333Y-123803580D02*
X81954714Y-123851200D01*
X81954714Y-123851200D02*
X81811857Y-123898819D01*
X81811857Y-123898819D02*
X81716619Y-123898819D01*
X81716619Y-123898819D02*
X81573762Y-123851200D01*
X81573762Y-123851200D02*
X81478524Y-123755961D01*
X81478524Y-123755961D02*
X81430905Y-123660723D01*
X81430905Y-123660723D02*
X81383286Y-123470247D01*
X81383286Y-123470247D02*
X81383286Y-123327390D01*
X81383286Y-123327390D02*
X81430905Y-123136914D01*
X81430905Y-123136914D02*
X81478524Y-123041676D01*
X81478524Y-123041676D02*
X81573762Y-122946438D01*
X81573762Y-122946438D02*
X81716619Y-122898819D01*
X81716619Y-122898819D02*
X81811857Y-122898819D01*
X81811857Y-122898819D02*
X81954714Y-122946438D01*
X81954714Y-122946438D02*
X82002333Y-122994057D01*
X82335667Y-122898819D02*
X82954714Y-122898819D01*
X82954714Y-122898819D02*
X82621381Y-123279771D01*
X82621381Y-123279771D02*
X82764238Y-123279771D01*
X82764238Y-123279771D02*
X82859476Y-123327390D01*
X82859476Y-123327390D02*
X82907095Y-123375009D01*
X82907095Y-123375009D02*
X82954714Y-123470247D01*
X82954714Y-123470247D02*
X82954714Y-123708342D01*
X82954714Y-123708342D02*
X82907095Y-123803580D01*
X82907095Y-123803580D02*
X82859476Y-123851200D01*
X82859476Y-123851200D02*
X82764238Y-123898819D01*
X82764238Y-123898819D02*
X82478524Y-123898819D01*
X82478524Y-123898819D02*
X82383286Y-123851200D01*
X82383286Y-123851200D02*
X82335667Y-123803580D01*
X74114819Y-73992094D02*
X73114819Y-73992094D01*
X73114819Y-73992094D02*
X73114819Y-73753999D01*
X73114819Y-73753999D02*
X73162438Y-73611142D01*
X73162438Y-73611142D02*
X73257676Y-73515904D01*
X73257676Y-73515904D02*
X73352914Y-73468285D01*
X73352914Y-73468285D02*
X73543390Y-73420666D01*
X73543390Y-73420666D02*
X73686247Y-73420666D01*
X73686247Y-73420666D02*
X73876723Y-73468285D01*
X73876723Y-73468285D02*
X73971961Y-73515904D01*
X73971961Y-73515904D02*
X74067200Y-73611142D01*
X74067200Y-73611142D02*
X74114819Y-73753999D01*
X74114819Y-73753999D02*
X74114819Y-73992094D01*
X73114819Y-73087332D02*
X73114819Y-72468285D01*
X73114819Y-72468285D02*
X73495771Y-72801618D01*
X73495771Y-72801618D02*
X73495771Y-72658761D01*
X73495771Y-72658761D02*
X73543390Y-72563523D01*
X73543390Y-72563523D02*
X73591009Y-72515904D01*
X73591009Y-72515904D02*
X73686247Y-72468285D01*
X73686247Y-72468285D02*
X73924342Y-72468285D01*
X73924342Y-72468285D02*
X74019580Y-72515904D01*
X74019580Y-72515904D02*
X74067200Y-72563523D01*
X74067200Y-72563523D02*
X74114819Y-72658761D01*
X74114819Y-72658761D02*
X74114819Y-72944475D01*
X74114819Y-72944475D02*
X74067200Y-73039713D01*
X74067200Y-73039713D02*
X74019580Y-73087332D01*
X75464200Y-161655082D02*
X75511819Y-161512225D01*
X75511819Y-161512225D02*
X75511819Y-161274130D01*
X75511819Y-161274130D02*
X75464200Y-161178892D01*
X75464200Y-161178892D02*
X75416580Y-161131273D01*
X75416580Y-161131273D02*
X75321342Y-161083654D01*
X75321342Y-161083654D02*
X75226104Y-161083654D01*
X75226104Y-161083654D02*
X75130866Y-161131273D01*
X75130866Y-161131273D02*
X75083247Y-161178892D01*
X75083247Y-161178892D02*
X75035628Y-161274130D01*
X75035628Y-161274130D02*
X74988009Y-161464606D01*
X74988009Y-161464606D02*
X74940390Y-161559844D01*
X74940390Y-161559844D02*
X74892771Y-161607463D01*
X74892771Y-161607463D02*
X74797533Y-161655082D01*
X74797533Y-161655082D02*
X74702295Y-161655082D01*
X74702295Y-161655082D02*
X74607057Y-161607463D01*
X74607057Y-161607463D02*
X74559438Y-161559844D01*
X74559438Y-161559844D02*
X74511819Y-161464606D01*
X74511819Y-161464606D02*
X74511819Y-161226511D01*
X74511819Y-161226511D02*
X74559438Y-161083654D01*
X74511819Y-160750320D02*
X75511819Y-160512225D01*
X75511819Y-160512225D02*
X74797533Y-160321749D01*
X74797533Y-160321749D02*
X75511819Y-160131273D01*
X75511819Y-160131273D02*
X74511819Y-159893178D01*
X75511819Y-158988416D02*
X75511819Y-159559844D01*
X75511819Y-159274130D02*
X74511819Y-159274130D01*
X74511819Y-159274130D02*
X74654676Y-159369368D01*
X74654676Y-159369368D02*
X74749914Y-159464606D01*
X74749914Y-159464606D02*
X74797533Y-159559844D01*
X93459180Y-158419969D02*
X93459180Y-157943779D01*
X93459180Y-157943779D02*
X92982990Y-157896160D01*
X92982990Y-157896160D02*
X93030609Y-157943779D01*
X93030609Y-157943779D02*
X93078228Y-158039017D01*
X93078228Y-158039017D02*
X93078228Y-158277112D01*
X93078228Y-158277112D02*
X93030609Y-158372350D01*
X93030609Y-158372350D02*
X92982990Y-158419969D01*
X92982990Y-158419969D02*
X92887752Y-158467588D01*
X92887752Y-158467588D02*
X92649657Y-158467588D01*
X92649657Y-158467588D02*
X92554419Y-158419969D01*
X92554419Y-158419969D02*
X92506800Y-158372350D01*
X92506800Y-158372350D02*
X92459180Y-158277112D01*
X92459180Y-158277112D02*
X92459180Y-158039017D01*
X92459180Y-158039017D02*
X92506800Y-157943779D01*
X92506800Y-157943779D02*
X92554419Y-157896160D01*
X93459180Y-158753303D02*
X92459180Y-159086636D01*
X92459180Y-159086636D02*
X93459180Y-159419969D01*
X93411561Y-160499588D02*
X93459180Y-160404350D01*
X93459180Y-160404350D02*
X93459180Y-160261493D01*
X93459180Y-160261493D02*
X93411561Y-160118636D01*
X93411561Y-160118636D02*
X93316323Y-160023398D01*
X93316323Y-160023398D02*
X93221085Y-159975779D01*
X93221085Y-159975779D02*
X93030609Y-159928160D01*
X93030609Y-159928160D02*
X92887752Y-159928160D01*
X92887752Y-159928160D02*
X92697276Y-159975779D01*
X92697276Y-159975779D02*
X92602038Y-160023398D01*
X92602038Y-160023398D02*
X92506800Y-160118636D01*
X92506800Y-160118636D02*
X92459180Y-160261493D01*
X92459180Y-160261493D02*
X92459180Y-160356731D01*
X92459180Y-160356731D02*
X92506800Y-160499588D01*
X92506800Y-160499588D02*
X92554419Y-160547207D01*
X92554419Y-160547207D02*
X92887752Y-160547207D01*
X92887752Y-160547207D02*
X92887752Y-160356731D01*
X92459180Y-160975779D02*
X93459180Y-160975779D01*
X93459180Y-160975779D02*
X92459180Y-161547207D01*
X92459180Y-161547207D02*
X93459180Y-161547207D01*
X92459180Y-162023398D02*
X93459180Y-162023398D01*
X93459180Y-162023398D02*
X93459180Y-162261493D01*
X93459180Y-162261493D02*
X93411561Y-162404350D01*
X93411561Y-162404350D02*
X93316323Y-162499588D01*
X93316323Y-162499588D02*
X93221085Y-162547207D01*
X93221085Y-162547207D02*
X93030609Y-162594826D01*
X93030609Y-162594826D02*
X92887752Y-162594826D01*
X92887752Y-162594826D02*
X92697276Y-162547207D01*
X92697276Y-162547207D02*
X92602038Y-162499588D01*
X92602038Y-162499588D02*
X92506800Y-162404350D01*
X92506800Y-162404350D02*
X92459180Y-162261493D01*
X92459180Y-162261493D02*
X92459180Y-162023398D01*
X81811019Y-71769266D02*
X81334828Y-72102599D01*
X81811019Y-72340694D02*
X80811019Y-72340694D01*
X80811019Y-72340694D02*
X80811019Y-71959742D01*
X80811019Y-71959742D02*
X80858638Y-71864504D01*
X80858638Y-71864504D02*
X80906257Y-71816885D01*
X80906257Y-71816885D02*
X81001495Y-71769266D01*
X81001495Y-71769266D02*
X81144352Y-71769266D01*
X81144352Y-71769266D02*
X81239590Y-71816885D01*
X81239590Y-71816885D02*
X81287209Y-71864504D01*
X81287209Y-71864504D02*
X81334828Y-71959742D01*
X81334828Y-71959742D02*
X81334828Y-72340694D01*
X80811019Y-71435932D02*
X80811019Y-70816885D01*
X80811019Y-70816885D02*
X81191971Y-71150218D01*
X81191971Y-71150218D02*
X81191971Y-71007361D01*
X81191971Y-71007361D02*
X81239590Y-70912123D01*
X81239590Y-70912123D02*
X81287209Y-70864504D01*
X81287209Y-70864504D02*
X81382447Y-70816885D01*
X81382447Y-70816885D02*
X81620542Y-70816885D01*
X81620542Y-70816885D02*
X81715780Y-70864504D01*
X81715780Y-70864504D02*
X81763400Y-70912123D01*
X81763400Y-70912123D02*
X81811019Y-71007361D01*
X81811019Y-71007361D02*
X81811019Y-71293075D01*
X81811019Y-71293075D02*
X81763400Y-71388313D01*
X81763400Y-71388313D02*
X81715780Y-71435932D01*
D12*
X80926252Y-133269400D02*
X79503748Y-133269400D01*
X80926252Y-131449400D02*
X79503748Y-131449400D01*
X79427420Y-127288286D02*
X79708580Y-127288286D01*
X79427420Y-128308286D02*
X79708580Y-128308286D01*
X87768000Y-105917727D02*
X87768000Y-108417727D01*
X87768000Y-108417727D02*
X90268000Y-108417727D01*
X88068000Y-104097727D02*
X88068000Y-108117727D01*
X88068000Y-105807727D02*
X88568000Y-105807727D01*
X88068000Y-106617727D02*
X89068000Y-106617727D01*
X88068000Y-108117727D02*
X98288000Y-108117727D01*
X88568000Y-104597727D02*
X97788000Y-104597727D01*
X88568000Y-105807727D02*
X88568000Y-104597727D01*
X89068000Y-106617727D02*
X89068000Y-108117727D01*
X97288000Y-106617727D02*
X97288000Y-108117727D01*
X97788000Y-104597727D02*
X97788000Y-105807727D01*
X97788000Y-105807727D02*
X98288000Y-105807727D01*
X98288000Y-104097727D02*
X88068000Y-104097727D01*
X98288000Y-106617727D02*
X97288000Y-106617727D01*
X98288000Y-108117727D02*
X98288000Y-104097727D01*
D13*
X76212000Y-81938500D02*
X76212000Y-87938500D01*
X76212000Y-87938500D02*
X82209200Y-87938240D01*
X82212000Y-81938500D02*
X76212000Y-81938500D01*
X82212000Y-87930620D02*
X82212000Y-81938500D01*
D14*
X77162000Y-91288500D02*
G75*
G02*
X76762000Y-91288500I-200000J0D01*
G01*
X76762000Y-91288500D02*
G75*
G02*
X77162000Y-91288500I200000J0D01*
G01*
D13*
X80962000Y-84938500D02*
G75*
G02*
X77462000Y-84938500I-1750000J0D01*
G01*
X77462000Y-84938500D02*
G75*
G02*
X80962000Y-84938500I1750000J0D01*
G01*
D12*
X87768000Y-86474181D02*
X87768000Y-88974181D01*
X87768000Y-88974181D02*
X90268000Y-88974181D01*
X88068000Y-84654181D02*
X88068000Y-88674181D01*
X88068000Y-86364181D02*
X88568000Y-86364181D01*
X88068000Y-87174181D02*
X89068000Y-87174181D01*
X88068000Y-88674181D02*
X98288000Y-88674181D01*
X88568000Y-85154181D02*
X97788000Y-85154181D01*
X88568000Y-86364181D02*
X88568000Y-85154181D01*
X89068000Y-87174181D02*
X89068000Y-88674181D01*
X97288000Y-87174181D02*
X97288000Y-88674181D01*
X97788000Y-85154181D02*
X97788000Y-86364181D01*
X97788000Y-86364181D02*
X98288000Y-86364181D01*
X98288000Y-84654181D02*
X88068000Y-84654181D01*
X98288000Y-87174181D02*
X97288000Y-87174181D01*
X98288000Y-88674181D02*
X98288000Y-84654181D01*
X73457000Y-128219000D02*
X73457000Y-127969000D01*
X73457000Y-128219000D02*
X73707000Y-128219000D01*
X76657000Y-125019000D02*
X76407000Y-125019000D01*
X76657000Y-125019000D02*
X76657000Y-125269000D01*
X76657000Y-128219000D02*
X76407000Y-128219000D01*
X76657000Y-128219000D02*
X76657000Y-127969000D01*
X73457000Y-125019000D02*
X73217000Y-124689000D01*
X73697000Y-124689000D01*
X73457000Y-125019000D01*
G36*
X73457000Y-125019000D02*
G01*
X73217000Y-124689000D01*
X73697000Y-124689000D01*
X73457000Y-125019000D01*
G37*
X79306748Y-124886143D02*
X79829252Y-124886143D01*
X79306748Y-126356143D02*
X79829252Y-126356143D01*
X79332148Y-138939600D02*
X79854652Y-138939600D01*
X79332148Y-140409600D02*
X79854652Y-140409600D01*
X65726000Y-64583000D02*
X65726000Y-64703000D01*
X65726000Y-64703000D02*
X68386000Y-64703000D01*
X67056000Y-62043000D02*
X68386000Y-62043000D01*
X68386000Y-62043000D02*
X68386000Y-63373000D01*
X68386000Y-64583000D02*
X68386000Y-64703000D01*
X85268000Y-138323636D02*
X85268000Y-140823636D01*
X85268000Y-140823636D02*
X87768000Y-140823636D01*
X85568000Y-136503636D02*
X85568000Y-140523636D01*
X85568000Y-138213636D02*
X86068000Y-138213636D01*
X85568000Y-139023636D02*
X86568000Y-139023636D01*
X85568000Y-140523636D02*
X98288000Y-140523636D01*
X86068000Y-137003636D02*
X97788000Y-137003636D01*
X86068000Y-138213636D02*
X86068000Y-137003636D01*
X86568000Y-139023636D02*
X86568000Y-140523636D01*
X97288000Y-139023636D02*
X97288000Y-140523636D01*
X97788000Y-137003636D02*
X97788000Y-138213636D01*
X97788000Y-138213636D02*
X98288000Y-138213636D01*
X98288000Y-136503636D02*
X85568000Y-136503636D01*
X98288000Y-139023636D02*
X97288000Y-139023636D01*
X98288000Y-140523636D02*
X98288000Y-136503636D01*
X67821436Y-124487000D02*
X68275564Y-124487000D01*
X67821436Y-125957000D02*
X68275564Y-125957000D01*
X67811242Y-132268700D02*
X68285758Y-132268700D01*
X67811242Y-133313700D02*
X68285758Y-133313700D01*
X87768000Y-99436545D02*
X87768000Y-101936545D01*
X87768000Y-101936545D02*
X90268000Y-101936545D01*
X88068000Y-97616545D02*
X88068000Y-101636545D01*
X88068000Y-99326545D02*
X88568000Y-99326545D01*
X88068000Y-100136545D02*
X89068000Y-100136545D01*
X88068000Y-101636545D02*
X98288000Y-101636545D01*
X88568000Y-98116545D02*
X97788000Y-98116545D01*
X88568000Y-99326545D02*
X88568000Y-98116545D01*
X89068000Y-100136545D02*
X89068000Y-101636545D01*
X97288000Y-100136545D02*
X97288000Y-101636545D01*
X97788000Y-98116545D02*
X97788000Y-99326545D01*
X97788000Y-99326545D02*
X98288000Y-99326545D01*
X98288000Y-97616545D02*
X88068000Y-97616545D01*
X98288000Y-100136545D02*
X97288000Y-100136545D01*
X98288000Y-101636545D02*
X98288000Y-97616545D01*
X84132100Y-72512458D02*
X84132100Y-72037942D01*
X85177100Y-72512458D02*
X85177100Y-72037942D01*
X87768000Y-112398909D02*
X87768000Y-114898909D01*
X87768000Y-114898909D02*
X90268000Y-114898909D01*
X88068000Y-110578909D02*
X88068000Y-114598909D01*
X88068000Y-112288909D02*
X88568000Y-112288909D01*
X88068000Y-113098909D02*
X89068000Y-113098909D01*
X88068000Y-114598909D02*
X98288000Y-114598909D01*
X88568000Y-111078909D02*
X97788000Y-111078909D01*
X88568000Y-112288909D02*
X88568000Y-111078909D01*
X89068000Y-113098909D02*
X89068000Y-114598909D01*
X97288000Y-113098909D02*
X97288000Y-114598909D01*
X97788000Y-111078909D02*
X97788000Y-112288909D01*
X97788000Y-112288909D02*
X98288000Y-112288909D01*
X98288000Y-110578909D02*
X88068000Y-110578909D01*
X98288000Y-113098909D02*
X97288000Y-113098909D01*
X98288000Y-114598909D02*
X98288000Y-110578909D01*
X80471000Y-156008000D02*
X90481000Y-156008000D01*
X80471000Y-162508000D02*
X80471000Y-156008000D01*
X80471000Y-162508000D02*
X90481000Y-162508000D01*
X53407000Y-122107000D02*
X53407000Y-71187000D01*
X56007000Y-119507000D02*
X56007000Y-122107000D01*
X56007000Y-122107000D02*
X53407000Y-122107000D01*
X58607000Y-71187000D02*
X53407000Y-71187000D01*
X58607000Y-119507000D02*
X56007000Y-119507000D01*
X58607000Y-119507000D02*
X58607000Y-71187000D01*
X58607000Y-120777000D02*
X58607000Y-122107000D01*
X58607000Y-122107000D02*
X57277000Y-122107000D01*
X87691800Y-62873400D02*
X87691800Y-65373400D01*
X87691800Y-65373400D02*
X90191800Y-65373400D01*
X87991800Y-61053400D02*
X87991800Y-65073400D01*
X87991800Y-62763400D02*
X88491800Y-62763400D01*
X87991800Y-63573400D02*
X88991800Y-63573400D01*
X87991800Y-65073400D02*
X98211800Y-65073400D01*
X88491800Y-61553400D02*
X97711800Y-61553400D01*
X88491800Y-62763400D02*
X88491800Y-61553400D01*
X88991800Y-63573400D02*
X88991800Y-65073400D01*
X97211800Y-63573400D02*
X97211800Y-65073400D01*
X97711800Y-61553400D02*
X97711800Y-62763400D01*
X97711800Y-62763400D02*
X98211800Y-62763400D01*
X98211800Y-61053400D02*
X87991800Y-61053400D01*
X98211800Y-63573400D02*
X97211800Y-63573400D01*
X98211800Y-65073400D02*
X98211800Y-61053400D01*
X68339000Y-154619000D02*
X68339000Y-148149000D01*
X69161470Y-148149000D02*
X68339000Y-148149000D01*
X69161470Y-154619000D02*
X68339000Y-154619000D01*
X69979000Y-153217471D02*
X69979000Y-153360529D01*
X69979000Y-154487471D02*
X69979000Y-154619000D01*
X69979000Y-154619000D02*
X69776530Y-154619000D01*
X70175529Y-153164000D02*
X70032471Y-153164000D01*
X70431470Y-148149000D02*
X69776530Y-148149000D01*
X71869000Y-148149000D02*
X71046530Y-148149000D01*
X71869000Y-153164000D02*
X71302471Y-153164000D01*
X71869000Y-153164000D02*
X71869000Y-148149000D01*
X71869000Y-153924000D02*
X71869000Y-154684000D01*
X71869000Y-154684000D02*
X70739000Y-154684000D01*
X79875052Y-134062800D02*
X79352548Y-134062800D01*
X79875052Y-135532800D02*
X79352548Y-135532800D01*
X69029252Y-91721000D02*
X68506748Y-91721000D01*
X69029252Y-93191000D02*
X68506748Y-93191000D01*
X74519667Y-154619000D02*
X74519667Y-148149000D01*
X75342137Y-148149000D02*
X74519667Y-148149000D01*
X75342137Y-154619000D02*
X74519667Y-154619000D01*
X76159667Y-153217471D02*
X76159667Y-153360529D01*
X76159667Y-154487471D02*
X76159667Y-154619000D01*
X76159667Y-154619000D02*
X75957197Y-154619000D01*
X76356196Y-153164000D02*
X76213138Y-153164000D01*
X76612137Y-148149000D02*
X75957197Y-148149000D01*
X78049667Y-148149000D02*
X77227197Y-148149000D01*
X78049667Y-153164000D02*
X77483138Y-153164000D01*
X78049667Y-153164000D02*
X78049667Y-148149000D01*
X78049667Y-153924000D02*
X78049667Y-154684000D01*
X78049667Y-154684000D02*
X76919667Y-154684000D01*
X68275564Y-130151200D02*
X67821436Y-130151200D01*
X68275564Y-131621200D02*
X67821436Y-131621200D01*
X87768000Y-118880091D02*
X87768000Y-121380091D01*
X87768000Y-121380091D02*
X90268000Y-121380091D01*
X88068000Y-117060091D02*
X88068000Y-121080091D01*
X88068000Y-118770091D02*
X88568000Y-118770091D01*
X88068000Y-119580091D02*
X89068000Y-119580091D01*
X88068000Y-121080091D02*
X98288000Y-121080091D01*
X88568000Y-117560091D02*
X97788000Y-117560091D01*
X88568000Y-118770091D02*
X88568000Y-117560091D01*
X89068000Y-119580091D02*
X89068000Y-121080091D01*
X97288000Y-119580091D02*
X97288000Y-121080091D01*
X97788000Y-117560091D02*
X97788000Y-118770091D01*
X97788000Y-118770091D02*
X98288000Y-118770091D01*
X98288000Y-117060091D02*
X88068000Y-117060091D01*
X98288000Y-119580091D02*
X97288000Y-119580091D01*
X98288000Y-121080091D02*
X98288000Y-117060091D01*
X67695000Y-95274000D02*
X68695000Y-95274000D01*
X67695000Y-96024000D02*
X67695000Y-95274000D01*
X67695000Y-114834000D02*
X85695000Y-114834000D01*
X67695000Y-120774000D02*
X67695000Y-114024000D01*
X85695000Y-95274000D02*
X84695000Y-95274000D01*
X85695000Y-96024000D02*
X85695000Y-95274000D01*
X85695000Y-120774000D02*
X67695000Y-120774000D01*
X85695000Y-120774000D02*
X85695000Y-114024000D01*
X85268000Y-125361272D02*
X85268000Y-127861272D01*
X85268000Y-127861272D02*
X87768000Y-127861272D01*
X85568000Y-123541272D02*
X85568000Y-127561272D01*
X85568000Y-125251272D02*
X86068000Y-125251272D01*
X85568000Y-126061272D02*
X86568000Y-126061272D01*
X85568000Y-127561272D02*
X98288000Y-127561272D01*
X86068000Y-124041272D02*
X97788000Y-124041272D01*
X86068000Y-125251272D02*
X86068000Y-124041272D01*
X86568000Y-126061272D02*
X86568000Y-127561272D01*
X97288000Y-126061272D02*
X97288000Y-127561272D01*
X97788000Y-124041272D02*
X97788000Y-125251272D01*
X97788000Y-125251272D02*
X98288000Y-125251272D01*
X98288000Y-123541272D02*
X85568000Y-123541272D01*
X98288000Y-126061272D02*
X97288000Y-126061272D01*
X98288000Y-127561272D02*
X98288000Y-123541272D01*
D15*
X76024600Y-60364200D02*
X76024600Y-61494200D01*
X76024600Y-65464200D02*
X76024600Y-64214200D01*
X84964600Y-61494200D02*
X84964600Y-60364200D01*
X84964600Y-65464200D02*
X84964600Y-64214200D01*
X83844600Y-68814200D02*
G75*
G02*
X83644600Y-68814200I-100000J0D01*
G01*
X83644600Y-68814200D02*
G75*
G02*
X83844600Y-68814200I100000J0D01*
G01*
D12*
X94048000Y-141528000D02*
X94048000Y-154248000D01*
X94048000Y-154248000D02*
X98068000Y-154248000D01*
X94548000Y-142028000D02*
X95758000Y-142028000D01*
X94548000Y-153748000D02*
X94548000Y-142028000D01*
X95758000Y-142028000D02*
X95758000Y-141528000D01*
X95758000Y-153748000D02*
X94548000Y-153748000D01*
X95758000Y-154248000D02*
X95758000Y-153748000D01*
X95868000Y-154548000D02*
X98368000Y-154548000D01*
X96568000Y-141528000D02*
X96568000Y-142528000D01*
X96568000Y-142528000D02*
X98068000Y-142528000D01*
X96568000Y-153248000D02*
X98068000Y-153248000D01*
X96568000Y-154248000D02*
X96568000Y-153248000D01*
X98068000Y-141528000D02*
X94048000Y-141528000D01*
X98068000Y-154248000D02*
X98068000Y-141528000D01*
X98368000Y-154548000D02*
X98368000Y-152048000D01*
D13*
X67775000Y-81811500D02*
X67775000Y-87811500D01*
X67775000Y-87811500D02*
X73772200Y-87811240D01*
X73775000Y-81811500D02*
X67775000Y-81811500D01*
X73775000Y-87803620D02*
X73775000Y-81811500D01*
D14*
X68725000Y-91161500D02*
G75*
G02*
X68325000Y-91161500I-200000J0D01*
G01*
X68325000Y-91161500D02*
G75*
G02*
X68725000Y-91161500I200000J0D01*
G01*
D13*
X72525000Y-84811500D02*
G75*
G02*
X69025000Y-84811500I-1750000J0D01*
G01*
X69025000Y-84811500D02*
G75*
G02*
X72525000Y-84811500I1750000J0D01*
G01*
D12*
X67821436Y-126519000D02*
X68275564Y-126519000D01*
X67821436Y-127989000D02*
X68275564Y-127989000D01*
X72667500Y-133399200D02*
X74952500Y-133399200D01*
X74952500Y-131929200D02*
X72667500Y-131929200D01*
X74952500Y-133399200D02*
X74952500Y-131929200D01*
X79327148Y-136831400D02*
X79849652Y-136831400D01*
X79327148Y-138301400D02*
X79849652Y-138301400D01*
X68267000Y-156267000D02*
X68267000Y-163987000D01*
X68267000Y-163987000D02*
X72287000Y-163987000D01*
X68767000Y-156767000D02*
X69977000Y-156767000D01*
X68767000Y-163487000D02*
X68767000Y-156767000D01*
X69977000Y-156767000D02*
X69977000Y-156267000D01*
X69977000Y-163487000D02*
X68767000Y-163487000D01*
X69977000Y-163987000D02*
X69977000Y-163487000D01*
X70087000Y-164287000D02*
X72587000Y-164287000D01*
X70787000Y-156267000D02*
X70787000Y-157267000D01*
X70787000Y-157267000D02*
X72287000Y-157267000D01*
X70787000Y-162987000D02*
X72287000Y-162987000D01*
X70787000Y-163987000D02*
X70787000Y-162987000D01*
X72287000Y-156267000D02*
X68267000Y-156267000D01*
X72287000Y-163987000D02*
X72287000Y-156267000D01*
X72587000Y-164287000D02*
X72587000Y-161787000D01*
X67774436Y-122455000D02*
X68228564Y-122455000D01*
X67774436Y-123925000D02*
X68228564Y-123925000D01*
X68939400Y-133750000D02*
X72699400Y-133750000D01*
X68939400Y-140570000D02*
X72699400Y-140570000D01*
X72699400Y-133750000D02*
X72699400Y-135010000D01*
X72699400Y-140570000D02*
X72699400Y-139310000D01*
X67659400Y-133850000D02*
X67419400Y-133520000D01*
X67899400Y-133520000D01*
X67659400Y-133850000D01*
G36*
X67659400Y-133850000D02*
G01*
X67419400Y-133520000D01*
X67899400Y-133520000D01*
X67659400Y-133850000D01*
G37*
X79306748Y-129240429D02*
X79829252Y-129240429D01*
X79306748Y-130710429D02*
X79829252Y-130710429D01*
X80700333Y-154619000D02*
X80700333Y-148149000D01*
X81522803Y-148149000D02*
X80700333Y-148149000D01*
X81522803Y-154619000D02*
X80700333Y-154619000D01*
X82340333Y-153217471D02*
X82340333Y-153360529D01*
X82340333Y-154487471D02*
X82340333Y-154619000D01*
X82340333Y-154619000D02*
X82137863Y-154619000D01*
X82536862Y-153164000D02*
X82393804Y-153164000D01*
X82792803Y-148149000D02*
X82137863Y-148149000D01*
X84230333Y-148149000D02*
X83407863Y-148149000D01*
X84230333Y-153164000D02*
X83663804Y-153164000D01*
X84230333Y-153164000D02*
X84230333Y-148149000D01*
X84230333Y-153924000D02*
X84230333Y-154684000D01*
X84230333Y-154684000D02*
X83100333Y-154684000D01*
X79829252Y-122709000D02*
X79306748Y-122709000D01*
X79829252Y-124179000D02*
X79306748Y-124179000D01*
X66346000Y-78864000D02*
X66346000Y-68854000D01*
X72846000Y-78864000D02*
X66346000Y-78864000D01*
X72846000Y-78864000D02*
X72846000Y-68854000D01*
X86881000Y-154619000D02*
X86881000Y-148149000D01*
X87703470Y-148149000D02*
X86881000Y-148149000D01*
X87703470Y-154619000D02*
X86881000Y-154619000D01*
X88521000Y-153217471D02*
X88521000Y-153360529D01*
X88521000Y-154487471D02*
X88521000Y-154619000D01*
X88521000Y-154619000D02*
X88318530Y-154619000D01*
X88717529Y-153164000D02*
X88574471Y-153164000D01*
X88973470Y-148149000D02*
X88318530Y-148149000D01*
X90411000Y-148149000D02*
X89588530Y-148149000D01*
X90411000Y-153164000D02*
X89844471Y-153164000D01*
X90411000Y-153164000D02*
X90411000Y-148149000D01*
X90411000Y-153924000D02*
X90411000Y-154684000D01*
X90411000Y-154684000D02*
X89281000Y-154684000D01*
X87768000Y-79993000D02*
X87768000Y-82493000D01*
X87768000Y-82493000D02*
X90268000Y-82493000D01*
X88068000Y-78173000D02*
X88068000Y-82193000D01*
X88068000Y-79883000D02*
X88568000Y-79883000D01*
X88068000Y-80693000D02*
X89068000Y-80693000D01*
X88068000Y-82193000D02*
X98288000Y-82193000D01*
X88568000Y-78673000D02*
X97788000Y-78673000D01*
X88568000Y-79883000D02*
X88568000Y-78673000D01*
X89068000Y-80693000D02*
X89068000Y-82193000D01*
X97288000Y-80693000D02*
X97288000Y-82193000D01*
X97788000Y-78673000D02*
X97788000Y-79883000D01*
X97788000Y-79883000D02*
X98288000Y-79883000D01*
X98288000Y-78173000D02*
X88068000Y-78173000D01*
X98288000Y-80693000D02*
X97288000Y-80693000D01*
X98288000Y-82193000D02*
X98288000Y-78173000D01*
D16*
X73044050Y-156359350D02*
X73044050Y-164106350D01*
X73044050Y-164106350D02*
X78301850Y-164106350D01*
X78301850Y-156359350D02*
X73044050Y-156359350D01*
X78301850Y-164106350D02*
X78301850Y-156359350D01*
D17*
X74783950Y-164772850D02*
G75*
G02*
X74021950Y-164772850I-381000J0D01*
G01*
X74021950Y-164772850D02*
G75*
G02*
X74783950Y-164772850I381000J0D01*
G01*
D12*
X85268000Y-131842454D02*
X85268000Y-134342454D01*
X85268000Y-134342454D02*
X87768000Y-134342454D01*
X85568000Y-130022454D02*
X85568000Y-134042454D01*
X85568000Y-131732454D02*
X86068000Y-131732454D01*
X85568000Y-132542454D02*
X86568000Y-132542454D01*
X85568000Y-134042454D02*
X98288000Y-134042454D01*
X86068000Y-130522454D02*
X97788000Y-130522454D01*
X86068000Y-131732454D02*
X86068000Y-130522454D01*
X86568000Y-132542454D02*
X86568000Y-134042454D01*
X97288000Y-132542454D02*
X97288000Y-134042454D01*
X97788000Y-130522454D02*
X97788000Y-131732454D01*
X97788000Y-131732454D02*
X98288000Y-131732454D01*
X98288000Y-130022454D02*
X85568000Y-130022454D01*
X98288000Y-132542454D02*
X97288000Y-132542454D01*
X98288000Y-134042454D02*
X98288000Y-130022454D01*
X87793400Y-73846200D02*
X87793400Y-76346200D01*
X87793400Y-76346200D02*
X90293400Y-76346200D01*
X88093400Y-72026200D02*
X88093400Y-76046200D01*
X88093400Y-73736200D02*
X88593400Y-73736200D01*
X88093400Y-74546200D02*
X89093400Y-74546200D01*
X88093400Y-76046200D02*
X98313400Y-76046200D01*
X88593400Y-72526200D02*
X97813400Y-72526200D01*
X88593400Y-73736200D02*
X88593400Y-72526200D01*
X89093400Y-74546200D02*
X89093400Y-76046200D01*
X97313400Y-74546200D02*
X97313400Y-76046200D01*
X97813400Y-72526200D02*
X97813400Y-73736200D01*
X97813400Y-73736200D02*
X98313400Y-73736200D01*
X98313400Y-72026200D02*
X88093400Y-72026200D01*
X98313400Y-74546200D02*
X97313400Y-74546200D01*
X98313400Y-76046200D02*
X98313400Y-72026200D01*
X62043000Y-64583000D02*
X62043000Y-64703000D01*
X62043000Y-64703000D02*
X64703000Y-64703000D01*
X63373000Y-62043000D02*
X64703000Y-62043000D01*
X64703000Y-62043000D02*
X64703000Y-63373000D01*
X64703000Y-64583000D02*
X64703000Y-64703000D01*
X69409000Y-64583000D02*
X69409000Y-64703000D01*
X69409000Y-64703000D02*
X72069000Y-64703000D01*
X70739000Y-62043000D02*
X72069000Y-62043000D01*
X72069000Y-62043000D02*
X72069000Y-63373000D01*
X72069000Y-64583000D02*
X72069000Y-64703000D01*
X93783000Y-155626000D02*
X93783000Y-158126000D01*
X94083000Y-155926000D02*
X94083000Y-163646000D01*
X94083000Y-163646000D02*
X98103000Y-163646000D01*
X95583000Y-155926000D02*
X95583000Y-156926000D01*
X95583000Y-156926000D02*
X94083000Y-156926000D01*
X95583000Y-162646000D02*
X94083000Y-162646000D01*
X95583000Y-163646000D02*
X95583000Y-162646000D01*
X96283000Y-155626000D02*
X93783000Y-155626000D01*
X96393000Y-155926000D02*
X96393000Y-156426000D01*
X96393000Y-156426000D02*
X97603000Y-156426000D01*
X96393000Y-163146000D02*
X96393000Y-163646000D01*
X97603000Y-156426000D02*
X97603000Y-163146000D01*
X97603000Y-163146000D02*
X96393000Y-163146000D01*
X98103000Y-155926000D02*
X94083000Y-155926000D01*
X98103000Y-163646000D02*
X98103000Y-155926000D01*
X82227100Y-72013542D02*
X82227100Y-72488058D01*
X83272100Y-72013542D02*
X83272100Y-72488058D01*
X87768000Y-92955363D02*
X87768000Y-95455363D01*
X87768000Y-95455363D02*
X90268000Y-95455363D01*
X88068000Y-91135363D02*
X88068000Y-95155363D01*
X88068000Y-92845363D02*
X88568000Y-92845363D01*
X88068000Y-93655363D02*
X89068000Y-93655363D01*
X88068000Y-95155363D02*
X98288000Y-95155363D01*
X88568000Y-91635363D02*
X97788000Y-91635363D01*
X88568000Y-92845363D02*
X88568000Y-91635363D01*
X89068000Y-93655363D02*
X89068000Y-95155363D01*
X97288000Y-93655363D02*
X97288000Y-95155363D01*
X97788000Y-91635363D02*
X97788000Y-92845363D01*
X97788000Y-92845363D02*
X98288000Y-92845363D01*
X98288000Y-91135363D02*
X88068000Y-91135363D01*
X98288000Y-93655363D02*
X97288000Y-93655363D01*
X98288000Y-95155363D02*
X98288000Y-91135363D01*
%LPC*%
D18*
X77644600Y-68194200D02*
X76944600Y-68194200D01*
X76944600Y-66944200D01*
X77644600Y-66944200D01*
X77644600Y-68194200D01*
G36*
X77644600Y-68194200D02*
G01*
X76944600Y-68194200D01*
X76944600Y-66944200D01*
X77644600Y-66944200D01*
X77644600Y-68194200D01*
G37*
X78444600Y-68194200D02*
X77744600Y-68194200D01*
X77744600Y-66944200D01*
X78444600Y-66944200D01*
X78444600Y-68194200D01*
G36*
X78444600Y-68194200D02*
G01*
X77744600Y-68194200D01*
X77744600Y-66944200D01*
X78444600Y-66944200D01*
X78444600Y-68194200D01*
G37*
X78944600Y-68194200D02*
X78544600Y-68194200D01*
X78544600Y-66944200D01*
X78944600Y-66944200D01*
X78944600Y-68194200D01*
G36*
X78944600Y-68194200D02*
G01*
X78544600Y-68194200D01*
X78544600Y-66944200D01*
X78944600Y-66944200D01*
X78944600Y-68194200D01*
G37*
X79444600Y-68194200D02*
X79044600Y-68194200D01*
X79044600Y-66944200D01*
X79444600Y-66944200D01*
X79444600Y-68194200D01*
G36*
X79444600Y-68194200D02*
G01*
X79044600Y-68194200D01*
X79044600Y-66944200D01*
X79444600Y-66944200D01*
X79444600Y-68194200D01*
G37*
X79944600Y-68194200D02*
X79544600Y-68194200D01*
X79544600Y-66944200D01*
X79944600Y-66944200D01*
X79944600Y-68194200D01*
G36*
X79944600Y-68194200D02*
G01*
X79544600Y-68194200D01*
X79544600Y-66944200D01*
X79944600Y-66944200D01*
X79944600Y-68194200D01*
G37*
X80444600Y-68194200D02*
X80044600Y-68194200D01*
X80044600Y-66944200D01*
X80444600Y-66944200D01*
X80444600Y-68194200D01*
G36*
X80444600Y-68194200D02*
G01*
X80044600Y-68194200D01*
X80044600Y-66944200D01*
X80444600Y-66944200D01*
X80444600Y-68194200D01*
G37*
X80944600Y-68194200D02*
X80544600Y-68194200D01*
X80544600Y-66944200D01*
X80944600Y-66944200D01*
X80944600Y-68194200D01*
G36*
X80944600Y-68194200D02*
G01*
X80544600Y-68194200D01*
X80544600Y-66944200D01*
X80944600Y-66944200D01*
X80944600Y-68194200D01*
G37*
X81444600Y-68194200D02*
X81044600Y-68194200D01*
X81044600Y-66944200D01*
X81444600Y-66944200D01*
X81444600Y-68194200D01*
G36*
X81444600Y-68194200D02*
G01*
X81044600Y-68194200D01*
X81044600Y-66944200D01*
X81444600Y-66944200D01*
X81444600Y-68194200D01*
G37*
X81944600Y-68194200D02*
X81544600Y-68194200D01*
X81544600Y-66944200D01*
X81944600Y-66944200D01*
X81944600Y-68194200D01*
G36*
X81944600Y-68194200D02*
G01*
X81544600Y-68194200D01*
X81544600Y-66944200D01*
X81944600Y-66944200D01*
X81944600Y-68194200D01*
G37*
X82444600Y-68194200D02*
X82044600Y-68194200D01*
X82044600Y-66944200D01*
X82444600Y-66944200D01*
X82444600Y-68194200D01*
G36*
X82444600Y-68194200D02*
G01*
X82044600Y-68194200D01*
X82044600Y-66944200D01*
X82444600Y-66944200D01*
X82444600Y-68194200D01*
G37*
X83244600Y-68194200D02*
X82544600Y-68194200D01*
X82544600Y-66944200D01*
X83244600Y-66944200D01*
X83244600Y-68194200D01*
G36*
X83244600Y-68194200D02*
G01*
X82544600Y-68194200D01*
X82544600Y-66944200D01*
X83244600Y-66944200D01*
X83244600Y-68194200D01*
G37*
X84044600Y-68194200D02*
X83344600Y-68194200D01*
X83344600Y-66944200D01*
X84044600Y-66944200D01*
X84044600Y-68194200D01*
G36*
X84044600Y-68194200D02*
G01*
X83344600Y-68194200D01*
X83344600Y-66944200D01*
X84044600Y-66944200D01*
X84044600Y-68194200D01*
G37*
D19*
X81690000Y-132359400D03*
X78740000Y-132359400D03*
D20*
X78793000Y-127798286D03*
X80343000Y-127798286D03*
D21*
X89032000Y-144772620D03*
X89581175Y-143446795D03*
X89581175Y-146098445D03*
X90907000Y-142897620D03*
D22*
X90907000Y-144772620D03*
D21*
X90907000Y-146647620D03*
X92232825Y-143446795D03*
X92232825Y-146098445D03*
X92782000Y-144772620D03*
D23*
X90678000Y-105807727D03*
D24*
X93178000Y-105807727D03*
X95678000Y-105807727D03*
D25*
X76962000Y-89488500D03*
X81462000Y-89488500D03*
X76962000Y-80388500D03*
X81462000Y-80388500D03*
D23*
X90678000Y-86364181D03*
D24*
X93178000Y-86364181D03*
X95678000Y-86364181D03*
D26*
X73557000Y-125619000D03*
X73557000Y-126019000D03*
X73557000Y-126419000D03*
X73557000Y-126819000D03*
X73557000Y-127219000D03*
X73557000Y-127619000D03*
D27*
X74057000Y-128119000D03*
X74457000Y-128119000D03*
X74857000Y-128119000D03*
X75257000Y-128119000D03*
X75657000Y-128119000D03*
X76057000Y-128119000D03*
D26*
X76557000Y-127619000D03*
X76557000Y-127219000D03*
X76557000Y-126819000D03*
X76557000Y-126419000D03*
X76557000Y-126019000D03*
X76557000Y-125619000D03*
D27*
X76057000Y-125119000D03*
X75657000Y-125119000D03*
X75257000Y-125119000D03*
X74857000Y-125119000D03*
X74457000Y-125119000D03*
X74057000Y-125119000D03*
D28*
X78618000Y-125621143D03*
X80518000Y-125621143D03*
X78643400Y-139674600D03*
X80543400Y-139674600D03*
D29*
X67056000Y-63373000D03*
D23*
X88178000Y-138213636D03*
D24*
X90678000Y-138213636D03*
X93178000Y-138213636D03*
X95678000Y-138213636D03*
D30*
X67136000Y-125222000D03*
X68961000Y-125222000D03*
D31*
X67223500Y-132791200D03*
X68873500Y-132791200D03*
D23*
X90678000Y-99326545D03*
D24*
X93178000Y-99326545D03*
X95678000Y-99326545D03*
D21*
X89032000Y-68772620D03*
X89581175Y-67446795D03*
X89581175Y-70098445D03*
X90907000Y-66897620D03*
D22*
X90907000Y-68772620D03*
D21*
X90907000Y-70647620D03*
X92232825Y-67446795D03*
X92232825Y-70098445D03*
X92782000Y-68772620D03*
D32*
X84654600Y-73100200D03*
X84654600Y-71450200D03*
D23*
X90678000Y-112288909D03*
D24*
X93178000Y-112288909D03*
X95678000Y-112288909D03*
D33*
X82881000Y-159258000D03*
D34*
X89281000Y-159258000D03*
D29*
X57277000Y-120777000D03*
D35*
X54737000Y-120777000D03*
X57277000Y-118237000D03*
X54737000Y-118237000D03*
X57277000Y-115697000D03*
X54737000Y-115697000D03*
X57277000Y-113157000D03*
X54737000Y-113157000D03*
X57277000Y-110617000D03*
X54737000Y-110617000D03*
X57277000Y-108077000D03*
X54737000Y-108077000D03*
X57277000Y-105537000D03*
X54737000Y-105537000D03*
X57277000Y-102997000D03*
X54737000Y-102997000D03*
X57277000Y-100457000D03*
X54737000Y-100457000D03*
X57277000Y-97917000D03*
X54737000Y-97917000D03*
X57277000Y-95377000D03*
X54737000Y-95377000D03*
X57277000Y-92837000D03*
X54737000Y-92837000D03*
X57277000Y-90297000D03*
X54737000Y-90297000D03*
X57277000Y-87757000D03*
X54737000Y-87757000D03*
X57277000Y-85217000D03*
X54737000Y-85217000D03*
X57277000Y-82677000D03*
X54737000Y-82677000D03*
X57277000Y-80137000D03*
X54737000Y-80137000D03*
X57277000Y-77597000D03*
X54737000Y-77597000D03*
X57277000Y-75057000D03*
X54737000Y-75057000D03*
X57277000Y-72517000D03*
X54737000Y-72517000D03*
D23*
X90601800Y-62763400D03*
D24*
X93101800Y-62763400D03*
X95601800Y-62763400D03*
D36*
X70739000Y-153924000D03*
D37*
X69469000Y-153924000D03*
X70739000Y-152654000D03*
X69469000Y-152654000D03*
X70739000Y-151384000D03*
X69469000Y-151384000D03*
X70739000Y-150114000D03*
X69469000Y-150114000D03*
X70739000Y-148844000D03*
X69469000Y-148844000D03*
D38*
X80563800Y-134797800D03*
X78663800Y-134797800D03*
X69718000Y-92456000D03*
X67818000Y-92456000D03*
D36*
X76919667Y-153924000D03*
D37*
X75649667Y-153924000D03*
X76919667Y-152654000D03*
X75649667Y-152654000D03*
X76919667Y-151384000D03*
X75649667Y-151384000D03*
X76919667Y-150114000D03*
X75649667Y-150114000D03*
X76919667Y-148844000D03*
X75649667Y-148844000D03*
D39*
X68961000Y-130886200D03*
X67136000Y-130886200D03*
D23*
X90678000Y-118770091D03*
D24*
X93178000Y-118770091D03*
X95678000Y-118770091D03*
D40*
X85445000Y-113284000D03*
X85445000Y-112014000D03*
X85445000Y-110744000D03*
X85445000Y-109474000D03*
X85445000Y-108204000D03*
X85445000Y-106934000D03*
X85445000Y-105664000D03*
X85445000Y-104394000D03*
X85445000Y-103124000D03*
X85445000Y-101854000D03*
X85445000Y-100584000D03*
X85445000Y-99314000D03*
X85445000Y-98044000D03*
X85445000Y-96774000D03*
D41*
X83680000Y-95524000D03*
X82410000Y-95524000D03*
X81140000Y-95524000D03*
X79870000Y-95524000D03*
X78600000Y-95524000D03*
X77330000Y-95524000D03*
X76060000Y-95524000D03*
X74790000Y-95524000D03*
X73520000Y-95524000D03*
X72250000Y-95524000D03*
X70980000Y-95524000D03*
X69710000Y-95524000D03*
D40*
X67945000Y-96774000D03*
X67945000Y-98044000D03*
X67945000Y-99314000D03*
X67945000Y-100584000D03*
X67945000Y-101854000D03*
X67945000Y-103124000D03*
X67945000Y-104394000D03*
X67945000Y-105664000D03*
X67945000Y-106934000D03*
X67945000Y-108204000D03*
X67945000Y-109474000D03*
X67945000Y-110744000D03*
X67945000Y-112014000D03*
X67945000Y-113284000D03*
D42*
X79595000Y-106964000D03*
X79595000Y-105564000D03*
X79595000Y-104164000D03*
X78195000Y-106964000D03*
X78195000Y-105564000D03*
X78195000Y-104164000D03*
X76795000Y-106964000D03*
X76795000Y-105564000D03*
X76795000Y-104164000D03*
D23*
X88178000Y-125251272D03*
D24*
X90678000Y-125251272D03*
X93178000Y-125251272D03*
X95678000Y-125251272D03*
D43*
X83384600Y-66494200D03*
X77604600Y-66494200D03*
D44*
X84814600Y-66994200D03*
X76174600Y-66994200D03*
D45*
X84814600Y-62814200D03*
X76174600Y-62814200D03*
D46*
X95758000Y-151638000D03*
D47*
X95758000Y-149138000D03*
X95758000Y-146638000D03*
X95758000Y-144138000D03*
D25*
X68525000Y-89361500D03*
X73025000Y-89361500D03*
X68525000Y-80261500D03*
X73025000Y-80261500D03*
D30*
X67136000Y-127254000D03*
X68961000Y-127254000D03*
D48*
X74255000Y-132664200D03*
X72680000Y-132664200D03*
D28*
X78638400Y-137566400D03*
X80538400Y-137566400D03*
D49*
X69977000Y-161377000D03*
D50*
X69977000Y-158877000D03*
D30*
X67089000Y-123190000D03*
X68914000Y-123190000D03*
D51*
X67639400Y-134860000D03*
X67639400Y-137160000D03*
D52*
X73939400Y-137160000D03*
D51*
X67639400Y-139460000D03*
D28*
X78618000Y-129975429D03*
X80518000Y-129975429D03*
D36*
X83100333Y-153924000D03*
D37*
X81830333Y-153924000D03*
X83100333Y-152654000D03*
X81830333Y-152654000D03*
X83100333Y-151384000D03*
X81830333Y-151384000D03*
X83100333Y-150114000D03*
X81830333Y-150114000D03*
X83100333Y-148844000D03*
X81830333Y-148844000D03*
D38*
X80518000Y-123444000D03*
X78618000Y-123444000D03*
D53*
X69596000Y-76454000D03*
D54*
X69596000Y-70054000D03*
D36*
X89281000Y-153924000D03*
D37*
X88011000Y-153924000D03*
X89281000Y-152654000D03*
X88011000Y-152654000D03*
X89281000Y-151384000D03*
X88011000Y-151384000D03*
X89281000Y-150114000D03*
X88011000Y-150114000D03*
X89281000Y-148844000D03*
X88011000Y-148844000D03*
D23*
X90678000Y-79883000D03*
D24*
X93178000Y-79883000D03*
X95678000Y-79883000D03*
D55*
X74402950Y-162772850D03*
X74402950Y-157692850D03*
X76942950Y-162772850D03*
X76942950Y-160232850D03*
X76942950Y-157692850D03*
D21*
X53982000Y-67647000D03*
X54575109Y-66215109D03*
X54575109Y-69078891D03*
X56007000Y-65622000D03*
D56*
X56007000Y-67647000D03*
D21*
X56007000Y-69672000D03*
X57438891Y-66215109D03*
X57438891Y-69078891D03*
X58032000Y-67647000D03*
D23*
X88178000Y-131732454D03*
D24*
X90678000Y-131732454D03*
X93178000Y-131732454D03*
X95678000Y-131732454D03*
D23*
X90703400Y-73736200D03*
D24*
X93203400Y-73736200D03*
X95703400Y-73736200D03*
D21*
X53982000Y-125647000D03*
X54575109Y-124215109D03*
X54575109Y-127078891D03*
X56007000Y-123622000D03*
D56*
X56007000Y-125647000D03*
D21*
X56007000Y-127672000D03*
X57438891Y-124215109D03*
X57438891Y-127078891D03*
X58032000Y-125647000D03*
D29*
X63373000Y-63373000D03*
D21*
X73032000Y-144772620D03*
X73581175Y-143446795D03*
X73581175Y-146098445D03*
X74907000Y-142897620D03*
D22*
X74907000Y-144772620D03*
D21*
X74907000Y-146647620D03*
X76232825Y-143446795D03*
X76232825Y-146098445D03*
X76782000Y-144772620D03*
D29*
X70739000Y-63373000D03*
D57*
X96393000Y-158536000D03*
D50*
X96393000Y-161036000D03*
D58*
X82749600Y-71425800D03*
X82749600Y-73075800D03*
D23*
X90678000Y-92845363D03*
D24*
X93178000Y-92845363D03*
X95678000Y-92845363D03*
%LPD*%
M02*
