%TF.GenerationSoftware,KiCad,Pcbnew,9.0.0*%
%TF.CreationDate,2025-04-10T20:16:36-07:00*%
%TF.ProjectId,ESP32_S2_SOLO_N4 Kicad Reference Design,45535033-325f-4533-925f-534f4c4f5f4e,rev?*%
%TF.SameCoordinates,Original*%
%TF.FileFunction,Drillmap*%
%TF.FilePolarity,Positive*%
%FSLAX45Y45*%
G04 Gerber Fmt 4.5, Leading zero omitted, Abs format (unit mm)*
G04 Created by KiCad (PCBNEW 9.0.0) date 2025-04-10 20:16:36*
%MOMM*%
%LPD*%
G01*
G04 APERTURE LIST*
%ADD10C,0.100000*%
%ADD11C,0.200000*%
G04 APERTURE END LIST*
D10*
X9880600Y-16497300D02*
X6591300Y-16497300D01*
X4991100Y-6764700D02*
X4991100Y-6631940D01*
X5600700Y-13174300D02*
G75*
G02*
X4991100Y-12564700I0J609600D01*
G01*
X5981700Y-13182600D02*
G75*
G02*
X6591300Y-13792200I0J-609600D01*
G01*
X6591300Y-16497300D02*
X6591300Y-13792200D01*
X5600700Y-6022340D02*
X9880600Y-6022340D01*
X5600700Y-13174300D02*
X5981700Y-13182600D01*
X4991100Y-6764700D02*
X4991100Y-12564700D01*
X4991100Y-6631940D02*
G75*
G02*
X5600700Y-6022340I609600J0D01*
G01*
X9880600Y-6155100D02*
X9880600Y-6022340D01*
X9880600Y-6155100D02*
X9880600Y-16497300D01*
D11*
D10*
X7727960Y-6616920D02*
X7792960Y-6681920D01*
X7792960Y-6616920D02*
X7727960Y-6681920D01*
X8305960Y-6616920D02*
X8370960Y-6681920D01*
X8370960Y-6616920D02*
X8305960Y-6681920D01*
D11*
X5246877Y-16813784D02*
X5246877Y-16613784D01*
X5246877Y-16613784D02*
X5294496Y-16613784D01*
X5294496Y-16613784D02*
X5323067Y-16623308D01*
X5323067Y-16623308D02*
X5342115Y-16642355D01*
X5342115Y-16642355D02*
X5351639Y-16661403D01*
X5351639Y-16661403D02*
X5361163Y-16699498D01*
X5361163Y-16699498D02*
X5361163Y-16728069D01*
X5361163Y-16728069D02*
X5351639Y-16766165D01*
X5351639Y-16766165D02*
X5342115Y-16785212D01*
X5342115Y-16785212D02*
X5323067Y-16804260D01*
X5323067Y-16804260D02*
X5294496Y-16813784D01*
X5294496Y-16813784D02*
X5246877Y-16813784D01*
X5446877Y-16813784D02*
X5446877Y-16680450D01*
X5446877Y-16718546D02*
X5456401Y-16699498D01*
X5456401Y-16699498D02*
X5465924Y-16689974D01*
X5465924Y-16689974D02*
X5484972Y-16680450D01*
X5484972Y-16680450D02*
X5504020Y-16680450D01*
X5570686Y-16813784D02*
X5570686Y-16680450D01*
X5570686Y-16613784D02*
X5561163Y-16623308D01*
X5561163Y-16623308D02*
X5570686Y-16632831D01*
X5570686Y-16632831D02*
X5580210Y-16623308D01*
X5580210Y-16623308D02*
X5570686Y-16613784D01*
X5570686Y-16613784D02*
X5570686Y-16632831D01*
X5694496Y-16813784D02*
X5675448Y-16804260D01*
X5675448Y-16804260D02*
X5665924Y-16785212D01*
X5665924Y-16785212D02*
X5665924Y-16613784D01*
X5799258Y-16813784D02*
X5780210Y-16804260D01*
X5780210Y-16804260D02*
X5770686Y-16785212D01*
X5770686Y-16785212D02*
X5770686Y-16613784D01*
X6027829Y-16813784D02*
X6027829Y-16613784D01*
X6027829Y-16613784D02*
X6094496Y-16756641D01*
X6094496Y-16756641D02*
X6161162Y-16613784D01*
X6161162Y-16613784D02*
X6161162Y-16813784D01*
X6342115Y-16813784D02*
X6342115Y-16709022D01*
X6342115Y-16709022D02*
X6332591Y-16689974D01*
X6332591Y-16689974D02*
X6313543Y-16680450D01*
X6313543Y-16680450D02*
X6275448Y-16680450D01*
X6275448Y-16680450D02*
X6256401Y-16689974D01*
X6342115Y-16804260D02*
X6323067Y-16813784D01*
X6323067Y-16813784D02*
X6275448Y-16813784D01*
X6275448Y-16813784D02*
X6256401Y-16804260D01*
X6256401Y-16804260D02*
X6246877Y-16785212D01*
X6246877Y-16785212D02*
X6246877Y-16766165D01*
X6246877Y-16766165D02*
X6256401Y-16747117D01*
X6256401Y-16747117D02*
X6275448Y-16737593D01*
X6275448Y-16737593D02*
X6323067Y-16737593D01*
X6323067Y-16737593D02*
X6342115Y-16728069D01*
X6437353Y-16680450D02*
X6437353Y-16880450D01*
X6437353Y-16689974D02*
X6456401Y-16680450D01*
X6456401Y-16680450D02*
X6494496Y-16680450D01*
X6494496Y-16680450D02*
X6513543Y-16689974D01*
X6513543Y-16689974D02*
X6523067Y-16699498D01*
X6523067Y-16699498D02*
X6532591Y-16718546D01*
X6532591Y-16718546D02*
X6532591Y-16775688D01*
X6532591Y-16775688D02*
X6523067Y-16794736D01*
X6523067Y-16794736D02*
X6513543Y-16804260D01*
X6513543Y-16804260D02*
X6494496Y-16813784D01*
X6494496Y-16813784D02*
X6456401Y-16813784D01*
X6456401Y-16813784D02*
X6437353Y-16804260D01*
X6618305Y-16794736D02*
X6627829Y-16804260D01*
X6627829Y-16804260D02*
X6618305Y-16813784D01*
X6618305Y-16813784D02*
X6608782Y-16804260D01*
X6608782Y-16804260D02*
X6618305Y-16794736D01*
X6618305Y-16794736D02*
X6618305Y-16813784D01*
X6618305Y-16689974D02*
X6627829Y-16699498D01*
X6627829Y-16699498D02*
X6618305Y-16709022D01*
X6618305Y-16709022D02*
X6608782Y-16699498D01*
X6608782Y-16699498D02*
X6618305Y-16689974D01*
X6618305Y-16689974D02*
X6618305Y-16709022D01*
D10*
X4921100Y-17109800D02*
X4986100Y-17174800D01*
X4986100Y-17109800D02*
X4921100Y-17174800D01*
D11*
X5284972Y-17033784D02*
X5304020Y-17033784D01*
X5304020Y-17033784D02*
X5323067Y-17043308D01*
X5323067Y-17043308D02*
X5332591Y-17052831D01*
X5332591Y-17052831D02*
X5342115Y-17071879D01*
X5342115Y-17071879D02*
X5351639Y-17109974D01*
X5351639Y-17109974D02*
X5351639Y-17157593D01*
X5351639Y-17157593D02*
X5342115Y-17195689D01*
X5342115Y-17195689D02*
X5332591Y-17214736D01*
X5332591Y-17214736D02*
X5323067Y-17224260D01*
X5323067Y-17224260D02*
X5304020Y-17233784D01*
X5304020Y-17233784D02*
X5284972Y-17233784D01*
X5284972Y-17233784D02*
X5265924Y-17224260D01*
X5265924Y-17224260D02*
X5256401Y-17214736D01*
X5256401Y-17214736D02*
X5246877Y-17195689D01*
X5246877Y-17195689D02*
X5237353Y-17157593D01*
X5237353Y-17157593D02*
X5237353Y-17109974D01*
X5237353Y-17109974D02*
X5246877Y-17071879D01*
X5246877Y-17071879D02*
X5256401Y-17052831D01*
X5256401Y-17052831D02*
X5265924Y-17043308D01*
X5265924Y-17043308D02*
X5284972Y-17033784D01*
X5437353Y-17214736D02*
X5446877Y-17224260D01*
X5446877Y-17224260D02*
X5437353Y-17233784D01*
X5437353Y-17233784D02*
X5427829Y-17224260D01*
X5427829Y-17224260D02*
X5437353Y-17214736D01*
X5437353Y-17214736D02*
X5437353Y-17233784D01*
X5618305Y-17033784D02*
X5580210Y-17033784D01*
X5580210Y-17033784D02*
X5561163Y-17043308D01*
X5561163Y-17043308D02*
X5551639Y-17052831D01*
X5551639Y-17052831D02*
X5532591Y-17081403D01*
X5532591Y-17081403D02*
X5523067Y-17119498D01*
X5523067Y-17119498D02*
X5523067Y-17195689D01*
X5523067Y-17195689D02*
X5532591Y-17214736D01*
X5532591Y-17214736D02*
X5542115Y-17224260D01*
X5542115Y-17224260D02*
X5561163Y-17233784D01*
X5561163Y-17233784D02*
X5599258Y-17233784D01*
X5599258Y-17233784D02*
X5618305Y-17224260D01*
X5618305Y-17224260D02*
X5627829Y-17214736D01*
X5627829Y-17214736D02*
X5637353Y-17195689D01*
X5637353Y-17195689D02*
X5637353Y-17148070D01*
X5637353Y-17148070D02*
X5627829Y-17129022D01*
X5627829Y-17129022D02*
X5618305Y-17119498D01*
X5618305Y-17119498D02*
X5599258Y-17109974D01*
X5599258Y-17109974D02*
X5561163Y-17109974D01*
X5561163Y-17109974D02*
X5542115Y-17119498D01*
X5542115Y-17119498D02*
X5532591Y-17129022D01*
X5532591Y-17129022D02*
X5523067Y-17148070D01*
X5818305Y-17033784D02*
X5723067Y-17033784D01*
X5723067Y-17033784D02*
X5713543Y-17129022D01*
X5713543Y-17129022D02*
X5723067Y-17119498D01*
X5723067Y-17119498D02*
X5742115Y-17109974D01*
X5742115Y-17109974D02*
X5789734Y-17109974D01*
X5789734Y-17109974D02*
X5808782Y-17119498D01*
X5808782Y-17119498D02*
X5818305Y-17129022D01*
X5818305Y-17129022D02*
X5827829Y-17148070D01*
X5827829Y-17148070D02*
X5827829Y-17195689D01*
X5827829Y-17195689D02*
X5818305Y-17214736D01*
X5818305Y-17214736D02*
X5808782Y-17224260D01*
X5808782Y-17224260D02*
X5789734Y-17233784D01*
X5789734Y-17233784D02*
X5742115Y-17233784D01*
X5742115Y-17233784D02*
X5723067Y-17224260D01*
X5723067Y-17224260D02*
X5713543Y-17214736D01*
X5951639Y-17033784D02*
X5970686Y-17033784D01*
X5970686Y-17033784D02*
X5989734Y-17043308D01*
X5989734Y-17043308D02*
X5999258Y-17052831D01*
X5999258Y-17052831D02*
X6008782Y-17071879D01*
X6008782Y-17071879D02*
X6018305Y-17109974D01*
X6018305Y-17109974D02*
X6018305Y-17157593D01*
X6018305Y-17157593D02*
X6008782Y-17195689D01*
X6008782Y-17195689D02*
X5999258Y-17214736D01*
X5999258Y-17214736D02*
X5989734Y-17224260D01*
X5989734Y-17224260D02*
X5970686Y-17233784D01*
X5970686Y-17233784D02*
X5951639Y-17233784D01*
X5951639Y-17233784D02*
X5932591Y-17224260D01*
X5932591Y-17224260D02*
X5923067Y-17214736D01*
X5923067Y-17214736D02*
X5913543Y-17195689D01*
X5913543Y-17195689D02*
X5904020Y-17157593D01*
X5904020Y-17157593D02*
X5904020Y-17109974D01*
X5904020Y-17109974D02*
X5913543Y-17071879D01*
X5913543Y-17071879D02*
X5923067Y-17052831D01*
X5923067Y-17052831D02*
X5932591Y-17043308D01*
X5932591Y-17043308D02*
X5951639Y-17033784D01*
X6104020Y-17233784D02*
X6104020Y-17100450D01*
X6104020Y-17119498D02*
X6113543Y-17109974D01*
X6113543Y-17109974D02*
X6132591Y-17100450D01*
X6132591Y-17100450D02*
X6161163Y-17100450D01*
X6161163Y-17100450D02*
X6180210Y-17109974D01*
X6180210Y-17109974D02*
X6189734Y-17129022D01*
X6189734Y-17129022D02*
X6189734Y-17233784D01*
X6189734Y-17129022D02*
X6199258Y-17109974D01*
X6199258Y-17109974D02*
X6218305Y-17100450D01*
X6218305Y-17100450D02*
X6246877Y-17100450D01*
X6246877Y-17100450D02*
X6265924Y-17109974D01*
X6265924Y-17109974D02*
X6275448Y-17129022D01*
X6275448Y-17129022D02*
X6275448Y-17233784D01*
X6370686Y-17233784D02*
X6370686Y-17100450D01*
X6370686Y-17119498D02*
X6380210Y-17109974D01*
X6380210Y-17109974D02*
X6399258Y-17100450D01*
X6399258Y-17100450D02*
X6427829Y-17100450D01*
X6427829Y-17100450D02*
X6446877Y-17109974D01*
X6446877Y-17109974D02*
X6456401Y-17129022D01*
X6456401Y-17129022D02*
X6456401Y-17233784D01*
X6456401Y-17129022D02*
X6465924Y-17109974D01*
X6465924Y-17109974D02*
X6484972Y-17100450D01*
X6484972Y-17100450D02*
X6513543Y-17100450D01*
X6513543Y-17100450D02*
X6532591Y-17109974D01*
X6532591Y-17109974D02*
X6542115Y-17129022D01*
X6542115Y-17129022D02*
X6542115Y-17233784D01*
X6932591Y-17024260D02*
X6761163Y-17281403D01*
X7189734Y-17033784D02*
X7208782Y-17033784D01*
X7208782Y-17033784D02*
X7227829Y-17043308D01*
X7227829Y-17043308D02*
X7237353Y-17052831D01*
X7237353Y-17052831D02*
X7246877Y-17071879D01*
X7246877Y-17071879D02*
X7256401Y-17109974D01*
X7256401Y-17109974D02*
X7256401Y-17157593D01*
X7256401Y-17157593D02*
X7246877Y-17195689D01*
X7246877Y-17195689D02*
X7237353Y-17214736D01*
X7237353Y-17214736D02*
X7227829Y-17224260D01*
X7227829Y-17224260D02*
X7208782Y-17233784D01*
X7208782Y-17233784D02*
X7189734Y-17233784D01*
X7189734Y-17233784D02*
X7170686Y-17224260D01*
X7170686Y-17224260D02*
X7161163Y-17214736D01*
X7161163Y-17214736D02*
X7151639Y-17195689D01*
X7151639Y-17195689D02*
X7142115Y-17157593D01*
X7142115Y-17157593D02*
X7142115Y-17109974D01*
X7142115Y-17109974D02*
X7151639Y-17071879D01*
X7151639Y-17071879D02*
X7161163Y-17052831D01*
X7161163Y-17052831D02*
X7170686Y-17043308D01*
X7170686Y-17043308D02*
X7189734Y-17033784D01*
X7342115Y-17214736D02*
X7351639Y-17224260D01*
X7351639Y-17224260D02*
X7342115Y-17233784D01*
X7342115Y-17233784D02*
X7332591Y-17224260D01*
X7332591Y-17224260D02*
X7342115Y-17214736D01*
X7342115Y-17214736D02*
X7342115Y-17233784D01*
X7475448Y-17033784D02*
X7494496Y-17033784D01*
X7494496Y-17033784D02*
X7513544Y-17043308D01*
X7513544Y-17043308D02*
X7523067Y-17052831D01*
X7523067Y-17052831D02*
X7532591Y-17071879D01*
X7532591Y-17071879D02*
X7542115Y-17109974D01*
X7542115Y-17109974D02*
X7542115Y-17157593D01*
X7542115Y-17157593D02*
X7532591Y-17195689D01*
X7532591Y-17195689D02*
X7523067Y-17214736D01*
X7523067Y-17214736D02*
X7513544Y-17224260D01*
X7513544Y-17224260D02*
X7494496Y-17233784D01*
X7494496Y-17233784D02*
X7475448Y-17233784D01*
X7475448Y-17233784D02*
X7456401Y-17224260D01*
X7456401Y-17224260D02*
X7446877Y-17214736D01*
X7446877Y-17214736D02*
X7437353Y-17195689D01*
X7437353Y-17195689D02*
X7427829Y-17157593D01*
X7427829Y-17157593D02*
X7427829Y-17109974D01*
X7427829Y-17109974D02*
X7437353Y-17071879D01*
X7437353Y-17071879D02*
X7446877Y-17052831D01*
X7446877Y-17052831D02*
X7456401Y-17043308D01*
X7456401Y-17043308D02*
X7475448Y-17033784D01*
X7618306Y-17052831D02*
X7627829Y-17043308D01*
X7627829Y-17043308D02*
X7646877Y-17033784D01*
X7646877Y-17033784D02*
X7694496Y-17033784D01*
X7694496Y-17033784D02*
X7713544Y-17043308D01*
X7713544Y-17043308D02*
X7723067Y-17052831D01*
X7723067Y-17052831D02*
X7732591Y-17071879D01*
X7732591Y-17071879D02*
X7732591Y-17090927D01*
X7732591Y-17090927D02*
X7723067Y-17119498D01*
X7723067Y-17119498D02*
X7608782Y-17233784D01*
X7608782Y-17233784D02*
X7732591Y-17233784D01*
X7913544Y-17033784D02*
X7818306Y-17033784D01*
X7818306Y-17033784D02*
X7808782Y-17129022D01*
X7808782Y-17129022D02*
X7818306Y-17119498D01*
X7818306Y-17119498D02*
X7837353Y-17109974D01*
X7837353Y-17109974D02*
X7884972Y-17109974D01*
X7884972Y-17109974D02*
X7904020Y-17119498D01*
X7904020Y-17119498D02*
X7913544Y-17129022D01*
X7913544Y-17129022D02*
X7923067Y-17148070D01*
X7923067Y-17148070D02*
X7923067Y-17195689D01*
X7923067Y-17195689D02*
X7913544Y-17214736D01*
X7913544Y-17214736D02*
X7904020Y-17224260D01*
X7904020Y-17224260D02*
X7884972Y-17233784D01*
X7884972Y-17233784D02*
X7837353Y-17233784D01*
X7837353Y-17233784D02*
X7818306Y-17224260D01*
X7818306Y-17224260D02*
X7808782Y-17214736D01*
X8094496Y-17033784D02*
X8056401Y-17033784D01*
X8056401Y-17033784D02*
X8037353Y-17043308D01*
X8037353Y-17043308D02*
X8027829Y-17052831D01*
X8027829Y-17052831D02*
X8008782Y-17081403D01*
X8008782Y-17081403D02*
X7999258Y-17119498D01*
X7999258Y-17119498D02*
X7999258Y-17195689D01*
X7999258Y-17195689D02*
X8008782Y-17214736D01*
X8008782Y-17214736D02*
X8018306Y-17224260D01*
X8018306Y-17224260D02*
X8037353Y-17233784D01*
X8037353Y-17233784D02*
X8075448Y-17233784D01*
X8075448Y-17233784D02*
X8094496Y-17224260D01*
X8094496Y-17224260D02*
X8104020Y-17214736D01*
X8104020Y-17214736D02*
X8113544Y-17195689D01*
X8113544Y-17195689D02*
X8113544Y-17148070D01*
X8113544Y-17148070D02*
X8104020Y-17129022D01*
X8104020Y-17129022D02*
X8094496Y-17119498D01*
X8094496Y-17119498D02*
X8075448Y-17109974D01*
X8075448Y-17109974D02*
X8037353Y-17109974D01*
X8037353Y-17109974D02*
X8018306Y-17119498D01*
X8018306Y-17119498D02*
X8008782Y-17129022D01*
X8008782Y-17129022D02*
X7999258Y-17148070D01*
X8189734Y-17033784D02*
X8189734Y-17071879D01*
X8265925Y-17033784D02*
X8265925Y-17071879D01*
X8561163Y-17309974D02*
X8551639Y-17300450D01*
X8551639Y-17300450D02*
X8532591Y-17271879D01*
X8532591Y-17271879D02*
X8523068Y-17252831D01*
X8523068Y-17252831D02*
X8513544Y-17224260D01*
X8513544Y-17224260D02*
X8504020Y-17176641D01*
X8504020Y-17176641D02*
X8504020Y-17138546D01*
X8504020Y-17138546D02*
X8513544Y-17090927D01*
X8513544Y-17090927D02*
X8523068Y-17062355D01*
X8523068Y-17062355D02*
X8532591Y-17043308D01*
X8532591Y-17043308D02*
X8551639Y-17014736D01*
X8551639Y-17014736D02*
X8561163Y-17005212D01*
X8627830Y-17052831D02*
X8637353Y-17043308D01*
X8637353Y-17043308D02*
X8656401Y-17033784D01*
X8656401Y-17033784D02*
X8704020Y-17033784D01*
X8704020Y-17033784D02*
X8723068Y-17043308D01*
X8723068Y-17043308D02*
X8732591Y-17052831D01*
X8732591Y-17052831D02*
X8742115Y-17071879D01*
X8742115Y-17071879D02*
X8742115Y-17090927D01*
X8742115Y-17090927D02*
X8732591Y-17119498D01*
X8732591Y-17119498D02*
X8618306Y-17233784D01*
X8618306Y-17233784D02*
X8742115Y-17233784D01*
X8980211Y-17233784D02*
X8980211Y-17033784D01*
X9065925Y-17233784D02*
X9065925Y-17129022D01*
X9065925Y-17129022D02*
X9056401Y-17109974D01*
X9056401Y-17109974D02*
X9037353Y-17100450D01*
X9037353Y-17100450D02*
X9008782Y-17100450D01*
X9008782Y-17100450D02*
X8989734Y-17109974D01*
X8989734Y-17109974D02*
X8980211Y-17119498D01*
X9189734Y-17233784D02*
X9170687Y-17224260D01*
X9170687Y-17224260D02*
X9161163Y-17214736D01*
X9161163Y-17214736D02*
X9151639Y-17195689D01*
X9151639Y-17195689D02*
X9151639Y-17138546D01*
X9151639Y-17138546D02*
X9161163Y-17119498D01*
X9161163Y-17119498D02*
X9170687Y-17109974D01*
X9170687Y-17109974D02*
X9189734Y-17100450D01*
X9189734Y-17100450D02*
X9218306Y-17100450D01*
X9218306Y-17100450D02*
X9237353Y-17109974D01*
X9237353Y-17109974D02*
X9246877Y-17119498D01*
X9246877Y-17119498D02*
X9256401Y-17138546D01*
X9256401Y-17138546D02*
X9256401Y-17195689D01*
X9256401Y-17195689D02*
X9246877Y-17214736D01*
X9246877Y-17214736D02*
X9237353Y-17224260D01*
X9237353Y-17224260D02*
X9218306Y-17233784D01*
X9218306Y-17233784D02*
X9189734Y-17233784D01*
X9370687Y-17233784D02*
X9351639Y-17224260D01*
X9351639Y-17224260D02*
X9342115Y-17205212D01*
X9342115Y-17205212D02*
X9342115Y-17033784D01*
X9523068Y-17224260D02*
X9504020Y-17233784D01*
X9504020Y-17233784D02*
X9465925Y-17233784D01*
X9465925Y-17233784D02*
X9446877Y-17224260D01*
X9446877Y-17224260D02*
X9437353Y-17205212D01*
X9437353Y-17205212D02*
X9437353Y-17129022D01*
X9437353Y-17129022D02*
X9446877Y-17109974D01*
X9446877Y-17109974D02*
X9465925Y-17100450D01*
X9465925Y-17100450D02*
X9504020Y-17100450D01*
X9504020Y-17100450D02*
X9523068Y-17109974D01*
X9523068Y-17109974D02*
X9532592Y-17129022D01*
X9532592Y-17129022D02*
X9532592Y-17148070D01*
X9532592Y-17148070D02*
X9437353Y-17167117D01*
X9608782Y-17224260D02*
X9627830Y-17233784D01*
X9627830Y-17233784D02*
X9665925Y-17233784D01*
X9665925Y-17233784D02*
X9684973Y-17224260D01*
X9684973Y-17224260D02*
X9694496Y-17205212D01*
X9694496Y-17205212D02*
X9694496Y-17195689D01*
X9694496Y-17195689D02*
X9684973Y-17176641D01*
X9684973Y-17176641D02*
X9665925Y-17167117D01*
X9665925Y-17167117D02*
X9637353Y-17167117D01*
X9637353Y-17167117D02*
X9618306Y-17157593D01*
X9618306Y-17157593D02*
X9608782Y-17138546D01*
X9608782Y-17138546D02*
X9608782Y-17129022D01*
X9608782Y-17129022D02*
X9618306Y-17109974D01*
X9618306Y-17109974D02*
X9637353Y-17100450D01*
X9637353Y-17100450D02*
X9665925Y-17100450D01*
X9665925Y-17100450D02*
X9684973Y-17109974D01*
X9761163Y-17309974D02*
X9770687Y-17300450D01*
X9770687Y-17300450D02*
X9789734Y-17271879D01*
X9789734Y-17271879D02*
X9799258Y-17252831D01*
X9799258Y-17252831D02*
X9808782Y-17224260D01*
X9808782Y-17224260D02*
X9818306Y-17176641D01*
X9818306Y-17176641D02*
X9818306Y-17138546D01*
X9818306Y-17138546D02*
X9808782Y-17090927D01*
X9808782Y-17090927D02*
X9799258Y-17062355D01*
X9799258Y-17062355D02*
X9789734Y-17043308D01*
X9789734Y-17043308D02*
X9770687Y-17014736D01*
X9770687Y-17014736D02*
X9761163Y-17005212D01*
X10123068Y-17309974D02*
X10113544Y-17300450D01*
X10113544Y-17300450D02*
X10094496Y-17271879D01*
X10094496Y-17271879D02*
X10084973Y-17252831D01*
X10084973Y-17252831D02*
X10075449Y-17224260D01*
X10075449Y-17224260D02*
X10065925Y-17176641D01*
X10065925Y-17176641D02*
X10065925Y-17138546D01*
X10065925Y-17138546D02*
X10075449Y-17090927D01*
X10075449Y-17090927D02*
X10084973Y-17062355D01*
X10084973Y-17062355D02*
X10094496Y-17043308D01*
X10094496Y-17043308D02*
X10113544Y-17014736D01*
X10113544Y-17014736D02*
X10123068Y-17005212D01*
X10199258Y-17100450D02*
X10199258Y-17233784D01*
X10199258Y-17119498D02*
X10208782Y-17109974D01*
X10208782Y-17109974D02*
X10227830Y-17100450D01*
X10227830Y-17100450D02*
X10256401Y-17100450D01*
X10256401Y-17100450D02*
X10275449Y-17109974D01*
X10275449Y-17109974D02*
X10284973Y-17129022D01*
X10284973Y-17129022D02*
X10284973Y-17233784D01*
X10408782Y-17233784D02*
X10389734Y-17224260D01*
X10389734Y-17224260D02*
X10380211Y-17214736D01*
X10380211Y-17214736D02*
X10370687Y-17195689D01*
X10370687Y-17195689D02*
X10370687Y-17138546D01*
X10370687Y-17138546D02*
X10380211Y-17119498D01*
X10380211Y-17119498D02*
X10389734Y-17109974D01*
X10389734Y-17109974D02*
X10408782Y-17100450D01*
X10408782Y-17100450D02*
X10437354Y-17100450D01*
X10437354Y-17100450D02*
X10456401Y-17109974D01*
X10456401Y-17109974D02*
X10465925Y-17119498D01*
X10465925Y-17119498D02*
X10475449Y-17138546D01*
X10475449Y-17138546D02*
X10475449Y-17195689D01*
X10475449Y-17195689D02*
X10465925Y-17214736D01*
X10465925Y-17214736D02*
X10456401Y-17224260D01*
X10456401Y-17224260D02*
X10437354Y-17233784D01*
X10437354Y-17233784D02*
X10408782Y-17233784D01*
X10532592Y-17100450D02*
X10608782Y-17100450D01*
X10561163Y-17033784D02*
X10561163Y-17205212D01*
X10561163Y-17205212D02*
X10570687Y-17224260D01*
X10570687Y-17224260D02*
X10589734Y-17233784D01*
X10589734Y-17233784D02*
X10608782Y-17233784D01*
X10827830Y-17100450D02*
X10827830Y-17300450D01*
X10827830Y-17109974D02*
X10846877Y-17100450D01*
X10846877Y-17100450D02*
X10884973Y-17100450D01*
X10884973Y-17100450D02*
X10904020Y-17109974D01*
X10904020Y-17109974D02*
X10913544Y-17119498D01*
X10913544Y-17119498D02*
X10923068Y-17138546D01*
X10923068Y-17138546D02*
X10923068Y-17195689D01*
X10923068Y-17195689D02*
X10913544Y-17214736D01*
X10913544Y-17214736D02*
X10904020Y-17224260D01*
X10904020Y-17224260D02*
X10884973Y-17233784D01*
X10884973Y-17233784D02*
X10846877Y-17233784D01*
X10846877Y-17233784D02*
X10827830Y-17224260D01*
X11037354Y-17233784D02*
X11018306Y-17224260D01*
X11018306Y-17224260D02*
X11008782Y-17205212D01*
X11008782Y-17205212D02*
X11008782Y-17033784D01*
X11199258Y-17233784D02*
X11199258Y-17129022D01*
X11199258Y-17129022D02*
X11189734Y-17109974D01*
X11189734Y-17109974D02*
X11170687Y-17100450D01*
X11170687Y-17100450D02*
X11132592Y-17100450D01*
X11132592Y-17100450D02*
X11113544Y-17109974D01*
X11199258Y-17224260D02*
X11180211Y-17233784D01*
X11180211Y-17233784D02*
X11132592Y-17233784D01*
X11132592Y-17233784D02*
X11113544Y-17224260D01*
X11113544Y-17224260D02*
X11104020Y-17205212D01*
X11104020Y-17205212D02*
X11104020Y-17186165D01*
X11104020Y-17186165D02*
X11113544Y-17167117D01*
X11113544Y-17167117D02*
X11132592Y-17157593D01*
X11132592Y-17157593D02*
X11180211Y-17157593D01*
X11180211Y-17157593D02*
X11199258Y-17148070D01*
X11265925Y-17100450D02*
X11342115Y-17100450D01*
X11294496Y-17033784D02*
X11294496Y-17205212D01*
X11294496Y-17205212D02*
X11304020Y-17224260D01*
X11304020Y-17224260D02*
X11323068Y-17233784D01*
X11323068Y-17233784D02*
X11342115Y-17233784D01*
X11484973Y-17224260D02*
X11465925Y-17233784D01*
X11465925Y-17233784D02*
X11427830Y-17233784D01*
X11427830Y-17233784D02*
X11408782Y-17224260D01*
X11408782Y-17224260D02*
X11399258Y-17205212D01*
X11399258Y-17205212D02*
X11399258Y-17129022D01*
X11399258Y-17129022D02*
X11408782Y-17109974D01*
X11408782Y-17109974D02*
X11427830Y-17100450D01*
X11427830Y-17100450D02*
X11465925Y-17100450D01*
X11465925Y-17100450D02*
X11484973Y-17109974D01*
X11484973Y-17109974D02*
X11494496Y-17129022D01*
X11494496Y-17129022D02*
X11494496Y-17148070D01*
X11494496Y-17148070D02*
X11399258Y-17167117D01*
X11665925Y-17233784D02*
X11665925Y-17033784D01*
X11665925Y-17224260D02*
X11646877Y-17233784D01*
X11646877Y-17233784D02*
X11608782Y-17233784D01*
X11608782Y-17233784D02*
X11589734Y-17224260D01*
X11589734Y-17224260D02*
X11580211Y-17214736D01*
X11580211Y-17214736D02*
X11570687Y-17195689D01*
X11570687Y-17195689D02*
X11570687Y-17138546D01*
X11570687Y-17138546D02*
X11580211Y-17119498D01*
X11580211Y-17119498D02*
X11589734Y-17109974D01*
X11589734Y-17109974D02*
X11608782Y-17100450D01*
X11608782Y-17100450D02*
X11646877Y-17100450D01*
X11646877Y-17100450D02*
X11665925Y-17109974D01*
X11742115Y-17309974D02*
X11751639Y-17300450D01*
X11751639Y-17300450D02*
X11770687Y-17271879D01*
X11770687Y-17271879D02*
X11780211Y-17252831D01*
X11780211Y-17252831D02*
X11789734Y-17224260D01*
X11789734Y-17224260D02*
X11799258Y-17176641D01*
X11799258Y-17176641D02*
X11799258Y-17138546D01*
X11799258Y-17138546D02*
X11789734Y-17090927D01*
X11789734Y-17090927D02*
X11780211Y-17062355D01*
X11780211Y-17062355D02*
X11770687Y-17043308D01*
X11770687Y-17043308D02*
X11751639Y-17014736D01*
X11751639Y-17014736D02*
X11742115Y-17005212D01*
M02*
