G04 #@! TF.GenerationSoftware,KiCad,Pcbnew,9.0.0*
G04 #@! TF.CreationDate,2025-04-10T20:16:32-07:00*
G04 #@! TF.ProjectId,ESP32_S2_SOLO_N4 Kicad Reference Design,45535033-325f-4533-925f-534f4c4f5f4e,rev?*
G04 #@! TF.SameCoordinates,Original*
G04 #@! TF.FileFunction,Soldermask,Top*
G04 #@! TF.FilePolarity,Negative*
%FSLAX46Y46*%
G04 Gerber Fmt 4.6, Leading zero omitted, Abs format (unit mm)*
G04 Created by KiCad (PCBNEW 9.0.0) date 2025-04-10 20:16:32*
%MOMM*%
%LPD*%
G01*
G04 APERTURE LIST*
G04 Aperture macros list*
%AMRoundRect*
0 Rectangle with rounded corners*
0 $1 Rounding radius*
0 $2 $3 $4 $5 $6 $7 $8 $9 X,Y pos of 4 corners*
0 Add a 4 corners polygon primitive as box body*
4,1,4,$2,$3,$4,$5,$6,$7,$8,$9,$2,$3,0*
0 Add four circle primitives for the rounded corners*
1,1,$1+$1,$2,$3*
1,1,$1+$1,$4,$5*
1,1,$1+$1,$6,$7*
1,1,$1+$1,$8,$9*
0 Add four rect primitives between the rounded corners*
20,1,$1+$1,$2,$3,$4,$5,0*
20,1,$1+$1,$4,$5,$6,$7,0*
20,1,$1+$1,$6,$7,$8,$9,0*
20,1,$1+$1,$8,$9,$2,$3,0*%
%AMOutline4P*
0 Free polygon, 4 corners , with rotation*
0 The origin of the aperture is its center*
0 number of corners: always 4*
0 $1 to $8 corner X, Y*
0 $9 Rotation angle, in degrees counterclockwise*
0 create outline with 4 corners*
4,1,4,$1,$2,$3,$4,$5,$6,$7,$8,$1,$2,$9*%
G04 Aperture macros list end*
%ADD10C,0.010000*%
%ADD11RoundRect,0.250000X0.325000X0.650000X-0.325000X0.650000X-0.325000X-0.650000X0.325000X-0.650000X0*%
%ADD12RoundRect,0.225000X-0.225000X-0.250000X0.225000X-0.250000X0.225000X0.250000X-0.225000X0.250000X0*%
%ADD13C,0.850000*%
%ADD14C,5.000000*%
%ADD15RoundRect,0.250000X-0.600000X-0.725000X0.600000X-0.725000X0.600000X0.725000X-0.600000X0.725000X0*%
%ADD16O,1.700000X1.950000*%
%ADD17RoundRect,0.102000X0.700000X-1.050000X0.700000X1.050000X-0.700000X1.050000X-0.700000X-1.050000X0*%
%ADD18RoundRect,0.050000X-0.225000X-0.050000X0.225000X-0.050000X0.225000X0.050000X-0.225000X0.050000X0*%
%ADD19RoundRect,0.050000X0.050000X-0.225000X0.050000X0.225000X-0.050000X0.225000X-0.050000X-0.225000X0*%
%ADD20RoundRect,0.250000X-0.250000X-0.475000X0.250000X-0.475000X0.250000X0.475000X-0.250000X0.475000X0*%
%ADD21R,1.700000X1.700000*%
%ADD22RoundRect,0.250000X-0.262500X-0.450000X0.262500X-0.450000X0.262500X0.450000X-0.262500X0.450000X0*%
%ADD23RoundRect,0.200000X-0.200000X-0.275000X0.200000X-0.275000X0.200000X0.275000X-0.200000X0.275000X0*%
%ADD24RoundRect,0.200000X0.275000X-0.200000X0.275000X0.200000X-0.275000X0.200000X-0.275000X-0.200000X0*%
%ADD25Outline4P,-2.150000X-1.800000X2.150000X-0.800000X2.150000X0.800000X-2.150000X1.800000X0.000000*%
%ADD26Outline4P,-2.150000X-1.800000X2.150000X-0.800000X2.150000X0.800000X-2.150000X1.800000X180.000000*%
%ADD27O,1.700000X1.700000*%
%ADD28R,1.000000X1.000000*%
%ADD29O,1.000000X1.000000*%
%ADD30RoundRect,0.250000X0.250000X0.475000X-0.250000X0.475000X-0.250000X-0.475000X0.250000X-0.475000X0*%
%ADD31RoundRect,0.250000X0.262500X0.450000X-0.262500X0.450000X-0.262500X-0.450000X0.262500X-0.450000X0*%
%ADD32R,1.500000X0.900000*%
%ADD33R,0.900000X1.500000*%
%ADD34R,0.900000X0.900000*%
%ADD35C,0.650000*%
%ADD36O,1.204000X2.304000*%
%ADD37O,1.204000X2.004000*%
%ADD38RoundRect,0.250000X0.725000X-0.600000X0.725000X0.600000X-0.725000X0.600000X-0.725000X-0.600000X0*%
%ADD39O,1.950000X1.700000*%
%ADD40RoundRect,0.218750X0.218750X0.256250X-0.218750X0.256250X-0.218750X-0.256250X0.218750X-0.256250X0*%
%ADD41RoundRect,0.250000X0.750000X-0.600000X0.750000X0.600000X-0.750000X0.600000X-0.750000X-0.600000X0*%
%ADD42O,2.000000X1.700000*%
%ADD43RoundRect,0.375000X-0.625000X-0.375000X0.625000X-0.375000X0.625000X0.375000X-0.625000X0.375000X0*%
%ADD44RoundRect,0.500000X-0.500000X-1.400000X0.500000X-1.400000X0.500000X1.400000X-0.500000X1.400000X0*%
%ADD45Outline4P,-2.150000X-1.800000X2.150000X-0.800000X2.150000X0.800000X-2.150000X1.800000X90.000000*%
%ADD46Outline4P,-2.150000X-1.800000X2.150000X-0.800000X2.150000X0.800000X-2.150000X1.800000X270.000000*%
%ADD47C,1.117600*%
%ADD48C,5.400000*%
%ADD49RoundRect,0.250000X-0.750000X0.600000X-0.750000X-0.600000X0.750000X-0.600000X0.750000X0.600000X0*%
%ADD50RoundRect,0.200000X-0.275000X0.200000X-0.275000X-0.200000X0.275000X-0.200000X0.275000X0.200000X0*%
G04 APERTURE END LIST*
D10*
X77644600Y-68194200D02*
X76944600Y-68194200D01*
X76944600Y-66944200D01*
X77644600Y-66944200D01*
X77644600Y-68194200D01*
G36*
X77644600Y-68194200D02*
G01*
X76944600Y-68194200D01*
X76944600Y-66944200D01*
X77644600Y-66944200D01*
X77644600Y-68194200D01*
G37*
X78444600Y-68194200D02*
X77744600Y-68194200D01*
X77744600Y-66944200D01*
X78444600Y-66944200D01*
X78444600Y-68194200D01*
G36*
X78444600Y-68194200D02*
G01*
X77744600Y-68194200D01*
X77744600Y-66944200D01*
X78444600Y-66944200D01*
X78444600Y-68194200D01*
G37*
X78944600Y-68194200D02*
X78544600Y-68194200D01*
X78544600Y-66944200D01*
X78944600Y-66944200D01*
X78944600Y-68194200D01*
G36*
X78944600Y-68194200D02*
G01*
X78544600Y-68194200D01*
X78544600Y-66944200D01*
X78944600Y-66944200D01*
X78944600Y-68194200D01*
G37*
X79444600Y-68194200D02*
X79044600Y-68194200D01*
X79044600Y-66944200D01*
X79444600Y-66944200D01*
X79444600Y-68194200D01*
G36*
X79444600Y-68194200D02*
G01*
X79044600Y-68194200D01*
X79044600Y-66944200D01*
X79444600Y-66944200D01*
X79444600Y-68194200D01*
G37*
X79944600Y-68194200D02*
X79544600Y-68194200D01*
X79544600Y-66944200D01*
X79944600Y-66944200D01*
X79944600Y-68194200D01*
G36*
X79944600Y-68194200D02*
G01*
X79544600Y-68194200D01*
X79544600Y-66944200D01*
X79944600Y-66944200D01*
X79944600Y-68194200D01*
G37*
X80444600Y-68194200D02*
X80044600Y-68194200D01*
X80044600Y-66944200D01*
X80444600Y-66944200D01*
X80444600Y-68194200D01*
G36*
X80444600Y-68194200D02*
G01*
X80044600Y-68194200D01*
X80044600Y-66944200D01*
X80444600Y-66944200D01*
X80444600Y-68194200D01*
G37*
X80944600Y-68194200D02*
X80544600Y-68194200D01*
X80544600Y-66944200D01*
X80944600Y-66944200D01*
X80944600Y-68194200D01*
G36*
X80944600Y-68194200D02*
G01*
X80544600Y-68194200D01*
X80544600Y-66944200D01*
X80944600Y-66944200D01*
X80944600Y-68194200D01*
G37*
X81444600Y-68194200D02*
X81044600Y-68194200D01*
X81044600Y-66944200D01*
X81444600Y-66944200D01*
X81444600Y-68194200D01*
G36*
X81444600Y-68194200D02*
G01*
X81044600Y-68194200D01*
X81044600Y-66944200D01*
X81444600Y-66944200D01*
X81444600Y-68194200D01*
G37*
X81944600Y-68194200D02*
X81544600Y-68194200D01*
X81544600Y-66944200D01*
X81944600Y-66944200D01*
X81944600Y-68194200D01*
G36*
X81944600Y-68194200D02*
G01*
X81544600Y-68194200D01*
X81544600Y-66944200D01*
X81944600Y-66944200D01*
X81944600Y-68194200D01*
G37*
X82444600Y-68194200D02*
X82044600Y-68194200D01*
X82044600Y-66944200D01*
X82444600Y-66944200D01*
X82444600Y-68194200D01*
G36*
X82444600Y-68194200D02*
G01*
X82044600Y-68194200D01*
X82044600Y-66944200D01*
X82444600Y-66944200D01*
X82444600Y-68194200D01*
G37*
X83244600Y-68194200D02*
X82544600Y-68194200D01*
X82544600Y-66944200D01*
X83244600Y-66944200D01*
X83244600Y-68194200D01*
G36*
X83244600Y-68194200D02*
G01*
X82544600Y-68194200D01*
X82544600Y-66944200D01*
X83244600Y-66944200D01*
X83244600Y-68194200D01*
G37*
X84044600Y-68194200D02*
X83344600Y-68194200D01*
X83344600Y-66944200D01*
X84044600Y-66944200D01*
X84044600Y-68194200D01*
G36*
X84044600Y-68194200D02*
G01*
X83344600Y-68194200D01*
X83344600Y-66944200D01*
X84044600Y-66944200D01*
X84044600Y-68194200D01*
G37*
D11*
X81690000Y-132359400D03*
X78740000Y-132359400D03*
D12*
X78793000Y-127798286D03*
X80343000Y-127798286D03*
D13*
X89032000Y-144772620D03*
X89581175Y-143446795D03*
X89581175Y-146098445D03*
X90907000Y-142897620D03*
D14*
X90907000Y-144772620D03*
D13*
X90907000Y-146647620D03*
X92232825Y-143446795D03*
X92232825Y-146098445D03*
X92782000Y-144772620D03*
D15*
X90678000Y-105807727D03*
D16*
X93178000Y-105807727D03*
X95678000Y-105807727D03*
D17*
X76962000Y-89488500D03*
X81462000Y-89488500D03*
X76962000Y-80388500D03*
X81462000Y-80388500D03*
D15*
X90678000Y-86364181D03*
D16*
X93178000Y-86364181D03*
X95678000Y-86364181D03*
D18*
X73557000Y-125619000D03*
X73557000Y-126019000D03*
X73557000Y-126419000D03*
X73557000Y-126819000D03*
X73557000Y-127219000D03*
X73557000Y-127619000D03*
D19*
X74057000Y-128119000D03*
X74457000Y-128119000D03*
X74857000Y-128119000D03*
X75257000Y-128119000D03*
X75657000Y-128119000D03*
X76057000Y-128119000D03*
D18*
X76557000Y-127619000D03*
X76557000Y-127219000D03*
X76557000Y-126819000D03*
X76557000Y-126419000D03*
X76557000Y-126019000D03*
X76557000Y-125619000D03*
D19*
X76057000Y-125119000D03*
X75657000Y-125119000D03*
X75257000Y-125119000D03*
X74857000Y-125119000D03*
X74457000Y-125119000D03*
X74057000Y-125119000D03*
D20*
X78618000Y-125621143D03*
X80518000Y-125621143D03*
X78643400Y-139674600D03*
X80543400Y-139674600D03*
D21*
X67056000Y-63373000D03*
D15*
X88178000Y-138213636D03*
D16*
X90678000Y-138213636D03*
X93178000Y-138213636D03*
X95678000Y-138213636D03*
D22*
X67136000Y-125222000D03*
X68961000Y-125222000D03*
D23*
X67223500Y-132791200D03*
X68873500Y-132791200D03*
D15*
X90678000Y-99326545D03*
D16*
X93178000Y-99326545D03*
X95678000Y-99326545D03*
D13*
X89032000Y-68772620D03*
X89581175Y-67446795D03*
X89581175Y-70098445D03*
X90907000Y-66897620D03*
D14*
X90907000Y-68772620D03*
D13*
X90907000Y-70647620D03*
X92232825Y-67446795D03*
X92232825Y-70098445D03*
X92782000Y-68772620D03*
D24*
X84654600Y-73100200D03*
X84654600Y-71450200D03*
D15*
X90678000Y-112288909D03*
D16*
X93178000Y-112288909D03*
X95678000Y-112288909D03*
D25*
X82881000Y-159258000D03*
D26*
X89281000Y-159258000D03*
D21*
X57277000Y-120777000D03*
D27*
X54737000Y-120777000D03*
X57277000Y-118237000D03*
X54737000Y-118237000D03*
X57277000Y-115697000D03*
X54737000Y-115697000D03*
X57277000Y-113157000D03*
X54737000Y-113157000D03*
X57277000Y-110617000D03*
X54737000Y-110617000D03*
X57277000Y-108077000D03*
X54737000Y-108077000D03*
X57277000Y-105537000D03*
X54737000Y-105537000D03*
X57277000Y-102997000D03*
X54737000Y-102997000D03*
X57277000Y-100457000D03*
X54737000Y-100457000D03*
X57277000Y-97917000D03*
X54737000Y-97917000D03*
X57277000Y-95377000D03*
X54737000Y-95377000D03*
X57277000Y-92837000D03*
X54737000Y-92837000D03*
X57277000Y-90297000D03*
X54737000Y-90297000D03*
X57277000Y-87757000D03*
X54737000Y-87757000D03*
X57277000Y-85217000D03*
X54737000Y-85217000D03*
X57277000Y-82677000D03*
X54737000Y-82677000D03*
X57277000Y-80137000D03*
X54737000Y-80137000D03*
X57277000Y-77597000D03*
X54737000Y-77597000D03*
X57277000Y-75057000D03*
X54737000Y-75057000D03*
X57277000Y-72517000D03*
X54737000Y-72517000D03*
D15*
X90601800Y-62763400D03*
D16*
X93101800Y-62763400D03*
X95601800Y-62763400D03*
D28*
X70739000Y-153924000D03*
D29*
X69469000Y-153924000D03*
X70739000Y-152654000D03*
X69469000Y-152654000D03*
X70739000Y-151384000D03*
X69469000Y-151384000D03*
X70739000Y-150114000D03*
X69469000Y-150114000D03*
X70739000Y-148844000D03*
X69469000Y-148844000D03*
D30*
X80563800Y-134797800D03*
X78663800Y-134797800D03*
X69718000Y-92456000D03*
X67818000Y-92456000D03*
D28*
X76919667Y-153924000D03*
D29*
X75649667Y-153924000D03*
X76919667Y-152654000D03*
X75649667Y-152654000D03*
X76919667Y-151384000D03*
X75649667Y-151384000D03*
X76919667Y-150114000D03*
X75649667Y-150114000D03*
X76919667Y-148844000D03*
X75649667Y-148844000D03*
D31*
X68961000Y-130886200D03*
X67136000Y-130886200D03*
D15*
X90678000Y-118770091D03*
D16*
X93178000Y-118770091D03*
X95678000Y-118770091D03*
D32*
X85445000Y-113284000D03*
X85445000Y-112014000D03*
X85445000Y-110744000D03*
X85445000Y-109474000D03*
X85445000Y-108204000D03*
X85445000Y-106934000D03*
X85445000Y-105664000D03*
X85445000Y-104394000D03*
X85445000Y-103124000D03*
X85445000Y-101854000D03*
X85445000Y-100584000D03*
X85445000Y-99314000D03*
X85445000Y-98044000D03*
X85445000Y-96774000D03*
D33*
X83680000Y-95524000D03*
X82410000Y-95524000D03*
X81140000Y-95524000D03*
X79870000Y-95524000D03*
X78600000Y-95524000D03*
X77330000Y-95524000D03*
X76060000Y-95524000D03*
X74790000Y-95524000D03*
X73520000Y-95524000D03*
X72250000Y-95524000D03*
X70980000Y-95524000D03*
X69710000Y-95524000D03*
D32*
X67945000Y-96774000D03*
X67945000Y-98044000D03*
X67945000Y-99314000D03*
X67945000Y-100584000D03*
X67945000Y-101854000D03*
X67945000Y-103124000D03*
X67945000Y-104394000D03*
X67945000Y-105664000D03*
X67945000Y-106934000D03*
X67945000Y-108204000D03*
X67945000Y-109474000D03*
X67945000Y-110744000D03*
X67945000Y-112014000D03*
X67945000Y-113284000D03*
D34*
X79595000Y-106964000D03*
X79595000Y-105564000D03*
X79595000Y-104164000D03*
X78195000Y-106964000D03*
X78195000Y-105564000D03*
X78195000Y-104164000D03*
X76795000Y-106964000D03*
X76795000Y-105564000D03*
X76795000Y-104164000D03*
D15*
X88178000Y-125251272D03*
D16*
X90678000Y-125251272D03*
X93178000Y-125251272D03*
X95678000Y-125251272D03*
D35*
X83384600Y-66494200D03*
X77604600Y-66494200D03*
D36*
X84814600Y-66994200D03*
X76174600Y-66994200D03*
D37*
X84814600Y-62814200D03*
X76174600Y-62814200D03*
D38*
X95758000Y-151638000D03*
D39*
X95758000Y-149138000D03*
X95758000Y-146638000D03*
X95758000Y-144138000D03*
D17*
X68525000Y-89361500D03*
X73025000Y-89361500D03*
X68525000Y-80261500D03*
X73025000Y-80261500D03*
D22*
X67136000Y-127254000D03*
X68961000Y-127254000D03*
D40*
X74255000Y-132664200D03*
X72680000Y-132664200D03*
D20*
X78638400Y-137566400D03*
X80538400Y-137566400D03*
D41*
X69977000Y-161377000D03*
D42*
X69977000Y-158877000D03*
D22*
X67089000Y-123190000D03*
X68914000Y-123190000D03*
D43*
X67639400Y-134860000D03*
X67639400Y-137160000D03*
D44*
X73939400Y-137160000D03*
D43*
X67639400Y-139460000D03*
D20*
X78618000Y-129975429D03*
X80518000Y-129975429D03*
D28*
X83100333Y-153924000D03*
D29*
X81830333Y-153924000D03*
X83100333Y-152654000D03*
X81830333Y-152654000D03*
X83100333Y-151384000D03*
X81830333Y-151384000D03*
X83100333Y-150114000D03*
X81830333Y-150114000D03*
X83100333Y-148844000D03*
X81830333Y-148844000D03*
D30*
X80518000Y-123444000D03*
X78618000Y-123444000D03*
D45*
X69596000Y-76454000D03*
D46*
X69596000Y-70054000D03*
D28*
X89281000Y-153924000D03*
D29*
X88011000Y-153924000D03*
X89281000Y-152654000D03*
X88011000Y-152654000D03*
X89281000Y-151384000D03*
X88011000Y-151384000D03*
X89281000Y-150114000D03*
X88011000Y-150114000D03*
X89281000Y-148844000D03*
X88011000Y-148844000D03*
D15*
X90678000Y-79883000D03*
D16*
X93178000Y-79883000D03*
X95678000Y-79883000D03*
D47*
X74402950Y-162772850D03*
X74402950Y-157692850D03*
X76942950Y-162772850D03*
X76942950Y-160232850D03*
X76942950Y-157692850D03*
D13*
X53982000Y-67647000D03*
X54575109Y-66215109D03*
X54575109Y-69078891D03*
X56007000Y-65622000D03*
D48*
X56007000Y-67647000D03*
D13*
X56007000Y-69672000D03*
X57438891Y-66215109D03*
X57438891Y-69078891D03*
X58032000Y-67647000D03*
D15*
X88178000Y-131732454D03*
D16*
X90678000Y-131732454D03*
X93178000Y-131732454D03*
X95678000Y-131732454D03*
D15*
X90703400Y-73736200D03*
D16*
X93203400Y-73736200D03*
X95703400Y-73736200D03*
D13*
X53982000Y-125647000D03*
X54575109Y-124215109D03*
X54575109Y-127078891D03*
X56007000Y-123622000D03*
D48*
X56007000Y-125647000D03*
D13*
X56007000Y-127672000D03*
X57438891Y-124215109D03*
X57438891Y-127078891D03*
X58032000Y-125647000D03*
D21*
X63373000Y-63373000D03*
D13*
X73032000Y-144772620D03*
X73581175Y-143446795D03*
X73581175Y-146098445D03*
X74907000Y-142897620D03*
D14*
X74907000Y-144772620D03*
D13*
X74907000Y-146647620D03*
X76232825Y-143446795D03*
X76232825Y-146098445D03*
X76782000Y-144772620D03*
D21*
X70739000Y-63373000D03*
D49*
X96393000Y-158536000D03*
D42*
X96393000Y-161036000D03*
D50*
X82749600Y-71425800D03*
X82749600Y-73075800D03*
D15*
X90678000Y-92845363D03*
D16*
X93178000Y-92845363D03*
X95678000Y-92845363D03*
M02*
