G04 #@! TF.GenerationSoftware,KiCad,Pcbnew,9.0.0*
G04 #@! TF.CreationDate,2025-04-10T20:16:32-07:00*
G04 #@! TF.ProjectId,ESP32_S2_SOLO_N4 Kicad Reference Design,45535033-325f-4533-925f-534f4c4f5f4e,rev?*
G04 #@! TF.SameCoordinates,Original*
G04 #@! TF.FileFunction,Legend,Bot*
G04 #@! TF.FilePolarity,Positive*
%FSLAX46Y46*%
G04 Gerber Fmt 4.6, Leading zero omitted, Abs format (unit mm)*
G04 Created by KiCad (PCBNEW 9.0.0) date 2025-04-10 20:16:32*
%MOMM*%
%LPD*%
G01*
G04 APERTURE LIST*
G04 Aperture macros list*
%AMRoundRect*
0 Rectangle with rounded corners*
0 $1 Rounding radius*
0 $2 $3 $4 $5 $6 $7 $8 $9 X,Y pos of 4 corners*
0 Add a 4 corners polygon primitive as box body*
4,1,4,$2,$3,$4,$5,$6,$7,$8,$9,$2,$3,0*
0 Add four circle primitives for the rounded corners*
1,1,$1+$1,$2,$3*
1,1,$1+$1,$4,$5*
1,1,$1+$1,$6,$7*
1,1,$1+$1,$8,$9*
0 Add four rect primitives between the rounded corners*
20,1,$1+$1,$2,$3,$4,$5,0*
20,1,$1+$1,$4,$5,$6,$7,0*
20,1,$1+$1,$6,$7,$8,$9,0*
20,1,$1+$1,$8,$9,$2,$3,0*%
G04 Aperture macros list end*
%ADD10C,0.508000*%
%ADD11C,0.850000*%
%ADD12C,5.000000*%
%ADD13RoundRect,0.250000X-0.600000X-0.725000X0.600000X-0.725000X0.600000X0.725000X-0.600000X0.725000X0*%
%ADD14O,1.700000X1.950000*%
%ADD15R,1.700000X1.700000*%
%ADD16O,1.700000X1.700000*%
%ADD17R,1.000000X1.000000*%
%ADD18O,1.000000X1.000000*%
%ADD19C,0.650000*%
%ADD20O,1.000000X2.100000*%
%ADD21O,1.000000X1.800000*%
%ADD22RoundRect,0.250000X0.725000X-0.600000X0.725000X0.600000X-0.725000X0.600000X-0.725000X-0.600000X0*%
%ADD23O,1.950000X1.700000*%
%ADD24RoundRect,0.250000X0.750000X-0.600000X0.750000X0.600000X-0.750000X0.600000X-0.750000X-0.600000X0*%
%ADD25O,2.000000X1.700000*%
%ADD26C,1.117600*%
%ADD27C,5.400000*%
%ADD28RoundRect,0.250000X-0.750000X0.600000X-0.750000X-0.600000X0.750000X-0.600000X0.750000X0.600000X0*%
G04 APERTURE END LIST*
D10*
X74783950Y-164772850D02*
G75*
G02*
X74021950Y-164772850I-381000J0D01*
G01*
X74021950Y-164772850D02*
G75*
G02*
X74783950Y-164772850I381000J0D01*
G01*
%LPC*%
D11*
X89032000Y-144772620D03*
X89581175Y-143446795D03*
X89581175Y-146098445D03*
X90907000Y-142897620D03*
D12*
X90907000Y-144772620D03*
D11*
X90907000Y-146647620D03*
X92232825Y-143446795D03*
X92232825Y-146098445D03*
X92782000Y-144772620D03*
D13*
X90678000Y-105807727D03*
D14*
X93178000Y-105807727D03*
X95678000Y-105807727D03*
D13*
X90678000Y-86364181D03*
D14*
X93178000Y-86364181D03*
X95678000Y-86364181D03*
D15*
X67056000Y-63373000D03*
D13*
X88178000Y-138213636D03*
D14*
X90678000Y-138213636D03*
X93178000Y-138213636D03*
X95678000Y-138213636D03*
D13*
X90678000Y-99326545D03*
D14*
X93178000Y-99326545D03*
X95678000Y-99326545D03*
D11*
X89032000Y-68772620D03*
X89581175Y-67446795D03*
X89581175Y-70098445D03*
X90907000Y-66897620D03*
D12*
X90907000Y-68772620D03*
D11*
X90907000Y-70647620D03*
X92232825Y-67446795D03*
X92232825Y-70098445D03*
X92782000Y-68772620D03*
D13*
X90678000Y-112288909D03*
D14*
X93178000Y-112288909D03*
X95678000Y-112288909D03*
D15*
X57277000Y-120777000D03*
D16*
X54737000Y-120777000D03*
X57277000Y-118237000D03*
X54737000Y-118237000D03*
X57277000Y-115697000D03*
X54737000Y-115697000D03*
X57277000Y-113157000D03*
X54737000Y-113157000D03*
X57277000Y-110617000D03*
X54737000Y-110617000D03*
X57277000Y-108077000D03*
X54737000Y-108077000D03*
X57277000Y-105537000D03*
X54737000Y-105537000D03*
X57277000Y-102997000D03*
X54737000Y-102997000D03*
X57277000Y-100457000D03*
X54737000Y-100457000D03*
X57277000Y-97917000D03*
X54737000Y-97917000D03*
X57277000Y-95377000D03*
X54737000Y-95377000D03*
X57277000Y-92837000D03*
X54737000Y-92837000D03*
X57277000Y-90297000D03*
X54737000Y-90297000D03*
X57277000Y-87757000D03*
X54737000Y-87757000D03*
X57277000Y-85217000D03*
X54737000Y-85217000D03*
X57277000Y-82677000D03*
X54737000Y-82677000D03*
X57277000Y-80137000D03*
X54737000Y-80137000D03*
X57277000Y-77597000D03*
X54737000Y-77597000D03*
X57277000Y-75057000D03*
X54737000Y-75057000D03*
X57277000Y-72517000D03*
X54737000Y-72517000D03*
D13*
X90601800Y-62763400D03*
D14*
X93101800Y-62763400D03*
X95601800Y-62763400D03*
D17*
X70739000Y-153924000D03*
D18*
X69469000Y-153924000D03*
X70739000Y-152654000D03*
X69469000Y-152654000D03*
X70739000Y-151384000D03*
X69469000Y-151384000D03*
X70739000Y-150114000D03*
X69469000Y-150114000D03*
X70739000Y-148844000D03*
X69469000Y-148844000D03*
D17*
X76919667Y-153924000D03*
D18*
X75649667Y-153924000D03*
X76919667Y-152654000D03*
X75649667Y-152654000D03*
X76919667Y-151384000D03*
X75649667Y-151384000D03*
X76919667Y-150114000D03*
X75649667Y-150114000D03*
X76919667Y-148844000D03*
X75649667Y-148844000D03*
D13*
X90678000Y-118770091D03*
D14*
X93178000Y-118770091D03*
X95678000Y-118770091D03*
D13*
X88178000Y-125251272D03*
D14*
X90678000Y-125251272D03*
X93178000Y-125251272D03*
X95678000Y-125251272D03*
D19*
X83384600Y-66494200D03*
X77604600Y-66494200D03*
D20*
X84814600Y-66994200D03*
X76174600Y-66994200D03*
D21*
X84814600Y-62814200D03*
X76174600Y-62814200D03*
D22*
X95758000Y-151638000D03*
D23*
X95758000Y-149138000D03*
X95758000Y-146638000D03*
X95758000Y-144138000D03*
D24*
X69977000Y-161377000D03*
D25*
X69977000Y-158877000D03*
D17*
X83100333Y-153924000D03*
D18*
X81830333Y-153924000D03*
X83100333Y-152654000D03*
X81830333Y-152654000D03*
X83100333Y-151384000D03*
X81830333Y-151384000D03*
X83100333Y-150114000D03*
X81830333Y-150114000D03*
X83100333Y-148844000D03*
X81830333Y-148844000D03*
D17*
X89281000Y-153924000D03*
D18*
X88011000Y-153924000D03*
X89281000Y-152654000D03*
X88011000Y-152654000D03*
X89281000Y-151384000D03*
X88011000Y-151384000D03*
X89281000Y-150114000D03*
X88011000Y-150114000D03*
X89281000Y-148844000D03*
X88011000Y-148844000D03*
D13*
X90678000Y-79883000D03*
D14*
X93178000Y-79883000D03*
X95678000Y-79883000D03*
D26*
X74402950Y-162772850D03*
X74402950Y-157692850D03*
X76942950Y-162772850D03*
X76942950Y-160232850D03*
X76942950Y-157692850D03*
D11*
X53982000Y-67647000D03*
X54575109Y-66215109D03*
X54575109Y-69078891D03*
X56007000Y-65622000D03*
D27*
X56007000Y-67647000D03*
D11*
X56007000Y-69672000D03*
X57438891Y-66215109D03*
X57438891Y-69078891D03*
X58032000Y-67647000D03*
D13*
X88178000Y-131732454D03*
D14*
X90678000Y-131732454D03*
X93178000Y-131732454D03*
X95678000Y-131732454D03*
D13*
X90703400Y-73736200D03*
D14*
X93203400Y-73736200D03*
X95703400Y-73736200D03*
D11*
X53982000Y-125647000D03*
X54575109Y-124215109D03*
X54575109Y-127078891D03*
X56007000Y-123622000D03*
D27*
X56007000Y-125647000D03*
D11*
X56007000Y-127672000D03*
X57438891Y-124215109D03*
X57438891Y-127078891D03*
X58032000Y-125647000D03*
D15*
X63373000Y-63373000D03*
D11*
X73032000Y-144772620D03*
X73581175Y-143446795D03*
X73581175Y-146098445D03*
X74907000Y-142897620D03*
D12*
X74907000Y-144772620D03*
D11*
X74907000Y-146647620D03*
X76232825Y-143446795D03*
X76232825Y-146098445D03*
X76782000Y-144772620D03*
D15*
X70739000Y-63373000D03*
D28*
X96393000Y-158536000D03*
D25*
X96393000Y-161036000D03*
D13*
X90678000Y-92845363D03*
D14*
X93178000Y-92845363D03*
X95678000Y-92845363D03*
%LPD*%
M02*
